<svg xmlns="http://www.w3.org/2000/svg" viewBox="0 0 512 512">
  <defs>
    <linearGradient id="bg" x1="0%" x2="100%" y1="0%" y2="100%">
      <stop offset="0%" stop-color="#319A50" />
      <stop offset="100%" stop-color="#78B382" />
    </linearGradient>
  </defs>
  <rect width="512" height="512" rx="120" fill="url(#bg)" />
  <circle cx="256" cy="194" r="102" fill="rgba(255,255,255,0.18)" />
  <path
    d="M256 330c-54-39-96-79-96-128 0-33 24-58 56-58 20 0 32 9 40 22 8-13 20-22 40-22 32 0 56 25 56 58 0 49-42 89-96 128Z"
    fill="#fff"
  />
  <path
    d="M172 386c27-20 54-31 84-31s57 11 84 31"
    fill="none"
    stroke="#fff"
    stroke-linecap="round"
    stroke-width="24"
  />
</svg>

