<svg width="212" height="249" viewBox="0 0 212 249" fill="none" xmlns="http://www.w3.org/2000/svg">
<g clip-path="url(#clip0_1209_2964)">
<path d="M48.4094 76.6074C48.8223 72.8581 48.2473 71.389 48.0538 67.7633C48.0732 66.4087 48.5616 64.9938 48.5635 63.6564C48.5742 56.5366 47.6859 49.5083 47.7432 42.3819C47.7627 39.9753 47.2213 37.203 47.1051 34.7604C47.0045 32.6483 46.2468 30.2324 46.07 28.0969C45.6688 22.6489 44.6156 17.3446 44.0193 11.9357C43.9372 11.1919 43.9332 9.5317 44.4245 8.98828C46.3385 8.99636 49.6599 10.7799 51.5843 11.5518C56.7774 13.635 62.0298 12.4536 67.4772 12.671C71.6955 12.8394 76.0881 13.1605 80.3138 12.5967C84.1132 12.0898 87.739 10.064 91.6709 10.0353C96.1935 10.0421 102.335 10.0527 106.766 10.5702C110.008 10.9489 112.859 12.1802 116.688 12.3214C120.935 12.4779 125.872 10.4921 129.376 10.4158C132.678 10.3438 139.478 12.198 143.057 12.5494C146.781 12.9151 150.171 13.0016 153.858 13.6795C155.1 15.1947 154.385 28.9513 154.674 31.444C155.023 34.4586 156.383 36.8651 156.581 40.3542C156.816 44.4892 156.118 49.1441 157.007 53.0063L157.047 53.1756C157.914 55.9358 158.026 56.59 157.982 59.4777L157.969 59.6081C157.599 63.2616 154.4 68.5634 156.294 72.9453C157.367 73.5086 158.459 73.9595 159.516 74.5233C160.482 75.0665 161.424 76.0462 162.36 76.6012C165.937 78.7202 169.31 81.3023 172.515 83.8949C177.099 87.6025 177.866 92.6325 178.855 98.0849C179.014 98.961 179.35 100.24 179.848 101C183.303 102.237 189.614 99.6194 192.404 99.5252C192.356 99.8202 192.255 99.9192 192.085 100.161C192.289 100.526 192.274 100.661 192.659 100.755C194.159 101.117 201.712 100.46 202.455 101.042L202.31 101.296C200.361 101.704 196.178 101.289 193.977 101.681C188.132 102.721 187.158 103.921 181.121 103.411C184.483 110.431 187.6 116.002 186.802 123.965C186.708 124.902 186.845 128.342 187.609 128.849C189.828 129.023 189.895 128.325 191.825 127.844C195.305 126.976 201.056 127.273 204.466 128.295C198.693 129.788 194.534 128.29 189.213 130.811C188.422 131.186 187.492 131.442 186.911 132.172C186.431 134.335 187.505 137.892 187.727 140.147C187.923 142.137 187.843 144.151 188.171 146.11C188.475 147.562 189.99 149.721 190.485 151.126C191.663 154.467 191.554 158.02 193.708 160.98C194.484 162.046 195.705 164.244 196.472 165.161C199.182 168.4 201.261 170.064 202.112 174.435C202.332 175.564 202.812 176.431 202.851 177.838C202.374 178.327 202.079 178.305 201.391 178.254C199.168 178.09 196.911 179.41 194.717 179.873C192.006 180.444 189.255 181.106 186.517 181.534C182.9 182.098 179.112 182.013 175.488 182.555C171.864 183.097 168.531 184.651 164.86 184.864C161.065 185.085 159.063 183.961 154.989 183.675C153.973 184.552 153.57 194.43 152.969 196.934C150.18 197.319 147.396 197.572 145.267 199.55C145.801 204.423 146.156 205.557 148.698 209.788C149.957 211.885 149.791 217.606 152.222 219.419C153.95 220.777 157.72 221.839 159.928 222.454C161.924 225.547 161.334 226.334 162.105 229.653C162.847 232.841 163.92 234.011 163.707 237.53L163.701 237.626L163.636 239.054C161.422 240.164 160.53 238.818 161.214 242.172L160.878 242.514C159.592 242.89 158.104 242.797 156.732 242.868C155.465 242.226 153.398 241.162 152.278 240.371C148.842 237.94 147.03 238.882 143.27 239.472C141.293 238.514 137.451 238.292 136.82 237.58C137.752 237.114 140.346 237.522 141.302 237.071L141.075 236.711C140.338 236.553 139.984 236.524 139.232 236.477C138.662 235.648 139.374 235.864 139.063 234.696C137.778 233.541 136.376 232.862 135.05 233.901C134.275 234.508 130.222 233.669 129.851 232.76C131.076 231.994 132.922 233.307 133.68 232.976C130.436 225.831 117.989 227.854 115.422 224.856L114.557 224.802C113.969 224.359 113.509 224.415 112.769 224.39L112.45 224.026C113.184 223.846 116.025 223.529 116.398 223.179C115.849 221.591 110.128 222.144 110.504 220.009C111.527 219.33 114.825 220.307 115.893 220.856C115.559 216.527 115.978 216.633 117.677 212.73C118.448 210.958 117.305 209.471 119.354 207.32C119.934 207.54 119.619 208.374 120.354 209.322C122.461 210.02 123.965 205.384 124.75 203.742C122.553 203.758 121.889 203.674 119.858 203.034C121.513 202.839 123.896 202.877 125.615 202.856C123.63 201.484 122.877 201.88 120.604 200.09L120.751 199.934C122.46 200.306 124.079 200.839 125.642 199.482C125.862 198.326 123.109 197.826 122.065 196.987C121.303 196.375 120.528 195.093 120.229 194.772C117.683 192.03 119.165 185.89 118.805 184.964C115.813 184.768 112.962 184.461 109.961 184.636C105.533 184.894 101.743 186.881 97.4282 187.546C95.9745 187.77 94.5356 188.056 93.0967 188.359C93.4669 194.131 89.3317 193.181 84.8699 193.633C85.8252 195.129 87.5609 198.627 88.7166 199.93C88.8867 200.121 89.8722 199.888 90.5788 200.209C90.19 201.739 88.1715 202.118 88.5921 203.671L88.9457 203.723C90.1577 203.389 92.3537 200.74 93.3025 199.755C93.0042 200.426 92.5154 201.594 92.1504 202.178C91.5233 203.182 90.4612 203.58 90.2484 204.789C90.5964 205.599 91.862 206.448 92.6386 207.115C93.5986 205.928 94.6275 204.655 96.1531 204.273C95.9674 205.093 95.8051 205.281 96.6363 205.826C95.5573 207.003 94.9534 207.877 94.277 209.329C95.1525 208.618 98.1259 205.922 98.9522 205.898C98.5091 206.739 97.0382 208.805 96.4127 209.569C97.1274 210.289 97.9119 211.36 98.741 211.682C100.005 211.486 100.139 210.44 101.141 209.631C101.698 209.179 102.514 208.782 103.157 208.461C102.364 209.509 100.395 211.552 100.402 212.589L100.608 212.78C101.597 212.446 104.271 209.349 105.235 209.275C104.172 210.72 101.646 213.581 100.093 214.422C99.8389 216.678 99.7809 218.947 99.4634 221.154C97.439 222.665 96.5929 223.436 94.2511 224.446C91.5483 225.614 82.9278 230.402 81.881 232.81L81.9044 233.249C82.4899 233.241 83.1116 232.822 83.659 232.533L83.7888 232.775C83.3524 234.191 82.6859 234.918 82.3508 236.11C79.7672 236.348 79.0306 237.212 76.8839 237.601C72.6311 238.375 68.1008 238.054 63.9801 239.737C60.6452 241.069 57.5203 242.671 54.0494 243.7C52.8619 244.052 51.5443 245.05 50.2878 245.255V245.062C51.0483 244.439 52.0107 243.762 52.653 243.062C50.6162 243.516 46.2269 244 44.1999 243.897L44.3469 243.87L44.3864 243.551C45.4195 243.288 47.343 242.901 48.0159 242.112L48.0366 241.729C46.6787 240.739 41.7786 242.783 40.3936 242.267L40.0872 241.979C40.9159 241.058 48.0921 241.004 48.1916 240.009C47.6606 239.634 46.7838 239.224 46.3977 238.884C44.0423 236.812 42.0395 235.456 38.8044 235.207C38.4929 235.183 38.4144 234.394 38.3628 234.121L38.5142 233.99L38.5982 234.042C40.4017 235.133 41.4971 234.845 43.2076 235.512C44.1663 235.887 46.5306 237.833 47.7886 237.862C46.7534 236.725 45.34 235.735 44.2373 234.648C43.6262 234.046 43.185 234.123 42.3749 234.137L42.0107 233.75C43.2107 233.323 42.7084 232.978 43.7692 231.93L44.0208 232.266C44.039 232.528 44.0566 233.224 44.3158 233.33C46.5517 234.241 46.8099 233.938 48.4711 235.704C48.6778 235.197 49.4024 233.539 49.4667 233.108C49.9893 229.609 45.0441 229.609 43.115 226.885C43.6813 225.997 44.6996 226.92 45.6062 226.922C49.4204 226.937 52.3882 225.146 55.7317 223.686C54.6697 223.183 53.1873 222.461 52.059 222.162C51.1131 221.912 50.7547 222.02 49.6986 221.624L49.752 221.268C51.4126 220.688 54.6055 222.417 55.1156 222.33L55.2502 221.844C55.093 221.173 55.0775 221.073 54.5574 220.632C53.5109 220.73 51.8468 220.069 51.3 219.192L51.6236 219.063C52.5552 219.198 54.1635 219.283 54.8407 220.02C55.2264 220.438 55.6748 220.525 56.1586 220.357L56.2634 219.879C55.6508 219.287 55.4139 219.713 54.5711 219.183L54.644 218.891C56.406 218.2 58.9987 221.587 60.7928 219.943C60.668 218.544 58.3556 216.715 58.1554 215.736L58.7063 215.047C58.8517 214.856 59.2053 214.622 59.4161 214.467C60.0231 214.529 59.8121 214.583 60.3454 214.357C60.2071 213.436 58.2923 212.525 58.0441 211.326C60.7439 211.003 62.8795 218.107 64.2266 210.602C63.2074 209.832 60.4932 208.879 60.1618 207.857C61.2804 206.561 61.3489 207.353 62.8151 207.666C62.6799 206.768 60.0403 204.843 59.1867 204.166C60.6961 204.689 60.9963 204.715 62.3455 205.661C63.159 206.231 64.1519 206.964 65.1171 206.765L65.222 206.276C64.6985 204.337 64.8189 204.304 63.1428 203.206L63.785 202.702C64.9626 201.587 61.5435 198.783 60.7464 197.91C62.1429 198.406 64.3699 199.755 65.6185 199.921C65.7195 199.125 62.2896 196.939 62.1164 196.496C61.3497 194.537 60.8214 190.598 60.4908 188.518C56.8294 188.325 49.6239 187.377 46.4507 188.393C42.183 189.759 42.2128 190.942 36.8306 190.736C31.0559 190.516 28.7183 189.934 23.5812 187.123C18.0822 187.832 13.4466 188.47 7.9947 186.842C7.38262 186.214 7.52131 186.51 7.37446 185.73C7.91893 183.701 10.9944 182.622 12.3073 181.577C13.2545 180.824 16.104 177.293 16.5677 176.279C18.4621 172.137 15.6161 169.58 19.2592 165.471C19.4015 164.135 19.2654 161.902 19.8327 160.759C20.8418 158.725 22.2515 157.091 23.3373 154.977C23.0626 153.315 22.5815 151.839 22.4703 150.112C22.3368 148.037 27.5281 144.687 25.6569 143.054C22.5204 144.366 23.079 146.42 18.8039 145.119C18.2288 145.389 17.1405 145.893 16.5326 145.961C11.9391 146.472 9.04203 146.271 5.17188 143.811C7.88121 143.991 16.0083 144.27 18.4026 143.832C18.9995 142.855 18.3794 142.675 17.9014 141.556C17.3695 140.455 18.3078 137.706 18.1238 136.712C17.0464 130.67 18.5141 124.868 19.7927 118.966C20.4396 115.98 21.3697 114.926 21.7422 111.363C19.81 111.411 11.5208 111.737 10.2571 110.695L10.25 110.3C11.1323 109.913 12.6936 110.306 13.5026 110.161C15.7621 109.759 19.131 109.647 21.1946 108.872L21.2902 108.835C22.9616 106.23 23.9377 104.671 24.5634 101.53C24.7789 100.448 25.2083 98.3691 25.5346 97.3522C26.0993 95.5926 27.6154 93.5275 28.5508 91.8955C29.0228 91.0717 29.3762 89.0755 29.6762 88.5602C30.9745 86.3315 33.2521 83.3672 35.2331 81.689C38.2343 79.1467 41.9598 77.3393 45.7938 76.511C46.2035 76.4224 47.9227 76.5669 48.4094 76.6074ZM60.1318 70.5905C56.1193 72.7022 56.3203 73.7931 53.2788 76.9455C52.6875 77.5583 50.7294 78.5922 50.0191 79.3527C48.9059 80.5443 48.1405 81.9478 46.8155 82.8884C46.0839 83.3455 45.3205 83.7243 44.9121 84.4763L45.1448 84.5649C45.3547 84.4235 45.6634 84.2355 45.8391 84.0699C47.7656 83.9496 48.2488 84.0717 50.2073 84.409C49.2022 84.5429 47.5037 84.6353 46.6747 84.7879C42.9968 85.4529 39.682 87.4223 37.3395 90.3346L37.3815 90.6427C38.0067 90.7042 39.1417 90.6237 39.4402 90.8926C38.6879 92.7795 35.9319 92.064 35.0977 94.1386L35.1545 94.5401C37.0339 93.8099 38.7262 92.6787 40.8398 92.2561L40.9721 92.366C39.2796 93.784 36.0159 95.0726 34.3845 96.7185C33.9876 97.1189 32.9881 98.902 32.5558 99.495C31.8279 100.493 30.7735 101.53 30.2398 102.58C31.4294 102.236 33.9353 99.1358 35.1201 98.3366C37.0983 97.0025 41.612 94.2921 44.015 95.4961C45.0779 96.0286 45.2019 97.6925 47.4517 97.1273C47.4045 95.963 42.7598 93.4542 41.56 93.1006C42.8101 93.0225 44.8785 92.723 45.9292 92.8884L46.3441 92.6339L46.407 92.3354C45.4216 91.4601 45.4131 92.5209 44.6044 91.5715C44.6409 90.126 47.9751 90.6141 49.1239 90.6657C51.5692 87.0236 58.4204 84.5668 60.1028 82.072C65.0291 74.7661 72.1481 76.8076 68.8724 67.8341C69.8403 67.8401 71.2081 67.7161 71.8199 68.4229C72.57 69.2893 73.5225 71.0795 74.7749 71.2354C75.6608 71.0275 75.3376 71.1994 76.0044 70.5893C76.1736 69.9009 76.1897 70.1959 75.828 69.4437C78.0578 69.3854 78.4087 78.4407 78.5248 80.122C80.9779 83.067 81.899 85.769 84.7561 89.0413C84.8165 90.4266 84.7405 92.271 84.9376 93.5515C85.1277 94.7862 86.4342 96.2787 87.1883 97.3172C89.2559 100.165 88.4569 105.02 87.9917 108.262C87.769 109.814 87.452 112.064 86.6485 113.4C86.3732 113.858 86.098 114.266 86.3071 114.618C89.9846 115.841 93.4226 116.992 96.9073 118.697C101.935 121.157 108.13 120.272 112.941 117.7C114.24 117.005 116.642 117.048 116.913 115.19C116.942 114.989 117.081 114.808 117.197 114.648C117.89 114.203 119.379 114.578 120.676 114.313L120.765 114.083C119.984 113.644 118.161 113.63 117.273 113.761C114.961 114.487 111.158 113.958 108.812 113.518C110.348 113.053 118.244 109.943 119.192 109.293C119.928 107.177 117.231 99.6065 116.347 97.3371C116.7 95.6419 116.945 93.7832 117.181 92.0669C115.668 93.0996 114.694 93.9084 112.94 94.4384L112.782 94.2736C113.399 92.8385 119.597 87.6991 121.069 86.5654C121.26 85.8354 121.707 84.0471 122.003 83.4136C123.314 80.5808 125.36 77.8883 125.445 74.6338C125.482 73.2227 124.149 70.311 125.052 68.9854L125.696 68.9338C126.157 69.593 125.996 69.3949 126.964 69.623C127.527 69.9959 127.882 70.7329 128.089 70.8731C129.335 71.717 131.142 70.9424 132.494 71.4002C135.132 72.418 137.896 74.6769 140.084 76.4843C141.803 77.9049 143.338 81.7153 145.045 83.2709C145.84 83.9956 148.488 81.4642 149.068 81.0675L147.444 84.0127C148.387 83.8773 150.396 83.7074 151.252 84.1664C150.471 85.7106 148.722 87.6604 149.75 89.5328C150.276 89.8556 150.347 89.9017 150.96 89.8895C152.161 89.3115 152.564 88.5641 153.706 87.9942C156.781 88.4927 161.167 91.1804 163.44 93.4312C163.819 93.8064 164.21 95.0788 164.995 95.4214L165.391 95.3502C165.846 94.1109 161.738 90.1978 160.845 88.8805C159.239 86.5106 158.054 83.8724 156.137 81.7783C154.87 80.269 149.619 78.0747 149.633 78.1005C147.235 73.7405 144.723 72.6954 140.671 70.116C138.863 68.9653 139.015 66.6484 136.413 65.723L136.192 65.6451C135.084 63.892 133.487 62.4258 131.948 61.0472C131.29 61.9022 129.992 63.3914 128.967 63.7651L128.633 63.6974L128.632 63.3674C129.337 62.6746 130.608 61.7043 130.853 60.8936C130.543 60.0321 127.499 58.8462 126.419 58.2674C125.542 60.43 123.272 62.2039 121.277 63.3355C122.521 61.0099 124.229 59.1698 126.136 57.3602C123.485 56.1084 122.599 55.641 119.787 55.1172C119.757 55.9159 119.826 56.7937 119.337 57.3993C117.925 58.1746 116.574 54.647 115.369 54.3874C114.746 54.2537 113.099 54.3696 112.624 54.8485L112.501 55.2563C114.031 56.5712 118.178 54.0222 116.681 60.8691C116.436 61.9883 116.585 62.5355 115.765 63.5034C112.793 64.5644 109.905 64.6866 107.47 65.3884C101.416 67.1331 99.7789 66.5302 94.1141 64.2133C93.0996 63.7982 89.2375 64.3448 88.0394 63.5425C86.2241 62.6693 87.3504 60.666 85.3651 60.817C85.1103 59.9035 85.3223 58.468 84.4418 58.0432C82.7035 57.2045 81.2539 59.1036 80.3067 60.1632C79.3612 59.4141 78.146 58.5835 76.8986 59.1704C76.5558 61.1658 83.2099 63.504 83.658 64.4858L83.4727 64.7079C82.617 64.4077 82.3118 63.9829 81.5504 63.6752C78.9555 62.627 78.5913 63.4415 76.5698 61.4178C75.6162 61.2944 74.4219 61.035 73.5443 61.3364C72.4325 62.2699 73.437 62.5496 72.8449 63.7044L72.3447 63.9131C71.8717 63.6272 71.8247 63.5148 71.4794 63.0657C68.8857 62.4138 62.97 66.4221 61.2847 68.4357C60.7123 69.1199 60.4566 69.7624 60.1318 70.5905ZM116.289 52.9734L118.202 54.1052C121.725 53.6477 123.567 54.1857 126.761 55.8931C127.678 56.383 127.174 57.6647 129.178 58.1959L129.406 57.8411C128.926 56.0321 128.013 55.572 127.371 54.0669L128 53.6334C128.965 54.9342 130.599 57.4713 131.629 58.5131C134.111 61.0219 137.573 61.9521 139.297 65.2139L139.516 65.0897C139.849 63.6115 139.458 60.6242 139.996 59.9619C141.402 61.6312 139.502 65.5621 141.975 66.5056C143.011 66.0275 141.711 60.0108 142.113 57.7515C142.674 59.0891 142.774 59.916 143.019 61.3393C142.91 61.9442 142.751 62.4084 142.966 62.9626C143.605 62.2399 143.199 62.1217 143.59 61.4672C145.361 63.01 143.685 66.4666 145.582 67.8384C146.06 67.772 147.485 66.5621 148.239 66.1497L148.341 66.3639L147.665 68.1703C149.895 69.7427 152.55 70.4027 154.368 72.0608C153.904 67.4248 157.071 62.544 156.581 60.1901L155.647 59.9917C155.914 59.4853 156.184 59.1286 156.12 58.5827C155.222 58.2833 153.63 61.2817 150.992 62.2707C151.862 61.2848 154.01 59.4052 154.231 58.075C154.318 57.5544 153.935 57.0304 154.311 56.224C154.605 56.3594 154.878 56.5024 155.164 56.6513C155.633 56.4271 156.102 55.5283 156.407 55.0431C154.718 50.66 155.879 45.7826 155.675 41.2738C155.596 39.5497 153.571 38.7979 153.455 36.6556C153.294 33.1468 153.152 29.4944 153.156 25.9883C153.161 21.3785 154.579 18.6438 151.254 14.6787C148.848 14.5843 144.584 14.1333 142.255 13.6036C136.564 12.309 131.13 10.9983 125.253 12.2603C122.535 12.8438 119.924 13.9095 117.124 13.7842C113.821 13.65 110.89 12.0559 107.547 12.2115C107 12.2354 106.732 12.1874 106.413 12.5255C106.836 13.5374 109.814 15.3034 111.073 16.4355C113.825 19.078 117.126 21.5732 117.576 25.7784C117.661 26.5653 117.086 26.9566 117.378 27.6986C118.013 27.7644 118.527 27.4038 119.126 27.1003C119.536 27.9948 118.504 28.2269 119.238 28.9921L119.515 29.5047L119.341 29.7668C118.712 29.6774 118.498 29.5252 118.043 29.7844C117.815 30.8092 118.011 31.8783 117.682 32.8479C117.297 33.9863 116.607 34.7592 116.328 35.9786C116.086 37.0374 116.641 38.4089 116.07 39.1383C115.017 39.7029 112.181 38.7427 112.548 37.1756C113.532 37.0678 114.155 38.1054 114.556 37.6707C114.254 37.0717 114.187 36.8363 113.58 36.509C112.043 36.3651 111.264 37.8972 111.686 39.1683C112.616 39.9076 113.361 39.0799 114.094 39.8555C114.109 40.5142 114.106 40.5981 113.811 41.1846L113.435 41.3759C112.967 41.1902 112.679 41.0745 112.191 40.9401L111.972 41.19C112.054 41.9614 112.377 42.9007 112.194 43.4321C111.269 43.5106 111.05 43.2994 110.611 43.8038L110.635 44.2015C111.073 44.5184 111.229 44.6149 111.717 44.847L111.921 45.2296C111.521 46.2954 110.414 45.542 110.989 46.7438C111.258 47.3049 111.529 47.4984 111.459 48.1458C110.771 48.6644 109.789 47.7984 109.558 49.7532C109.425 50.8786 109.494 52.7966 110.477 53.5009C112.286 53.5895 114.433 53.063 116.289 52.9734ZM48.8794 37.7326C48.8376 40.3035 49.6924 60.7963 50.2972 61.7097L51.4965 61.1457C52.1416 61.4345 52.0778 62.1552 52.0702 62.7885L51.8368 63.1562C50.7199 63.3603 50.5419 62.8457 50.0094 63.3717C49.4624 65.9424 49.1572 68.8345 49.7222 71.4205C49.9535 72.4784 50.029 76.0035 50.4338 76.7108L50.7203 76.5919L51.152 75.3479C51.5814 75.3243 51.6691 75.3373 52.0965 75.4036C53.8608 74.3057 52.5101 74.0189 55.3553 73.0831C53.9974 71.847 53.7026 71.5302 52.9049 69.8019C55.6684 70.8725 55.5758 71.5582 58.1281 70.4748C59.0883 69.3181 59.6175 68.4804 60.3777 67.1739C59.072 66.324 58.5488 65.9184 57.4526 64.7336C58.6989 65.3015 59.9386 65.8834 61.1721 66.4789C62.6035 65.5429 64.3716 64.4197 65.6616 63.3448C64.1478 61.2772 63.908 60.9047 62.7671 58.633C63.826 59.1789 66.157 60.4418 67.2215 60.7346L67.3507 60.5087C66.9131 59.5663 65.5616 58.1231 65.6061 57.7276C66.5648 57.862 68.3478 59.8058 69.1291 60.5513C70.4974 59.6572 71.4332 59.4895 72.6739 58.6638C72.9706 58.4665 72.9518 57.3421 73.4582 57.1167L73.9016 58.1438L74.2536 58.2692C75.7069 57.2065 75.7305 54.4814 76.6425 53.5734C77.0181 54.5808 76.5918 56.8562 76.5249 57.9823C78.141 57.1689 80.7036 56.1679 82.3334 55.4851C83.0216 55.1967 83.4182 51.0908 84.6923 51.0167C84.844 52.2072 83.5522 54.6363 83.884 55.2046C84.6372 54.9041 85.2198 54.0702 85.8012 53.4435L85.8484 53.1485C86.1564 52.0819 86.2158 51.8811 86.869 50.9975L87.3365 50.7662L87.5882 50.9441C87.1222 52.0235 86.614 53.062 86.214 54.1636C87.1659 53.8071 90.0097 53.0986 90.3823 52.8628L90.5184 52.4527C90.1492 52.0235 90.0146 51.9115 89.5658 51.5639L89.5668 51.2099C90.4117 50.512 90.3219 50.8 90.5111 49.8865L90.3254 49.3741L89.9616 49.4048C89.6207 49.8424 89.3505 50.147 88.9799 50.5476L88.7358 50.3996C88.6207 49.2404 90.5991 48.5112 88.8553 46.5707C88.5278 46.2064 89.5002 45.7625 89.3225 44.8932L88.6542 44.5211L88.5762 44.0977C89.9674 43.1266 89.8269 42.2918 88.858 40.9051C87.564 39.0528 85.1037 39.0035 85.2055 36.2359C85.1678 35.102 83.8602 32.9969 83.5656 31.9643C82.9497 29.8066 80.9628 24.7594 80.7624 22.9002C81.9284 24.2004 82.3601 24.9395 83.0859 26.5891C83.4524 25.6274 83.7281 24.8409 84.2422 23.9381C83.5623 22.7526 82.8187 21.5166 82.2294 20.2894L82.5009 20.1361C83.8466 20.8649 84.4681 22.0398 85.849 21.7765C86.7411 20.9966 86.7527 18.7937 88.3218 17.068C89.9173 15.3129 92.358 14.0973 94.4093 12.9599C94.7389 12.7772 97.1363 12.8917 98.0758 12.3583C97.9998 11.869 98.0177 12.023 97.4742 11.6172C96.7734 11.663 96.3862 12.1798 96.3546 12.1764C94.9424 12.0289 94.5033 11.7646 93.0021 11.8204C88.4603 11.9891 84.2507 13.5855 79.8979 14.3342C75.438 15.1013 70.2407 14.3664 65.6968 14.4196C63.5014 14.3702 59.5929 14.3844 57.5559 14.128C57.9592 14.7855 58.7446 16.2309 59.3026 16.6264C59.5546 16.5097 59.7461 16.4118 60.0162 16.3352C60.1276 16.8395 59.8098 17.5858 59.6417 18.1221L59.4343 18.2668C58.3554 17.5653 55.7988 15.4148 55.0628 15.0472C52.329 13.6818 51.6915 13.7338 49.0717 11.8364C49.2005 12.2607 49.4918 13.2359 49.7458 13.5998C50.3274 14.4332 53.8575 16.7876 53.5335 17.631C52.5813 17.6751 49.7872 16.8695 48.8074 16.5529L48.1438 14.5967L48.9345 11.8873C47.5163 11.6055 46.319 11.3605 44.8657 11.331C48.1078 17.1475 46.5795 25.9618 48.1531 32.4632C48.7479 34.9213 51.864 38.0143 51.8942 39.7178C51.4133 40.3418 51.6524 40.2103 51.0135 40.3395C49.7814 39.7985 49.4568 38.8981 48.8794 37.7326ZM37.0896 115.226C40.659 118.125 44.9079 127.531 47.5774 129.275C50.4228 128.441 45.4758 124.527 45.0491 123.941C43.8121 122.243 39.6309 115.46 39.987 113.754C40.822 113.455 41.3228 114.046 41.971 114.564C43.2368 116.932 43.1254 118.613 44.2152 120.954C45.2139 122.224 46.4611 123.203 47.591 124.338C48.2148 124.964 47.9979 125.502 48.8802 125.958C50.1845 125.173 49.8224 123.083 49.0697 122.011C47.0503 119.138 43.7585 116.375 43.716 112.572L43.9127 112.153C45.1005 112.393 46.3215 115.638 46.8871 116.69C47.9983 118.757 49.1684 120.768 50.6992 122.558C51.4557 122.245 52.459 121.943 52.918 121.306C52.9457 119.833 49.7055 115.729 49.1191 114.032C48.4989 112.237 46.8521 107.685 48.2088 106.141L48.4862 106.249C49.1943 108.197 48.4159 110.124 50.9015 111.322C52.8674 112.27 53.5308 110.779 54.6904 109.645C54.2363 109.138 53.7022 108.392 53.0596 108.316C49.7951 109.798 50.2359 106.293 47.9004 104.633C46.2741 103.478 46.7145 104.572 45.8903 104.043C44.9286 103.424 45.1731 99.1784 45.1669 98.2209C43.5953 97.2692 43.0668 97.0578 41.1954 97.152C35.3826 97.6174 37.0308 102.811 36.9138 106.762C36.83 109.601 36.3958 112.115 36.5389 115.074C36.647 117.313 38.9961 125.635 41.0714 126.181C42.7538 124.837 38.0353 116.785 37.0896 115.226ZM48.5434 77.7736C47.6432 77.8173 45.9892 77.9115 45.1855 78.0776C42.3465 78.6637 36.4546 81.8101 34.6719 84.0194C32.6084 86.5764 30.146 91.5226 28.7375 94.6163C28.1697 95.8634 26.9784 96.9249 26.5293 98.4445L26.4857 98.5892C25.9439 100.429 26.1786 102.708 25.7818 104.393C25.3112 106.392 24.2843 107.641 23.9292 109.921C24.5623 110.72 24.5271 110.93 25.3499 111.276C26.4701 111.137 26.2445 110.512 27.1923 110.474C27.6757 110.873 27.6732 110.739 27.7782 111.222C27.1397 111.765 26.6432 111.757 26.4322 112.228C27.2204 113.123 28.2436 112.404 29.3334 112.114L29.4152 112.353C27.7417 114.264 24.9313 114.143 23.0672 116.236C21.2283 118.122 21.0194 120.645 20.4131 123.09C19.0474 128.598 19.7881 133.94 19.63 139.495C19.5806 141.231 19.7464 142.065 20.062 143.765C23.3694 143.121 23.8106 142.668 25.405 139.623C27.4061 138.598 29.0448 137.77 30.9443 136.548C33.951 134.74 35.9958 135.809 39.2731 135.624C41.8238 135.481 44.7344 134.358 47.2805 134.815C47.913 134.242 47.8117 133.859 47.9204 133.052C48.1912 131.041 46.087 130.929 45.1373 129.577C44.4481 128.596 44.3926 127.015 43.5719 126.209L43.3082 126.224C42.8879 127.212 43.0132 127.643 41.9621 127.926C41.7058 127.995 40.5344 128.447 40.3485 128.268C37.5902 125.619 35.9882 119.602 34.9907 116.042C34.1707 113.115 35.2 109.502 35.4391 106.66C34.4137 106.925 33.0096 107.336 31.9881 107.448L31.6705 107.223C32.2711 106.093 32.9003 106.599 33.0318 105.558C32.3575 104.894 31.9879 105.381 31.5987 105.121C31.2027 104.857 31.6176 103.974 30.636 103.92L30.4267 104.136C30.5932 104.855 30.7824 105.084 30.5538 105.67C30.0222 105.719 30.1176 105.795 29.7545 105.569C29.888 105.109 30.0025 104.716 30.1031 104.245C29.4661 103.443 29.2441 103.441 29.1663 102.587C31.1215 98.3832 32.8695 94.1473 35.3758 90.2185C37.0826 87.543 38.4837 88.6159 39.4783 84.7701C40.7379 83.7262 48.6003 78.3672 48.8618 78.0086L48.7618 77.7432L48.5434 77.7736ZM151.189 120.744C153.273 115.61 154.426 113.665 154.54 107.578C155.557 106.827 156.75 105.644 158.051 105.865L158.218 106.122C157.56 106.863 156.673 107.11 155.676 108.112C155.504 110.711 154.899 113.794 154.22 116.326C153.798 117.903 153.125 118.586 152.846 120.541C152.187 121.261 152.077 121.128 152.071 121.875L152.375 122.185C152.766 122.15 153.286 121.975 153.476 121.651C154.556 119.802 156.363 116.719 156.958 114.748C157.88 112.557 158.369 110.503 158.987 108.246C159.111 107.793 159.821 107.193 160.32 107.035C161.32 108.221 155.294 120.929 155.398 122.281C156.299 122.502 157.276 121.387 157.941 120.791C158.589 116.687 160.272 117.055 160.99 113.158C161.24 111.802 160.807 109.065 161.811 108.099C162.454 107.861 162.705 107.907 163.37 107.94L163.598 108.168C163.012 109.502 162.997 110.131 162.743 111.521C162.316 113.863 160.981 116.008 160.181 118.18C167.019 111.786 164.634 106.811 161.68 99.326C160.893 97.3296 161.446 95.6574 159.95 92.7238C157.983 91.5899 155.366 89.7311 153.187 89.8755C149.332 92.2095 155.712 97.1199 151.813 99.6196C150.312 100.582 148.835 101.149 148.446 103.182C148.198 105.02 146.728 105.18 146.449 106.109C146.512 106.821 146.386 106.674 146.791 107.035C148.537 106.819 150.178 103.779 151.502 103.841C152.724 106.875 150.16 114.28 150.227 117.674C150.238 118.258 150.953 120.112 151.189 120.744ZM141.674 68.125C141.886 68.839 142.142 69.0833 142.939 69.4516C146.223 70.9685 148.486 73.8179 150.576 76.7606C154.884 78.6709 157.49 80.1947 159.633 84.6572C161.409 88.3534 163.673 90.0872 165.906 93.2799C166.305 93.8502 166.282 95.3999 166.902 96.1307C167.437 96.3257 167.81 96.4448 168.307 96.7414L168.451 97.1681C167.94 97.1468 168.058 97.1574 167.648 97.0112C166.775 96.6996 165.114 97.4611 164.291 97.8673C163.741 98.1385 163.665 98.1861 163.395 98.649C163.713 100.077 164.781 101.805 164.949 102.64C165.724 106.881 166.76 112.101 164.281 115.966C162.666 118.485 160.788 119.968 158.548 121.778C156.324 123.575 157.768 124.429 154.1 124.068C153.448 124.405 152.651 124.693 152.407 125.347C152.334 126.297 152.922 127.314 153.052 128.821C158.18 121.613 169.543 121.989 177.377 122.719C177.056 127.914 177.938 129.524 182.114 132.617C182.16 134.522 181.998 136.197 182.022 137.907C183.93 139.753 185.562 141.253 185.694 143.915C185.718 144.407 185.951 145.673 186.173 146.113L186.464 146.067C187.401 143.923 185.422 138.045 185.493 135.812C185.639 131.221 186.015 129.864 184.585 125.444C185.68 121.864 185.962 120.051 185.102 116.319C184.415 113.339 182.744 111.544 181.497 108.832C180.75 107.21 180.314 105.101 179.531 103.407C178.26 102.482 173.642 99.2502 173.389 98.0861C174.566 97.6306 174.49 98.7132 175.867 98.7881L176.193 98.5815C175.954 98.2261 175.183 97.646 175.122 97.4569C174.524 95.6088 172.075 95.3398 171.291 94.2846C172.099 93.0434 175.732 96.7077 176.768 96.5982C177.144 94.0047 175.446 89.5806 173.748 87.5621C173.212 86.924 172.595 86.1433 172.11 85.4856C170.801 83.7086 169.3 82.943 167.589 81.6737C164.889 79.5839 162.465 77.7474 159.351 76.2754C158.179 75.7213 155.897 75.2232 154.996 74.5994C151.576 72.2306 145.822 68.715 141.674 68.125ZM77.1491 129.033C76.7021 129.283 76.1307 129.051 75.6104 129.329C75.0368 129.635 74.9241 129.599 74.4527 129.311C74.4397 128.401 75.2927 128.918 75.5763 128.074C75.1289 127.613 74.6745 127.575 74.0374 127.416C73.6861 128.856 74.0022 131.132 73.8635 132.442C73.731 133.693 72.1031 137.217 73.2385 138.136C75.6001 140.049 75.5367 142.026 76.8531 144.59C78.0613 146.943 80.3749 149.328 81.1278 151.988C82.4835 156.743 83.4456 161.458 83.4257 166.424C83.413 169.586 82.3588 172.974 84.1878 175.739C85.679 177.993 86.1608 180.605 88.2714 182.413C88.0164 181.624 87.4698 179.988 87.3665 179.235C87.0562 176.973 87.5321 174.561 86.4376 172.441C85.9655 171.526 85.0838 170.32 84.4764 169.407C84.6101 167.688 84.9169 164.618 84.6583 163.02C84.0791 159.441 82.8779 155.656 82.0427 152.094C81.7827 150.985 81.776 148.737 81.3667 148.014C80.6407 147.734 80.5602 147.902 80.1533 148.598C79.9817 148.119 80.0616 147.88 80.132 147.38C79.5627 146.301 78.5021 145.785 78.1532 144.865C77.1626 142.252 77.7849 139.051 76.9696 136.383C76.6531 135.348 74.8268 133.796 74.8202 132.79L75.0792 132.694L76.1191 133.274L76.3994 133.144C76.452 132.504 76.2997 132.348 75.9607 131.825C75.508 131.519 75.4181 131.496 74.8894 131.35L74.7393 131.089C76.7431 130.035 77.4551 134.171 78.5284 134.727C79.2132 134.086 78.7805 131.926 79.2726 131.121C81.1688 132.086 78.7277 136.214 80.221 137.786C81.1692 138.054 81.8839 137.663 82.7563 137.238C83.1377 135.91 83.5395 134.932 83.4557 133.536C83.2207 129.628 80.9947 127.719 77.1491 129.033ZM86.6357 169.299C88.012 171.903 88.3346 172.342 88.4164 175.295C90.0066 174.861 97.9976 172.654 99.0758 173.119C97.975 175.108 91.6721 174.698 89.3944 176.401C89.1575 176.588 88.9872 176.699 88.8106 176.949C89.4008 179.098 92.4963 178.745 94.4832 179.024C92.5249 179.442 91.7154 179.486 89.7623 179.496C90.5608 182.462 90.7488 183.805 92.7717 186.133C100.2 186.312 104.649 182.313 111.859 182.456C113.381 182.486 117.694 183.109 118.604 182.425L118.632 182.064L118.26 181.893L117.491 182.204L117.146 182.052L116.722 180.863C116.045 180.454 113.8 180.318 112.829 180.199C115.247 179.611 115.679 180.158 117.549 179.84C117.104 178.49 113.305 178.972 112.763 177.905C113.492 177.5 117.19 178.593 119.209 178.434L119.314 178.425C119.385 177.605 119.462 176.786 119.546 175.968C119.91 175.521 120.206 175.278 120.223 174.723C119.895 174.024 118.647 173.288 117.921 172.694C117.746 172.1 117.715 172.306 117.902 171.799C118.901 172.226 119.391 172.914 120.543 172.521L120.604 172.188C119.731 171.415 117.217 170.731 117.036 169.975C117.474 169.758 120.233 170.209 121.123 170.272L121.249 170.057C120.42 168.993 117.979 168.615 117.838 167.344L118.11 167.035C118.759 167.073 121.609 169.044 122.366 169.533C122.077 167.598 122.135 166.762 120.923 165.24C119.668 164.577 118.602 162.457 119.883 161.573C120.37 161.921 120.699 163.911 121.269 164.816C121.302 161.35 122.055 157.228 118.63 155.031C117.768 154.477 116.469 152.457 116.952 151.551C117.859 151.966 118.245 152.954 119.105 153.415C119.565 152.504 119.285 149.553 119.217 148.47C118.385 148.051 117.682 147.781 117.138 147.017L117.579 146.556C118.417 146.735 118.24 146.828 118.922 146.542L118.987 146.309C118.21 145.53 116.794 145.099 116.15 143.682L116.268 143.361C117.43 143.476 117.523 145.037 119.193 144.382C119.851 143.652 119.456 142.318 119.859 141.75C119.894 141.701 120.357 141.356 120.669 140.879C120.664 140.631 120.718 140.31 120.48 140.181C116.278 137.914 108.81 137.446 104.062 136.463C102.895 136.221 99.4592 136.305 98.5336 136.325C95.1633 136.4 91.9525 136.748 88.6857 137.332C88.0176 137.451 86.2162 138.415 85.3972 138.601C83.4114 139.052 81.2533 139.668 79.7517 141.108C79.3853 141.459 79.2167 141.88 79.232 142.4C79.2834 144.133 82.1328 145.813 82.6773 147.062C83.4652 148.87 83.4505 151.88 83.8656 153.829C84.1453 155.144 84.7784 156.579 85.1689 157.879C86.5742 162.554 87.2702 164.561 86.6357 169.299ZM21.4536 160.664C21.3794 162.145 21.2848 163.625 21.1697 165.103C16.7898 168.789 19.8021 174.803 19.8257 174.779C17.2127 177.464 14.8978 182.006 11.6555 184.032C10.9448 184.495 9.71012 184.599 9.18108 185.263C9.59951 186.247 15.2683 186.932 16.4236 186.909C16.7967 186.389 16.8194 186.283 16.989 185.662C17.8508 185.017 22.2382 184.928 23.264 185.19C28.0605 186.415 32.1128 186.516 36.3898 183.715C37.4916 182.994 39.6001 182.413 40.1065 181.163L39.9619 180.193C41.8503 180.757 51.318 182.799 52.1379 183.815L52.0145 184.084C50.8783 184.753 48.4289 184.969 47.1211 184.692C46.5315 184.568 45.3514 185.807 44.8127 186.133C42.1699 187.732 39.8998 187.557 37.2132 189.447C43.3297 189.81 42.7322 187.531 48.0987 186.091C50.1599 185.538 56.9211 187.199 58.3699 186.305L58.2904 185.958C56.4033 184.692 54.0891 185.847 53.289 184.156C53.466 183.405 53.3008 183.665 53.9156 183.184C55.1139 182.813 56.9617 184.528 57.8366 184.086C57.6434 182.215 53.4738 181.946 52.3863 180.832C53.3442 180.219 55.4112 181.699 56.5271 181.323C56.436 180.828 55.7624 180.454 55.3328 179.712C55.6522 179.57 55.8015 179.487 56.1006 179.306C55.8325 177.726 51.4306 173.112 49.8021 171.926L49.9883 171.82C51.7348 172.233 52.0582 172.558 53.58 173.422C53.8274 173.937 53.8769 173.994 54.2964 174.382L54.7471 174.361C54.833 173.777 54.8436 173.998 54.4067 173.372C53.9206 172.549 52.965 171.23 52.3964 170.357C52.9465 170.258 54.4777 172.331 55.4384 172.573C55.4365 172.484 55.4346 172.395 55.4328 172.305C53.0784 167.554 54.2024 162.738 49.2995 159.405C49.0235 158.762 48.6674 158.118 48.7026 157.433C49.2659 157.573 50.4046 159.49 52.036 160.472L52.1325 160.529C51.352 159.087 50.4363 158.177 49.8017 156.602L49.658 156.398C49.1777 155.765 49.0245 155.479 48.6568 154.769L48.9461 154.762L48.5235 154.4L48.5976 154.305C49.5046 154.79 49.3345 155.039 50.0108 155.778L50.0829 155.856L50.5011 155.665C50.7642 154.886 47.2635 145.327 46.7739 144.046C46.6428 143.703 45.406 142.838 44.9932 142.301L45.4371 141.62C45.5594 141.485 45.7033 141.325 45.869 141.142C45.8764 139.44 46.0081 138.423 46.5685 136.834C43.3896 136.764 40.5203 137.001 37.3695 137.171C34.2545 137.339 31.644 136.86 29.1584 139.313C26.8397 141.43 27.7632 143.113 26.867 145.717C25.6911 148.386 24.7698 148.446 23.8323 151.577C24.847 151.344 25.6445 151.108 26.6939 151.172L26.9641 151.372C26.6861 152.34 23.6601 157.78 23.1048 159.247C22.9788 159.581 21.8314 160.365 21.4536 160.664ZM120.464 131.119C121.296 129.106 121.764 128.33 123.639 127.129C122.651 128.449 121.648 129.638 121.203 131.247C121.868 131.153 123.837 128.715 125.447 128.425L125.781 128.667C125.872 129.98 122.401 131.853 121.29 132.81C124.106 139.162 120.404 142.05 120.457 145.751C120.483 147.594 122.05 160.876 122.506 162.478C122.555 164.034 122.616 164.788 122.884 166.319C124.122 170.591 121.882 174.572 120.687 179.055C121.817 180.61 121.833 180.966 122.206 182.816C123.523 182.379 127.328 180.811 128.486 180.168C128.599 178.612 127.747 172.929 127.738 170.494C127.711 163.649 127.799 156.779 127.833 149.932C127.845 147.555 128.516 144.819 128.668 142.38C128.805 140.166 128.611 137.814 128.693 135.722C128.851 131.725 129.584 131.655 128.458 127.758C127.72 127.284 125.887 126.477 125.005 126.067C121.536 127.939 121.605 127.028 117.889 127.879C117.565 127.953 115.849 129.787 114.371 129.966C113.003 130.131 111.326 129.455 110.314 129.725C108.203 130.288 106.136 131.534 103.997 132.036C103.483 132.563 103.613 132.286 103.575 133.128C104.03 133.597 103.792 133.48 104.487 133.54C104.957 133.245 105.023 133.185 105.385 132.765L105.691 132.774L105.951 134.043C107.031 132.856 107.099 131.982 108.616 131.657L108.757 131.895C108.32 132.97 107.271 133.968 107.273 134.743L107.507 134.823C107.786 134.613 108.079 134.399 108.353 134.184C109.144 133.29 110.459 131.62 111.434 131.098L111.637 131.341C111.603 132.198 111.019 133.147 110.616 133.935C111.534 133.237 112.3 132.396 113.303 132.338C113.617 132.541 113.702 132.548 114.077 132.537C115.391 131.243 116.805 132.147 119.197 129.382L119.609 129.569C119.802 130.289 119.848 130.435 120.35 130.994L120.464 131.119ZM167.543 183.291C168.878 183.085 169.739 182.618 171.072 182.226C171.24 181.695 171.115 181.429 170.979 180.884L171.231 180.732C171.644 180.85 174.287 181.608 174.519 181.556C181.14 180.059 188.168 181.357 194.535 178.502C195.88 177.898 200.115 177.072 200.603 176.171C199.766 175.316 195.981 175.479 194.831 175.65C187.014 176.479 178.787 177.129 171.336 179.875L170.892 180.505C170.156 180.623 169.056 180.698 168.547 181.158C168.545 181.493 168.539 181.828 168.529 182.162C167.459 182.521 161.764 181.541 160.341 182.462L160.386 182.69C161.744 183.291 165.876 183.252 167.543 183.291ZM113.246 30.8223L113.669 30.9144C114.348 29.5822 112.469 27.4965 113.775 26.6264L114.128 26.745C114.88 27.5607 114.987 28.1197 115.274 29.1948L115.767 29.3923L116.058 28.9493C116.13 27.9185 116.268 26.02 115.936 24.954C114.556 20.9235 110.891 17.2188 107.508 14.7655C106.42 13.9768 104.457 14.8051 103.742 13.183C103.563 12.7753 102.9 12.5429 102.43 12.5076C101.966 12.7495 101.965 12.7827 101.717 13.2672C102.334 14.6929 104.037 14.5167 105.275 15.504C104.764 15.7202 104.635 15.7569 104.234 16.1343L104.236 16.6384C105.515 18.7773 110.022 19.5411 110.442 20.2089L110.546 20.1251L110.769 20.2613C109.554 20.1408 108.164 19.4745 107.218 20.2433C107.338 20.8666 107.224 20.631 107.849 21.1347C107.375 22.264 108.147 23.8726 108.97 24.6333L109.423 24.7258C109.503 24.1668 108.593 22.6093 108.391 21.179C112.655 22.9418 110.813 27.5793 113.246 30.8223ZM150.951 194.883C150.956 193.173 150.949 192.381 150.675 190.706C148.933 189.446 148.571 188.042 146.866 187.631C146.265 192.14 150.006 191.954 147.051 195.61L147.262 195.785C148.179 195.658 148.412 195.583 149.286 195.262C149.999 194.986 150.203 194.974 150.951 194.883ZM83.9745 184.829C82.0599 184.36 78.2029 183.475 76.2142 183.511C70.6521 183.942 66.6149 186.215 64.1918 191.344C67.3785 188.291 68.1176 187.218 72.7215 187.146C75.1049 186.945 77.511 187.139 79.8405 187.819C80.7539 188.086 82.7158 189.634 83.2868 189.627C83.4917 188.015 83.683 186.43 83.9745 184.829ZM150.208 187.938C150.78 188.698 151.495 189.801 152.285 190.257L152.611 190.164C152.739 189.283 151.537 187.521 151.045 186.818C147.58 181.866 138.776 179.851 133.009 180.642C131.976 181.595 132.891 181.533 131.98 182.11C131.149 181.947 130.562 181.608 129.899 181.742C129.57 182.161 129.538 182.176 129.5 182.688C130.492 184.084 134.266 182.324 135.719 182.4C139.779 182.612 147.373 185.113 150.208 187.938ZM153.915 129.287C153.146 132.388 152.014 132.883 155.268 134.397C156.054 136.006 154.078 136.66 154.075 138.317C153.98 140.013 154.407 141.938 154.357 143.598C154.241 147.478 154.908 152.047 154.69 155.834L154.874 155.969C155.779 155.405 156.047 153.864 157.081 153.812C156.837 154.708 156.723 155.694 156.41 156.52C155.682 158.436 154.347 160.7 153.859 162.648L153.99 162.858C155.439 162.342 155.588 161.654 157.108 161.008L157.302 160.927C157.133 161.282 154.528 163.872 154.07 164.095L153.854 164.842C156.158 164.71 157.241 162.311 158.615 162.76L158.511 163.249C157.012 163.992 156.152 164.963 154.761 165.635C154.478 165.684 154.133 165.676 154.056 165.88C153.59 167.111 153.844 169.497 153.688 170.856C154.926 170.007 155.378 169.722 156.375 168.596C156.575 170.188 154.088 171.18 153.693 172.169C154.118 172.575 154.455 172.601 155.019 172.729C156.095 170.915 163.258 168.126 164.763 168.85C164.436 169.336 159.128 170.485 158.083 171.169C157.631 171.465 155.664 172.71 155.283 172.874C154.964 174.096 157.885 174.705 158.808 174.921L158.785 175.214C158.143 175.534 158.05 175.522 157.351 175.413C156.49 174.834 155.518 174.399 154.838 173.685C154.407 174.223 154.491 173.968 154.508 174.64C155.05 175.597 156.255 175.426 156.698 176.085C156.052 177.67 153.029 179.84 155.179 181.537C156.529 181.81 159.77 180.611 161.227 180.189C164.272 179.705 169.056 180.146 171.058 179.094C171.772 178.661 173.101 178.596 174.017 178.294C178.807 176.878 184.145 175.65 189.133 175.165C192.324 174.855 194.504 174.895 197.835 174.311L198.138 174.38C198.451 174.371 198.857 174.319 199.175 174.288C201.089 172.921 199.028 169.953 197.961 168.589C195.725 165.728 193.095 163.267 191.546 159.917C190.043 156.668 190.241 152.948 188.212 149.958C186.844 147.913 183.964 148.194 182.951 146.263C183.223 145.591 183.866 146.307 184.616 145.634C185.133 141.528 181.266 140.729 179.97 138.059C179.67 137.439 180.771 134.513 180.191 133.365C179.09 131.185 173.655 129.923 172.909 128.503C172.969 126.848 175.326 126.777 175.818 125.339C176.097 124.523 174.743 123.878 174.053 123.928C170.892 124.157 167.165 123.715 164.081 124.074C161.193 124.41 156.055 127.341 153.915 129.287ZM84.6637 26.757C85.4504 26.3837 87.0593 25.4082 87.6748 25.4173C88.4205 25.9461 88.1476 25.9171 88.9368 25.8688C90.1167 25.1285 90.43 24.4513 91.5947 23.7644L91.8158 23.282L91.6013 23.0412C90.9217 23.0758 90.7415 23.1747 90.1351 23.4255C90.0207 23.148 90.4196 22.1348 90.5883 21.8955C91.8218 20.1477 95.6883 18.774 94.1294 16.0535C94.5234 15.8746 94.6031 15.8694 95.0339 15.7937C95.9827 15.0218 96.2873 14.6424 97.4831 14.5467C93.5783 13.1623 91.8533 16.3533 88.9199 18.3553C88.2257 20.3469 88.1218 22.1597 87.0427 23.8314C86.3425 24.9165 85.3819 25.6152 84.6637 26.757ZM78.2534 182.332C78.8952 182.146 81.5388 181.372 82.0934 181.691C82.7224 182.053 82.4768 182.332 83.5749 182.47C83.8221 182.06 83.7076 182.029 83.5998 181.452C82.6406 180.344 79.0604 180.318 77.3607 180.16C72.7277 179.854 67.6648 182.264 64.0444 185.03C62.6685 186.081 60.8083 188.684 62.2507 190.375C63.1027 190.11 66.3265 184.433 70.7916 183.056C73.9173 182.092 76.4477 182.677 78.2534 182.332ZM117.762 215.231C116.968 217.641 117.171 218.831 117.365 221.349C119.297 221.825 127.24 226.055 127.432 226.009C127.475 225.709 127.506 225.556 127.51 225.247C127.583 224.696 127.647 224.641 128.027 224.227C129.135 224.908 129.477 225.465 130.406 226.202C129.808 224.585 129.427 223.713 129.269 222.007L129.399 221.767C130.707 223.328 130.815 225.237 131.911 226.483L132.141 226.471C132.141 224.748 130.265 221.049 130.849 219.57C131.337 219.214 131.528 218.935 132.037 218.924C132.259 219.79 131.412 220.471 131.747 221.094C133.078 223.566 134.599 227.634 136.04 229.903C137.415 232.073 141.513 234.607 143.581 236.247C145.23 237.162 147.033 236.673 148.809 237.11C149.791 237.619 153.22 238.427 153.953 238.777C156.443 239.965 162.578 235.907 161.619 233.781C160.48 231.253 160.614 226.516 159.853 224.289C152.899 220.485 149.515 222.421 144.564 214.111C146.108 214.684 146.898 215.074 148.357 215.85C148.151 211.73 147.825 209.476 144.429 206.308C144.199 204.72 143.867 202.791 143.838 201.219C142.09 199.377 141.135 197.805 139.652 195.778L139.886 195.461C141.571 195.797 142.689 199.25 143.922 198.629C144.058 196.711 145.924 193.624 145.509 192.255C145.096 191.929 144.978 191.962 144.428 191.907C143.967 190.953 144.274 190.897 143.285 190.378C142.742 190.093 142.109 189.748 141.816 189.218C142.607 189.425 143.369 189.761 144.038 189.472C143.787 186.759 135.76 186.787 133.698 187.078C131.726 188.719 130.479 189.838 128.234 191.111C127.802 191.862 127.144 192.879 126.956 193.693L127.043 193.961C127.734 193.584 127.983 193.1 128.544 192.689C129.452 192.024 131.483 191.014 132.556 190.751L132.736 190.839C132.476 191.382 128.299 195.501 127.702 195.878L126.913 198.822C127.461 198.176 128.352 196.89 129.026 196.661C129.319 196.927 129.379 196.971 129.595 197.299C129.948 196.699 129.528 196.534 129.622 196.378C130.496 194.917 132.91 192.91 134.421 192.48L134.535 192.661C132.614 195.607 131.617 193.332 129.967 198.371C129.059 198.959 127.421 199.868 127.137 200.908L127.332 201.356C128.463 201.684 131.983 197.407 133.668 197.378L133.916 197.601C133.765 197.981 131.277 199.617 130.185 200.736C128.2 202.769 126.474 205.408 124.961 207.964C124.768 208.289 117.793 215.208 117.762 215.231ZM73.9886 127.183C75.1395 127.13 75.7287 127.22 76.8508 127.365C79.8316 127.297 81.0034 127.379 83.8418 128.105C86.409 128.763 88.1317 131.081 89.7658 130.746C89.7701 129.666 88.2634 129.307 88.766 128.144L89.1969 127.98C89.785 128.459 89.9066 128.703 90.0606 129.528C90.3995 131.343 93.6911 131.094 95.2772 131.113L95.7726 131.096L96.2804 131.407C96.9492 131.42 96.6854 131.471 97.3545 131.014C96.7958 128.405 96.3817 128.308 95.7608 126.342L95.9548 126.075C97.6328 126.873 97.2175 128.899 98.5493 129.44L99.0447 129.364C99.1081 130.105 99.046 130.737 99.5215 131.172L100.175 131.142C101.279 130.294 100.427 129.237 99.7766 128.348C99.8176 127.827 99.854 127.646 99.9873 127.14C99.2046 126.101 97.1131 126.541 97.3827 124.301L97.7943 124.154C98.9953 124.532 98.9197 125.239 99.8099 125.687C101.616 126.595 102.029 126.354 103.479 127.909C104.649 126.868 107.886 123.717 107.992 122.229L107.647 122.227C107.06 122.645 106.996 122.82 106.7 123.469L106.615 123.656C105.824 123.906 105.235 124.328 104.499 124.555C103.236 124.946 103.332 123.402 102.199 122.661L101.844 122.79C101.894 124.073 103.078 124.41 102.781 125.696C102.18 126.019 102.415 125.994 101.842 125.917C101.696 125.587 101.546 125.259 101.391 124.933C99.0828 124.611 92.0396 116.26 87.3866 116.039C84.7532 115.525 83.8031 117.776 81.8259 118.758C78.3172 120.5 73.3242 120.551 69.4554 120.945C68.9062 121.001 68.419 120.193 67.5114 120.115C66.6429 120.691 66.6572 120.496 66.2814 121.317L66.4721 121.538C67.0323 121.247 66.9095 121.246 67.2851 120.636C69.2683 122.818 71.8648 121.521 73.2764 123.725C71.9319 123.356 71.0419 122.943 69.5533 122.622C64.9641 121.132 64.9318 123.238 59.0786 120.061C58.6097 120.325 56.9696 121.147 56.8066 121.519C57.8832 122.363 60.0999 121.57 60.5825 122.263C55.888 122.807 55.8572 123.341 51.4284 124.416C50.9309 125.077 49.8373 126.348 49.634 127.042C48.9705 129.307 49.4423 131.66 49.1688 134.058C48.8736 136.647 47.9923 138.864 47.4832 141.258C48.2167 142.645 49.5887 144.953 50.0073 146.385C52.6105 155.294 54.0289 164.484 57.0762 173.295C57.8223 175.451 57.6072 177.208 58.6759 179.703L60.2742 180.592C60.5647 181.785 61.1479 184.483 61.5371 185.525C62.6052 185.157 64.8161 182.647 65.9342 181.921C72.2568 177.817 77.0746 178.152 83.8789 179.791C83.5075 177.34 83.0905 176.514 81.9075 174.314C82.0742 170.657 82.7708 166.782 82.1518 163.166C81.4899 159.3 80.5827 154.919 79.0519 151.305C78.0056 149.108 76.7268 147.033 75.5693 144.891C74.5823 143.065 74.1726 140.907 72.9375 139.242C72.6023 138.791 72.3267 138.715 71.8139 138.638C71.3129 138.564 71.4148 137.446 71.403 137.036C71.3485 135.134 73.5592 130.328 72.4797 128.741L71.534 128.424L71.4916 128.16C72.0199 127.6 73.2364 127.472 73.9886 127.183ZM89.5795 134.888C89.9559 134.192 89.8621 134.053 90.4519 133.857C90.8291 134.192 90.9051 134.31 91.1912 134.728C91.8135 134.597 91.9788 133.948 91.9371 133.37C91.0169 131.215 85.8523 131.205 83.9795 129.92C83.3559 129.491 83.6898 129.075 82.757 128.497C82.541 130.738 83.6934 130.979 84.4836 132.689C84.8848 133.558 84.0308 133.79 84.8685 135.266C84.447 135.513 83.9437 135.723 83.7549 136.135L83.9418 136.504C85.1206 136.69 88.3166 136.131 89.3898 135.525C89.6273 135.101 89.5931 135.313 89.5795 134.888ZM125.5 187.106L123.149 188.362C121.856 190.581 119.832 193.872 122.911 195.599C123.595 195.725 124.204 195.931 124.808 195.624C126.005 194.148 126.89 189.199 126.116 187.374C125.757 187.11 125.887 187.128 125.5 187.106ZM34.0034 188.727C35.587 188.242 37.1608 187.589 38.6678 186.899C41.5132 185.597 44.5148 184.896 47.5293 184.089C46.1689 183.826 43.2351 183.352 41.9035 183.708C39.2009 183.837 35.5663 185.798 32.9786 186.757C31.7082 187.228 30.2037 186.921 29.4456 187.418L29.4375 187.746C30.5809 188.222 32.7024 188.497 34.0034 188.727ZM136.478 185.069C138.894 185.447 141.222 185.219 143.357 186.234C144.916 186.975 144.661 187.983 145.794 187.885L146 187.599C145.704 186.715 144.531 185.733 143.658 185.497C141.431 184.893 137.444 183.563 135.204 183.867C132.813 184.392 125.068 185.426 127.905 189.322C128.299 189.333 134.393 183.921 136.478 185.069ZM81.8396 228.91C82.392 228.98 82.2023 229.034 82.6503 228.8L83.1168 228.953C86.6659 226.937 89.8768 224.696 93.7052 223.146C96.8123 221.889 97.7899 217.867 97.9243 214.846C97.3494 214.07 96.6279 213.134 96.1349 212.339C94.0772 209.018 90.3171 208.008 87.1814 206.02C85.4395 204.915 81.564 199.261 81.9746 197.36C82.8421 198.113 83.6497 199.177 84.5674 199.581L84.9227 199.501C86.151 196.122 78.5698 193.488 77.2816 191.063L77.3893 190.823C78.847 190.732 82.198 193.01 84.1956 193.661C83.236 192.57 82.2856 191.338 81.0641 190.645C77.4209 188.58 69.3834 186.932 67.0081 191.394C65.0413 195.088 68.065 202.318 67.9476 205.831C67.8851 207.703 64.0554 213.707 63.5712 215.896C63.295 216.606 63.0041 218.312 62.86 219.074C63.8136 218.43 65.133 217.423 66.1986 217.14C65.9779 219.473 53.7486 225.634 51.5636 227.438C50.7456 228.11 51.0174 231.471 50.9199 232.473C50.3425 235.545 50.3446 237.28 50.7636 240.396C51.8882 240.578 55.2705 241.313 56.1818 241.104C60.0419 240.213 62.9269 238.288 67.0897 237.342C69.9525 236.692 73.9378 236.59 76.8106 235.855C77.1071 235.779 77.5601 234.735 77.7205 234.386C78.3014 233.868 79.6366 231.518 80.2448 230.754C80.7821 230.077 81.2676 229.556 81.8396 228.91ZM122.431 183.729C121.474 185.062 119.064 188.067 120.135 189.844C120.583 189.838 120.447 189.831 120.884 189.437C121.712 187.769 121.496 188.348 122.427 187.295C123.619 185.948 128.94 184.754 128.516 183.293C127.734 182.754 127.748 182.832 127.398 181.802L127.024 181.729L126.718 182.694C125.941 183.028 124.295 182.99 122.431 183.729ZM129.801 114.734C133.29 116.939 137.666 116.035 141.594 116.457C142.073 116.509 142.64 116.573 143.082 116.386C142.604 116.061 142.12 115.744 141.63 115.437L141.71 115.244C142.812 115.11 143.651 115.988 144.767 116.154C145.831 116.311 147.511 115.309 148.217 116.254C147.471 117.031 144.364 116.734 143.203 116.705C145.291 117.477 146.71 118.473 148.683 119.502L148.966 119.297C149.101 118.447 148.641 118.493 148.752 117.833C149.414 113.915 150.387 110.128 150.819 106.169C150.039 106.792 147.751 108.741 147.061 108.978C146.064 108.696 144.646 108.33 144.049 107.436C143.956 105.863 145.182 105.722 146.076 104.465C146.703 103.712 147.4 101.256 148.042 100.634C151.63 97.1549 152.729 97.6578 150.288 92.6619C149.338 92.1155 148.29 91.1487 147.192 90.5048C145.226 89.308 143.184 88.2287 141.206 87.0522C140.369 86.5538 139.499 86.1392 139.256 85.1624C140.149 84.4742 141.211 85.04 142.139 85.2541C143.531 85.575 143.101 86.5872 144.251 86.6971L144.359 86.3841C143.327 81.5348 139.86 78.5709 136.165 75.7147C135.055 74.857 134.308 73.8931 132.953 72.8902C130.442 73.467 130.124 73.4295 127.554 73.19C127.317 78.3451 126.504 79.5877 123.916 83.7001C122.365 86.8834 118.555 90.8193 118.46 94.4952C118.326 99.6237 120.222 108.348 123.864 111.949C125.062 112.941 128.252 114.117 129.801 114.734ZM152.774 141.609C150.399 137.823 149.025 137.114 148.838 132.146L148.976 132.04C149.608 132.838 150.533 135.114 150.992 136.151L151.234 135.883C151.31 135.584 151.347 128.848 151.318 128.714C149.263 119.145 141.401 116.728 132.613 117.337C131.767 117.396 128.663 116.149 127.625 115.979C124.373 115.448 120.99 116.056 117.77 116.537C114.672 119.112 111.264 120.978 108.336 123.607C107.571 124.295 106.068 126.157 106.101 127.184L106.42 127.276L107.257 126.796C107.831 126.93 108.401 127.014 108.866 127.372C110.555 127.443 112.15 126.447 113.63 125.662C114.011 126.709 113.771 126.572 114.561 126.957C115.904 126.743 117.235 125.978 116.439 124.478C118.17 124.611 119.95 123.591 122.252 123.636C119.798 124.952 117.937 125.122 116.335 127.217C117.571 126.843 120.372 126.798 121.171 126.323C125.161 123.952 127.653 122.218 132.332 121.245L132.517 121.468C131.996 122.707 125.536 123.029 125.67 125.452C126.22 125.926 125.958 125.798 126.661 125.947C127.194 125.755 127.617 124.963 128.063 124.423L128.434 124.423C128.976 124.918 129.104 124.854 129.169 125.452L128.405 125.904L128.326 126.211C128.802 126.833 130.139 127.386 130.895 127.762C130.934 131.38 130.126 131.308 129.814 134.456C129.553 137.094 129.716 140.329 129.53 143.061C129.363 145.513 128.839 148.447 128.815 150.824C128.747 157.322 128.675 164.01 128.886 170.498C128.999 173.941 129.634 177.207 129.634 180.789C135.852 179.032 142.6 180.021 148.707 182.364C149.563 182.692 151.843 185.288 152.53 185.399C152.597 185.337 152.663 185.274 152.73 185.211C153.79 183.782 152.841 178.844 152.732 176.914C152.57 174.013 152.647 171.814 152.569 169.009C152.508 166.815 151.926 164.346 152.045 162.139C152.176 159.716 153.211 156.775 153.344 154.388C153.572 150.303 153.031 145.737 152.774 141.609ZM127.061 109.604C128.164 109.5 129.509 109.584 129.999 108.484C129.668 106.917 125.554 103.808 124.158 102.845C123.706 102.533 122.008 101.952 121.405 101.739C121.888 100.386 122.379 96.1148 123.558 95.5771C123.995 96.8158 121.967 99.4308 122.967 100.102C125.356 101.706 127.319 103.644 129.612 105.329L129.877 105.714C130.812 108.553 132.774 111.326 136.029 109.888C136.709 109.588 138.233 108.826 138.889 108.87L139.052 109.18C138.379 110.255 135.646 110.08 135.797 111.532C136.968 112.285 139.319 110.072 140.54 109.917C140.156 111.5 138.203 111.445 137.654 112.223C139.084 114.235 143.82 111.562 144.446 112.011C144.044 112.477 143.454 112.582 142.859 112.757L142.64 113.032C143.628 114.238 145.434 113.81 146.449 112.713C146.589 113.252 146.404 113.688 146.256 114.243C144.703 115.845 141.612 112.97 139.339 113.506C139.027 114.236 139.686 114.049 139.715 114.917C138.277 114.661 138.235 113.163 136.937 112.726C134.802 112.006 132.739 111.977 130.438 111.428C129.233 111.294 126.556 111.194 125.843 110.424L126.042 109.95C126.486 109.741 126.581 109.717 127.061 109.604ZM64.651 195.634C64.3401 194.578 64.0608 192.744 63.2987 192.21C62.9188 193.74 62.7004 195.228 64.651 195.634ZM53.9235 89.9138L53.8117 90.0852C53.1188 91.1361 52.3076 91.7176 51.3619 92.5573C52.1619 93.0646 55.0489 91.6456 55.5742 90.8984L55.8713 91.0272C55.9853 91.7294 55.9667 91.5025 55.4462 92.2474C54.7491 92.6648 53.951 93.043 53.566 93.7418C53.4658 94.1192 53.3525 94.6057 53.2177 94.9635C53.0053 95.968 51.9443 96.533 51.0768 97.0348C39.8905 103.508 54.0929 104.971 56.4565 108.943L56.316 111.672C55.4781 112.016 54.6137 112.388 53.7239 112.587C52.7755 112.799 50.6207 112.355 49.9961 112.953C50.3847 113.993 50.923 113.717 51.0398 113.981C51.8588 115.836 52.7935 118.754 54.0753 120.311C54.8502 120.668 55.9599 119.524 57.4749 119.106C59.8152 118.212 65.3287 118.56 67.2555 117.322C72.9286 113.676 76.6903 108.014 83.8045 106.401C81.6527 109.011 77.9466 110.643 75.2492 112.674C73.8739 113.709 72.5984 115.368 71.1996 116.522C70.5357 117.069 69.1931 117.953 68.7507 118.491L68.8157 118.846C69.3974 119.101 70.7388 119.053 71.397 118.954C75.8837 118.281 80.0109 119.236 83.3176 115.532C83.3623 115.005 83.2642 113.417 83.277 112.99C83.2781 112.957 84.9281 112.239 85.1422 111.854C87.7777 107.109 87.6135 102.938 86.6841 98.1184C82.1071 93.1422 82.8317 96.2255 83.1025 88.9759C80.4384 86.5139 78.2161 88.0718 79.7132 83.4492C79.6513 83.397 79.589 83.3451 79.5264 83.2939C77.6996 81.8178 77.9093 82.7867 75.9986 83.5237C75.7222 83.6304 74.6066 83.7326 74.2581 83.767C75.019 82.5637 76.9617 77.4455 76.4539 76.26C75.5208 76.0079 73.7497 74.8166 72.8279 74.2647C71.888 74.5752 70.7537 75.5255 69.8991 76.1253C68.7681 76.919 66.8404 77.9538 65.8874 78.8187C63.1523 81.3019 60.6143 84.0107 57.6031 86.1969C56.2342 87.1907 53.7997 87.9403 52.4223 89.054C52.0838 89.3276 51.8097 90.2901 51.7971 90.7696L52.0727 90.9531C53.2026 90.2262 52.1097 90.3452 53.5161 89.474L53.9235 89.9138ZM96.8214 132.357C96.7688 133.101 96.6256 134.127 96.8587 134.798L97.1877 134.953L97.5485 134.752C97.8402 134.13 98.1957 133.57 98.0951 132.908C97.6866 132.377 97.5253 132.397 96.8214 132.357ZM97.6349 51.2033C97.0465 49.8089 96.2956 49.6774 95.0668 48.5853C97.08 49.2315 98.3338 49.6776 100.056 50.8979C101.169 50.9051 101.646 50.8739 102.731 51.2169L102.659 51.4792C100.309 51.8494 99.9428 51.7658 97.6349 51.2033ZM88.622 34.0851L88.0963 33.9385L87.5371 33.9865C87.3419 32.8232 87.2976 31.8452 86.4403 31.0219L86.0146 30.9987C85.0066 32.0618 85.8359 35.2935 86.3937 36.4241C87.6292 37.6495 86.7672 38.4325 88.9662 39.0468C89.2654 38.8137 89.6875 38.7803 90.0728 38.7091C91.1022 39.6466 92.7926 45.6813 93.6197 47.6852C93.1814 50.1907 92.823 55.2135 90.5921 56.5242C87.0446 58.6084 85.6345 58.4214 88.4592 62.6689C90.7047 63.0827 92.5187 62.6869 94.3749 63.0558C96.3159 63.4417 98.2742 64.9669 100.459 65.4431L100.605 65.476C103.1 66.0228 109.182 63.5094 112.14 63.3434C115.515 63.1537 115.962 60.8747 115.979 57.9326C111.107 56.5103 109.301 56.855 107.981 51.2838C107.887 49.8012 108.054 49.3911 106.853 48.5346C108.357 46.7773 110.418 41.0658 110.785 38.6058C111.167 36.0473 111.934 32.853 111.427 30.0983C111.413 30.0202 110.64 28.346 110.298 27.9476C108.464 25.8127 106.027 20.7446 103.826 19.4349C103.789 19.4277 103.752 19.4205 103.714 19.4133C101.748 19.1477 97.4309 19.2087 95.7117 19.9111C95.3509 20.0586 94.5764 23.1565 94.4095 23.7476C90.1055 26.7063 89.3132 28.1153 88.8547 33.1657C88.7888 33.4133 88.6596 33.8507 88.622 34.0851ZM86.0873 57.6562C86.652 57.1341 87.2266 56.7082 87.4764 55.9904L87.3342 55.7236L87.1162 55.6683C86.5094 56.0884 86.0829 56.3602 85.56 56.8869L85.539 57.2666L86.0873 57.6562ZM85.0765 30.0505L85.39 29.4824C85.1304 28.5985 84.7948 27.6597 84.7977 26.7475L84.5525 26.4413C83.5375 27.5104 83.5662 28.3828 84.3691 29.6138L85.0765 30.0505ZM103.764 122.809C104.025 123.496 103.839 123.289 104.436 123.618L105.603 123.572L105.455 122.99C104.734 122.617 104.7 122.763 103.764 122.809ZM100.736 127.184C100.911 128.494 100.868 128.892 102.096 129.495C101.942 128.804 101.826 127.918 101.367 127.412L100.736 127.184ZM77.1913 234.019C75.4386 229.4 76.9222 228.949 78.6103 224.711C79.0064 223.715 78.8855 222.471 79.312 221.419L79.5861 221.401C79.8092 221.893 79.5813 223.757 79.5447 224.481L79.5196 224.578C78.8847 226.955 77.2234 228.191 76.9996 230.435C76.852 231.914 78.3669 232.564 77.1913 234.019ZM102.218 132.491C101.355 132.052 101.59 132.023 100.722 132.076C99.9459 132.753 99.9312 133.646 100.642 134.407C101.239 134.563 100.983 134.584 101.612 134.251L102.09 133.376C102.087 133.27 102.195 132.637 102.218 132.491ZM88.7754 190.487L89.3526 190.307C89.9113 188.955 87.4326 185.992 86.3057 185.494C85.6887 186.229 85.4668 189.714 85.6732 190.688C86.5502 191.197 87.8441 190.796 88.7754 190.487ZM92.0425 131.877C92.2282 132.355 93.2437 135.217 93.405 135.377C94.2923 135.068 93.9046 134.454 94.2623 133.776L95.0182 134.239C95.6358 134.08 95.4395 134.222 95.7774 133.732C95.5585 132.15 93.382 131.889 92.0425 131.877Z" fill="black"/>
<path d="M97.2739 82.9695C96.4304 83.0573 92.9171 83.0343 92.2422 82.6349L92.4757 82.3822C94.5017 81.8985 97.908 82.3834 99.9607 82.7739L100.256 82.8391C100.453 83.0834 100.756 83.4382 100.907 83.6933C99.3131 83.7283 98.6639 83.7351 97.2739 82.9695Z" fill="black"/>
<path d="M99.9603 82.7734L100.256 82.8387C100.452 83.0829 100.756 83.4378 100.906 83.6929C99.3127 83.7279 98.6634 83.7347 97.2734 82.9691C97.8813 82.737 99.2504 82.783 99.9603 82.7734Z" fill="black"/>
<path d="M81.7812 58.7266C83.4187 58.9069 85.2029 61.6124 85.3714 63.1498L84.3522 63.1657C83.2042 62.6444 82.4063 59.9859 81.7812 58.7266Z" fill="black"/>
<path d="M98.1346 88.5L98.3339 88.5596C100.48 89.1816 104.341 88.4899 105.226 89.247C104.525 89.908 98.8969 89.7971 98 89.0441L98.1346 88.5Z" fill="black"/>
<path d="M100.25 82.8411C101.307 82.8266 104.871 82.4409 105.413 82.8999C103.75 83.4519 102.645 83.6742 100.901 83.6954C100.75 83.4403 100.446 83.0854 100.25 82.8411Z" fill="black"/>
<path d="M117.126 64.625C117.97 64.825 119.793 65.015 120.687 65.1165L120.911 65.4101L120.658 65.792C119.482 65.8258 117.301 66.4326 116.828 65.3364L117.126 64.625Z" fill="black"/>
<path d="M94.0938 87.3281C95.2593 87.4511 97.2251 87.7443 98.1342 88.5024L97.9996 89.0465C97.2833 88.5022 96.2349 88.4262 95.3254 88.2741C94.862 88.1138 94.4689 87.6749 94.0938 87.3281Z" fill="black"/>
<path d="M70.1023 64.7305L70.6835 65.0278C71.0874 65.7017 71.1358 65.793 71.1172 66.5826L70.7009 66.8306C69.9044 66.482 69.7881 66.3915 69.3984 65.7265C69.5711 65.0185 69.4305 65.2834 70.1023 64.7305Z" fill="black"/>
<path d="M113.768 115.161C114.761 115.093 115.325 115 116.283 115.319L116.348 115.549C115.992 115.722 115.563 115.7 115.16 115.718C114.124 115.687 113.153 115.939 112.156 115.712C112.671 115.341 113.143 115.297 113.768 115.161Z" fill="black"/>
<path d="M111.259 93.1328L111.785 93.2044L111.836 93.4889C111.444 93.986 110.399 94.4564 109.793 94.7729L109.49 94.7837L109.453 94.5096C109.906 93.9162 110.619 93.5338 111.259 93.1328Z" fill="black"/>
<path d="M95.3255 88.2735L95.1938 88.266C94.374 88.2145 93.0384 88.3783 92.75 87.4038C93.2647 87.1181 93.526 87.222 94.0938 87.3276C94.469 87.6743 94.8621 88.1133 95.3255 88.2735Z" fill="black"/>
<path d="M125.808 61.625L126.141 61.8579L126.181 62.3515C125.755 63.0591 125.463 63.1972 124.773 63.6456L124.422 63.3978L124.422 63.0827C124.885 62.5535 125.311 62.1215 125.808 61.625Z" fill="black"/>
<path d="M152.223 32.0664C153.862 34.039 151.692 39.8179 151.041 42.1111C149.976 45.8607 150.893 49.8703 152.006 53.4999C151.985 53.4302 152.941 54.2508 153.014 54.3175C153.762 56.3479 150.067 61.3462 148.577 62.7023C147.802 63.1565 147.157 63.6192 146.281 63.2898C146.301 62.5418 146.933 59.8852 147.123 58.9991C147.639 56.6439 148.101 54.2769 148.507 51.9004C149.048 48.7651 149.476 45.651 149.865 42.4948C150.017 41.2578 151.16 39.293 151.343 37.9246C151.608 35.9528 151.397 33.8906 152.223 32.0664ZM148.462 61.1346C149.569 60.2643 148.988 60.3607 149.476 59.6968C151.862 56.4485 151.426 53.8643 150.435 49.9195C150.237 49.7146 150.088 49.5293 149.838 49.3931C149.614 50.7737 147.601 61.0618 147.761 61.427L148.04 61.5955C148.271 61.4052 148.353 61.3901 148.462 61.1346Z" fill="black"/>
<path d="M57.8438 19.6129C58.5466 19.5817 59.1013 19.7575 59.5919 20.2539C60.6633 21.3381 63.309 23.4304 63.7814 24.792C62.7332 24.6987 59.1431 21.7054 58.3152 20.9294C57.9065 20.5465 57.9255 20.143 57.8438 19.6129Z" fill="black"/>
<path d="M52.5012 141.104C53.4672 141.097 53.8235 140.813 54.5903 141.234L54.6346 141.718C53.9645 141.67 52.524 141.685 52.0938 141.353L52.5012 141.104Z" fill="black"/>
<path d="M158.708 148.184C159.302 147.665 160.601 146.06 160.911 145.977C160.724 147.298 158.006 150.841 156.772 150.841C156.539 150.307 156.64 150.352 156.775 149.708C157.204 149.223 157.301 149.12 157.83 148.734L158.708 148.184Z" fill="black"/>
<path d="M161.38 140.512C161.892 142.01 159.28 145.716 157.597 146.268C156.842 144.305 158.549 144.59 158.871 144.25C159.807 143.263 160.522 141.696 161.38 140.512Z" fill="black"/>
<path d="M130.421 123.316C130.699 123.475 130.642 123.489 130.826 123.802C130.544 124.45 130.362 124.433 129.726 124.928C129.432 124.721 129.418 124.634 129.266 124.315C129.525 123.733 129.796 123.715 130.421 123.316Z" fill="black"/>
<path d="M19.8672 180.707C21.2515 180.512 25.7963 181.142 26.5832 182.191L26.4431 182.649C24.5876 182.72 24.8245 182.378 23.1494 182.073C22.4194 181.941 21.2751 182.646 20.412 182.178C19.8462 181.437 20.0086 181.688 19.8672 180.707Z" fill="black"/>
<path d="M63.3346 230.844L63.4733 231.129C63.2199 231.86 61.7703 233.162 61.1318 233.579C58.8938 235.04 56.3436 234.81 53.881 234.32C53.658 233.871 53.6839 234.105 53.8437 233.595C54.8693 233.144 55.7896 233.533 56.7415 233.978C60.4188 233.332 60.6026 233.334 63.3346 230.844Z" fill="black"/>
<path d="M55.3203 232.105L55.9557 232.19L55.9253 232.702L55.3733 232.625L55.3203 232.105Z" fill="black"/>
<path d="M77.4431 86.9414C79.0724 88.0906 78.205 90.3206 78.772 92.0124C79.3194 93.6461 80.8906 94.5051 81.6419 95.8533C82.4363 97.2785 82.5371 99.4142 83.4911 100.869C84.1428 101.864 85.2705 102.128 85.757 103.194C85.8353 103.977 85.715 104.171 85.4264 104.897L84.9465 104.476C84.6161 102.561 83.306 102.654 82.2094 101.107C81.7338 100.436 81.6404 98.5136 81.327 97.9586C80.1999 95.9622 78.7364 94.2498 77.8986 92.0644C77.4549 90.9079 76.9371 88.0356 77.4431 86.9414Z" fill="black"/>
<path d="M63.9495 85.7379C64.1989 85.724 65.1554 85.6805 65.2921 85.7685C66.1396 86.3149 68.7981 87.7916 69.4033 88.2926L69.0716 88.5119C67.6591 87.8059 64.0482 86.8453 63.5 86.1737L63.9495 85.7379Z" fill="black"/>
<path d="M143.852 230.458C146.438 230.406 150.809 233.197 152.749 234.996L152.677 235.557C151.76 235.277 149.431 233.808 148.746 233.118C147.114 231.478 144.939 232.868 143.695 230.934L143.852 230.458Z" fill="black"/>
<path d="M135.159 199.781L135.384 200.09C134.942 201.298 133.06 201.882 131.94 202.393L131.711 202.152L131.77 201.782C132.783 200.337 133.532 200.757 134.998 199.879L135.159 199.781Z" fill="black"/>
<path d="M129.912 75.7188C130.38 79.0573 127.724 83.3089 125.758 85.7612C125.569 84.3789 128.91 80.0016 129.077 78.1398C129.12 77.6555 129.656 76.1223 129.912 75.7188Z" fill="black"/>
<path d="M123.816 87.5C125.864 87.7408 126.691 94.5341 126.194 95.9355C125.572 93.9238 125.232 91.0191 124.475 88.7093L123.799 88.3985C123.573 87.9791 123.643 88.119 123.816 87.5Z" fill="black"/>
<path d="M122.332 90.5117C122.867 90.6078 122.932 90.6256 123.362 90.9556C123.3 92.2137 122.301 91.9785 122.521 94.4095L122.453 94.6728L122.147 94.6652C121.733 93.5576 122.108 91.6655 122.332 90.5117Z" fill="black"/>
<path d="M95.7724 28.25C99.7819 28.3498 99.9875 29.9259 99.0097 33.5142C97.7667 33.2355 94.8132 33.0703 93.2093 32.8362L92.8779 32.6554C92.5681 32.0714 92.5344 31.9956 92.6211 31.3439C92.9425 30.7075 93.0919 30.5975 93.6983 30.2541C92.3787 29.5379 92.4431 30.4493 91.4011 30.8615L90.9939 30.6507C90.9593 29.912 91.4624 30.1071 91.8005 29.5266C92.6096 28.1363 94.2793 28.3144 95.7724 28.25Z" fill="black"/>
<path d="M102.901 30.0042C102.513 29.3902 102.549 29.6405 102.665 29.0504C104.003 27.849 108.714 29.015 110.294 29.5894L110.101 29.6287C108.556 29.9291 105.654 29.5243 104.837 30.3084C105.396 31.9677 109.211 29.9301 110.056 30.1703C109.884 30.8858 109.332 30.8137 109.234 31.0363C108.826 31.9621 109.163 32.5164 108.396 33.2153L107.937 33.2062C107.392 32.4663 108.089 32.4977 107.552 31.6963L107.113 31.7503C106.757 32.3371 106.969 32.552 107.212 33.23C106.694 33.967 104.581 33.4271 103.836 33.1317L103.569 32.8203C103.71 32.3787 103.834 32.0754 104.017 31.6495C103.909 31.581 103.352 31.3773 103.197 31.3179L103.231 30.9005L103.847 30.4769C103.676 30.1502 103.352 30.1494 102.901 30.0042Z" fill="black"/>
<path d="M98.1747 37.8945C99.421 38.1051 104.17 38.0074 104.526 38.7572L103.957 39.3427C102.173 39.1295 101.864 39.4241 100.136 39.7199C98.8065 39.9477 98.0654 39.2365 98.1747 37.8945Z" fill="black"/>
<path d="M99.8556 42.7188C101.316 43.0264 104.365 43.0885 105.388 43.7084L105.115 43.6454L104.939 43.8963C104.335 44.0458 103.516 43.8953 102.879 43.8214C101.957 43.8028 97.7994 43.9268 97.375 43.4715C98.0549 42.9926 99.0137 42.9276 99.8556 42.7188Z" fill="black"/>
<path d="M101.671 44.8125C103.281 44.9574 103.919 45.0491 105.478 45.462C104.091 45.7675 103.09 45.8677 101.677 46.012C100.486 45.9655 98.5481 45.6708 97.3125 45.5199C98.7056 45.1419 100.231 44.9947 101.671 44.8125Z" fill="black"/>
<path d="M102.9 30.0039C103.351 30.149 103.675 30.1499 103.847 30.4766L103.23 30.9001L103.197 31.3175C103.351 31.3769 103.909 31.5807 104.017 31.6492C102.606 31.6028 101.698 33.0408 100.162 33.9833L100.039 33.8228C100.328 33.2843 101.235 32.0885 101.689 31.6947C102.515 30.9788 103.083 31.4082 102.9 30.0039Z" fill="black"/>
<path d="M101.638 58.3149L101.187 58.4676C100.233 58.2923 99.847 58.0594 98.9711 57.6213L98.9297 57.4286C100.024 57.3354 100.387 57.4642 101.466 57.7343L101.638 58.3149Z" fill="black"/>
<path d="M101.469 57.7341C102.096 57.3741 102.357 57.1774 103.074 57.0625L103.275 57.1849C102.625 58.0279 102.28 57.7819 101.64 58.3146L101.469 57.7341Z" fill="black"/>
<path d="M121.406 101.74C121.889 100.387 122.38 96.1158 123.559 95.5781C123.996 96.8168 121.968 99.4318 122.968 100.103C125.357 101.707 127.321 103.646 129.613 105.33L129.879 105.715C130.814 108.554 132.775 111.327 136.03 109.889C136.71 109.589 138.234 108.827 138.89 108.871L139.053 109.181C138.38 110.256 135.647 110.081 135.798 111.533C136.969 112.286 139.32 110.073 140.541 109.918C140.157 111.501 138.204 111.446 137.655 112.224C139.085 114.236 143.822 111.563 144.447 112.012C144.045 112.478 143.455 112.583 142.86 112.758L142.641 113.033C143.629 114.239 145.435 113.811 146.45 112.714C146.59 113.253 146.405 113.689 146.257 114.244C144.704 115.846 141.613 112.971 139.34 113.507C139.028 114.237 139.687 114.05 139.716 114.918C138.278 114.662 138.236 113.164 136.938 112.727C134.803 112.007 132.74 111.978 130.439 111.429C129.234 111.296 126.557 111.195 125.844 110.425L126.043 109.951C126.487 109.742 126.582 109.718 127.063 109.605C128.165 109.501 129.51 109.585 130 108.485C129.669 106.918 125.555 103.809 124.159 102.846C123.707 102.534 122.009 101.953 121.406 101.74Z" fill="black"/>
<path d="M77.1862 234.021C75.4335 229.402 76.9171 228.951 78.6052 224.713C79.0013 223.717 78.8804 222.473 79.3068 221.421L79.581 221.402C79.8041 221.895 79.5762 223.758 79.5396 224.483L79.5145 224.58C78.8795 226.957 77.2183 228.193 76.9945 230.437C76.8469 231.915 78.3617 232.565 77.1862 234.021Z" fill="black"/>
<path d="M108.352 134.183C109.142 133.29 110.458 131.619 111.432 131.098L111.635 131.34C111.602 132.197 111.018 133.146 110.615 133.934C111.532 133.236 112.298 132.395 113.301 132.337C113.616 132.541 113.7 132.547 114.075 132.537C113.585 134.651 110.89 134.045 109.009 134.424L108.352 134.183Z" fill="black"/>
<path d="M155.016 172.731C156.092 170.917 163.255 168.128 164.761 168.852C164.433 169.338 159.125 170.487 158.081 171.171C157.628 171.467 155.662 172.712 155.281 172.876C154.962 174.098 157.883 174.707 158.806 174.923L158.782 175.216C158.141 175.536 158.048 175.524 157.348 175.415C156.488 174.836 155.516 174.401 154.836 173.687C154.951 173.425 154.978 173.026 155.016 172.731Z" fill="black"/>
<path d="M107.258 126.799C108.848 125.098 109.585 125.074 111.431 124.057C112.419 123.513 112.856 122.762 114.29 122.152L114.398 122.255C113.421 123.515 111.895 124.864 110.701 125.961C110.152 126.466 109.346 126.845 108.867 127.375C108.402 127.016 107.831 126.933 107.258 126.799Z" fill="black"/>
<path d="M116.44 124.48C118.171 124.613 119.952 123.593 122.253 123.638C119.8 124.953 117.938 125.124 116.336 127.218C115.966 127.741 116.177 127.597 115.536 127.745C114.736 127.407 114.973 127.627 114.562 126.959C115.905 126.745 117.236 125.98 116.44 124.48Z" fill="black"/>
<path d="M95.0625 48.5859C97.0757 49.2321 98.3295 49.6782 100.052 50.8985C101.165 50.9057 101.642 50.8745 102.727 51.2175L102.655 51.4798C100.304 51.85 99.9385 51.7664 97.6305 51.2038C97.0421 49.8095 96.2912 49.678 95.0625 48.5859Z" fill="black"/>
<path d="M113.244 30.8248L113.667 30.9169C114.347 29.5847 112.468 27.4991 113.773 26.6289L114.126 26.7475C114.878 27.5632 114.985 28.1222 115.272 29.1973L115.765 29.3948C115.206 29.9988 114.195 31.2819 113.463 31.3944L113.23 31.3175C113.229 31.2031 113.217 30.9169 113.244 30.8248Z" fill="black"/>
<path d="M89.3885 176.401C92.2379 177.754 95.5767 175.968 96.1303 176.173C95.8191 178.005 89.7239 177.789 88.8047 176.949C88.9813 176.7 89.1517 176.589 89.3885 176.401Z" fill="black"/>
<path d="M49.6518 156.398L49.7954 156.602C50.43 158.177 51.3457 159.087 52.1262 160.529L52.0297 160.472C50.3983 159.49 49.2596 157.573 48.6963 157.434C48.6611 158.118 49.0172 158.762 49.2932 159.405L48.7288 159.305C48.4305 159.012 48.0456 158.668 48.0398 158.26C48.0164 156.675 48.5344 156.615 49.6518 156.398Z" fill="black"/>
<path d="M102.214 132.491C102.887 132.031 103.222 131.936 103.993 132.036C103.479 132.563 103.61 132.286 103.571 133.128C104.026 133.597 103.788 133.48 104.483 133.54C104.953 133.245 105.019 133.185 105.382 132.765L105.687 132.774L105.947 134.043C104.785 134.011 103.756 134.343 102.882 134.104C102.609 133.734 102.572 133.718 102.187 133.446L102.086 133.376C102.083 133.27 102.191 132.637 102.214 132.491Z" fill="black"/>
<path d="M113.625 125.664C114.067 125.541 115.812 124.713 116.434 124.48C117.23 125.98 115.899 126.746 114.556 126.959C113.766 126.574 114.006 126.712 113.625 125.664Z" fill="black"/>
<path d="M97.3515 131.017C96.7928 128.408 96.3787 128.311 95.7578 126.345L95.9518 126.078C97.6298 126.875 97.2145 128.902 98.5463 129.443C97.8437 130.075 97.7598 130.167 97.3515 131.017Z" fill="black"/>
<path d="M73.9844 127.184C75.1353 127.13 75.7245 127.22 76.8466 127.366C76.8812 127.972 76.8431 128.53 77.1449 129.033C76.6979 129.284 76.1265 129.052 75.6063 129.329C75.0326 129.635 74.92 129.599 74.4485 129.311C74.4355 128.402 75.2885 128.919 75.5721 128.075C75.1247 127.614 74.6703 127.575 74.0332 127.416L73.9844 127.184Z" fill="black"/>
<path d="M87.5338 33.9855L88.093 33.9375C87.1949 36.249 89.0461 36.7105 90.0695 38.7081C89.6842 38.7793 89.2621 38.8127 88.9629 39.0458C89.3012 37.5914 87.7551 36.6562 86.7578 35.813C86.9058 35.1575 87.0309 34.395 87.5338 33.9855Z" fill="black"/>
<path d="M95.2784 131.112C94.7614 129.856 92.8331 127.245 91.9375 126.093L92.1081 125.918C93.2451 126.266 95.6895 129.853 95.7738 131.095L95.2784 131.112Z" fill="black"/>
<path d="M153.853 164.845C156.157 164.713 157.24 162.314 158.614 162.763L158.51 163.252C157.011 163.995 156.151 164.965 154.76 165.638C154.25 165.487 154.214 165.417 153.805 165.053L153.853 164.845Z" fill="black"/>
<path d="M120.924 165.241C119.67 164.578 118.603 162.458 119.884 161.574C120.371 161.922 120.7 163.912 121.271 164.817L120.924 165.241Z" fill="black"/>
<path d="M107.848 21.1367L108.39 21.181C108.591 22.6114 109.501 24.1689 109.421 24.7279L108.969 24.6353C108.146 23.8747 107.374 22.2661 107.848 21.1367Z" fill="black"/>
<path d="M55.712 92.9844L56.4654 93.0134L56.6356 93.2577C55.9818 94.0268 54.1916 94.7156 53.2188 94.9646C53.3535 94.6069 53.4668 94.1204 53.567 93.7429C54.6435 94.0742 54.9996 93.7046 55.712 92.9844Z" fill="black"/>
<path d="M155.647 59.9922L156.581 60.1905C155.351 60.9899 155.076 63.1461 153.478 62.6596L153.469 62.3944C154.687 61.5818 154.784 61.2087 155.647 59.9922Z" fill="black"/>
<path d="M117.271 113.76C118.159 113.629 119.982 113.643 120.763 114.082L120.674 114.312C119.377 114.576 117.888 114.202 117.195 114.646L117.271 113.76Z" fill="black"/>
<path d="M120.461 131.119C121.293 129.106 121.76 128.33 123.636 127.129C122.648 128.449 121.645 129.638 121.2 131.247L120.461 131.119Z" fill="black"/>
<path d="M127.509 225.249C127.018 224.005 126.119 223.615 126.237 221.887C126.83 222.21 127.117 223.555 128.026 224.228C127.647 224.642 127.582 224.698 127.509 225.249Z" fill="black"/>
<path d="M125.695 68.9339C125.974 67.9403 125.914 66.5826 125.921 65.5234C126.347 66.9869 126.664 68.131 126.963 69.6231C125.995 69.3949 126.156 69.5931 125.695 68.9339Z" fill="black"/>
<path d="M129.609 105.33C129.788 104.389 129.777 103.735 130.43 103.133L130.665 103.289C130.823 104.174 130.412 105.033 129.875 105.716L129.609 105.33Z" fill="black"/>
<path d="M40.1058 181.165C39.1033 180.567 38.1831 180.079 37.3438 179.262C37.5943 179.396 37.7524 179.348 38.0657 179.347L37.7992 179.223C38.3104 179.362 39.4296 179.938 39.9612 180.194L40.1058 181.165Z" fill="black"/>
<path d="M55.4428 92.25C55.4982 92.6042 55.4877 92.6918 55.7076 92.9858C54.9952 93.7061 54.6391 94.0756 53.5625 93.7444C53.9476 93.0456 54.7457 92.6674 55.4428 92.25Z" fill="black"/>
<path d="M127.368 54.0659C127.29 53.9695 127.213 53.8717 127.137 53.7732C126.649 53.1405 126.248 52.4906 126.353 51.6484C126.8 51.9049 127.217 52.8414 127.87 53.5049L127.997 53.6324L127.368 54.0659Z" fill="black"/>
<path d="M43.3516 139.967L43.878 139.746L45.4324 141.621L44.9886 142.302C44.7803 141.765 43.7513 140.486 43.3516 139.967Z" fill="black"/>
<path d="M100.734 127.184L101.366 127.412C101.824 127.918 101.94 128.803 102.094 129.495C100.866 128.891 100.909 128.494 100.734 127.184Z" fill="black"/>
<path d="M49.658 156.398C49.1777 155.764 49.0245 155.478 48.6568 154.768L48.946 154.761L48.5234 154.399L48.5976 154.305C49.5046 154.79 49.3344 155.038 50.0108 155.778L50.0828 155.855L49.8016 156.601L49.658 156.398Z" fill="black"/>
<path d="M83.1146 226.711L83.3615 226.903L82.6467 228.802C82.1987 229.036 82.3883 228.982 81.8359 228.912C82.1782 228.183 82.5432 227.243 83.1146 226.711Z" fill="black"/>
<path d="M46.8097 82.8906C46.4836 84.0374 46.5923 83.314 45.8333 84.0722C45.6576 84.2378 45.3489 84.4258 45.139 84.5672L44.9062 84.4786C45.3147 83.7266 46.078 83.3477 46.8097 82.8906Z" fill="black"/>
<path d="M54.4048 173.371C54.8416 173.998 54.8311 173.776 54.7452 174.36L54.2945 174.381C53.875 173.993 53.8255 173.936 53.5781 173.422L54.4048 173.371Z" fill="black"/>
<path d="M43.3523 139.966C42.8856 139.62 42.1246 139.168 41.9766 138.672C42.766 138.791 43.2419 139.255 43.8788 139.746L43.3523 139.966Z" fill="black"/>
<path d="M88.6172 34.0874C88.6549 33.853 88.7841 33.4156 88.8499 33.168C89.4391 34.0195 89.4281 33.7305 89.36 34.6099L89.0221 34.6077L88.6172 34.0874Z" fill="black"/>
<path d="M67.2849 120.638C66.9094 121.247 67.0322 121.249 66.4719 121.54L66.2812 121.319C66.657 120.498 66.6427 120.693 67.5112 120.117L67.2849 120.638Z" fill="black"/>
<path d="M143.019 61.3398L143.591 61.4678C143.199 62.1222 143.605 62.2404 142.966 62.9632C142.751 62.409 142.91 61.9448 143.019 61.3398Z" fill="black"/>
<path d="M53.5156 89.4738C54.0943 88.986 53.9937 88.9171 54.6386 88.8359C54.4845 89.4796 54.4361 89.3721 53.9231 89.9135L53.5156 89.4738Z" fill="black"/>
<path d="M117.133 147.017C116.743 146.687 116.459 146.532 116.359 146.047C116.97 146.036 116.994 146.187 117.574 146.557L117.133 147.017Z" fill="black"/>
<path d="M163.698 237.628C164.572 237.394 165.526 237.038 166.384 237.255L166.594 237.524C166.098 238.464 164.65 238.742 163.633 239.056L163.698 237.628Z" fill="black"/>
<path d="M63.1386 203.208C62.4426 202.706 61.0205 201.71 60.5547 201.065L60.7822 200.879C62.5981 200.964 62.5248 202.246 63.7809 202.704L63.1386 203.208Z" fill="black"/>
<path d="M58.7048 215.048C58.2253 214.353 57.6005 214.628 56.6016 213.748L56.6953 213.552C57.9553 213.5 58.4628 213.663 59.4145 214.469C59.2037 214.624 58.8501 214.858 58.7048 215.048Z" fill="black"/>
<path d="M96.1498 204.272C97.0044 204.095 97.8514 203.884 98.6894 203.641L96.633 205.825C95.8018 205.28 95.9641 205.092 96.1498 204.272Z" fill="black"/>
<path d="M140.961 239.531C141.524 239.573 141.61 239.571 142.065 239.896L142.004 240.185L141.269 240.446C140.643 240.405 140.235 240.436 139.711 240.074C140.034 239.647 140.329 239.699 140.961 239.531Z" fill="black"/>
<path d="M114.557 224.804C113.682 224.783 111.534 224.847 110.922 224.601C111.405 224.234 111.857 224.174 112.45 224.027L112.769 224.392C113.509 224.417 113.969 224.361 114.557 224.804Z" fill="black"/>
<path d="M44.1406 238.828C44.3371 238.749 44.6071 238.73 44.8265 238.699L45.047 238.993C44.8737 239.076 44.6089 239.103 44.4085 239.14L44.1406 238.828Z" fill="black"/>
</g>
<defs>
<clipPath id="clip0_1209_2964">
<rect width="212" height="249" fill="white"/>
</clipPath>
</defs>
</svg>
