<svg width="212" height="249" viewBox="0 0 212 249" fill="none" xmlns="http://www.w3.org/2000/svg">
<g clip-path="url(#clip0_1209_2965)">
<path d="M104.168 34.3335C106.637 33.0344 109.14 31.5045 111.55 30.2659C113.51 29.2588 117.399 28.6893 119.658 28.1707C121.799 27.6789 124.779 26.6576 126.866 26.4C132.831 25.6639 140.509 27.4905 146.46 28.7109C152.896 30.0307 160.161 33.2592 166.175 35.7644C168.246 36.6272 170.603 37.6659 172.624 38.598C173.327 38.9218 175.15 40.4583 176.174 41.0303C179.131 42.6821 181.695 43.3758 183.542 46.3154C183.401 47.0633 183.051 48.0739 182.817 48.8219C180.271 51.2717 178.724 51.1391 175.76 52.8538C175.521 53.3941 175.555 53.1555 175.659 53.7657C176.526 54.9244 180.186 55.1134 181.858 55.8097C186.55 57.828 191.896 59.8406 196.105 62.7392C198.605 64.4613 198.192 69.0596 197.305 71.5556C201.191 71.7216 207.519 72.6167 211.405 73.146V74.8873C207.049 74.7077 201.169 74.0192 196.754 73.5322C196.288 75.2262 191.765 82.3646 190.615 84.0416C193.444 84.3639 196.252 84.8566 199.055 85.3431C202.138 85.878 208.665 86.6926 211.405 87.6003V88.547C207.902 88.3614 204.334 87.9222 200.845 87.5332C199.116 87.3406 197.486 86.9463 195.747 86.855C199.749 89.0491 205.279 88.6047 209.694 89.6953C210.15 89.808 210.925 89.8909 211.405 89.9324V92.1966C206.464 91.6807 203.101 90.4473 197.322 90.128C192.69 95.3412 192.908 95.321 190.029 101.35C192.709 101.449 197.842 102.526 200.669 102.97C203.816 103.466 208.406 104.053 211.405 104.823V105.769C210.562 105.529 209.343 105.159 208.488 105.099C202.689 104.692 196.909 104.402 191.22 103.096C190.783 102.996 190.074 103.115 189.648 103.255L189.468 103.542C189.796 103.952 189.97 104.095 190.611 104.135C194.396 104.376 198.037 105.317 201.78 105.883C204.979 106.367 208.212 106.657 211.405 107.213V108.499C203.009 108.216 196.947 106.708 188.983 105.948C188.236 110.223 187.704 112.711 184.57 115.859C187.999 116.054 192.138 116.799 195.638 117.177C200.593 117.713 206.571 118.225 211.405 119.243V120.109C208.326 119.557 184.711 117.083 183.275 117.983C181.883 118.856 177.339 123.999 176.441 125.471C175.55 126.928 174.934 128.62 174.208 130.167C172.304 134.224 169.094 140.132 168.364 144.399C168.017 146.432 168.061 148.536 167.855 150.588C167.614 152.989 166.951 155.432 166.259 157.738C165.523 160.188 164.039 162.323 163.305 164.728C162.829 166.288 162.824 168.777 161.935 170.105C161.051 170.725 153.841 170.725 152.625 170.548L152.49 170.529C151.049 170.318 148.146 168.549 146.711 168.01C144.138 167.044 142.101 166.603 139.658 165.255C137.835 164.25 136.599 163.147 134.817 162.258C134.266 161.983 133.927 161.905 133.38 162.056C132.488 163.772 132.729 174.308 132.923 176.687C133.099 178.836 133.835 181.584 133.871 183.912C133.946 188.848 132.596 193.471 133.81 198.343C134.064 199.361 133.673 201.225 134.167 202.326C134.825 204.212 135.874 205.594 136.779 207.462C133.881 215.122 125.689 213.057 119.202 214.199C118.127 214.388 116.478 214.389 115.372 214.365C114.124 214.126 112.099 214.072 110.719 213.928C101.365 212.948 91.9115 213.218 82.5241 213.241C80.9158 213.245 78.283 213.893 76.5717 214.121C74.1714 213.979 71.7082 213.623 69.3547 214.081C67.0959 214.472 64.1256 216.498 61.915 216.447C56.5388 216.247 50.8106 216.084 45.5248 215.014C40.4032 213.978 35.3707 214.383 30.1638 214.438C26.1541 214.48 22.6635 214.016 18.7214 213.558C14.113 213.023 11.6189 212.98 7.17908 211.337C4.47097 206.009 4.72576 198.616 7.11083 193.271C7.42908 192.558 8.82803 192.474 9.15228 191.53C10.4074 187.877 10.7456 183.914 12.3401 180.368C15.5121 174.083 21.8241 169.456 25.9125 163.702C29.9082 158.079 32.4178 151.934 36.4127 146.296C38.8431 142.866 45.7857 136.599 49.6943 134.884C51.0214 134.302 56.5149 133.719 58.3315 133.408C56.2239 130.282 56.0849 121.184 56.0839 117.3C53.3669 117.312 48.1314 116.951 45.4768 117.733L45.3639 117.146C45.5891 116.974 46.312 116.421 46.3378 116.222C46.6221 114.035 45.1865 111.952 45.9154 109.606C46.7913 106.789 51.4198 103.023 52.1106 100.906C52.0558 100.303 51.3473 99.7491 50.8877 99.3039C51.3777 95.1162 53.939 91.4669 55.8775 87.8385C56.7011 86.297 57.3972 84.6915 58.2833 83.1828C61.9801 76.8876 77.3603 59.2272 83.5874 55.2625C86.3451 53.5068 90.843 51.4684 94.0179 50.6048C95.0748 50.3173 96.1744 50.2541 97.2403 49.9766C98.0226 49.0727 102.856 39.9805 103.695 38.314C103.917 37.8731 104.113 35.0642 104.168 34.3335ZM8.92264 208.357C9.58783 208.008 10.0891 207.693 10.7222 207.286C14.6625 207.507 33.4078 208.003 35.8494 209.559C39.912 211.137 42.4464 210.284 47.0611 212.639C49.3524 213.37 59.859 213.917 62.8099 214.062C63.7314 214.107 67.4188 212.869 68.6158 212.624C69.5334 212.57 70.685 212.299 71.6659 212.329C72.761 212.362 73.4549 212.438 74.57 212.369C78.3268 212.61 78.489 211.774 81.9432 211.249C83.839 211.121 85.9268 211.439 87.7959 211.364C93.3215 211.143 98.7469 211.114 104.268 211.323C109.551 211.523 114.945 213.156 120.091 211.821C121.792 211.579 130.749 211.714 130.802 210.142C130.392 209.92 127.998 209.861 127.193 209.779C125.822 209.601 125.258 209.639 124.184 208.801C126.812 208.679 128.484 208.577 131.136 208.638C132.171 208.078 133.158 207.739 133.702 206.764C134.063 204.988 132.544 204.132 131.822 202.598C131.428 201.762 131.076 200.711 130.771 199.829L131.453 197.421C131.353 197.115 131.247 196.807 131.132 196.506C130.617 195.169 125.503 188.188 124.444 187.731C124.211 187.63 124.347 187.703 124.106 187.567L123.672 187.32C123.17 186.37 122.328 182.812 121.985 181.527C123.273 183.127 124.677 185.014 125.318 186.964C128.282 188.385 129.4 189.438 130.853 192.373C131.081 190.032 131.808 187.633 131.838 185.287C131.926 178.373 128.882 172.86 127.46 166.404C127.293 165.645 126.996 163.756 127.426 163.138C128.916 163.075 129.734 169.433 130.746 170.113C131.05 169.331 130.831 164.432 131.021 162.876C131.619 157.994 133.207 156.201 133.119 151.137C130.584 148.581 132.287 147.461 129.53 144.739C130.806 144.472 131.845 146.803 132.36 147.71C132.371 140.592 128.856 141.015 122.931 140.777C122.153 140.746 121.318 140.711 120.631 141.121C119.384 144.011 127.036 142.39 128.09 143.293C128.71 143.824 128.55 143.819 128.766 144.568C125.408 146.144 122.161 145.853 118.746 146.818C110.467 149.158 101.799 151.097 94.1106 155.026C89.3848 157.44 85.4796 160.047 81.2945 163.239C79.6647 164.475 72.6841 172.169 71.4876 172.493C71.137 172.035 71.2465 172.114 71.2756 171.441C72.1866 169.744 73.3117 168.623 74.6849 167.334C73.6637 167.379 72.5852 167.417 71.6615 167.382C70.1168 167.323 66.9862 166.521 65.7548 167.746C64.4859 169.009 61.6129 171.109 60.4972 172.412C56.5248 177.052 53.8852 184.067 54.2818 190.213C54.5917 195.98 57.1576 200.561 55.3174 206.22C46.9264 211.441 41.0851 204.498 36.9182 197.762C34.2839 193.503 33.9301 186.246 32.3562 181.462C31.8861 180.033 30.8333 178.9 30.4699 177.458C30.2575 176.159 30.5286 173.956 30.8665 172.663C31.9139 168.655 38.5008 166.642 41.774 164.948C45.8552 162.835 48.6847 160.416 52.0148 157.419C49.385 155.454 47.3454 154.24 46.8781 150.682C46.6992 149.32 46.6788 146.072 47.6215 145.218C49.7636 143.277 71.9961 137.804 72.5518 137.138C71.6821 135.557 60.9963 135.239 59.1051 135.472C55.8539 135.874 54.3625 136.277 51.026 135.835C50.2699 136.341 50.5055 137.192 49.5045 137.934C45.7294 140.732 42.2254 143.285 39.0323 146.779C37.0696 148.927 36.3651 151.595 35.0618 153.534C32.0713 157.87 29.6529 162.772 26.3719 166.899C23.0437 171.085 18.2319 174.834 15.4552 179.44C14.2708 181.404 11.7346 190.203 12.1056 192.221L11.9623 192.278C11.0523 192.635 9.7858 192.648 9.33816 193.038C9.08229 193.795 8.8015 194.791 8.35993 195.43C6.77967 199.665 5.26034 204.801 8.92264 208.357ZM87.1206 208.11C86.9368 208.657 87.0329 208.68 86.5394 208.909C84.636 209.789 79.0527 209.897 77.5615 210.678L77.3949 210.764C77.2648 210.832 77.1613 210.89 77.0368 210.965C76.4772 210.886 76.4782 210.974 76.0898 210.679L76.1499 209.933C78.9116 209.219 84.3409 208.258 87.1206 208.11ZM105.227 207.51C105.982 207.708 106.324 207.741 106.853 208.313C107.034 208.915 107.038 208.658 106.794 209.286L106.195 209.628C101.604 210.225 95.7368 208.414 90.9241 209.681C90.573 209.774 89.8617 209.897 89.5179 209.774C89.3864 209.281 89.6737 208.582 89.8286 208.049L92.3071 207.657C96.1514 207.363 101.305 207.474 105.227 207.51ZM102.356 63.0417C99.9461 66.0086 97.1804 67.2362 94.8339 70.2237C91.9237 73.9286 90.8502 78.6454 88.6777 82.5646C88.0361 83.7221 85.8892 85.276 84.4576 87.4584L84.2969 87.8033L83.6871 87.9681L83.5651 88.4577C84.6554 90.0275 88.0948 91.9565 88.6827 92.9339L88.5316 93.1569C86.1344 93.399 82.969 89.5164 79.9292 90.744C78.6477 91.2617 73.0665 93.9705 72.5384 94.918C73.3131 95.335 75.6176 94.4968 76.2582 94.4083C76.4294 94.3847 76.7479 95.459 76.4412 96.0766C72.8943 97.9178 70.8449 96.521 66.9165 100.578C71.1598 99.3031 73.616 99.76 77.5833 101.834C81.7632 104.019 85.4129 106.587 89.2389 109.335C91.3379 110.844 95.2696 112.937 96.8131 114.793C97.4179 107.635 99.7293 104.726 104.587 99.4635C105.832 98.1154 105.734 97.6347 107.412 96.4389C106.364 90.4779 107.458 86.1473 106.933 80.2309C106.847 79.2666 106.349 77.1135 106.611 76.4516C107.168 76.1645 106.918 76.2228 107.68 76.3749C108.609 77.0112 108.821 78.0049 109.039 79.136C110.258 85.4504 108.222 93.0486 111.215 98.8909C111.453 99.3552 112.372 100.123 112.789 100.474C112.953 102.033 113.104 102.935 113.449 104.465C112.689 103.815 111.575 102.865 110.941 102.12C109.716 100.681 109.473 99.8925 107.983 98.6315C105.983 100.678 103.983 103.151 102.412 105.551C101.597 106.796 100.936 108.332 100.125 109.622C99.024 112.011 98.8364 114.271 98.8494 116.872C100.136 117.539 101.316 118.13 102.404 119.116C103.561 120.228 105.096 121.012 106.397 121.933C111.518 125.554 119.876 131.566 120.751 138.195C125.22 138.397 129.99 137.406 132.792 141.808C134.223 144.058 133.412 145.074 133.896 147.105C135.111 152.201 135.161 154.311 133.984 159.343C135.854 159.962 137.485 160.808 139.151 161.847C146.178 166.231 146.981 165.726 154.458 164.442C154.846 161.899 157.256 157.207 158.199 154.179C159.731 149.262 160.286 142.023 162.34 137.746C162.151 137.143 161.959 136.531 161.826 135.913C161.178 132.904 168.162 117.997 169.935 114.53C172.081 110.333 174.505 105.944 177.062 101.985C180.281 97.0035 184.081 94.3593 189.132 91.4897C191.635 90.0677 193.736 88.8872 196.584 88.2621C192.343 86.6896 187.303 84.7143 182.873 86.8035C182.41 87.0219 182.182 86.6424 181.537 87.2297C180.788 88.4539 180.829 89.4925 180.796 90.8915C180.177 91.156 179.132 91.7045 178.535 91.6082L178.422 91.2831C178.942 89.5754 178.528 90.2959 179.677 89.1074L179.648 88.717C178.411 87.3565 172.806 87.2195 172.166 86.6724L172.332 85.9711C171.904 85.3245 169.175 84.7305 167.766 83.3514C165.438 83.2246 160.469 83.5794 158.468 84.6024C157.796 85.489 158.884 90.8385 159.267 90.9462C162.448 91.8418 167.298 89.1338 170.769 89.5812C171.234 89.6411 171.536 89.6243 171.97 89.598C172.324 89.2815 172.382 89.1282 172.626 88.7118C173.696 88.4057 177.948 88.356 178.655 89.2873C177.276 90.4483 174.13 89.1482 173.07 89.6949C173.03 90.0565 172.982 90.4172 172.925 90.7766C171.874 91.0727 168.315 90.9269 166.131 91.4709L165.937 91.5201C164.26 91.8518 162.576 92.1459 160.885 92.4022C162.994 93.0212 165.336 93.4322 167.515 92.8532C168.201 94.5118 170.384 93.459 171.426 94.8706C170.844 95.4451 151.102 96.7312 147.712 97.708C138.684 100.309 123.379 107.126 114.29 105.129C113.997 99.8204 114.848 99.4865 118.185 95.068C118.555 94.5783 118.574 94.6069 118.488 94.1199L117.826 93.8025C115.898 94.11 116.341 95.9098 114.895 96.6153C114.616 95.961 116.105 93.8974 116.277 93.2366C116.548 92.1952 115.296 91.7093 115.533 90.2997C116.158 90.1586 115.781 90.9672 116.709 91.4591C117.693 91.1592 119.833 89.4695 121.04 88.7686C121.714 87.3274 121.856 86.4326 122.185 84.9655C123.32 79.914 123.356 76.794 122.203 71.8257C121.908 69.9559 122.266 68.9629 121.087 67.2562C119.078 64.351 115.122 58.9503 110.905 61.0926C109.661 61.7247 107.455 65.0495 106.374 66.186C105.412 67.1972 105.053 67.5017 103.828 68.3289C104.626 66.5934 105.065 64.7916 105.601 62.9675C105.635 62.8536 106.643 61.7685 106.817 61.5577L106.498 61.5583C105.071 62.5056 104.03 62.6291 102.356 63.0417ZM63.3662 100.129C60.8574 100.556 56.0723 101.047 53.4834 101.21C52.3841 102.777 51.9533 104.099 51.1037 105.433C49.5806 107.825 46.9232 109.13 47.7208 112.597C47.9376 113.54 47.8565 114.351 48.5514 114.838L48.8012 114.856C50.6624 114.865 54.7883 114.776 56.3894 115.138C56.957 113.048 57.208 111.664 57.5518 109.553C60.1621 106.846 60.2458 105.389 63.9886 102.492C64.0789 101.782 64.3164 100.75 64.0055 100.174C63.7728 100.142 63.5927 100.095 63.3662 100.129ZM122.622 88.7466C127.097 88.0966 131.566 87.4087 136.028 86.6832C137.456 86.4416 139.509 85.8768 140.817 85.7303C144.055 85.3345 147.062 84.0592 150.405 83.3656C152.529 82.9245 156.648 83.1676 157.578 82.9093L157.513 82.7494C156.275 82.3642 153.4 82.0174 152.005 81.8145C148.008 81.2335 141.423 79.9334 137.411 80.1426C130.657 80.5344 129.713 82.5488 123.956 85.6906C123.487 86.6994 122.998 87.7002 122.622 88.7466ZM70.5955 164.944C71.7981 165.554 72.4481 165.928 73.5688 166.68L74.1161 166.439C74.2314 165.56 72.8703 163.64 72.0815 163.3L70.5955 164.944ZM53.8888 99.5163C57.3802 99.7489 64.5434 99.355 67.3779 97.1302C68.3941 96.3326 69.6115 94.2932 70.7264 93.6338C77.6372 89.545 85.836 85.6822 88.946 77.6934C89.5071 76.2522 89.8278 74.6441 90.5145 73.2461C91.1585 71.9414 93.1509 69.7849 93.3259 68.3667C93.7683 64.7818 93.8928 61.9847 94.6259 58.3758C95.1474 55.8087 96.4835 53.3871 96.8813 51.5149L96.7026 51.2098L96.3892 51.246C93.9238 52.3027 89.0553 54.328 87.0107 55.9558C76.82 64.0693 66.8813 74.1478 59.4148 84.8184C57.2124 87.966 54.8637 94.0836 53.0043 97.7542C53.2273 98.2755 53.5402 99.1233 53.8888 99.5163ZM41.0657 195.436C45.0209 196.365 45.8129 198.362 50.1768 198.378C51.5397 198.054 51.9991 197.673 53.1455 196.936C52.9601 196.051 52.2758 194.159 51.9645 193.227C51.278 191.234 49.4054 184.781 49.9826 182.85L50.2743 182.759C51.4208 183.66 51.4826 184.485 51.8516 185.871C52.3299 181.923 53.8626 179.857 55.7806 176.473C56.4995 175.485 57.4407 172.589 58.1948 171.79C61.1979 168.61 66.7722 164.146 70.4235 162.008C66.5854 160.018 63.6271 159.354 59.5715 158.357C58.5149 158.098 57.2525 156.803 56.4505 156.743L56.2393 156.95C56.36 157.883 58.624 159.208 59.5952 160.284L59.1239 160.876C58.3756 160.333 56.9061 159.32 56.2903 158.743C55.7568 158.812 54.149 158.993 53.7861 159.274C51.3629 161.175 49.1582 163.099 46.5927 164.841C44.072 166.552 41.5017 167.603 38.8577 169.039C37.4209 169.82 37.6285 171.287 35.1209 170.919C34.9551 170.895 33.7894 171.8 33.4665 172.052C33.0883 173.311 32.7668 174.213 32.2801 175.436C33.3035 175.042 35.3963 174.071 36.4015 174.464C36.0085 175.181 33.7417 175.855 32.9081 176.131C32.389 179.833 34.6176 184.628 35.408 188.304C35.6838 189.587 36.1339 191.684 36.6009 192.892C37.8133 196.031 38.2019 196.245 41.0657 195.436ZM116.854 57.0509C117.165 55.3338 117.285 53.64 117.628 51.9413C117.891 50.6358 118.803 50.4953 119.625 49.4811C121.891 48.9071 121.296 51.7459 123.033 51.3758C124.238 51.1191 124.613 50.9449 125.856 51.2412C129.155 51.028 134.898 45.8255 137.779 44.217C139.77 43.1055 142.605 45.711 142.876 45.6097C143.041 43.6951 140.468 42.574 139.188 41.5495C135.915 38.9297 131.779 38.4033 127.63 38.6983C122.02 39.1543 122.537 40.5727 118.881 41.9891L118.851 42.0711C118.376 43.3748 117.295 45.0634 116.547 46.3182C114.707 49.4066 115.772 53.7737 116.854 57.0509ZM34.4062 212.433C35.2236 212.195 35.1847 212.342 35.6572 211.79C35.815 211.04 35.882 211.249 35.617 210.622C34.9265 210.188 33.6358 210.371 32.7187 210.372C28.1541 210.576 21.6964 209.93 17.0162 209.814C14.7516 209.758 11.5826 209.185 9.41656 209.376C12.9512 212.246 29.459 212.606 34.4062 212.433ZM53.255 204.966C54.4155 203.685 53.5094 199.026 53.2143 197.431C51.3049 199.5 50.4614 199.491 47.8373 199.04L47.727 199.014C45.5112 198.475 41.0529 195.494 38.9162 196.802C38.7608 198.331 43.1151 202.676 44.3755 203.677C46.2423 205.16 51.5421 207.82 53.255 204.966ZM74.6392 157.03C72.4487 155.859 71.5774 155.095 69.6968 153.534C69.1581 153.454 69.3781 153.416 68.868 153.716C68.9489 153.888 69.6612 154.488 69.853 154.661L69.6982 154.77C68.7425 154.646 67.0793 154.507 66.4422 153.81L66.5387 153.474C67.6258 152.781 69.846 152.48 71.128 152.42C71.5957 152.989 71.7134 153.18 72.3598 153.548C72.8341 153.852 74.2833 156.425 74.6392 157.03ZM55.7068 156.117C56.2113 155.681 56.3642 155.593 56.4841 154.912C56.2133 152.486 49.5009 150.198 47.5464 149.11C48.133 151.995 49.7439 153.471 51.9183 155.291C52.2964 155.607 52.896 156.026 53.3755 156.128C55.144 155.564 54.1735 155.698 55.7068 156.117ZM141.993 78.3204C145.756 78.9717 148.866 79.13 152.673 79.3925C153.62 77.6196 154.882 74.6118 156.001 73.163C156.887 72.0153 158.81 70.8768 159.804 69.3535C161.484 66.782 162.422 62.9114 164.07 60.5133C165.376 58.6126 169.982 56.0872 171.865 54.4155C172.928 53.4712 173.211 51.7609 174.442 50.9842C177.408 49.1129 178.942 48.7402 181.729 46.5C180.197 45.8774 179.191 45.0754 177.808 44.3879C173.974 42.4815 172.862 48.9308 171.847 50.8713C170.742 52.9849 166.629 55.1296 164.5 55.8958C163.13 59.3718 162.298 59.5045 160.499 62.456C158.719 65.3764 157.47 68.5079 154.883 71.0341C155.829 68.5815 157.168 67.4643 157.965 65.5618C159.614 61.6204 161.324 58.5902 163.428 54.9146C166.762 53.1469 171.757 50.7904 172.089 46.6027C172.401 42.6719 173.701 45.5545 175.567 43.4608C175.792 42.7273 175.783 43.0402 175.573 42.2717C165.738 37.613 155.173 33.1627 144.588 30.4707C139.063 29.6356 132.347 28.0153 126.801 28.9051C122.113 29.6573 117.007 30.5281 112.356 31.3719C110.897 31.6367 106.937 34.2848 105.418 35.0589C105.003 35.2705 105.028 36.1769 105.082 36.589C105.515 36.7998 106.437 35.5427 106.948 35.2606C107.539 34.934 108.039 34.7519 108.67 34.5446C106.582 39.0242 105.122 40.8503 102.237 44.864C101.388 46.0466 100.486 48.5392 99.8262 49.9077C96.8049 56.1732 96.2403 60.272 95.6063 67.001C96.985 65.7692 98.2433 64.9248 99.4562 63.5034C100.743 61.9955 101.928 60.031 103.368 58.7059C106.46 55.8611 110.085 54.9356 114.179 55.0668C114.056 52.4436 113.725 48.4429 114.573 45.9459C115.56 44.1201 118.091 41.1228 119.612 39.7302C123.613 36.0663 130.424 35.9419 135.265 37.6103C138.385 38.6855 140.992 41.1576 143.268 43.39C144.044 44.1505 145.154 44.6122 145.603 45.638C145.958 47.4101 144.04 50.8032 143.57 52.5739C143.254 53.7641 143.223 54.1949 142.844 55.2067C142.204 55.6569 141.009 55.9232 140.351 55.3901C140.736 54.7979 141.015 54.4333 141.534 53.9433C142.747 52.7993 142.912 51.2602 143.281 49.7336C142.94 48.8533 142.705 48.303 142.268 47.4677C141.568 46.9594 140.77 46.756 139.947 46.492C135.899 45.9172 135.34 45.8946 133.666 48.8201C133.156 49.7123 132.422 48.2649 131.061 50.3059C129.001 51.3577 128.994 50.7712 126.974 52.5163C126.832 53.722 126.874 55.1082 125.386 55.1655C123.766 54.2862 123.323 52.6684 122.371 52.1667L122.028 52.269C121.719 53.5537 123.387 54.526 121.725 55.6473C121.225 55.9843 120.988 55.9678 120.484 55.904C120.203 55.4163 120.27 55.6363 120.313 54.9911C120.703 54.5805 120.991 54.5837 121.553 54.465L121.526 54.1455C120.598 53.6532 120.831 54.5951 120.325 53.8292C120.318 53.2316 120.418 52.4742 120.122 52.0594C118.669 52.8422 119.155 56.3058 119.458 57.7658C120.427 57.8793 122.062 57.8671 122.729 58.2405C122.989 58.8705 122.225 60.8448 122.831 63.2197C123.427 65.136 124.113 66.0178 125.227 67.6751L123.721 67.2797C123.436 66.6435 123.177 66.4767 122.654 66.0186C121.868 62.6974 122.119 60.4957 119.14 59.0925C118.606 58.8412 118.538 58.5702 117.804 58.4817L117.605 58.7285C118.105 59.9876 120.083 61.4063 120.623 62.3346C122.122 64.91 121.53 66.1261 123.847 68.2762C124.893 69.9363 125.284 70.7336 126.983 71.7927C127.662 71.8493 127.405 71.918 127.955 71.55C128.132 70.2922 126.69 70.4528 126.269 69.4025L126.308 69.2842C127.703 69.3419 128.829 71.8525 130.73 70.4854C131.732 70.4776 133.113 70.2734 134.136 70.1527C134.714 69.2446 135.047 69.1055 135.75 68.3357L135.622 67.983C135.041 67.8062 134.59 67.6929 133.999 67.5609L133.948 67.2687L134.466 66.7433C134.589 63.6337 135.848 64.5714 138.256 64.3965L138.376 64.3869C143.293 60.3823 139.388 61.0576 140.126 56.2225L140.569 56.1442C141.138 56.6229 143.233 61.1231 143.267 61.9597L142.755 63.2373C141.817 64.0519 140.231 64.3622 138.988 64.7C137.229 66.1932 136.526 65.2855 135.339 66.152L135.451 66.4258C136.831 66.6989 136.936 66.3053 137.955 66.436C137.8 66.9077 137.911 66.7401 137.47 67.0466C137.139 67.7543 136.984 68.0799 136.781 68.8322C136.329 69.2118 134.712 70.6041 134.266 70.7869C132.807 71.3855 129.294 71.5214 128.6 73.1488C129.382 75.1479 130.63 76.0728 131.576 78.6828C135.721 78.242 137.516 77.6784 141.993 78.3204ZM79.5108 161.618C80.7278 161.014 82.9367 159.338 84.2508 158.544C87.9979 156.282 93.0846 152.94 97.0883 151.262C100.141 149.982 104.856 148.793 108.105 147.644C111.691 146.375 114.261 146.442 117.461 144.18C121.021 134.687 112.964 130.082 106.589 125.017C97.1358 117.509 87.8663 109.378 77.1551 103.698C74.3337 102.202 70.6107 102.286 67.5227 102.278C69.6021 105.955 71.2453 105.712 72.8333 108.212L72.758 108.422C71.8505 108.21 71.9072 107.903 71.2864 107.405C69.1975 105.729 68.3895 105.282 67.1239 102.957C66.7427 103.026 65.4605 103.16 65.1856 103.303C63.148 104.361 60.7313 107.72 59.8654 109.785C58.8274 112.26 57.7658 116.736 58.3654 119.385C58.776 120.964 59.5157 122.48 59.6124 124.127C59.7225 126.005 59.2706 127.901 59.3829 129.78C59.4322 130.604 59.9529 131.785 60.2602 132.568C63.2147 134.096 66.2983 133.688 69.5351 134.292C71.8633 134.727 73.3702 135.321 75.5555 136.152C79.9024 134.426 82.9311 134.681 87.1408 133.281C88.0279 132.986 89.7578 131.029 90.6312 130.384C92.3255 129.134 94.128 127.758 95.9422 126.671C96.4729 126.698 96.2759 126.614 96.6749 127.004C96.6621 127.741 95.7761 128.723 95.304 129.352L95.4417 129.508C96.4355 129.239 97.4054 129.29 98.0727 129.102C98.4811 128.467 98.5966 127.082 98.7165 126.279C99.2128 127.015 99.9607 127.708 100.196 128.463C100.009 129.092 99.4062 129.386 98.8298 129.793L98.7952 130.045C100.476 130.233 104.092 128.605 105.404 129.734C105.039 130.232 103.716 130.159 103.153 130.46C97.5764 133.444 92.4943 134.547 86.2712 135.461C83.8326 135.82 80.744 136.967 78.2465 137.567C75.3643 138.259 72.4837 140.077 69.5875 140.843C66.3503 141.735 63.0457 141.918 59.7673 142.876C56.3338 143.879 52.101 145.87 48.6627 146.396C50.4999 148.126 53.7943 149.803 55.989 151.251C57.4523 152.72 59.1139 154.528 60.9204 155.584C64.4125 157.625 68.5481 158.164 72.0817 160.233C73.0825 160.819 76.6064 163.672 77.0486 163.737C77.8205 163.026 78.6537 162.208 79.5108 161.618ZM109.501 58.785C111.325 58.357 113.819 57.8389 115.511 57.1764C114.611 57.1932 112.698 57.1866 111.891 57.3127C109.482 57.5252 108.149 57.989 105.889 58.8919C107.128 58.8811 108.263 58.8719 109.501 58.785ZM159.965 168.029C160.525 166.854 163.255 160.899 163.543 159.982C164.342 157.437 164.957 151.18 165.331 148.171C165.771 143.099 166.5 139.029 169.412 134.745C170.626 132.958 171.995 131.06 172.607 128.973C173.841 124.112 171.777 118.752 174.66 114.19C175.006 113.641 175.388 112.884 175.893 112.484C176.394 112.929 176.029 114.992 175.952 115.707C180.204 112.996 183.35 104.659 185.938 102.877L186.201 103.003C185.617 104.316 183.701 106.48 182.837 107.719C182.229 108.59 181.887 110.673 181.405 111.436C178.587 115.9 174.645 118.806 175.008 124.611C176.942 121.677 177.486 121.569 179.741 119.065C182.268 116.258 184.591 112.347 185.951 108.807C187.321 105.242 186.97 102.314 188.481 98.8707C188.905 97.9029 189.219 96.6685 189.808 95.746C190.32 94.9457 191.658 93.6826 191.829 92.8682C191.715 92.6849 191.657 92.5437 191.494 92.416C185.794 96.2517 181.25 99.392 178.017 105.599C176.772 107.99 174.505 110.591 173.225 113.034C170.692 117.986 164.736 129.768 163.791 134.834C163.771 134.939 163.752 135.045 163.735 135.151C163.845 135.414 165.013 138.175 165.023 138.151C164.335 139.771 163.619 140.954 163.197 142.698C161.872 148.185 160.449 153.716 158.554 159.035C157.904 160.858 156.261 163.092 157.313 164.913L157.201 165.207C155.837 165.781 154.473 166.386 153.074 166.863C152.442 167.079 151.156 167.089 150.83 167.656C151.861 168.935 158.05 167.925 159.965 168.029ZM195.316 69.8009L194.883 69.5711C195.143 68.661 196.264 65.587 195.57 64.8005C193.773 62.7637 191.035 61.4678 188.513 60.3387C184.278 58.4426 179.626 56.9186 175.145 55.6854C173.978 55.4623 173.419 55.3364 172.624 56.2863C170.75 58.5231 167.66 59.4831 165.811 61.8191C164.186 63.8731 164.06 66.6685 162.612 68.9067C161.271 70.9803 159.578 72.6329 158.042 74.5512C156.545 76.397 155.803 78.0798 154.627 80.0025C157.35 80.3893 160.083 81.3828 162.779 82.0381C164.632 82.4883 166.265 82.0523 167.882 82.3278C170.142 82.7125 172.563 83.6554 174.945 83.851C175.176 83.8701 175.718 84.7863 175.856 85.0292C176.692 85.6984 178.991 85.6576 180.113 85.5078C186.638 84.6378 187.781 82.6651 191.685 77.887C192.761 76.5711 194.318 73.7706 194.694 72.1797C194.852 71.6946 195.334 71.1671 195.667 70.7601C195.715 70.112 195.792 70.3701 195.316 69.8009ZM127.609 78.0476C126.505 78.6141 126.203 78.7409 125.002 79.0616C124.901 79.9088 124.637 81.4143 124.838 82.1794L125.107 82.4124C125.695 82.3231 125.85 82.0863 126.287 81.6715C127.322 80.5528 129.339 79.531 129.539 78.8169C129.138 78.1747 128.32 78.0962 127.609 78.0476ZM153.91 84.9497C149.061 85.1441 148.345 86.2324 143.657 87.2031C137.9 88.3951 128.503 87.9643 123.712 91.9277C123.022 92.4989 121.738 95.2768 120.686 95.4566L120.377 95.0215C120.574 93.9379 121.519 93.1327 121.472 92.5171C120.792 92.4837 119.499 93.1593 119.013 93.6382C119.015 94.7403 119.815 93.8874 119.052 95.0708C117.732 97.1184 114.908 100.273 115.031 102.838C115.612 103.131 116.363 103.775 116.98 103.818C119.523 103.996 134.062 100.31 137.056 99.3217C139.352 98.5646 141.621 97.6907 143.933 96.9907C146.461 96.2257 156.665 94.2069 157.586 92.441C158.266 91.1373 157.936 88.95 157.481 87.5881C157.247 86.8884 156.867 86.2155 156.512 85.5709C155.959 85.4254 154.397 84.9759 153.91 84.9497Z" fill="black"/>
<path d="M168.928 84.7578C169.837 85.2347 169.493 85.8701 169.661 86.7972C170.53 86.9702 170.379 86.4789 171.344 86.4513C171.54 87.003 171.493 86.7902 171.324 87.4901C170.537 87.8444 169.722 88.0859 169.031 87.5109C168.719 86.7732 168.88 85.5966 168.928 84.7578Z" fill="black"/>
<path d="M112.242 123.297C113.811 123.706 113.804 124.655 113.557 125.99C113.352 125.859 112.282 123.542 112.242 123.297Z" fill="black"/>
<path d="M89.2344 120.891C91.085 122.008 92.4871 123.266 94.2014 124.541C94.7141 124.922 95.3788 125.239 96.0448 125.731C94.1514 125.926 89.9959 122.389 89.2344 120.891Z" fill="black"/>
<path d="M105.221 134.948C105.517 134.92 105.38 134.893 105.643 135.037C105.216 135.634 103.12 135.987 102.342 136.141L102.086 136.037C102.396 135.645 104.533 135.173 105.221 134.948Z" fill="black"/>
<path d="M132.25 54.9727C133.501 54.9733 135.553 55.7192 136.613 56.5023C136.955 57.001 136.948 57.5726 137.002 58.175L136.803 58.159C134.498 57.9606 133.692 56.6697 132.25 54.9727Z" fill="black"/>
<path d="M133.664 51.7271C134.219 51.63 137.983 52.4015 138.386 53.0243C137.941 54.9134 134.9 53.4586 133.961 52.5104L133.664 51.7271Z" fill="black"/>
<path d="M137.334 60.9102C138.348 61.4311 139.393 61.2311 140.018 61.8311L139.821 62.0711C138.947 62.5492 138.412 62.849 137.46 62.4495C137.093 61.7304 137.225 61.8517 137.334 60.9102Z" fill="black"/>
<path d="M133.964 52.5099C133.256 52.4198 132.323 52.4515 131.789 52.1101C132.274 51.7494 133.041 51.773 133.667 51.7266L133.964 52.5099Z" fill="black"/>
<path d="M10.7214 207.285C14.6617 207.506 33.407 208.002 35.8486 209.558C34.8521 210.297 34.0563 210.115 32.718 210.371C28.1533 210.575 21.6956 209.928 17.0154 209.813C14.7509 209.757 11.5819 209.184 9.4158 209.375C9.08105 208.98 9.07889 208.864 8.92188 208.356C9.58706 208.006 10.0883 207.692 10.7214 207.285Z" fill="black"/>
<path d="M9.41406 209.375C11.5801 209.184 14.7491 209.757 17.0137 209.813C21.6939 209.928 28.1516 210.575 32.7162 210.371C33.6333 210.37 34.924 210.187 35.6145 210.621C35.8795 211.247 35.8125 211.039 35.6547 211.789C35.1822 212.341 35.2211 212.193 34.4037 212.432C29.4565 212.604 12.9487 212.245 9.41406 209.375Z" fill="black"/>
<path d="M105.227 207.51C108.837 207.357 113.165 207.226 116.745 207.54C120.031 207.829 120.438 209.095 124.183 208.8C125.257 209.638 125.821 209.6 127.192 209.779C124.632 209.903 119.626 209.815 117.574 210.039L106.194 209.627L106.793 209.286C107.038 208.657 107.033 208.914 106.852 208.313C106.324 207.74 105.982 207.707 105.227 207.51Z" fill="black"/>
<path d="M92.307 207.659C96.1514 207.364 101.305 207.475 105.227 207.512C105.982 207.71 106.324 207.742 106.853 208.315C107.034 208.916 107.038 208.66 106.794 209.288L106.195 209.63C101.604 210.226 95.7368 208.416 90.9241 209.683C90.5729 209.775 89.8616 209.899 89.5179 209.776C89.3864 209.282 89.6737 208.583 89.8286 208.051L92.307 207.659Z" fill="black"/>
<path d="M76.1517 209.934L76.0916 210.679C76.48 210.974 76.479 210.886 77.0385 210.965C75.9797 211.296 72.8777 211.161 72.4329 211.769C72.9365 212.225 73.8919 212.279 74.5717 212.37C73.4566 212.438 72.7628 212.362 71.6677 212.329C70.6867 212.299 69.5352 212.57 68.6175 212.624C69.6375 212.256 71.0353 211.872 72.0937 211.554C67.6216 210.926 57.2208 213.769 54.75 210.739C55.6359 210.256 58.9293 211.449 60.1499 211.385C63.9586 211.185 67.7024 210.621 71.5354 210.532C72.8485 210.502 74.7699 210.078 76.1517 209.934Z" fill="black"/>
<path d="M140.351 55.3885C141.008 55.9217 142.203 55.6554 142.844 55.2052L143.098 55.7121C144.359 56.015 145.037 55.1355 146.509 55.1133C145.297 56.903 144.573 59.6539 143.267 61.9582C143.233 61.1215 141.138 56.6214 140.569 56.1427L140.126 56.221C140.116 55.8906 140.228 55.6942 140.351 55.3885Z" fill="black"/>
<path d="M140.125 56.2228L140.568 56.1445C141.137 56.6232 143.232 61.1234 143.266 61.96L142.754 63.2377C141.816 64.0522 140.23 64.3625 138.986 64.7003L138.375 64.3872C143.292 60.3827 139.386 61.0579 140.125 56.2228Z" fill="black"/>
<path d="M35.8494 209.559C39.912 211.136 42.4464 210.284 47.0611 212.639C45.3447 212.677 43.7589 211.896 42.2192 211.906C39.6307 211.923 37.0498 212.47 34.4062 212.433C35.2236 212.194 35.1848 212.341 35.6572 211.79C35.815 211.039 35.882 211.248 35.617 210.622C34.9265 210.187 33.6358 210.371 32.7188 210.372C34.0571 210.115 34.8528 210.298 35.8494 209.559Z" fill="black"/>
<path d="M74.6423 157.031C72.4518 155.861 71.5805 155.096 69.6999 153.536C69.1612 153.455 69.3812 153.418 68.8711 153.718C68.952 153.89 69.6643 154.49 69.856 154.662L69.7013 154.771C68.7456 154.648 67.0823 154.509 66.4453 153.812L66.5418 153.476C67.6289 152.782 69.849 152.482 71.1311 152.422C71.5987 152.991 71.7165 153.182 72.3629 153.55C72.8371 153.854 74.2864 156.427 74.6423 157.031Z" fill="black"/>
<path d="M76.1538 209.933C78.9155 209.218 84.3448 208.257 87.1245 208.109C86.9407 208.656 87.0368 208.68 86.5433 208.908C84.6399 209.788 79.0566 209.896 77.5654 210.677L77.3988 210.763C77.2687 210.831 77.1652 210.889 77.0407 210.964C76.4811 210.885 76.4821 210.973 76.0938 210.678L76.1538 209.933Z" fill="black"/>
<path d="M123.852 68.275C121.535 66.1249 122.126 64.9087 120.628 62.3334C120.088 61.4051 118.109 59.9863 117.609 58.7273L117.808 58.4805C118.543 58.569 118.611 58.84 119.144 59.0913C122.124 60.4944 121.873 62.6962 122.658 66.0174C123.181 66.4755 123.44 66.6422 123.725 67.2785L123.852 68.275Z" fill="black"/>
<path d="M160.883 92.4016C162.573 92.1453 164.258 91.8513 165.935 91.5195C166.721 91.6681 167.58 91.6228 168.242 91.9542L168.128 92.2304C167.828 92.3345 167.509 92.4364 167.22 92.5638L167.513 92.8526C165.334 93.4316 162.991 93.0206 160.883 92.4016Z" fill="black"/>
<path d="M138.379 64.3867L138.991 64.6998C137.232 66.1931 136.529 65.2854 135.343 66.1518L135.454 66.4257C136.834 66.6988 136.94 66.3052 137.958 66.4359C137.804 66.9076 137.914 66.74 137.473 67.0465C137.091 66.895 135.166 66.8319 134.469 66.7432C134.592 63.6336 135.851 64.5713 138.26 64.3963L138.379 64.3867Z" fill="black"/>
<path d="M59.5963 160.285C61.8366 162.814 62.6038 163.176 63.59 166.512C62.7145 165.145 62.178 164.208 61.0871 162.979C60.7436 162.592 59.2882 161.112 59.125 160.878L59.5963 160.285Z" fill="black"/>
<path d="M83.6875 87.9667L84.2973 87.802L84.4581 87.457L84.5788 87.5215C85.816 88.1671 85.8999 87.7928 87.0898 88.7803L87.108 88.9601C85.5679 88.662 85.1882 88.0142 83.6875 87.9667Z" fill="black"/>
<path d="M195.315 69.8008C195.79 70.3699 195.714 70.1119 195.666 70.7599C195.333 71.1669 194.851 71.6944 194.693 72.1795L194.367 71.2636C194.635 70.9955 195.094 70.1717 195.315 69.8008Z" fill="black"/>
<path d="M194.884 69.5703L195.317 69.8001C195.096 70.1711 194.638 70.9949 194.37 71.263C194.081 70.52 194.499 70.1633 194.884 69.5703Z" fill="black"/>
<path d="M45.3629 117.145L45.4758 117.732C44.7853 118.01 43.7581 118.523 43.2692 119.073L43.3725 119.371C44.9569 119.776 47.0321 119.24 48.796 119.649L48.8513 119.848C47.3812 120.51 43.3501 119.762 41.5598 120.757C39.8731 121.695 37.0622 122.118 35.4724 123.054L35.3437 123.131L35.2656 122.885C35.8838 121.962 39.958 120.808 41.3237 120.288C42.6038 118.394 43.3063 117.959 45.3629 117.145Z" fill="black"/>
<path d="M27.5312 126.503C29.0023 125.911 31.1938 124.676 32.4581 124.263C34.7765 123.505 38.738 124.116 41.5005 124.038C42.1469 124.099 42.7937 124.038 43.2003 124.401C42.3853 124.947 35.6215 124.512 33.6048 124.834C30.756 125.288 30.1484 126.266 28.465 126.752L27.5312 126.503Z" fill="black"/>
<path d="M25.8779 128.109C26.6042 128.409 26.3762 128.282 26.8474 129.031C24.1041 129.443 23.1146 129.551 21.1206 131.599C20.4774 131.941 15.0148 133.867 14.4531 133.807C15.3391 133.196 15.6662 132.977 16.6428 132.548C18.5911 131.781 19.8687 131.064 21.6792 130.055C22.2413 129.9 24.5228 128.561 25.8779 128.109Z" fill="black"/>
<path d="M6.30469 139.058C6.57962 136.875 12.2289 134.814 14.1188 134.039L14.2425 134.309C12.1877 135.521 9.93067 136.403 8.07295 137.887C7.18022 138.6 7.69881 140.26 7.11616 140.954C6.4162 140.482 6.70009 139.784 6.30469 139.058Z" fill="black"/>
<path d="M1.92903 140.032C3.0993 139.224 4.22524 138.955 5.61566 139.238C4.94989 139.626 0.530632 141.755 0 141.583V141.36C0.747603 140.899 1.23305 140.567 1.92903 140.032Z" fill="black"/>
<path d="M25.875 128.11C26.0986 128.031 26.6952 127.085 27.526 126.504L28.4597 126.753C27.8575 127.032 26.9701 127.493 26.8381 128.202C27.2163 128.578 27.0433 128.467 27.6994 128.512L27.8061 128.952L27.5352 129.02L26.8445 129.033C26.3733 128.283 26.6013 128.41 25.875 128.11Z" fill="black"/>
<path d="M27.7031 128.51C29.2342 128.122 30.7603 128.412 32.3038 128.649C30.6506 128.839 29.4749 128.911 27.8098 128.949L27.7031 128.51Z" fill="black"/>
</g>
<defs>
<clipPath id="clip0_1209_2965">
<rect width="211.406" height="205" fill="white" transform="translate(0 22)"/>
</clipPath>
</defs>
</svg>
