<svg width="212" height="249" viewBox="0 0 212 249" fill="none" xmlns="http://www.w3.org/2000/svg">
<path d="M60.4385 28.5684C65.2022 26.4982 67.3728 26.5861 72.2078 28.3989C82.8963 32.4063 82.4341 45.15 79.3941 54.1864C78.9591 55.4672 78.2017 56.7452 77.7327 58.0924C80.5497 59.0411 83.8798 60.7201 86.7194 61.8496C88.3663 62.5047 91.1573 64.3277 92.9413 65.2803C98.9645 68.4962 106.028 70.9217 110.339 76.4569C111.105 77.44 112.778 78.4482 113.544 79.5266C116.672 84.2064 120.389 86.9757 124.764 90.2684C126.049 91.2349 128.208 94.6802 129.643 95.8532C131.639 98.3391 133.341 101.054 135.866 103.25C136.125 97.8154 136.646 92.4232 136.764 86.9987C136.8 85.3586 136.756 83.7 136.816 82.0592C137.749 71.9319 137.215 61.7801 138.4 51.6784C138.636 49.6689 138.419 42.2224 139.502 41.1315C143.004 39.5482 166.263 44.6383 171.335 45.6702C172.915 45.9916 176.19 46.2785 177.697 46.7792C178.518 47.5753 175.059 78.0887 174.686 81.6907C174.346 86.4239 174.111 91.1635 173.821 95.8988C173.283 104.681 171.722 113.744 171.641 122.526C171.555 131.875 171.335 141.374 171.418 150.707C171.565 167.126 171.326 183.738 173.587 200.028C173.893 202.179 174.427 204.721 173.619 206.775C171.307 207.226 170.387 207.289 168.039 207.12C166.671 204.891 166.441 204.924 165.968 202.386C165.498 199.86 164.304 180.436 163.649 179.696C162.069 179.392 149.779 185.504 146.935 186.119C146.081 186.303 144.007 187.496 143.037 187.855C140.248 189.216 137.078 190.138 134.296 191.45C129.541 193.693 125.985 195.835 120.767 196.942C120.369 198.899 120.506 201.555 120.546 203.614L120.513 218.639C120.511 221.405 120.578 225.75 120.365 228.415L120.1 228.974C119.177 229.616 115.924 230.084 114.538 230.427C109.491 228.095 110.089 224.385 110.163 219.604C110.195 217.539 110.273 215.445 110.324 213.379C110.542 203.181 110.644 192.982 110.631 182.784C110.63 179.183 110.897 174.928 110.457 171.441C110.365 170.708 109.231 169.127 108.753 167.872C103.437 168.556 98.2584 169.81 93.0352 170.996C91.8894 171.257 92.4375 177.94 92.4736 179.224L92.8266 192.859C92.881 195.066 93.2773 197.739 92.3016 199.705C91.4604 200.044 90.4759 200.336 89.6457 200.728C87.6172 201.688 84.9777 198.096 84.6118 196.459C84.4228 195.003 84.164 191.461 84.2705 190.2C84.5886 186.434 83.1548 160.064 84.4325 158.06C84.732 158.244 84.8237 158.471 84.8364 158.84C85.1834 168.86 84.5768 178.904 84.8783 188.928C84.9485 191.254 84.8842 193.728 85.2893 196.01C85.3729 196.481 86.5436 198.259 86.8428 198.72C86.49 195.609 86.6615 192.602 86.3951 189.566C85.9408 184.383 85.6865 179.692 85.7153 174.485L85.8687 162.802C85.889 161.432 86.0216 157.595 85.7729 156.497C85.1461 156.446 81.8938 157.578 81.1988 157.835C76.7406 165.16 78.9865 168.766 78.033 176.846C77.6321 180.263 76.5327 183.469 75.7117 186.805C74.1747 193.057 73.7576 199.706 74.5866 206.098C75.2042 210.858 80.8654 213.47 79.4299 218.634C78.5801 221.692 74.1804 223.641 71.376 224.504C69.9458 224.944 67.9437 224.93 66.4796 225.513C65.4622 225.93 63.9885 227.001 62.9823 227.585C58.3477 230.271 52.3968 231.996 47.1283 230.254C43.6004 229.087 36.7037 228.101 38.1623 222.869C38.5024 221.649 39.777 219.47 40.945 218.837L41.053 218.78C45.5423 216.353 52.8169 215.961 56.2559 210.874C50.2612 211.455 46.8651 210.121 41.7146 206.946C40.4563 201.126 42.7944 197.039 43.6248 191.537C44.0568 188.675 43.9032 185.58 44.6919 182.792C45.9131 178.476 47.9386 174.36 48.8943 169.944C49.6158 166.61 51.7361 151.64 53.1699 149.406C53.3034 149.198 53.2613 149.182 53.239 148.946C52.1226 148.529 48.1599 150.036 46.8432 150.489C43.651 154.527 46.4471 157.05 42.3271 159.678C41.9909 158.984 41.4001 157.958 41.3788 157.236L41.6071 157.114C42.4761 157.471 43.0012 157.879 43.8532 157.438C44.282 156.84 44.5395 154.622 44.1282 153.99C43.7904 154.02 43.6872 154.056 43.4157 154.267C42.8617 154.696 42.5012 155.33 42.0008 155.816C41.587 156.218 40.9469 156.541 40.604 156.988C40.3133 157.367 41.9636 161.812 42.1379 162.768C41.9249 163.348 41.7029 164.226 41.226 164.53L41.0035 164.451C40.8693 163.792 41.1902 162.767 41.3531 162.075C41.0012 161.02 39.4996 158.837 38.6104 158.158L38.3755 158.221C38.3162 158.714 38.2448 159.205 38.1614 159.695C37.7549 159.649 37.7411 159.652 37.3471 159.778C36.8965 160.252 36.6508 161.49 36.4622 162.175L36.1923 162.271C35.7105 161.946 35.3847 161.144 35.1067 160.596C35.2064 160.164 35.6249 158.202 35.7851 158.008C37.2205 156.275 39.6773 155.01 41.38 153.554C42.9636 152.2 44.3532 150.927 45.952 149.663C46.2366 148.755 46.6767 147.1 47.2537 146.426C47.8064 146.218 47.6128 146.215 48.1141 146.291C48.1933 146.725 48.203 146.987 48.2233 147.423C48.821 148.084 49.4884 148.003 50.3301 147.834C57.7292 146.353 64.4835 144.307 71.3454 141.15C74.2361 139.82 76.9085 139.215 79.8466 137.53C80.7038 135.417 80.1276 135.209 80.5557 133.877C83.1072 125.94 83.7018 117.756 84.7447 109.546C85.0347 107.262 85.1509 104.165 85.5021 102.009C86.2531 97.3993 87.2444 94.2408 87.4729 89.4715C86.9167 89.1032 86.5137 88.7263 86.0168 88.285C83.0825 89.3632 79.3534 89.5504 76.2999 90.2646C72.8499 91.0715 70.0397 93.5175 67.2959 95.6287C67.2826 97.5442 67.8222 100.929 68.0846 102.963C69.2301 111.845 70.8644 119.07 69.1713 128.038C68.11 129.142 66.9636 129.914 65.8371 130.95C56.5513 139.489 42.4169 141.215 35.0568 152.007C33.734 153.947 33.9086 159.113 33.93 161.424C34.4449 162.142 34.9831 162.775 35.5099 163.468C35.8496 163.915 35.5638 164.622 36.4046 164.897C36.8041 164.648 37.0625 163.833 37.4371 163.274C37.9673 163.757 38.2977 164.114 38.9635 164.129C39.5113 163.484 38.9522 163.109 39.4378 162.272L39.7114 162.449C39.9997 162.95 40.0068 163.429 40.0414 164.004C40.0472 164.101 39.9387 164.483 39.9092 164.485C37.8627 164.673 37.8583 164.342 36.3385 165.895C35.1099 164.746 34.4044 163.055 33.075 161.511C32.958 159.569 32.8544 157.508 32.9341 155.614C33.0667 152.472 35.749 148.439 37.5922 145.891C38.7171 144.335 40.0071 141.278 40.8633 140.276C42.6615 138.544 44.4123 135.869 46.2718 134.272C50.3368 130.781 54.2087 127.086 58.1545 123.459C59.3426 122.367 61.1811 121.231 62.2261 120.136C64.1572 118.11 65.5921 116.326 67.7365 114.457C67.7793 110.073 66.1457 103.867 65.7849 99.3056C65.7045 98.2887 64.2415 95.8486 64.1922 94.8959C63.9732 90.6639 62.8748 87.4779 61.2359 83.623C60.7111 82.3781 60.9476 78.4942 60.995 76.9355C54.6377 76.7646 49.8856 73.1099 43.8051 75.2123C43.2057 75.3915 43.0362 75.4522 42.4796 75.7452C38.8467 77.1752 38.8027 75.0173 37.9928 72.3824C37.7556 71.6109 36.7717 70.7483 37.0554 69.8115L37.3374 69.6607C37.8249 69.9753 37.701 69.9644 37.9493 70.617L38.5395 70.7532C39.8318 71.9209 38.3528 74.2027 39.9578 75.4417C40.9551 75.3351 49.853 71.2156 51.315 70.4004L51.4504 70.5266C51.3762 70.8379 51.07 71.6885 50.8542 71.7392C49.6415 72.0245 48.4077 73.1078 47.4256 73.8407C48.3999 73.8757 50.6193 73.9345 51.4909 74.1305C54.7035 74.8533 57.6548 75.9674 61.0003 76.109C60.6777 70.1243 60.7816 69.5057 62.7367 63.9714C64.0649 60.2112 62.4115 61.401 65.9428 57.4365L66.3495 57.5157L66.125 57.2624L66.1885 57.2074L66.4602 57.2339L66.3113 57.1148L66.4826 57.0978C66.347 58.0472 65.378 59.2841 64.808 60.0983C67.147 58.7938 69.5334 57.712 72.0581 56.2755C71.2692 53.2652 70.5788 51.8714 68.4892 49.5578C68.122 49.1513 67.313 48.5369 67.208 48.3559C67.9106 48.0153 68.6709 48.679 69.5981 48.2456L69.8862 48.259C70.8015 47.7689 71.353 47.1711 71.5913 46.1505C72.2117 43.4928 71.5372 41.3846 69.7109 39.565C69.5794 36.4401 69.6959 35.2378 67.3132 32.8625C67.1276 32.8316 66.2212 32.6777 66.1351 32.5974C65.5053 32.01 65.4459 31.2774 64.569 31.6852C64.6349 32.8846 66.341 33.3373 65.6776 34.611L65.0756 34.9096C64.803 34.4861 65.0749 34.3217 64.925 34.0138C64.5849 33.3154 64.0769 32.4944 63.676 31.8236C63.1302 31.8234 63.3278 31.7495 62.9262 32.0852C62.6045 33.4656 64.6733 35.8888 65.7775 36.6936C66.0685 37.6145 66.533 38.7788 66.775 39.6447C65.8913 38.0223 63.0356 34.6132 61.6456 33.5418C60.85 30.7687 60.7972 31.2977 59.1159 29.098C54.3574 28.381 53.9056 29.1492 49.4202 30.5514C46.1788 31.5646 42.4729 32.321 39.2283 33.5383C37.0109 34.3705 29.4198 41.5265 29.0595 43.2821C29.6583 45.8279 35.5968 45.9566 37.6734 48.1883C38.6171 49.2024 44.9645 53.3557 46.0954 53.6258C48.1219 52.1226 49.9536 50.3229 52.713 51.6289C53.9648 53.3092 55.8282 55.6677 56.2068 57.7598C56.2261 58.6526 56.1055 58.4164 56.5382 59.1245L56.8009 59.0153L56.9237 58.473C57.7062 57.1036 57.0321 56.885 57.5263 56.1295L57.7789 56.2078C58.4205 57.4457 58.0857 58.9833 56.7721 59.5989C56.351 59.7962 55.28 59.5477 54.8016 59.4607C53.8692 61.0803 54.2762 61.1731 53.7868 62.7781C53.6198 63.3255 52.2502 64.7371 51.9886 65.3611C51.361 66.8578 51.1879 68.3361 50.3918 69.7834C50.5293 68.7363 50.7796 63.3388 51.3329 62.9519C51.7507 62.6595 52.3445 62.7166 52.4959 62.1531C52.673 61.494 52.3821 60.6998 52.5705 60.0638C52.6547 59.7805 53.9727 58.4808 54.348 57.5735C54.2515 56.2386 54.3029 54.9755 53.2479 54.0544C53.1635 53.9812 53.0776 53.9098 52.9903 53.8403L52.7628 53.8904C52.7298 53.9892 52.2656 55.5372 52.3414 55.4502C51.6452 56.2485 50.9755 56.21 51.2284 57.3796C51.6268 57.8441 51.7511 57.9896 52.2396 58.3765C52.3591 58.931 52.3886 58.6971 52.0643 59.2601C51.1579 59.6018 50.1496 59.2233 49.7403 58.2934C49.3684 57.4489 49.9593 55.4755 49.5547 54.7208L49.2936 54.6115C48.798 55.358 49.1823 56.3093 48.577 57.0347L48.2241 57.0868C47.3572 56.2944 48.148 55.1353 47.6429 54.3278C47.1276 54.3522 47.3304 54.2773 46.8791 54.7171C46.8752 55.2157 46.8577 55.56 46.8121 56.0565L46.592 56.164C45.5221 55.4837 44.4188 54.2732 43.5371 53.7864C41.9101 52.8883 39.9652 52.2188 38.3714 51.1941C37.2299 50.4604 35.6078 48.6389 34.4366 48.1774C33.0651 47.637 31.6923 47.7277 30.1241 47.0836L29.8133 47.1402C29.8055 48.1228 30.3947 48.4439 31.0977 48.9952C31.169 50.4452 30.962 54.6085 33.1063 54.4837C33.3524 54.4694 34.3871 53.9181 34.6747 53.7665C35.9689 53.8485 36.6674 53.619 37.4434 54.719C38.1298 54.7959 38.4425 54.7726 38.9185 55.2654L39.0116 55.5834C38.3131 56.3825 37.1544 55.5775 36.0937 56.0677L35.9001 56.3172C36.6595 56.8772 37.7879 56.6282 38.3346 57.1781C37.8676 57.9546 37.7628 57.5646 37.2682 57.8877C36.9093 58.1221 37.2112 58.8094 36.5653 59.2056C35.3644 58.8592 34.7153 56.328 34.5133 55.2093C34.0422 55.4455 33.3087 55.7856 32.8801 56.0468C32.8428 58.1214 32.3651 60.8552 31.5734 62.8203C31.5827 62.7974 31.211 63.1666 31.092 63.3902C31.2475 64.1535 31.9583 64.5287 32.5902 64.8799C32.7855 64.6972 32.932 64.5879 33.1731 64.4729L33.6709 64.6549C34.3869 63.947 34.5045 63.1739 35.2658 62.7228C35.7499 62.8103 35.5864 62.707 35.875 63.1113C35.7987 63.4796 35.7934 63.4176 35.5544 63.6988C34.5481 64.8822 34.9128 66.5888 35.3031 67.8878C35.906 67.9 37.1258 68.0128 37.5862 67.7487C37.877 67.1845 38.139 66.5388 38.6477 66.1826C39.447 66.1929 39.5357 66.7627 39.7814 67.4553C39.5155 68.1443 39.0901 68.9743 38.7633 69.6513C38.6277 69.5812 38.5241 69.5343 38.4092 69.4277C37.0685 68.1832 34.672 70.3718 34.3811 67.5019C34.3235 66.9347 34.2913 65.9951 33.9691 65.5817C32.6908 65.2723 31.1577 65.8846 30.0687 64.9731C29.7734 64.2514 29.9994 63.9177 30.3046 63.1537C31.3695 60.4878 32.3125 59.002 32.269 56.0827L30.7261 54.9256C29.6231 52.2608 30.4242 50.2933 28.9186 46.9857C26.5363 45.3636 27.21 45.1318 25.6562 43.2121C26.6987 42.1582 27.7552 41.2635 28.8088 40.251C31.408 37.7534 34.531 33.5998 38.0852 32.3899C43.7021 30.4777 50.0376 28.2433 55.9712 27.6174C56.4831 27.5635 59.9615 28.3522 60.4385 28.5684ZM119.155 227.256C118.999 224.709 119.1 221 119.101 218.358C119.078 213.35 119.107 208.343 119.189 203.335C118.931 195.618 119.565 187.655 119.738 179.913C119.836 175.578 119.631 171.213 119.648 166.877C118.181 167.109 117.453 167.163 115.965 167.189C115.812 182.167 115.801 197.145 115.931 212.124L115.952 224.242C115.952 225.038 115.767 228.256 116.112 228.684C116.564 228.963 116.91 229.018 117.411 228.889C118.777 228.541 118.868 228.543 119.155 227.256ZM82.0355 137.396C81.8218 137.683 81.0923 138.664 80.8118 138.795C74.3846 141.801 67.8482 144.605 60.9831 146.47C57.7032 147.361 56.5955 148.284 54.2375 150.557C53.9924 152.236 53.7532 154.123 53.3225 155.768C51.8971 161.212 51.8214 166.828 50.2515 172.233C49.8334 173.673 49.3129 175.38 48.7301 176.791C45.6522 181.776 46.0989 186.478 45.3008 192.085C44.7315 196.085 42.067 201.568 43.3245 205.812C43.5405 206.437 45.8424 207.365 46.6214 207.694C52.298 210.089 58.0672 209.304 64.0902 208.276C67.0217 207.775 70.2458 206.361 73.3182 205.808C72.8183 201.062 72.8105 197.279 73.4412 192.551C73.5996 190.26 73.8352 188.138 74.2142 185.866C74.6122 183.48 75.4994 181.062 75.8836 178.713C76.9582 172.14 75.6083 165.691 77.6526 159.165C77.9664 158.164 77.8232 156.153 78.6428 155.418C79.0586 155.894 78.8601 156.455 79.0987 157.254C80.403 156.59 80.4336 155.691 82.5236 155.073C86.9183 153.775 91.5272 153.137 95.9488 152.053C104.294 150.007 113.033 149.688 121.392 147.674C127.465 145.958 133.148 145.33 139.459 144.941C142.768 144.737 145.814 139.003 146.966 136.277C148.843 131.836 148.568 118.408 143.911 115.708C143.197 117.022 141.842 119.771 140.816 120.763C137.714 123.73 134.098 126.151 130.749 128.838C128.025 131.025 126.776 132.852 123.265 133.825C119.569 135.138 118.484 133.492 115.7 131.348C112.865 129.166 107.556 130.306 104.33 131.26C98.1269 133.093 91.6163 134.195 85.2467 135.346C84.3381 135.51 82.771 135.527 82.1677 136.194C82.1094 136.615 82.0636 136.968 82.0355 137.396ZM90.9897 87.3222C90.3566 88.5621 89.4521 90.0234 89.3275 91.3568C89.1594 92.3237 88.9736 93.2875 88.7702 94.2475C87.2064 99.7016 86.6866 104.027 86.4219 109.66C86.332 111.576 86.3116 115.483 85.8745 117.028C86.1632 117.469 86.3705 117.431 86.9471 117.662C87.6617 118.698 89.5203 119.149 90.7677 119.589C92.8715 118.687 94.8171 117.588 96.755 116.772L97.1662 117.074C94.4621 118.367 93.8184 119.065 90.7681 120.127C95.3542 122.685 96.8687 123.905 100.238 127.824C100.69 128.35 101.829 129.54 102.517 129.589C103.104 129.297 103.114 129.046 103.528 128.403C104.22 128.026 106.338 128.261 107.281 128.228C111.283 128.089 114.73 127.408 118.752 127.961C120.601 129.754 122.957 128.512 125.135 127.822C125.824 127.604 126.129 127.158 126.349 126.486L126.402 126.32L126.616 126.277L126.761 126.915C125.923 129.746 118.983 128.758 120.046 132.394C122.66 134.761 130.862 126.218 132.861 124.742C134.265 123.705 135.927 122.996 137.274 121.872C140.359 119.31 142.307 115.634 142.696 111.643C139.908 110.068 136.762 106.352 134.468 103.941C131.055 100.355 128.584 96.6486 124.847 93.2488C124.82 94.7311 124.442 99.2544 122.951 99.9075C122.507 99.4131 125.506 93.757 123.348 91.3696C121.369 89.1806 118.979 87.9489 116.865 85.9583C115.029 84.2287 112.517 78.9072 109.79 78.8307L109.664 78.783L109.497 78.2145C108.839 77.0359 107.593 75.6393 106.626 74.6893C105.815 73.884 104.907 73.1821 103.923 72.6C101.302 71.0486 98.3713 70.1097 95.6837 68.3426C93.6315 66.9936 90.6267 65.9677 88.4633 64.6282C86.2706 63.2755 84.2835 62.2197 81.9493 61.1841C72.1638 56.8433 63.9044 58.7705 62.9049 70.5841C62.7721 74.1876 62.9388 77.8136 62.6996 81.4105C62.5676 83.396 64.9713 89.7252 66.253 90.9227C67.1773 90.2698 69.1069 88.7111 70.2231 89.1482C70.0411 89.8097 65.2246 92.107 65.6686 94.3004C65.9115 94.7379 66.0078 94.7599 66.4743 94.962C67.5852 94.7454 69.9382 92.601 71.1179 91.7681C75.9851 88.3316 81.553 88.2767 87.1435 87.1659C87.9712 87.0013 89.3248 87.6212 89.973 87.3324C89.9797 86.2381 85.9021 79.8195 85.1237 77.9773L84.925 77.3118L85.1385 77.1522C85.9627 77.5554 87.2327 80.0949 87.5571 80.9667C88.8727 83.649 89.6057 83.9887 90.9897 87.3222ZM112.506 162.584C122.881 160.389 133.149 157.711 143.275 154.559C146.791 153.427 150.195 152.001 153.672 150.762C155.579 150.082 160.434 148.8 161.559 147.304C161.555 146.847 161.404 146.497 161.048 146.184C159.831 145.113 157.706 144.822 156.281 144.037C153.476 142.492 151.094 140.105 148.07 138.895C146.685 139.91 144.059 143.303 143.097 144.791C140.818 145.678 138.304 145.743 135.898 146.043C133.605 146.339 131.316 146.672 129.034 147.04C124.73 147.747 120.472 148.722 116.178 149.477C113.297 149.985 110.374 150.297 107.481 150.734C104.545 151.178 101.746 151.787 98.7611 151.903C98.9168 152.323 99.0508 152.899 99.271 153.278C99.4278 153.547 105.869 158.106 106.71 158.777C108.085 159.873 109.309 161.533 110.903 162.292C111.42 162.539 111.937 162.605 112.506 162.584ZM172.087 205.303L172.342 205.136C172.577 203.054 171.65 198.517 171.487 196.256C171.08 190.619 170.353 185.016 170.231 179.356C169.89 166.81 169.695 154.261 169.648 141.71C169.663 139.289 169.878 136.949 169.959 134.544C170.019 132.734 169.567 130.364 169.675 128.568C169.921 124.478 169.971 120.186 170.275 116.121C170.502 113.093 170.989 110.104 171.198 106.996L172.319 91.222C172.938 81.591 173.438 72.0204 174.886 62.4642C175.436 58.8366 175.32 51.4852 176.569 48.5426C175.199 48.4178 174.334 48.3624 172.963 48.3914C172.984 52.0784 171.85 56.083 171.643 59.7419C171.24 66.8904 170.16 73.8401 169.415 80.9092L167.246 103.005C165.888 116.911 166.513 131.424 165.583 145.411C165.377 151.621 165.909 157.802 166.084 164.002C166.305 171.791 166.483 180.231 167.355 187.948C167.537 189.555 169.32 204.767 169.569 205.253C170.256 205.721 170.39 205.626 171.271 205.46C171.543 205.41 171.815 205.357 172.087 205.303ZM141.253 73.666C141.493 69.8689 141.46 56.3355 143.185 53.6337C144.465 52.822 147.715 53.9282 149.258 54.1488C153.227 54.7164 157.133 55.7327 161.074 56.4703C162.783 56.8116 168.574 58.4776 169.874 59.2923C170.407 56.1272 171.152 50.9184 171.358 47.7708C165.915 47.1364 161.513 45.6996 156.281 44.5347C151.825 43.543 145.316 42.5238 140.819 42.3316C139.624 44.1897 139.956 51.7293 139.589 54.4346C138.402 63.1859 138.892 72.0395 138.084 80.8127C137.787 84.0343 137.954 87.4119 137.82 90.647C137.878 94.7124 136.744 100.887 137.356 104.749C137.992 105.295 138.83 105.994 139.392 106.606C139.723 95.6688 140.83 84.6321 141.253 73.666ZM63.7604 212.677C62.6929 211.65 61.6451 210.612 60.0506 210.634C59.4116 210.642 58.7829 210.761 58.3235 211.238C57.4816 212.115 56.8368 213.197 55.9415 214.022C54.1175 215.699 48.7016 218.116 46.3345 218.771C44.8347 219.187 42.9128 219.374 41.6571 220.339C40.3599 221.338 39.9574 223.077 40.0441 224.643C40.0561 224.861 40.1282 225.025 40.2523 225.2C40.7064 225.481 41.1336 225.598 41.6455 225.727C47.047 227.007 55.2574 226.208 60.6226 224.799C62.5777 224.286 64.4474 223.392 66.4126 222.952C68.7566 222.427 71.6765 222.586 73.756 221.311C75.1197 220.475 76.275 219.098 76.6389 217.52C77.1632 215.243 75.8651 213.637 74.8924 211.74C74.5633 211.098 74.3549 210.383 74.0885 209.713L73.9337 209.651C73.4249 210.932 72.4593 211.897 71.2004 212.447C69.0035 213.403 66.0389 213.198 63.7604 212.677ZM122.127 187.959C127.401 186.168 133.663 184.224 138.43 181.368C137.706 179.323 137.797 169.194 137.271 168.222C137.235 168.156 137.036 168.03 136.969 167.976L136.625 167.944C131.263 169.273 126.071 171.248 120.709 172.635C120.675 175.715 120.19 186.112 120.776 188.498C120.928 188.56 121.08 188.671 121.235 188.606C121.612 188.447 121.842 188.249 122.127 187.959ZM39.4383 145.465C42.1466 143.56 44.6809 141.151 47.5955 139.544C50.0865 138.171 52.8852 137.189 55.4656 135.979C57.6647 134.948 59.8883 133.602 61.9664 132.342C64.0112 131.102 65.5117 129.128 67.6282 127.867C68.2756 125.531 69.3153 118.332 68.2097 116.31C68.1321 116.169 68.0584 116.105 67.9356 116.002L67.558 115.93C65.623 117.203 64.0927 119.065 62.4274 120.659L54.9039 127.717C53.3893 129.142 51.8525 130.61 50.2812 131.969C49.336 132.786 48.2502 133.514 47.3802 134.407C46.5038 135.307 45.7947 136.391 44.9728 137.346C43.4823 139.075 39.4576 143.082 38.9451 145.165C38.9266 145.24 38.9255 145.354 38.9216 145.425L39.1452 145.555L39.4383 145.465ZM152.9 176.45C154.499 175.746 156.114 175.037 157.778 174.502C159.259 174.025 161.262 173.722 162.583 173.014C162.746 172.927 162.844 172.731 162.906 172.57C163.285 171.585 162.946 170.183 162.815 169.157C161.003 168.347 152.771 162.845 152.584 162.799C152.409 162.755 151.964 162.786 151.78 162.803C150.24 163.431 145.047 164.639 144.306 165.714C143.916 166.982 144.813 174.11 144.898 176.014C144.938 176.915 144.642 178.149 144.891 178.985C146.114 179.362 151.325 176.901 152.9 176.45ZM73.5011 55.6431C74.1125 55.341 75.0228 54.873 75.6935 54.9074C75.6931 55.0055 75.0274 56.0328 74.8332 56.6614C74.9366 57.2723 74.8245 57.0476 75.2738 57.5024L75.5856 57.3872C76.6449 55.7262 77.8191 52.6799 78.5233 50.8351C80.2632 46.2779 80.7519 41.4024 78.5654 36.896C77.9337 35.7944 76.6607 33.2039 75.8391 32.3934C73.9586 30.5385 65.9481 26.7731 63.5014 28.0012L63.5329 28.3575L63.5304 28.4401C63.48 29.7774 62.9651 30.1 62.3859 31.4382L62.5287 31.5667C63.2842 31.1796 63.7517 30.3211 64.0145 29.5464C64.0145 29.5464 69.3215 33.6076 69.4247 33.7534C71.3341 36.4502 74.2276 44.326 74.1892 47.6119L74.1868 47.7464C74.1652 49.7832 73.1193 51.4158 73.5052 53.5185C73.5805 53.9289 73.5093 55.1623 73.5011 55.6431ZM96.2872 154.076C97.4424 155.605 102.975 160.176 104.772 161.444C105.786 162.159 106.899 162.724 107.914 163.437C108.988 164.191 110.223 165.501 111.528 165.687C116.216 166.357 121.901 164.314 126.459 163.252C129.019 162.656 131.643 162.34 134.205 161.72C138.15 160.766 141.89 159.333 145.744 158.124C149.061 157.083 152.6 156.248 155.817 154.936C157.351 154.31 158.836 153.227 160.278 152.401C160.897 152.047 161.566 151.812 162.183 151.46C162.649 150.796 162.806 150.214 162.685 149.409L162.427 149.185L162.188 149.24C157.967 150.584 153.995 152.72 149.808 154.166C147.695 154.896 145.562 155.655 143.398 156.219C141.601 156.687 139.753 156.982 137.968 157.489C135.978 158.054 134.08 158.923 132.091 159.507C127.347 160.899 122.513 161.825 117.682 162.847C116.127 163.175 114.563 163.777 112.993 163.984C112.378 164.065 111.53 164.113 110.953 163.847C109.097 162.992 104.316 158.524 102.335 156.934C101.114 155.955 99.8112 155.135 98.55 154.218C97.8378 153.701 96.7503 152.441 95.8364 152.706C95.7588 153.044 95.7194 153.31 95.9174 153.616C96.0236 153.78 96.1581 153.93 96.2872 154.076ZM111.924 168.206C112.583 170.829 111.918 176.588 111.885 179.607C111.822 185.394 111.99 191.187 112.039 196.975C112.081 201.994 112.004 207.017 111.998 212.035C112.004 214.676 111.981 217.317 111.93 219.958C111.89 222.073 111.62 224.482 112.03 226.558C112.205 227.443 112.849 227.86 113.518 228.387L114.104 228.956L114.414 228.896C114.735 228.327 114.516 219.823 114.517 218.278L114.655 176.118C114.647 174.562 114.986 169.316 114.58 168.066C114.525 167.896 114.444 167.765 114.328 167.633L114.037 167.639C113.337 167.866 112.643 168.05 111.924 168.206ZM121.161 171.483C121.437 171.108 121.681 170.79 122.126 170.617C123.338 170.144 124.733 169.896 125.992 169.547C127.954 169.004 129.9 168.384 131.856 167.816C136.344 166.514 140.712 164.792 145.186 163.44C150.975 161.69 156.975 160.433 162.489 157.864C162.524 156.998 162.883 154.681 162.463 153.992L162.183 153.991C160.691 154.243 159.238 155.21 157.845 155.805C155.043 157.001 152.199 158.205 149.327 159.22C146.898 160.078 144.396 160.944 141.904 161.593C140.228 162.029 138.512 162.304 136.838 162.75C134.574 163.353 132.375 164.179 130.112 164.785C126.873 165.654 123.681 166.189 120.391 166.777C120.712 168.209 120.389 170.079 120.919 171.351L121.161 171.483ZM87.2697 177.369C87.2653 182.227 88.2456 187.554 88.0384 192.53C88.0002 193.449 88.1142 199.019 88.2821 199.514C89.3699 199.494 90.352 199.089 91.2637 198.511C91.9454 197.46 90.7377 159.489 90.9431 154.615C89.1301 155.08 88.466 155.121 86.5252 155.764C86.9494 160.375 86.8465 165.445 87.0664 170.1C87.1587 172.054 86.9469 175.616 87.2697 177.369ZM120.633 196.016C122.69 194.655 124.504 194.186 126.74 193.241C139.117 188.012 151.524 182.787 164 177.795C165.631 177.143 165.007 174.015 164.501 172.78C164.211 172.092 164.561 170.364 164.465 169.33L164.566 167.272L164.558 166.908C164.331 165.114 164.155 163.894 164.272 162.047C164.321 161.265 164.526 160.493 164.479 159.769C164.572 157.902 164.633 156.793 164.378 154.952L164.235 154.877C163.99 155.797 164.03 156.713 164.024 157.664C163.887 160.364 163.821 163.067 163.825 165.77L163.986 167.444L164.014 167.634C164.014 168.543 164.064 171.999 163.918 172.656C164.003 173.19 164.045 173.572 164.085 174.109C163.045 175.931 146.215 181.2 143.236 183.307C141.98 184.196 135.909 186.018 134.007 187.141C131.189 188.802 126.873 190.176 123.754 191.388C120.493 192.657 120.417 192.307 120.633 196.016ZM92.6744 132.362C95.1384 131.925 97.4907 131.053 99.9782 130.668C97.4522 127.081 94.9772 124.801 91.1615 122.696C90.5887 122.38 89.7406 121.753 89.1094 121.633C88.8306 121.58 88.5432 121.601 88.2655 121.65L85.3103 122.311C83.8118 126.106 83.7874 130.221 82.5476 134.064C85.9019 133.345 89.3174 133.135 92.6744 132.362ZM162.614 129.011C162.698 126.852 162.776 124.678 162.922 122.523C163.061 120.478 163.373 118.374 163.435 116.331C164.4 111.137 165.084 105.267 165.01 99.9808C165.1 97.8046 165.502 94.7944 165.472 92.819C164.751 94.4552 163.38 101.041 162.894 103.165C162.555 105.242 160.898 114.501 161.032 116.075C160.858 119.83 160.898 123.647 160.938 127.407C160.963 129.712 160.852 132.569 161.198 134.814C161.481 132.332 161.347 129.99 161.58 127.794C162.007 128.415 161.993 128.639 162.055 129.398C162.154 132.177 162.331 135.631 162.218 138.384C162.046 139.381 161.916 143.725 162.319 144.477C162.402 143.598 162.591 142.077 162.529 141.255C162.736 138.416 162.676 131.918 162.614 129.011ZM110.628 169.728C110.792 168.929 110.775 168.127 110.778 167.315C109.702 166.731 109.065 165.898 108.106 165.202C108.036 165.73 107.908 166.265 108.075 166.782L108.15 166.814C109.696 167.51 109.433 168.961 110.628 169.728ZM158.159 129.667C158.104 130.597 158.168 131.531 158.35 132.445L158.65 133.745C158.874 136.439 158.713 139.245 158.652 141.94C158.642 142.399 158.943 143.087 159.293 143.391C159.714 143.757 159.675 143.718 160.11 143.702C160.173 143.594 160.291 143.411 160.282 143.276C159.978 138.812 159.498 134.381 159.616 129.902C159.671 129.007 159.617 127.631 159.604 126.698C159.879 125.914 159.676 118.128 159.635 116.608C159.455 110.258 160.721 101.139 162.634 95.0984C164.322 89.7662 165.986 86.19 166.453 80.2821C166.913 74.4591 169.418 66.7696 168.744 60.9354L166.896 59.7707C167.463 65.7948 166.531 69.5269 165.458 75.3274C164.441 80.7224 163.331 86.0997 162.129 91.4565C160.518 98.9578 158.356 109.948 159.07 117.523C159.092 119.429 159.157 122.295 159.249 124.198C159.227 125.25 159.184 126.317 159.25 127.366C159.175 128.086 159.114 128.618 158.969 129.326C158.809 129.132 158.635 128.73 158.518 128.486L158.505 125.995C158.642 124.215 158.545 120.995 158.542 119.138C158.545 118.223 158.334 117.047 158.199 116.121C158.093 117.145 158.108 118.013 158.112 119.037C158.168 122.028 157.882 126.919 158.159 129.667ZM72.4862 48.2901L70.6246 49.2086L72.0199 50.9838L72.5109 51.0158C72.999 50.4277 72.9663 49.2482 72.926 48.5194L72.7107 48.2739L72.4862 48.2901ZM64.5285 211.648C66.417 211.881 68.6781 211.957 70.5047 211.349C71.2319 211.107 71.8992 210.711 72.6218 210.448C73.1658 209.72 73.7604 208.877 73.6447 207.908C73.5844 207.402 73.3304 207.243 72.9809 206.941L72.7039 206.886C70.4492 207.772 68.1217 208.581 65.8318 209.373C65.1332 209.615 64.0889 209.783 63.4841 210.137C63.4381 210.163 63.3266 210.388 63.2905 210.444C63.3904 210.922 63.6904 211.169 64.0239 211.494L64.5285 211.648ZM149.192 133.214C148.912 134.304 147.997 136.741 148.426 137.756L148.688 138.015C148.834 137.952 149.269 137.812 149.321 137.681C149.631 136.898 149.751 134.352 149.465 133.566C149.407 133.408 149.318 133.32 149.192 133.214ZM143.145 69.5928C143.131 71.3001 143.07 73.0067 142.963 74.7108C142.81 75.6425 142.666 76.6746 142.431 77.5812C142.094 80.3079 141.908 89.4843 142.197 92.1204C143.436 87.9587 143.037 81.8801 142.973 77.4421C143.044 76.8015 143.247 75.8089 143.349 75.1186C143.613 73.8164 143.642 71.8131 143.683 70.446C143.646 67.8081 143.639 65.17 143.663 62.5321C143.662 61.2253 144.034 59.7672 143.676 58.8415L143.357 58.7427L143.408 58.6114L143.614 58.6966L143.416 58.5695C142.85 59.8188 143.025 63.2918 143.16 64.6919C143.055 66.148 143.169 68.0695 143.145 69.5928ZM151.08 137.603C150.879 138.158 150.795 138.299 150.986 138.88L151.293 139.128C151.859 138.785 151.609 138.252 151.474 137.677C151.495 136.889 151.648 132.769 151.377 132.442C150.63 134.467 151.348 136.648 151.08 137.603ZM87.3989 120.784L87.4385 120.482C86.9407 120.008 85.9977 119.847 85.3738 119.541C85.2939 120.082 85.1587 120.449 85.3656 120.961C85.9405 121.223 86.7878 120.859 87.3989 120.784ZM164.901 63.7282C164.497 70.2433 161.563 79.6305 160.62 86.2602C159.931 90.4136 156.471 105.972 157.049 108.894C157.548 108.504 157.512 107.482 157.571 106.862C158.227 99.8813 160.287 93.231 161.244 86.2597C161.472 84.9352 162.076 83.2046 162.368 81.8313C163.567 76.2004 165.054 71.6137 165.266 65.8167L165.289 65.6905C165.448 64.7857 165.651 60.4154 165.193 59.7598C164.814 60.207 164.917 62.9209 164.901 63.7282ZM156.412 128.309C156.433 123.763 156.535 118.911 156.431 114.39C156.525 113.458 156.459 112.336 156.432 111.386C155.806 113.184 155.808 116.272 156.018 118.167L156.042 128.522L156.037 130.803L156.45 130.565C156.389 130.092 156.415 128.84 156.412 128.309ZM138.95 181.387C139.423 180.991 139.565 180.859 139.623 180.214C139.862 177.532 139.268 174.959 138.924 172.325C138.737 170.893 138.691 169.428 138.614 167.986C138.367 167.746 138.286 167.715 137.952 167.622C137.787 168.211 138.001 168.579 138.06 169.157C138.147 170.008 138.064 170.859 138.184 171.716C138.367 173.025 138.808 174.364 138.873 175.674C138.932 176.852 138.313 180.401 138.827 181.23C138.873 181.302 138.897 181.327 138.95 181.387ZM140.636 181.999L140.454 182.495C140.818 182.685 141.114 182.602 141.511 182.571L141.828 182.193L141.681 182.024L140.636 181.999ZM164.104 142.171C164.139 142.463 164.223 142.735 164.299 143.019C164.566 142.761 164.506 142.457 164.558 141.998L164.542 140.741C164.62 135.62 164.908 129.765 164.402 124.687C163.737 127.129 163.957 138.134 164.164 141.055L164.104 142.171ZM162.249 159.868C161.548 159.924 160.915 159.887 160.416 160.444C159.954 160.958 159.966 161.669 159.642 162.253C157.283 162.4 157.47 161.184 153.785 162.244C155.007 163.001 156.417 163.701 157.532 164.595C159.424 165.438 161.109 166.717 162.787 167.924C162.798 166.488 163.145 160.734 162.584 159.863L162.249 159.868ZM141.45 107.725C141.882 108.106 142.57 108.753 143.008 109.081L143.279 109.125C143.731 108.393 143.868 100.961 144.136 99.4279C145.832 89.7377 148.189 80.4318 149.241 70.62C149.739 65.9771 151.279 61.1417 151.581 56.3667C151.275 55.8729 151.308 56.0088 150.624 55.776C150.594 55.8156 150.284 56.2211 150.284 56.2211C149.631 62.2047 148.753 68.1963 147.571 74.0986C146.999 76.7962 146.072 79.457 145.47 82.1407C144.639 85.8508 144.053 89.6416 143.351 93.3788C142.465 98.0915 142.343 103.038 141.45 107.725ZM154.381 140.422L154.9 140.556L155.103 140.382C154.912 137.649 154.576 134.906 154.399 132.18C154.425 130.471 154.253 128.732 154.336 127.025C154.52 123.274 154.049 119.457 154.288 115.718C154.723 108.91 155.895 101.524 156.906 94.7433C157.286 92.1931 158.31 89.5884 158.781 87.0408C159.058 85.8703 159.434 84.7295 159.679 83.544C160.566 79.2528 161.078 74.9063 162.142 70.6482C162.894 67.6879 163.623 62.4962 163.703 59.3C163.708 59.1171 163.412 58.8857 163.274 58.7655C162.391 59.7492 162.449 65.086 161.996 66.7226C160.725 71.312 160.537 76.2564 159.546 80.8551L156.932 92.4969C155.737 97.7065 154.759 102.314 154.398 107.683C154.272 109.57 153.591 111.748 153.441 113.672C152.497 121.807 152.693 130.09 153.091 138.256C153.157 139.628 153.131 139.942 154.381 140.422ZM145.127 110.922C145.613 111.241 145.924 111.578 146.413 111.568C146.424 111.267 146.463 111.226 146.348 110.967C146.125 106.32 147.087 102.194 147.784 97.6476C148.099 95.5934 148.293 93.4366 148.668 91.4091C150.478 81.6005 153.909 72.154 154.774 62.1446C154.867 61.0657 155.687 58.1934 155.166 57.4405C154.545 57.2348 153.704 57.0402 153.163 56.7968C153.107 62.9662 151.34 68.9035 150.381 74.8993C148.557 86.304 144.955 99.4534 145.127 110.922ZM132.542 185.679C130.551 186.411 122.075 189.421 120.806 190.527L120.734 190.798C122.357 190.989 131.643 186.814 133.297 185.91L133.579 185.979C133.735 185.958 135.811 184.756 135.925 184.588L135.72 184.412C134.772 184.447 133.727 185.212 132.671 185.421L132.542 185.679ZM59.9298 226.485C57.2797 227.173 53.6452 227.599 50.9429 227.692C48.5351 227.777 46.7858 227.546 44.3598 228.046C52.2833 230.234 52.5757 229.875 59.9346 227.304C61.1355 226.404 61.3817 226.575 62.832 226.178L62.9347 225.964L62.5961 225.759C61.4738 225.759 60.9167 225.955 59.9298 226.485ZM139.656 167.041C140.095 169.846 140.437 172.722 140.678 175.552C140.812 177.136 140.713 178.971 141.102 180.503C142.29 180.36 142.98 180.268 143.902 179.438C143.781 177.023 144.038 167.376 142.982 165.898L142.714 165.828L139.656 167.041ZM92.1144 169.667C93.9637 169.209 95.7942 168.758 97.68 168.471C99.8073 168.216 105.075 167.468 106.862 166.589C106.902 165.929 106.726 165.56 106.282 165.063C105.889 164.622 105.457 164.224 105.012 163.838C103.561 163.802 102.136 163.819 100.687 163.913C98.5732 164.209 93.8995 164.485 92.0994 165.171C91.9812 166.671 92.0572 168.166 92.1144 169.667ZM102.629 162.706L103.097 162.594C102.845 161.786 93.695 154.438 92.5222 153.843C92.3596 153.76 92.2005 153.696 92.028 153.637C91.4286 156.741 91.9794 160.323 91.8542 163.503C95.426 163.679 99.0278 162.82 102.629 162.706ZM145.188 55.1112L145.013 69.3883C144.995 71.6066 144.871 75.5326 145.113 77.5994C145.334 76.5147 145.561 75.4371 145.74 74.3442C145.964 72.1339 146.245 69.9297 146.583 67.734C147.113 64.1959 148.484 59.0925 147.969 55.5874C147.903 55.1374 145.605 55.0863 145.188 55.1112ZM160.791 58.2135C159.563 60.5043 160.072 63.3022 159.697 65.8555C159.338 68.3081 158.513 70.5021 157.974 72.8812C155.589 82.96 153.639 93.1371 152.132 103.384C151.734 106.1 151.229 109.259 150.877 111.941C150.742 112.969 151.046 117.369 151.124 118.596C151.245 118.746 151.232 118.795 151.351 118.81C152.23 108.037 153.787 97.3028 156.288 86.7797C158.236 78.5854 160.434 70.1975 160.857 61.7677C160.9 60.9195 161.56 58.4355 160.791 58.2135ZM156.994 57.3168C156.808 59.8681 156.283 62.9048 155.782 65.4098C155.078 68.6475 154.796 72.2299 153.997 75.4228C150.998 87.4081 148.362 99.2058 148.137 111.639C148.091 114.233 147.278 118.871 148.929 121.06L149.122 121.04C149.138 120.911 149.194 120.524 149.188 120.418C149.399 109.272 150.116 99.3982 152.957 88.5948C154.793 81.6132 155.821 74.2416 157.76 67.2711C158.375 64.8444 158.365 61.9031 158.955 59.4333C159.297 57.7713 158.564 57.8457 156.994 57.3168Z" fill="black"/>
<path d="M119.191 203.333L119.316 202.742C119.955 203.021 119.939 203.281 120.549 203.612L120.516 218.636C120.514 221.403 120.58 225.747 120.368 228.413C119.905 227.541 119.92 227.591 119.157 227.253C119.002 224.706 119.102 220.998 119.103 218.355C119.08 213.348 119.11 208.34 119.191 203.333Z" fill="black"/>
<path d="M73.5826 146.695L73.625 146.96C73.342 147.774 72.7414 148.31 72.0536 148.792L71.9297 148.301C72.2694 147.662 73.0325 147.158 73.5826 146.695Z" fill="black"/>
<path d="M66.4785 171.354C67.6582 168.58 66.9128 167.046 67.6587 164.293C67.7536 163.943 67.938 163.537 68.2726 163.375C68.4108 163.819 67.9056 166.955 67.8874 167.905C67.8538 170.017 66.9699 174.6 66.064 176.422C66.0309 175.257 66.5637 171.784 66.4785 171.354Z" fill="black"/>
<path d="M112.979 139.367L113.365 139.505L113.45 139.766L112.654 140.044C112.107 140.212 110.55 140.431 109.932 140.45C107.699 140.515 104.554 141.956 102.445 141.205C105.375 140.324 110.545 140.098 112.893 139.394L112.979 139.367Z" fill="black"/>
<path d="M62.5338 194.031C62.8622 195.06 62.797 197.015 62.809 198.169C62.9202 199.065 62.9336 199.725 62.4635 200.536L62.2485 200.363C61.8376 199.253 62.3084 195.313 62.5338 194.031Z" fill="black"/>
<path d="M63.2779 190.492C63.6418 191.652 63.4101 192.095 63.5225 193.076C62.8519 195.098 62.8574 196.007 62.8065 198.169C62.7944 197.015 62.8597 195.06 62.5312 194.031C62.8733 193.246 63.1266 191.413 63.2779 190.492Z" fill="black"/>
<path d="M61.205 203.641C61.5965 203.803 61.7098 203.826 61.9026 204.226C62.1389 204.715 62.3822 205.392 62.205 205.93C61.7175 206.004 61.5459 206.082 61.095 205.845C60.7862 205.244 61.0922 204.286 61.205 203.641Z" fill="black"/>
<path d="M120.538 137.969L120.692 138.271C119.947 138.748 117.919 138.764 116.879 139.163L116.57 138.553C117.415 138.277 119.551 138.088 120.538 137.969Z" fill="black"/>
<path d="M112.977 139.368C113.269 139.197 115.939 138.713 116.566 138.555L116.874 139.164C115.639 139.298 114.662 139.484 113.448 139.767L113.362 139.506L112.977 139.368Z" fill="black"/>
<path d="M63.2772 190.492C63.2749 189.971 63.1782 189.957 63.4388 189.691C63.627 190.446 63.7889 192.445 63.5219 193.076C63.4094 192.095 63.6412 191.652 63.2772 190.492Z" fill="black"/>
<path d="M121.05 119.656C118.417 116.533 114.931 115.032 113.734 110.84C115.823 114.094 116.393 114.386 119.326 117.091C119.965 117.681 120.184 118.233 121.282 119.148L121.05 119.656Z" fill="black"/>
<path d="M137.929 109.816C138.442 109.981 138.669 110.038 139.142 110.328L139.093 110.568L138.457 110.868C137.92 111.05 137.728 111.109 137.157 111.201L137.086 111.002L137.929 109.816Z" fill="black"/>
<path d="M105.162 104.538C104.507 104.463 102.655 103.894 102.398 103.367C103.295 103.244 103.895 104.129 105.3 103.985L105.162 104.538Z" fill="black"/>
<path d="M121.279 119.148C121.713 119.792 122.015 120.02 122.073 120.729L121.848 120.766C121.37 120.315 121.329 120.229 121.047 119.656L121.279 119.148Z" fill="black"/>
<path d="M105.294 103.984C105.892 104.154 106.151 104.175 106.553 104.648L106.423 104.863C105.929 104.914 105.609 104.73 105.156 104.537L105.294 103.984Z" fill="black"/>
<path d="M164.906 63.7259C165.015 63.188 165.131 62.6628 165.194 62.1172L165.271 65.8144C165.059 71.6114 163.572 76.1981 162.374 81.829C162.081 83.2023 161.478 84.9329 161.25 86.2574L160.625 86.2579C161.569 79.6282 164.503 70.241 164.906 63.7259Z" fill="black"/>
<path d="M160.62 86.2583L161.245 86.2578C160.287 93.2291 158.227 99.8795 157.571 106.86C157.513 107.48 157.548 108.502 157.049 108.892C156.471 105.97 159.931 90.4118 160.62 86.2583Z" fill="black"/>
<path d="M137.952 167.621C138.286 167.714 138.367 167.745 138.614 167.985C138.691 169.428 138.736 170.892 138.924 172.324C139.268 174.959 139.862 177.531 139.623 180.213C139.565 180.858 139.423 180.991 138.95 181.386C138.897 181.326 138.873 181.302 138.827 181.229C138.313 180.4 138.932 176.851 138.873 175.673C138.808 174.363 138.367 173.024 138.184 171.716C138.064 170.858 138.147 170.007 138.06 169.156C138.001 168.578 137.787 168.211 137.952 167.621Z" fill="black"/>
<path d="M164.169 141.052C163.962 138.131 163.742 127.126 164.407 124.684C164.913 129.762 164.625 135.617 164.547 140.738L164.169 141.052Z" fill="black"/>
<path d="M161.035 116.074C161.098 116.511 161.171 116.96 161.204 117.398L161.303 117.507L161.283 117.688L161.465 117.454L161.654 117.536C161.881 121.177 160.802 124.361 161.583 127.794C161.35 129.989 161.484 132.332 161.201 134.813C160.855 132.569 160.966 129.712 160.941 127.407C160.901 123.647 160.861 119.83 161.035 116.074Z" fill="black"/>
<path d="M156.023 118.164C156.157 116.991 155.969 115.869 156.157 114.565L156.437 114.387C156.54 118.908 156.438 123.76 156.417 128.306L156.047 128.518L156.023 118.164Z" fill="black"/>
<path d="M162.055 129.395L162.614 129.008C162.675 131.914 162.736 138.413 162.529 141.252C162.434 141.448 162.367 142.064 162.329 142.316C162.165 141.87 162.216 139.041 162.217 138.38C162.33 135.628 162.154 132.173 162.055 129.395Z" fill="black"/>
<path d="M158.115 119.035L158.544 119.135C158.548 120.992 158.645 124.212 158.507 125.992C158.381 126.941 158.347 129.063 158.162 129.664C157.885 126.916 158.171 122.025 158.115 119.035Z" fill="black"/>
<path d="M159.636 116.605C159.677 118.126 159.879 125.912 159.604 126.696C159.458 126.238 159.49 124.832 159.485 124.277L159.25 124.196C159.157 122.293 159.092 119.427 159.07 117.521L159.383 117.817L159.549 117.695L159.636 116.605Z" fill="black"/>
<path d="M143.159 64.6888C143.024 63.2887 142.85 59.8157 143.415 58.5664L143.613 58.6935L143.407 58.6083L143.356 58.7396L143.675 58.8384C144.033 59.7641 143.661 61.2222 143.662 62.529C143.576 63.1692 143.521 64.2073 143.159 64.6888Z" fill="black"/>
<path d="M164.027 157.664C164.092 158.342 164.097 159.246 164.482 159.769C164.528 160.493 164.324 161.265 164.275 162.047C164.158 163.894 164.334 165.114 164.56 166.908L164.083 165.689L163.828 165.77C163.824 163.067 163.89 160.364 164.027 157.664Z" fill="black"/>
<path d="M143.665 62.5312C143.642 65.1692 143.649 67.8073 143.686 70.4452C143.609 70.0235 143.585 69.8377 143.431 69.4412L143.147 69.592C143.171 68.0687 143.057 66.1472 143.162 64.6911C143.524 64.2096 143.579 63.1715 143.665 62.5312Z" fill="black"/>
<path d="M143.15 69.5922L143.435 69.4414C143.588 69.8379 143.612 70.0236 143.689 70.4454C143.647 71.8124 143.618 73.8158 143.355 75.118L142.969 74.7102C143.076 73.0061 143.136 71.2995 143.15 69.5922Z" fill="black"/>
<path d="M151.086 137.602C151.354 136.648 150.636 134.466 151.383 132.441C151.654 132.769 151.501 136.889 151.48 137.676L151.086 137.602Z" fill="black"/>
<path d="M132.547 185.677L132.677 185.419C133.733 185.211 134.778 184.446 135.726 184.41L135.93 184.587C135.816 184.755 133.74 185.957 133.584 185.978L133.303 185.909L132.547 185.677Z" fill="black"/>
<path d="M164.023 157.662C164.03 156.711 163.989 155.794 164.234 154.875L164.377 154.949C164.632 156.791 164.571 157.9 164.478 159.767C164.094 159.244 164.089 158.34 164.023 157.662Z" fill="black"/>
<path d="M164.018 167.633C164.093 167.908 164.394 169.192 164.469 169.329C164.565 170.363 164.215 172.091 164.505 172.778L163.922 172.655C164.068 171.998 164.018 168.542 164.018 167.633Z" fill="black"/>
<path d="M164.9 63.7262C164.916 62.9189 164.813 60.205 165.192 59.7578C165.65 60.4134 165.447 64.7837 165.288 65.6886L165.265 65.8148L165.187 62.1175C165.125 62.6632 165.009 63.1883 164.9 63.7262Z" fill="black"/>
<path d="M158.519 128.484C158.636 128.728 158.81 129.131 158.97 129.325L159.062 129.541C158.967 131.036 158.893 132.27 158.651 133.744L158.352 132.443C158.651 131.372 158.54 129.649 158.519 128.484Z" fill="black"/>
<path d="M109.497 78.2109L109.664 78.7794L109.789 78.8271C109.629 80.3064 109.907 80.8932 109.514 82.5853C109.298 81.4677 109.111 79.2639 109.497 78.2109Z" fill="black"/>
<path d="M59.9297 226.484C60.9165 225.954 61.4737 225.758 62.5959 225.758L62.9346 225.963L62.8319 226.177C61.3816 226.574 61.1354 226.403 59.9345 227.303L60.2919 226.718L59.9297 226.484Z" fill="black"/>
<path d="M162.219 138.383C162.218 139.044 162.167 141.873 162.332 142.319C162.369 142.066 162.436 141.451 162.531 141.255C162.593 142.076 162.404 143.597 162.321 144.476C161.918 143.724 162.048 139.38 162.219 138.383Z" fill="black"/>
<path d="M63.5376 28.3555L63.7165 29.4897L64.0193 29.5443C63.7564 30.3191 63.2889 31.1776 62.5334 31.5647L62.3906 31.4362C62.9699 30.0979 63.4848 29.7754 63.5351 28.438L63.5376 28.3555Z" fill="black"/>
<path d="M156.017 118.164C155.807 116.269 155.805 113.18 156.431 111.383C156.458 112.333 156.524 113.455 156.43 114.387L156.15 114.565C155.962 115.869 156.151 116.991 156.017 118.164Z" fill="black"/>
<path d="M158.505 125.992L158.518 128.483C158.539 129.648 158.651 131.37 158.351 132.442C158.169 131.528 158.104 130.595 158.16 129.664C158.345 129.063 158.379 126.94 158.505 125.992Z" fill="black"/>
<path d="M159.484 124.277C159.489 124.833 159.457 126.238 159.603 126.696C159.616 127.629 159.671 129.004 159.616 129.9L159.061 129.54L158.969 129.324C159.113 128.616 159.174 128.084 159.249 127.363C159.532 126.222 159.496 125.432 159.484 124.277Z" fill="black"/>
<path d="M142.962 74.7109L143.348 75.1187C143.246 75.809 143.043 76.8016 142.972 77.4422L142.43 77.5813C142.665 76.6747 142.809 75.6426 142.962 74.7109Z" fill="black"/>
<path d="M98.9375 116.085C99.8877 115.677 100.489 115.432 101.533 115.422C101.313 115.692 100.522 115.878 100.142 115.998L99.3396 116.413L98.9375 116.085Z" fill="black"/>
<path d="M93.6123 97.2812C94.0666 97.5855 94.3091 97.6986 94.5578 98.199L94.4459 98.4365C93.7917 98.2568 93.832 98.1253 93.2812 97.5715L93.6123 97.2812Z" fill="black"/>
<path d="M98.9371 116.082L99.3392 116.41C98.562 116.513 97.8663 116.692 97.169 117.072L96.7578 116.769C97.3954 116.507 98.2615 116.28 98.9371 116.082Z" fill="black"/>
<path d="M156.415 128.309C156.417 128.84 156.391 130.092 156.453 130.564L156.039 130.803L156.044 128.521L156.415 128.309Z" fill="black"/>
<path d="M91.8906 96.1641C92.5494 96.2516 93.0859 96.8451 93.6156 97.2826L93.2845 97.5728C92.7905 97.1719 92.1379 96.7277 91.8906 96.1641Z" fill="black"/>
<path d="M163.828 165.769L164.083 165.688L164.56 166.907L164.569 167.27L163.989 167.442L163.828 165.769Z" fill="black"/>
<path d="M156.036 130.801L156.45 130.562C156.354 131.158 156.317 132.446 156.124 132.785C156 131.95 156.001 131.65 156.036 130.801Z" fill="black"/>
<path d="M158.113 119.037C158.108 118.013 158.093 117.145 158.199 116.121C158.335 117.047 158.546 118.223 158.542 119.137L158.113 119.037Z" fill="black"/>
<path d="M159.253 124.195L159.488 124.277C159.5 125.431 159.536 126.222 159.253 127.363C159.188 126.314 159.231 125.247 159.253 124.195Z" fill="black"/>
<path d="M163.992 167.441L164.572 167.27L164.471 169.328C164.396 169.191 164.096 167.907 164.02 167.632L163.992 167.441Z" fill="black"/>
<path d="M140.642 181.996L141.687 182.021L141.835 182.191L141.518 182.569C141.121 182.599 140.824 182.682 140.461 182.493L140.642 181.996Z" fill="black"/>
<path d="M164.169 141.052L164.547 140.738L164.563 141.995L164.109 142.168L164.169 141.052Z" fill="black"/>
<path d="M164.563 141.996C164.511 142.455 164.571 142.759 164.304 143.017C164.228 142.733 164.144 142.461 164.109 142.169L164.563 141.996Z" fill="black"/>
<path d="M66.7969 40.2969C68.5194 41.6227 69.2524 42.5649 69.6386 44.7248C69.5958 45.4833 69.6913 45.8921 69.3227 46.483C68.6739 43.0755 68.113 43.2547 66.7969 40.2969Z" fill="black"/>
<path d="M59.8612 58.9453C60.4091 59.2248 61.4258 60.5423 61.8962 61.0535C62.4358 61.64 62.3253 61.5891 62.2695 62.2616C61.3236 61.3386 60.6956 61.2149 59.6961 60.1473C59.4912 59.4816 59.5301 59.7114 59.8612 58.9453Z" fill="black"/>
<path d="M53.9766 62.8281C54.8842 63.1772 55.3825 64.0805 56.028 64.9201C54.565 64.8778 54.3902 64.0396 53.9766 62.8281Z" fill="black"/>
<path d="M69.6362 44.7227C69.9121 46.1171 69.7438 47.0281 69.8861 48.2569L69.598 48.2435C69.3606 47.4483 69.3194 47.306 69.3203 46.4809C69.6889 45.89 69.5934 45.4811 69.6362 44.7227Z" fill="black"/>
<path d="M56.2127 57.757L56.6206 57.5312C56.7212 57.8061 56.8292 58.2807 56.9296 58.4702L56.8068 59.0125L56.5441 59.1217C56.1114 58.4136 56.232 58.6498 56.2127 57.757Z" fill="black"/>
</svg>
