<svg width="212" height="249" viewBox="0 0 212 249" fill="none" xmlns="http://www.w3.org/2000/svg">
<path d="M100.201 26.5863C99.7796 25.671 99.0878 24.8541 99.7653 24.0656C100.594 23.696 103.828 23.8268 104.617 24.0349C107.574 24.8156 111.19 29.3956 112.64 31.9383C113.941 34.749 114.623 36.3508 114.275 39.5437C114.224 40.0136 114.002 42.4993 114.035 42.9085C113.798 43.5139 113.36 44.1555 113.186 44.6494C112.398 46.8868 111.307 49.9951 109.076 51.1844C107.256 52.1547 106.466 49.8377 105.769 49.0143C105.379 49.359 105.158 50.3866 105.271 50.8861C107.25 51.7457 107.164 51.794 107.797 53.9108C112.531 55.013 114.752 57.5911 118.435 60.547C121.839 63.2786 124.763 65.7 127.764 68.8824C130.036 71.2901 132.565 73.3577 134.542 76.1108C138.245 80.2471 140.477 85.5124 143.846 89.816C146.408 93.0869 148.022 94.9687 149.826 98.9028C150.793 101.011 153.964 103.773 155.545 105.547C155.996 106.005 156.791 107.092 157.377 107.212C158.483 105.684 158.109 90.8584 158.447 88.0762C159.382 80.3752 159.599 72.5593 159.78 64.8099C159.84 62.2273 160.295 59.7251 160.435 57.1543C160.69 52.504 160.322 46.4096 161.082 41.8648C165.75 40.6264 172.678 43.713 177.369 43.794C184.113 43.9105 190.263 46.0703 196.807 46.5632C196.771 50.0735 196.095 54.0906 195.784 57.6439C195.359 61.2512 195.356 65.033 194.903 68.6239C193.635 78.6708 193.507 88.8028 192.596 98.8622C191.792 107.727 190.678 116.46 190.893 125.399C190.919 126.464 190.922 127.565 190.912 128.631L190.785 153.322C190.77 166.88 191.151 180.826 193.092 194.261C193.373 196.213 193.58 196.65 192.972 198.532L188.927 199.217C188.403 199.004 187.833 198.749 187.292 198.599C185.441 195.691 185.757 192.108 185.394 188.726L183.597 172.234C177.128 175.993 168.224 178.457 161.349 181.861C155.908 184.554 149.729 187.754 144.045 189.806C143.608 190.063 143.443 190.211 142.936 190.224C142.597 189.749 142.695 189.477 142.651 188.809C142.869 184.191 143.187 178.819 143.063 174.218C143.327 170.923 143.012 167.145 143.095 163.77C143.073 162.918 143.12 162.022 143.15 161.167L140.168 161.472L139.735 161.63C139.375 162.735 139.372 167.397 139.434 168.68C139.875 177.957 139.249 187.51 139.515 196.742C139.516 201.636 139.544 206.529 139.601 211.421C139.609 212.893 139.72 216.817 139.57 218.116C139.358 218.68 139.356 220.328 139.487 220.942C139.015 221.385 139.249 221.292 138.617 221.294C134.035 218.951 134.47 215.618 134.52 211.148C134.565 207.174 134.743 203.19 134.829 199.217L135.17 170.843C135.172 168.636 135.143 166.43 135.081 164.224C134.245 163.683 133.413 162.995 132.686 162.31C129.771 162.784 127.284 163.161 124.311 163.433C122.377 163.611 120.321 164.217 118.294 164.134C118.263 166.84 118.217 169.585 118.207 172.298C118.207 174.206 118.665 176.317 118.6 178.208C118.43 182.769 118.367 187.358 118.677 191.913C118.773 193.353 121.051 194.299 121.584 195.331C123.478 199 127.89 205.894 124.273 209.627C121.65 212.416 118.123 212.832 114.692 213.916C110.253 215.32 106.809 216.525 102.176 216.966C98.6129 217.305 93.0744 214.272 91.0635 214.653C90.3988 215.892 91.4577 220.929 90.5426 221.184C89.6588 221.43 85.9841 221.641 85.794 220.044C85.3554 216.353 85.3218 212.7 85.2981 208.996C85.3066 204.37 85.2566 199.745 85.1482 195.12C85.3998 193.754 85.5604 189.337 86.0139 188.314C86.2959 188.634 86.1183 189.467 86.443 190.312L86.4923 190.437C86.5792 196.328 86.6291 202.22 86.6419 208.111C86.6497 210.469 86.2856 218.83 87.4845 220.304C88.334 220.456 87.6178 219.699 89.102 220.395C89.5504 219.948 89.4615 219.168 89.4599 218.494C89.4413 210.626 89.6935 202.755 89.6207 194.887C90.6947 194.832 90.7561 194.84 91.2298 193.907C91.1874 194.995 91.2535 196.146 91.2933 197.237C98.1556 198.068 98.9209 197.486 104.813 195.109C104.758 194.045 104.739 192.54 104.911 191.497C105.181 192.242 105.331 194.28 105.422 195.17C107.662 194.816 110.562 194.027 112.613 193.078C114.217 190.78 115.745 188.085 115.181 185.165C114.295 180.57 111.98 176.12 110.407 171.696C107.94 164.757 105.346 158.661 109.241 151.618C109.5 151.148 109.719 151.117 110.179 151.005C110.864 151.728 110.513 152.934 109.923 153.637C110.408 153.719 110.22 153.724 110.722 153.48C111.148 153.012 111.221 152.454 111.374 151.835C113.183 151.146 112.935 152.211 113.62 152.779C115.934 150.897 130.341 147.755 133.746 147.229C141.1 146.092 150.347 144.786 157.288 141.84C161.872 139.894 162.986 126.605 161.983 122.372C160.582 115.427 157.144 108.567 151.991 103.647C151.041 102.739 149.818 100.911 148.83 100.179C148.007 100.894 147.719 102.157 146.971 102.723C146.592 101.801 147.584 99.978 148.009 98.8275C146.733 95.3555 144.863 93.3496 142.747 90.4505C140.898 87.9161 139.86 85.7411 137.367 84.0262C136.616 83.5099 135.767 78.1971 133.906 77.2331C131.66 76.0702 133.085 77.8078 131.33 78.0425C130.766 77.2616 131.683 76.2801 132.195 75.6685C127.44 69.8067 121.689 64.4638 115.693 59.893C111.853 56.9653 110.888 55.9977 106.016 55.3971C104.975 56.6856 104.633 56.6638 103.568 57.665C102.788 58.549 102.778 60.5742 102.29 61.4645C99.6753 66.2343 96.1631 71.7879 96.7309 77.5063C96.2113 78.4856 96.2359 79.2659 96.0153 80.3371C97.6064 80.1212 105.499 79.9116 106.711 80.5557C107.327 80.7156 107.966 80.786 108.329 81.2738L108.26 81.5665C107.297 81.9941 106.565 81.883 105.486 81.8942L104.442 81.8785C95.3804 81.3089 96.0948 82.715 91.6425 89.7316C90.5925 91.3863 88.2807 93.0116 87.3094 94.8823C84.8578 98.5151 83.5327 102.785 81.5072 106.301C80.8296 106.47 80.0375 106.646 79.3882 106.872L79.1048 106.713C78.8188 104.357 82.0826 104.439 78.6246 102.884C77.6564 103.034 74.9428 103.561 74.1706 103.569C78.4106 100.668 82.8026 102.672 78.4878 95.6176C78.0584 94.9154 76.9026 95.3127 76.1775 95.1541C76.0015 94.8804 75.9567 94.4063 75.8982 94.0701C76.6438 93.1127 77.5458 93.036 78.2255 91.9099C78.8368 91.0859 80.033 90.7486 80.9231 90.2489C84.4477 88.2699 86.3098 84.612 88.3461 81.2979C89.2187 79.7378 90.8225 77.9872 91.6259 76.438C92.8013 74.1712 92.1935 73.5141 94.2103 71.6468C94.0121 70.7919 92.6526 69.9953 91.9263 69.5021C90.7921 68.7319 91.498 68.9099 90.9934 68.1831L90.6989 68.5518C90.1191 68.7184 88.0037 67.4913 86.5396 67.4518C83.8815 67.3797 81.8817 68.0937 79.1922 68.2631C78.3864 66.8247 78.1682 65.8605 77.7445 64.2941C76.2467 63.527 75.7202 61.1654 74.0509 59.8814C72.6305 58.7891 72.1835 59.7623 71.0143 58.7488C70.9041 58.4655 70.7035 57.9826 70.8123 57.7215C71.2181 56.7483 72.784 51.5345 73.4077 51.1112C73.814 53.7898 71.2442 56.3467 71.6542 57.9219C72.4711 58.3163 73.8174 57.99 74.7303 58.1584C74.762 58.1644 75.0888 58.2663 75.0891 58.2771C75.1144 59.3071 75.0024 59.9276 75.5553 60.8434C76.1692 61.2593 77.4938 61.2082 78.3781 61.3029L78.4833 61.6004L78.3328 61.8642C77.9467 61.9153 77.8444 61.9223 77.454 61.8839L77.363 61.8743C77.5111 62.6325 77.9955 63.4096 78.3709 64.1006C78.6694 64.7622 78.7691 65.1098 78.9624 65.8137C79.1124 66.4189 79.1582 66.7876 79.5521 67.272C81.3329 67.9356 83.3838 66.6567 85.1243 66.504C87.3548 66.3085 89.8268 67.3748 91.8763 67.6868C92.5801 69.0927 92.7904 69.2369 94.0596 70.1507L95.4106 71.1796C97.6114 64.3617 97.5751 56.6293 103.013 51.0782C103.52 50.5609 104.246 49.2612 104.638 48.5821C104.479 46.9982 103.992 45.5141 103.569 43.9739C103.997 43.2514 104.865 41.1648 104.838 40.3431C104.797 39.0705 103.454 38.1903 102.881 37.1432C102.503 36.4509 102.396 34.4777 102.096 33.864C101.519 32.7245 100.511 31.7211 99.8728 30.625C98.9153 28.9817 98.4696 27.8589 97.0581 26.5315C92.0804 25.9196 89.4133 26.6457 84.8257 27.8733C78.8464 29.4733 75.7408 31.6198 71.7049 36.353C70.8602 37.3435 69.7243 38.0868 68.89 39.1366C69.0186 42.4285 74.502 40.8754 76.361 41.3138C78.7367 41.8739 78.7013 45.3094 79.9906 47.3281C83.1233 49.0992 83.718 49.7738 85.934 52.5562L85.8547 52.5143C83.574 51.287 81.7179 49.8697 79.7859 48.1391C78.0193 46.5567 78.0986 43.9092 75.9446 42.7132C75.7417 42.6007 74.7491 43.2565 74.4436 43.1364C73.407 43.2019 72.1859 42.3853 71.3872 43.1329C71.0515 44.3652 72.1216 46.7198 72.6655 47.8893C73.2413 48.2342 73.59 47.5017 74.1627 47.5408C74.9358 47.5935 77.5583 47.9458 78.0376 48.4314L77.9917 48.7848C77.0851 49.4177 75.0689 48.6815 74.4333 49.6782L74.5464 49.9935C75.356 50.1586 76.9149 50.0592 77.7959 50.0345C76.4109 50.6408 75.9581 50.7855 75.0543 52.0295C73.7611 50.6935 71.4643 47.7285 70.9702 45.9717C70.6715 44.9098 70.5006 44.0713 70.0842 42.8948C68.6712 42.0981 68.5131 41.8497 67.3047 40.7082C67.5247 39.8027 67.8273 38.4978 68.4302 37.7481C71.6446 33.7509 75.6568 29.9246 80.4307 27.8887C81.6059 27.2544 84.3778 27.097 85.3913 26.5989C88.9779 24.8369 92.2253 25.311 96.0651 25.4992C96.382 25.5147 96.2566 24.7238 96.5182 24.3097C96.95 24.2232 96.777 24.2201 97.2151 24.402C97.3699 24.8833 97.3883 25.1166 97.7863 25.4172L98.0857 25.2998L98.4532 24.3872L98.6593 24.3713L98.8313 24.7507C98.1455 27.5678 103.569 32.879 103.377 36.3161C103.359 36.6494 105.658 39.7254 106.112 39.9162L106.387 39.7289C106.831 38.2774 105.947 36.1344 105.75 34.671C105.606 33.5987 105.927 32.8996 105.289 31.7637C104.449 30.2655 101.761 27.0849 100.201 26.5863ZM138.544 220.089C138.714 217.872 138.626 214.85 138.622 212.55L138.612 198.932C138.677 190.879 138.69 182.829 138.648 174.777C138.644 173.043 138.874 162.154 138.178 161.303C137.958 161.639 137.741 161.976 137.527 162.314C137.16 162.18 137.163 162.175 136.776 162.151C136.269 162.988 136.353 166.835 136.334 168.015C136.367 179.431 136.327 190.845 136.215 202.261L136.043 211.992C136.018 213.562 135.917 215.578 136.109 217.11C136.185 217.717 137.434 219.056 137.939 219.956C138.224 220.051 138.245 220.089 138.544 220.089ZM191.104 197.333C191.801 196.511 191.619 195.965 191.526 194.852L190.375 181.306C190.262 180.102 190.129 178.899 190.011 177.695C189.026 167.627 189.362 157.387 189.306 147.282L189.319 129.169C189.318 124.968 189.17 120.737 189.405 116.534C189.646 112.233 190.47 107.953 190.765 103.639C191.42 94.0834 191.503 84.228 192.535 74.7237C193.495 65.8908 194.472 57.091 195.154 48.2531C194.446 48.1823 193.433 48.0486 192.747 48.0271C191.43 50.8852 190.558 65.2276 190.09 69.5232L187.547 93.8428C187.31 96.1696 187.074 98.5309 186.784 100.853C185.657 109.896 186.521 119.317 186.003 128.354C185.149 143.254 185.986 157.849 186.3 172.746C186.323 173.841 186.358 174.948 186.449 176.04C186.783 179.739 187.201 183.431 187.702 187.109C188.093 190.038 188.752 194.652 188.661 197.528L191.104 197.333ZM182.223 142.533C179.506 140.307 176.038 138.884 173.06 137.024L165.744 132.379C165.133 131.99 164.566 131.379 163.918 131.087C163.898 131.122 163.877 131.156 163.858 131.191C163.283 132.233 163.114 133.734 162.836 134.894C161.896 138.817 161.114 140.78 157.341 142.738C155.919 143.479 154.434 144.095 152.904 144.579C145.875 146.745 138.391 147.468 131.206 149.022C130.018 149.278 128.294 149.36 127.243 149.896C128.007 151.293 134.047 156.229 135.599 156.695C137.955 157.403 141.525 155.891 143.968 155.517C148.912 154.473 153.655 152.855 158.464 151.339C160.48 150.704 162.551 150.27 164.561 149.609C168.609 148.279 172.827 146.834 176.74 145.141C178.596 144.338 180.382 143.371 182.223 142.533ZM162.494 82.8785C162.64 79.0153 163.434 55.2372 164.654 53.0454C165.652 52.435 166.064 52.5593 167.175 52.8682C171.61 54.1018 176.179 54.954 180.625 56.1109C182.726 56.6574 187.531 57.1534 189.061 58.5297C189.889 56.936 190.587 49.8451 190.876 47.6129C185.84 47.3298 182.067 45.8241 177.468 44.7766C175.168 44.2529 165.107 43.2569 162.889 43.4272C162.677 43.5167 162.216 43.6446 162.184 43.9078C161.352 50.6654 161.484 57.2003 160.794 64.0175C160.176 70.1225 161.066 77.0083 160.413 83.1796C160.091 86.217 159.868 89.2505 159.57 92.2876C159.453 98.1106 159.509 103.871 158.978 109.683C158.904 110.501 159.565 112.533 160.398 112.891C161.209 112.517 161.08 111.07 161.086 110.258C161.157 101.156 162.318 91.961 162.494 82.8785ZM151.605 178.438C153.915 177.267 159.805 175.739 161.25 173.85C161.419 172.776 161.357 165.182 161.155 164.377L160.959 164.298C159.946 165.992 160.863 169.714 159.86 172.029C159.764 170.645 160.143 162.589 159.75 162.129C159.733 162.109 159.705 162.101 159.683 162.087C156.951 162.896 154.167 163.193 151.419 163.874C148.948 164.487 146.569 165.459 144.154 166.257C144.21 171.154 144.347 176.134 144.1 181.022C146.5 180.536 149.406 179.525 151.605 178.438ZM165.493 159.879C166.03 164.078 166.634 168.234 166.377 172.486C168.923 171.609 171.422 170.546 173.937 169.579C176.039 168.888 182.214 167.364 183.346 165.634C183.472 165.099 183.325 164.669 183.039 164.219C182.115 162.765 174.68 157.955 172.911 157.577C172.862 157.567 172.813 157.56 172.764 157.555C170.487 158.356 167.871 159.563 165.493 159.879ZM182.099 146.698C182.335 146.114 182.704 145.428 182.656 144.79L182.473 144.54L181.986 144.516C179.108 145.949 176.208 147.038 173.212 148.183C171.723 148.753 170.269 149.42 168.745 149.899C165.637 150.877 162.446 151.597 159.333 152.558C157.461 153.136 155.725 154.135 153.831 154.641C151.465 155.273 149.004 155.478 146.656 156.117C144.091 156.814 138.01 159.15 135.634 158.348C132.329 157.233 128.222 151.665 125.492 150.485C124.936 150.245 124.415 150.268 123.882 150.518L123.812 150.877C124.05 151.115 124.286 151.322 124.561 151.518C127.749 155.003 131.634 157.808 135.734 160.126C137.873 159.915 140.047 159.866 142.171 159.545C151.028 158.205 160.761 155.244 169.225 152.361C171.662 151.531 174.259 150.847 176.617 149.833C178.525 149.012 180.193 147.592 182.099 146.698ZM177.637 56.8435C176.876 64.5254 174.937 71.6878 173.329 79.1638C171.482 88.1904 169.776 96.7385 169.359 105.97C169.062 112.555 168.29 118.998 168.878 125.647C169.07 127.822 168.237 133.03 170.465 133.833C170.969 129.742 170.213 124.465 170.355 120.223C170.372 115.053 170.315 110.006 171.168 104.879C171.382 103.594 171.185 101.77 171.43 100.405C172.688 93.3969 172.889 86.7978 175.402 80.099C176.229 77.8945 179.806 58.6158 179.028 57.3154C178.431 57.0244 178.271 56.9906 177.637 56.8435ZM163.93 129.312L164.923 130.128C165.425 130.604 165.946 131.113 166.457 131.573C164.894 117.633 164.269 102.861 167.223 89.0722C168.844 81.5076 169.731 73.3681 171.005 65.7118C171.285 64.0067 173.603 56.0925 171.753 55.5263C171.101 57.1516 170.577 61.7722 170.328 63.6567C169.966 66.381 169.55 69.0974 169.079 71.8047C168.69 74.0072 167.754 76.3836 167.265 78.6574C165.114 88.6955 163.457 98.9753 162.878 109.229C162.762 111.284 162.716 116.23 163.101 118.113C164.013 122.575 164.032 124.899 163.93 129.312ZM143.955 160.998C144.088 162.173 144 163.592 144.265 164.713C146.809 163.115 150.756 163.323 153.643 162.429C155.662 161.804 157.605 160.948 159.618 160.298C162.13 159.486 164.677 158.788 167.19 157.984C168.703 157.499 170.176 156.883 171.697 156.422C173.26 155.948 174.858 155.595 176.419 155.113C178.369 154.511 180.263 153.482 182.255 153.062C182.303 151.928 182.652 149.886 182.244 148.867C180.596 149.86 178.664 150.532 176.894 151.288C174.433 152.339 171.97 153.504 169.445 154.386C166.746 155.328 163.924 155.993 161.189 156.832C155.449 158.592 149.932 160.177 143.955 160.998ZM82.5177 90.9478C80.698 91.3816 79.4778 92.2593 78.0219 93.5109C77.8827 93.5281 77.8038 93.9835 77.8477 94.0255C80.1728 96.2471 81.2904 99.0754 81.5537 102.178C83.5099 98.0962 85.2681 95.1757 87.9436 91.4934C88.8695 90.219 90.7063 88.6626 91.4922 87.2041C92.2468 85.8034 93.9142 80.5667 93.8854 79.1835C93.1917 78.6817 92.9257 78.6417 93.0995 77.7827L93.3066 77.664L94.1273 78.0513L94.4654 77.8829C95.0894 76.8255 95.2932 74.5846 95.083 73.3864L94.8424 73.282C93.7584 74.5126 92.7837 76.273 91.866 77.6405C89.9186 80.5418 87.5474 82.7928 86.5577 86.2052C86.4663 86.5201 83.1795 90.3959 82.754 90.8244C84.1637 91.4405 83.6454 91.4141 83.8929 92.9332L83.6752 93.1086C82.4447 92.5809 83.171 91.6351 82.5177 90.9478ZM144.581 187.759C146.213 187.304 147.741 186.553 149.297 185.895C152.789 184.421 156.192 182.824 159.662 181.313C167.711 177.807 175.932 174.623 183.923 170.985C184.141 170.886 184.279 170.794 184.399 170.584C185.011 169.512 184.77 168.373 184.436 167.258C184.309 166.833 184.218 166.765 183.887 166.48C183.78 167.002 183.809 168.026 183.365 168.303C182.16 169.057 180.572 169.352 179.263 169.923L155.491 180.377C152.113 181.881 148.139 183.152 145.017 185.133C144.491 185.465 144.036 185.955 143.877 186.572C143.815 186.815 143.85 187.049 143.897 187.288C144.122 187.539 144.244 187.691 144.581 187.759ZM180.526 138.071C180.395 136.295 180.307 134.494 180.085 132.727C179.887 131.157 179.549 129.626 179.45 128.042C179.149 123.257 178.866 117.585 179.296 112.868C179.424 111.468 180.034 110.172 180.17 108.757C180.595 104.319 180.983 99.6423 181.951 95.2859C182.492 92.8495 183.355 90.4785 184.221 88.1412C184.681 86.8992 185.288 85.5798 185.552 84.2873C186.414 80.0729 186.392 75.6664 187.187 71.4159C187.438 70.0732 189.242 61.0743 188.44 60.386C188.356 60.3137 186.608 59.431 186.452 59.3835C186.465 61.1827 186.75 63.4907 186.571 65.1842C185.49 75.3791 182.809 85.5613 180.784 95.6129C178.184 108.526 178.133 121.298 178.639 134.414C178.692 135.843 178.504 138.568 180.113 139.1L180.467 138.93C180.519 138.631 180.562 138.375 180.526 138.071ZM167.138 121.992C167.852 109.112 167.83 96.9831 170.936 84.3812C171.349 82.7076 171.824 81.0653 172.231 79.3924C172.913 76.298 173.225 72.5165 174.063 69.5204C174.653 67.4095 176.583 58.0896 175.851 56.7644C175.216 56.4385 174.288 56.4961 173.551 56.4806C173.717 59.8953 173.074 64.3971 172.564 67.8369C171.566 74.5734 169.563 81.1891 168.817 88.0077C168.629 89.734 167.89 91.645 167.696 93.3949C166.558 101.343 166.292 109.269 166.574 117.287C166.616 118.479 166.332 122.656 166.889 123.376C167.18 122.932 167.126 122.537 167.138 121.992ZM175.341 136.39L175.594 136.454C175.989 135.792 175.635 132.645 175.531 131.688C175.091 127.656 175.531 123.425 175.388 119.449C174.904 106.069 177.275 92.873 180.34 79.9015C180.966 77.2519 184.318 59.6603 183.341 58.4086C183.124 58.3371 182.835 58.231 182.625 58.1813C182.445 63.7507 181.807 67.5661 180.716 73.0131L178.55 83.8716C177.757 87.7096 177.071 91.6887 176.433 95.5546C176.296 96.3871 175.565 97.8754 175.497 98.5838C175.149 102.255 174.565 105.905 174.305 109.583C174.199 111.097 173.59 112.51 173.481 113.839C173.219 117.056 173.385 120.627 173.237 123.828C173.067 127.512 173.752 132.117 173.634 135.571L175.341 136.39ZM107.355 37.1772C107.261 39.2425 107.368 39.7399 107.549 41.7443C107.452 44.3024 108.407 43.0025 109.115 45.04C109.301 45.5732 109.058 47.0705 109.328 48.0936L109.563 48.1841C110.702 47.692 112.294 44.9004 113.111 43.8556C113.447 43.4267 113.297 40.9474 113.388 40.2172C114.031 35.024 110.711 30.7314 107.367 27.1864C106.43 26.1946 102.483 24.3652 101.258 25.8277L101.383 26.116C105.55 27.6993 107.327 33.064 107.355 37.1772ZM110.798 201.219C112.602 201.932 114.271 202.536 116.172 201.71C117.725 201.035 119.257 199.423 119.858 197.822C120.059 197.286 120.217 196.728 120.377 196.178C118.573 193.832 118.483 192.467 117.375 189.983C117.277 189.763 117.093 189.602 116.912 189.45C116.475 190.272 116.172 191.188 115.691 191.978C114.543 193.866 112.169 194.921 110.129 195.546C109.051 195.878 107.306 196.061 106.641 197.055C106.591 197.622 106.689 197.933 107.062 198.379C108.002 199.497 109.568 200.424 110.798 201.219ZM116.595 181.787L117.093 181.805C117.933 180.601 117.695 177.585 117.439 176.179C116.929 173.375 115.403 170.796 114.217 168.232C113.152 165.931 112.152 163.32 111.569 160.845C111.397 160.113 111.025 156.733 110.856 156.401C110.814 156.318 110.559 156.119 110.477 156.056C110.442 156.029 110.403 156.007 110.367 155.983C109.534 156.535 109.289 157.435 109.106 158.378C108.853 159.684 108.896 161.067 109.131 162.372C109.717 165.641 114.1 178.585 115.847 181.178C115.973 181.364 116.143 181.472 116.325 181.595C116.417 181.657 116.503 181.725 116.595 181.787ZM183.737 138.691C184.264 136.282 184.391 126.538 184.139 123.952C184.186 122.8 184.105 122.296 183.944 121.173C183.847 122.145 183.664 123.529 183.721 124.471C183.754 129.441 183.109 133.491 183.737 138.691ZM167.15 74.0281C167.395 71.6695 169.64 56.3462 168.709 55.1435C168.275 54.5825 167.483 54.4177 166.817 54.3484C166.722 56.9442 166.185 74.0225 166.706 74.9643L166.799 74.9341L166.712 74.6265L167.046 74.5533L167.15 74.0281ZM165.495 172.695C165.454 169.002 165.674 163.742 164.641 160.281C164.531 160.222 164.422 160.129 164.295 160.133C163.247 160.507 162.272 160.926 161.285 161.442C161.712 162.787 162.054 164.08 162.206 165.486C162.435 167.6 162.029 171.59 162.945 173.351C163.512 173.478 164.094 173.659 164.623 173.327C164.927 173.136 165.213 172.916 165.495 172.695ZM154.226 179.577C155.434 178.807 155.919 178.779 157.374 177.74C156.043 178.064 155.187 178.276 154.101 179.112C152.929 179.246 144.818 182.379 144.417 183.026C146.06 183.575 149.273 181.492 150.814 180.865C151.469 180.599 153.819 179.951 154.226 179.577ZM182.163 154.674C181.358 155.033 180.215 155.381 179.59 156.003L179.482 156.487C178.283 156.988 176.701 155.521 174.881 156.549C174.908 157.059 175.258 157.293 175.631 157.63C176.204 158.147 176.823 158.495 177.523 158.806C179.2 159.857 180.974 160.852 182.739 161.748C182.706 159.891 182.994 156.583 182.479 154.916L182.163 154.674ZM135.162 163.421C135.334 162.765 135.078 162.052 134.919 161.41C134.112 160.879 133.392 160.157 132.598 159.657C132.517 160.499 132.49 160.703 133.053 161.383C133.564 162 134.407 163.182 135.162 163.421ZM177.207 125.709C177.105 118.527 177.134 111.424 178.051 104.322C179.096 96.2238 180.732 88.4306 182.36 80.4267C183.7 73.8364 185.495 68.3336 185.138 61.4824C185.127 60.7367 185.152 60.2525 184.951 59.5349L184.819 59.5851C184.522 60.5981 184.609 61.5191 184.635 62.5718C184.582 65.6491 183.885 67.4532 183.445 70.3698C181.708 81.8982 178.24 93.1004 177.354 104.753C177.225 106.46 176.797 108.238 176.747 109.965C176.642 114.696 176.692 119.51 176.703 124.244C176.612 125.186 176.425 127.758 177.122 128.408L176.846 128.07L177.331 127.865C177.319 127.339 177.327 126.166 177.207 125.709ZM104.935 44.1074C105.181 44.9967 105.446 46.0682 105.765 46.9182L106.292 46.619C106.74 47.2998 106.202 47.5409 106.805 48.5039C107.756 47.8306 107.859 45.4492 107.287 44.4688C107.04 44.351 106.371 44.1495 106.34 44.0588C105.974 42.9629 107.015 42.0542 105.899 41.2461C105.61 42.1629 105.304 43.2327 104.935 44.1074ZM120.688 197.139C120.232 199.335 118.576 201.398 116.693 202.617C115.817 203.186 114.75 203.367 113.746 203.598C110.076 202.175 108.767 201.468 105.868 198.762C104.958 199.772 104.221 200.937 103.287 201.911C101.301 203.985 97.705 205.497 94.9163 206.064C94.1264 206.225 92.1876 206.285 91.5489 206.623C90.7617 207.042 90.7164 208.834 90.7599 209.564C90.8015 210.257 90.8653 211.678 91.4102 212.174C91.6235 212.369 91.9507 212.556 92.209 212.682C97.9065 214.342 101.943 216.138 107.841 214.396C109.847 213.806 111.797 213.027 113.805 212.445C116.207 211.75 118.739 211.659 120.971 210.431C122.295 209.703 123.416 208.632 123.843 207.145C124.732 204.052 122.552 200.082 121.155 197.416L120.688 197.139ZM164.776 69.5737C164.745 70.6432 164.579 74.1148 165.012 74.8855C165.446 73.3195 165.331 70.9337 165.282 69.2705C165.32 67.1851 165.27 64.9356 165.305 62.7861C165.325 61.5014 165.431 59.3985 165.083 58.2046L164.925 58.2897C164.526 59.3808 164.59 59.8895 164.611 61.0371C164.467 63.4027 164.816 66.7555 164.776 69.5737ZM127.661 158.325C124.506 158.768 121.409 159.426 118.205 159.38C118.172 160.712 118.178 162.045 118.222 163.376C119.313 163.285 120.562 163.286 121.616 163.012C123.257 162.854 130.205 161.763 131.254 160.745C131.285 160.296 131.162 160.134 130.878 159.8C130.427 159.272 129.599 158.231 128.863 158.22C128.468 158.214 128.054 158.279 127.661 158.325ZM105.041 52.079C104.347 53.8412 102.023 55.208 100.855 56.9196C99.6414 58.697 99.9138 59.9775 99.3035 61.8149C99.0958 62.4405 97.3439 64.5349 97.4629 65.5884L97.6917 65.6758L97.8261 65.3582C98.5787 64.3568 98.6766 65.0811 99.4172 63.8623C101.063 61.1534 102.377 60.4207 102.666 57.1676C103.902 56.3765 107.415 53.3628 105.041 52.079ZM171.646 128.032C171.534 128.651 171.398 129.192 171.606 129.806L171.872 129.949C172.019 129.536 172.23 129.071 172.039 128.641C171.944 128.427 171.783 128.221 171.646 128.032ZM183.862 154.861C184.479 153.893 184.213 151.337 184.129 150.147C183.988 149.913 183.923 149.807 183.673 149.674C182.998 150.642 183.302 152.327 183.5 153.423C183.589 153.914 183.701 154.388 183.862 154.861ZM172.115 121.038C172.196 120.423 172.154 119.702 172.137 119.072C171.888 117.108 172.197 116.714 172.169 114.862C172.228 112.181 172.974 110.208 173.082 107.951C173.632 96.3884 177.638 85.7648 178.992 74.3342C179.405 70.8508 182.458 60.6208 181.211 57.6786L180.993 57.5738C180.871 57.7358 177.532 76.7854 176.897 79.0701C174.234 88.6379 172.688 98.896 172.031 108.787C171.836 111.722 171.357 113.615 171.647 116.691C171.64 117.628 171.523 121.361 171.884 121.942L172.004 121.882C172.043 121.631 172.11 121.281 172.115 121.038ZM117.245 187.445C117.425 186.421 117.924 184.554 117.335 183.638C117.213 183.449 117.061 183.351 116.866 183.248C116.575 184.502 116.593 185.902 116.771 187.174L117.032 187.465L117.245 187.445ZM116.163 153.201C115.201 153.523 113.987 153.833 113.264 154.573C112.251 156.636 112.943 160.994 113.674 163.138C114.228 164.764 115.264 167.919 116.335 169.183C116.593 169.653 116.847 170.115 117.155 170.554C117.497 170.137 117.543 169.643 117.563 169.107C117.659 166.503 117.302 163.781 117.221 161.164C117.146 158.732 117.345 155.922 117.061 153.558C117.048 153.445 117.011 153.363 116.967 153.26C116.699 153.237 116.432 153.208 116.163 153.201ZM91.3298 204.798C92.1722 204.731 93.0406 204.35 93.8777 204.164C98.4942 203.141 101.545 201.891 104.67 198.09C104.849 197.871 104.952 197.634 105.023 197.363L104.887 197.111L104.661 197.096C101.861 197.987 99.4152 199.333 96.3546 199.228C95.5226 199.201 91.7876 198.514 91.4557 199.17C90.9684 200.131 90.8383 203.567 91.2474 204.59C91.2649 204.633 91.2851 204.677 91.3025 204.72C91.3126 204.745 91.3207 204.773 91.3298 204.798ZM185.073 90.7952C180.744 103.595 181.453 117.917 181.885 131.205C181.933 132.706 181.49 136.085 182.045 137.326C182.098 137.445 182.107 137.451 182.167 137.553C182.181 137.577 182.194 137.601 182.208 137.625C182.771 133.716 182.083 129.536 182.277 125.582C182.388 123.321 182.754 121.056 182.957 118.8C183.43 113.102 184.004 107.413 184.678 101.736C184.894 99.9827 185.869 92.1556 185.3 90.9798L185.073 90.7952ZM164.495 76.0026C164.184 76.5213 163.934 77.0199 163.82 77.6184C163.437 79.6222 163.308 87.3188 163.785 89.201C163.794 89.2346 163.804 89.2677 163.813 89.3011C164.874 87.715 164.945 78.2114 164.547 76.223C164.533 76.1489 164.514 76.0758 164.495 76.0026ZM120.853 151.416C119.883 151.848 118.896 152.244 117.927 152.678C118.012 154.566 118.226 156.542 118.138 158.426C120.298 158.267 122.386 157.957 124.525 157.633C125.881 157.458 127.242 157.2 128.601 157.066C127.244 156.292 121.958 151.493 121.485 151.387C121.346 151.356 120.996 151.384 120.853 151.416Z" fill="#020202"/>
<path d="M136.332 168.016C136.364 179.431 136.325 190.845 136.212 202.262L136.041 211.992C136.015 213.562 135.914 215.578 136.106 217.11C136.182 217.717 137.431 219.056 137.937 219.956C138.222 220.052 138.243 220.09 138.541 220.09L138.614 221.295C134.032 218.951 134.467 215.618 134.518 211.148C134.562 207.174 134.74 203.19 134.826 199.217L135.167 170.844C135.274 170.405 135.185 170.517 135.471 170.226L135.463 169.851C135.635 170.269 135.261 171.633 135.57 172.34L135.905 172.06C136.12 170.72 136.262 169.37 136.332 168.016Z" fill="#020202"/>
<path d="M161.941 68.4297L162.143 68.6273C162.335 69.2503 162.239 69.8107 162.159 70.4443L161.978 70.3225C161.734 69.7778 161.887 69.0156 161.941 68.4297Z" fill="#020202"/>
<path d="M174.37 113.027C174.977 114.317 174.724 120.617 174.465 122.188C173.779 120.603 174.009 114.757 174.37 113.027Z" fill="#020202"/>
<path d="M184.139 123.953C184.39 126.54 184.264 136.284 183.737 138.693C183.109 133.493 183.753 129.443 183.721 124.472L184.139 123.953Z" fill="#020202"/>
<path d="M154.231 179.579C153.824 179.952 151.473 180.6 150.819 180.866C149.278 181.493 146.064 183.576 144.422 183.027C144.823 182.38 152.934 179.247 154.106 179.113L154.231 179.579Z" fill="#020202"/>
<path d="M183.673 149.676C183.923 149.81 183.989 149.915 184.13 150.15C184.214 151.339 184.48 153.895 183.863 154.863C183.701 154.391 183.59 153.916 183.501 153.425C183.303 152.329 182.998 150.644 183.673 149.676Z" fill="#020202"/>
<path d="M164.611 61.0395C164.589 59.8919 164.526 59.3832 164.925 58.2921L165.082 58.207C165.431 59.4009 165.325 61.5038 165.305 62.7885C165.205 63.3041 165.15 63.5825 164.975 64.0925C164.721 63.8569 164.648 61.5844 164.611 61.0395Z" fill="#020202"/>
<path d="M164.613 61.0391C164.65 61.5839 164.724 63.8565 164.977 64.0921C165.152 63.5821 165.208 63.3037 165.307 62.7881C165.272 64.9376 165.322 67.1871 165.284 69.2725C164.937 69.4007 164.996 69.3258 164.778 69.5756C164.819 66.7574 164.469 63.4047 164.613 61.0391Z" fill="#020202"/>
<path d="M164.776 69.5766C164.994 69.3267 164.934 69.4017 165.281 69.2734C165.331 70.9366 165.446 73.3225 165.012 74.8885C164.579 74.1178 164.744 70.6461 164.776 69.5766Z" fill="#020202"/>
<path d="M172.171 114.863C172.199 116.715 171.89 117.109 172.138 119.073L171.824 119.193C171.733 119.814 171.675 120.533 172.117 121.039C172.111 121.282 172.045 121.632 172.006 121.883L171.886 121.943C171.524 121.362 171.641 117.629 171.649 116.692C172.042 116.246 172.079 115.478 172.171 114.863Z" fill="#020202"/>
<path d="M176.702 124.246L176.933 125.532L177.206 125.711C177.326 126.168 177.318 127.341 177.33 127.867L176.845 128.072L177.121 128.41C176.424 127.759 176.611 125.188 176.702 124.246Z" fill="#020202"/>
<path d="M82.7519 90.8242C84.1617 91.4403 83.6433 91.4139 83.8908 92.9329L83.6731 93.1084C82.4426 92.5806 83.1689 91.6349 82.5156 90.9476L82.7519 90.8242Z" fill="#020202"/>
<path d="M154.102 179.114C155.187 178.279 156.043 178.066 157.374 177.742C155.919 178.782 155.434 178.809 154.226 179.58L154.102 179.114Z" fill="#020202"/>
<path d="M184.634 62.5721C184.607 61.5194 184.521 60.5984 184.818 59.5854L184.95 59.5352C185.15 60.2528 185.126 60.7369 185.137 61.4827L184.867 61.6047L184.634 62.5721Z" fill="#020202"/>
<path d="M183.944 121.176C184.106 122.299 184.186 122.802 184.139 123.954L183.722 124.474C183.664 123.531 183.848 122.148 183.944 121.176Z" fill="#020202"/>
<path d="M171.649 128.035C171.786 128.224 171.946 128.43 172.041 128.644C172.233 129.074 172.021 129.539 171.874 129.952L171.608 129.809C171.4 129.195 171.536 128.654 171.649 128.035Z" fill="#020202"/>
<path d="M172.114 121.04C171.672 120.534 171.731 119.815 171.822 119.195L172.136 119.074C172.153 119.704 172.196 120.425 172.114 121.04Z" fill="#020202"/>
<path d="M129.055 102.29C128.208 102.279 127.144 102.158 126.253 102.115L126.125 102.328L126.559 103.12L126.321 103.216C125.627 102.624 122.96 100.676 122.727 100.32C123.686 100.386 124.974 101.262 125.639 101.352C126.752 101.502 128.514 101.53 129.66 101.571C129.416 102.122 129.568 101.929 129.055 102.29Z" fill="#020202"/>
<path d="M129.681 123.777L129.791 123.913L129.651 124.216C127.768 125.448 126.281 126.282 123.977 126.141L123.852 125.868C124.487 125.384 125.715 125.586 126.502 125.323C127.656 124.939 128.489 124.109 129.681 123.777Z" fill="#020202"/>
<path d="M108.117 93.9258C108.243 93.9747 108.247 93.972 108.386 94.051C109.499 94.6847 110.657 96.0209 110.943 97.2782C110.881 97.2431 110.778 97.1884 110.716 97.1434C109.867 96.5324 108.276 94.9509 108.117 93.9258Z" fill="#020202"/>
<path d="M129.66 101.574C130.288 101.893 130.758 101.997 131.084 102.531C130.353 103.05 129.869 102.642 129.16 102.339L129.055 102.293C129.568 101.932 129.416 102.125 129.66 101.574Z" fill="#020202"/>
<path d="M99.145 153.68C99.1697 153.703 99.1981 153.723 99.219 153.749C99.4514 154.045 99.3657 154.333 99.333 154.675C99.0053 155.265 98.6122 155.528 98.0529 155.885L98.0015 155.841C97.8863 155.384 98.8682 154.173 99.145 153.68Z" fill="#020202"/>
<path d="M97.761 161.273C97.8026 161.311 97.8458 161.347 97.8859 161.386C98.2515 161.741 98.135 162.593 98.1323 163.067L97.844 162.855C97.5737 162.362 97.7056 161.812 97.761 161.273Z" fill="#020202"/>
<path d="M48.2469 96.5664C48.4299 96.7194 48.4471 96.7995 48.5428 97.0134C48.3848 98.4413 47.8262 99.6055 47.2065 100.877L47.1226 100.847C47.1084 100.811 47.0883 100.776 47.0795 100.738C46.9243 100.07 47.8751 97.1991 48.2469 96.5664Z" fill="#020202"/>
<path d="M115.844 82.8424L116.502 82.8359C117.165 83.4256 117.108 83.189 117.158 83.8961C116.41 85.7065 113.265 86.8658 111.879 88.9843L111.256 89.8818L110.989 89.9601C110.098 90.6179 109.609 90.9644 108.951 91.8991C108.607 92.4735 108.123 92.8259 107.642 93.2801C105.654 95.1545 103.235 97.2365 101.806 99.584C102.672 102.076 104.575 107.57 106.909 108.336C112.524 110.179 114.496 112.651 116.99 117.859C117.285 118.473 119.018 119.76 119.551 120.337C120.556 121.485 122.048 123.651 122.647 125.075C122.983 125.876 122.949 127.216 123.514 127.913C125.153 128.344 125.653 126.187 126.66 127.896C126.66 127.896 128.112 128.179 128.304 128.238C129.804 128.757 134.881 129.731 135.947 130.247C137.097 129.739 142.3 127.677 142.743 127.007C143.023 126.596 143.327 125.356 143.482 124.816C144.845 125.888 144.702 126.333 146.68 125.463C150.2 123.915 153.795 122.202 156.553 119.458C157.279 118.737 158.033 117.207 158.673 116.782L158.933 116.814C158.472 117.662 157.715 119.65 157.228 120.217C154.264 123.67 150.718 125.012 146.731 126.763C144.283 127.838 142.161 128.993 139.595 129.865C136.398 130.951 137.719 131.984 133.802 130.244C131.412 129.656 127.459 129.409 124.942 129.417C124.19 129.456 123.199 129.646 122.545 129.957C117.897 132.176 113.211 134.13 108.747 136.704C107.379 137.492 105.05 138.258 103.533 139.1C101.797 140.063 99.5602 141.198 97.8755 142.235C96.4574 143.107 92.6501 144.739 91.6238 145.493C91.547 146.599 91.4603 147.692 91.4431 148.801L90.8697 148.507C90.2531 147.737 90.2865 144.183 90.2437 143.038C90.1244 140.676 90.508 134.499 89.8171 132.798C90.3185 131.544 91.5109 131.542 92.7094 131.313C93.3833 131.075 95.5183 131.217 96.162 130.585C99.5343 128.741 102.439 126.489 106.111 124.985C107.888 124.258 109.966 122.62 111.772 121.792C113.06 121.202 114.396 120.6 115.651 119.956L115.706 119.627C115.288 118.924 115.077 118.778 114.442 118.246C112.321 110.61 109.131 112.344 103.769 107.855C102.288 106.615 101.495 102.031 100.374 101.258C99.5724 101.912 96.6798 105.712 96.0202 106.685C95.4665 107.5 95.0519 108.098 94.5962 108.985C90.2713 112.878 88.2155 119.279 82.3492 121.647C81.2569 122.088 80.4446 122.449 79.2571 122.153L79.0398 121.764C77.7546 119.576 75.6628 117.348 74.6137 114.702C73.83 112.726 73.4139 107.734 71.812 106.574C71.3751 106.883 71.4416 107.045 71.24 107.649L71.087 107.832L70.4048 107.847C70.1645 106.663 70.416 105.851 70.679 104.701C70.2649 103.798 69.5916 101.882 69.0751 101.273C67.9429 101.115 62.2361 105.534 60.9696 106.373C60.026 106.343 60.022 106.296 59.6094 105.573C61.8966 103.918 66.0381 102.512 67.4142 100.35C67.867 100.122 67.9546 100.078 68.4511 99.9849L69.4146 99.8155C70.5397 100.203 70.623 101.878 71.1751 102.903C71.9534 104.349 73.5624 105.952 74.2676 107.348C75.0612 109.086 75.1974 110.902 75.6928 112.75C76.3598 115.226 77.7052 117.996 79.4391 119.878C80.7733 121.326 82.4247 119.727 83.7862 119.162C84.4292 118.895 85.9927 118.188 86.445 117.756C87.505 116.742 87.7043 114.717 88.6114 113.558C89.5752 112.326 90.5969 111.295 91.5698 110.085C94.6609 105.841 98.0099 101.82 101.226 97.6715C101.765 96.9756 103.179 95.7111 103.906 94.9655C106.175 92.6063 108.49 90.2914 110.85 88.0223C111.974 86.9491 114.649 84.4708 115.516 83.3198L115.536 83.0966L115.844 82.8424ZM91.4888 143.711C92.5721 143.283 93.9711 142.96 94.9395 142.343C96.9351 141.097 98.9979 139.709 101.111 138.685C103.08 137.731 105.141 137.057 107.094 136.037L116.163 131.352C117.928 130.44 119.644 129.409 121.51 128.711C121.247 126.238 119.464 122.586 117.545 120.947C117.262 120.705 117.051 120.713 116.701 120.688C115.004 121.139 113.147 122.011 111.582 122.815C109.88 123.688 92.2577 133.919 92.0207 134.353C90.9078 136.39 91.579 141.231 91.4888 143.711Z" fill="#020202"/>
<path d="M55.0651 136.302C65.3793 135.958 75.1898 136.201 85.4934 135.59C85.4791 144.59 85.4686 155.737 85.8871 164.757C85.8383 165.788 85.895 167.679 85.1398 168.39C84.9263 168.459 84.7174 168.523 84.5084 168.606L84.4044 168.56C84.3883 167.306 84.3955 161.915 83.9077 161.372C81.7448 158.963 82.2872 156.594 82.6922 153.467C82.8712 152.086 83.9921 150.078 84.0105 148.252C84.0456 144.798 83.7043 141.499 84.2672 138.015C81.6599 137.223 76.4631 137.467 73.5011 137.493C70.8097 137.504 54.4335 137.489 52.8068 138.06C52.2873 138.787 52.9907 142.709 52.9545 144.101C52.6516 146.441 53.1681 150.044 52.8069 152.008C52.7076 151.626 52.6588 151.313 52.4414 150.987C52.4136 149.897 52.4001 149.151 52.2313 148.065C52.074 144.781 51.4651 141.123 51.4751 137.878C50.4054 137.908 49.3051 137.992 48.2347 138.06C43.3105 137.699 37.3565 138.457 31.9645 138.038C32.3187 141.1 32.3089 144.357 32.6066 147.46C32.8378 149.87 33.1753 152.24 33.4555 154.644C33.592 155.816 33.6849 159.16 33.9844 160.086C34.4986 165.745 35.1826 170.874 35.7517 176.413C35.7275 180.398 36.4998 184.36 36.4697 188.004C36.9941 191.912 37.1491 195.813 37.5591 199.724C37.8967 202.943 40.3189 218.159 39.3753 219.938C39.0214 220.605 38.2799 220.992 37.5833 221.201C36.8557 221.42 35.8084 221.501 35.127 221.097C34.7835 220.891 34.5443 220.667 34.4341 220.267C34.0654 218.932 33.9644 217.389 33.7705 216.011C33.1048 211.276 32.7225 206.568 32.3699 201.805C31.8517 195.095 31.1857 188.396 30.3722 181.717C30.2001 180.214 29.8972 178.701 29.7453 177.206L28.632 166.577C28.4645 165.071 28.1973 162.116 27.8471 160.781L27.8047 160.624C28.6232 159.903 28.4827 159.226 28.5211 158.208L29.1113 159.087C29.1555 160.955 29.2748 163.739 29.582 165.542C31.8992 179.14 32.0796 192.94 34.0719 206.593C34.7013 210.907 34.3732 215.928 36.1551 219.966C36.3502 220.406 37.7708 220.242 38.148 220.206C38.3966 219.655 38.3567 219.03 38.3121 218.441C37.8427 212.24 36.8895 206.06 36.2988 199.876C35.4897 191.406 35.0444 182.904 34.1523 174.437C33.7201 170.335 33.0256 166.264 32.6336 162.155C32.1619 157.212 31.949 152.229 31.5251 147.274C31.3406 145.117 30.0987 138.816 30.2817 137.316C30.8159 136.962 30.898 137.077 31.6419 137.039C36.0811 136.767 40.3787 136.519 44.8337 136.43C47.636 136.374 52.4082 136.735 55.0651 136.302ZM84.0239 158.914C84.1525 157.975 84.2526 156.373 83.9026 155.487L83.7061 155.317C83.5852 156.322 83.3115 157.636 83.6523 158.597L84.0239 158.914Z" fill="#020202"/>
<path d="M83.7109 155.316L83.9075 155.487C84.2574 156.373 84.1574 157.975 84.0287 158.914L83.6571 158.597C83.3164 157.636 83.5901 156.322 83.7109 155.316Z" fill="#020202"/>
<path d="M31.7314 110.172L32.3163 110.441C30.7292 113.984 27.6247 117.294 25.8424 120.836C25.3286 121.857 24.3852 122.712 23.8737 123.904C23.3863 124.712 22.9392 125.433 22.4096 126.218C21.6148 127.709 21.4121 128.043 20.1395 129.233C24.8213 128.963 66.4481 129.618 67.6277 128.97C69.466 129.344 72.3224 129.147 74.2498 129.202C79.278 129.346 84.5543 128.987 89.5162 128.996C89.8595 129.029 90.3533 129.125 90.6421 129.018C92.0842 128.939 93.1611 128.918 94.6037 128.959C94.6973 127.619 94.7008 125.981 94.7403 124.617C95.1781 123.757 94.6133 120.666 95.1295 119.683L95.3994 119.894C95.5053 121.471 95.8478 128.614 95.4536 129.783C94.917 130.269 94.6794 130.071 94.3795 130.261C78.2869 130.2 62.1942 130.38 46.107 130.804L29.0445 131.257C25.7984 131.339 21.7761 131.522 18.5747 131.392C18.1679 131.027 18.2633 130.66 18.1797 129.976L18.3582 129.51C18.6102 129.129 19.0638 128.112 19.3488 127.61C20.1347 126.244 20.9865 124.916 21.9014 123.632C24.1893 120.436 26.6082 117.407 28.7251 114.073C29.5711 112.741 30.8558 111.632 31.7314 110.172Z" fill="#020202"/>
<path d="M90.2388 143.039C90.2816 144.184 90.2482 147.738 90.8648 148.508L91.4382 148.802C91.9108 163.391 91.459 179.297 91.2296 193.909C90.7559 194.841 90.6944 194.834 89.6204 194.888C89.7483 190.847 89.5185 185.739 89.5284 181.521C89.4648 171.346 89.6381 161.171 90.0478 151.005C90.1467 148.242 90.0245 145.841 90.2388 143.039Z" fill="#020202"/>
<path d="M56.2404 116.495C57.9723 115.818 58.4926 114.25 59.3862 113.012C59.7504 112.507 63.0705 109.996 63.6668 109.949C63.8385 110.854 63.7315 112.07 63.69 113.014L63.5133 113.651C62.165 113.975 60.081 111.944 59.6402 114.575C60.0395 115.318 60.64 115.159 61.2649 115.634C61.9451 116.15 61.6006 119.178 61.4517 119.884C61.3536 120.348 60.3305 121.83 60.2557 122.467C60.1392 123.459 60.4606 126.231 60.1643 127.043C59.2742 127.382 59.4756 126.748 58.4939 127.171L58.2642 127.848L58.2187 128.219C58.0594 127.045 60.2938 122.274 58.822 122.286C58.1969 123.063 57.2034 126.103 57.9268 126.907L57.7349 127.128C57.1609 127.371 56.1048 127.169 55.4406 127.097C55.6475 126.78 56.0103 126.486 56.297 126.225C56.4596 125.349 56.5405 124.997 56.5015 124.117C56.2824 124.774 56.1998 125.687 56.1089 126.393L55.9913 126.386C55.5478 125.759 55.6284 125.15 55.6318 124.38C55.9481 123.545 56.9631 120.949 55.8432 120.567C55.7326 120.164 55.7505 120.137 55.8265 119.716C56.8899 118.787 59.9442 119.571 60.9775 119.49L60.8747 119.215C59.9276 118.517 57.4487 119.204 55.9476 119.015C55.5315 118.489 53.6799 116.797 53.7113 116.859C53.967 116.541 55.5124 116.916 56.4126 116.648L56.2404 116.495Z" fill="#020202"/>
<path d="M56.2433 116.496C55.0907 116.406 54.0343 116.348 52.8822 116.472C49.1979 116.871 50.989 114.607 49.3376 113.292C48.7826 111.857 50.177 111.45 51.0927 110.613C53.7162 108.217 56.407 107.101 59.6062 105.574C60.0188 106.297 60.0228 106.344 60.9664 106.374C60.5232 106.619 59.9997 106.92 59.5247 107.096C56.1461 108.356 52.1587 110.276 49.7136 112.977C50.3905 112.779 51.5245 112.412 52.1823 112.306C52.5729 111.913 53.5053 110.862 53.9555 110.742C53.7836 112.143 51.201 113.861 51.3417 115.065C52.0293 115.489 52.1726 115.186 52.9691 115.636C53.3825 115.33 53.4099 114.386 53.5449 114.351C55.4661 113.857 57.9078 108.675 59.0539 108.191L59.1587 108.406C58.3628 110.266 55.2209 113.054 55.2627 115.237L55.4545 115.573C56.9613 115.885 57.5981 113.498 58.7059 112.624C61.3111 110.568 65.3361 107.283 68.4298 106.131C68.5469 107.017 66.6429 107.511 66.1106 108.138C65.5607 108.786 65.6496 109.987 65.0185 110.47L64.754 110.35C64.6653 109.826 64.6023 109.436 64.4568 108.922L64.1851 108.996C63.9736 109.583 64.1701 111.105 64.5399 111.621C64.4818 112.441 64.3533 112.452 64.6715 113.087L65.0044 113.174L65.2861 112.826C65.3816 112.076 65.3345 112.261 65.0257 111.484C65.5177 111.346 66.8024 111.197 67.3637 111.117C67.9713 110.619 70.1597 108.526 70.4016 107.848L71.0838 107.833C70.224 109.409 68.1402 111.498 66.542 112.366C65.8076 113.616 65.109 114.34 65.4192 115.685L65.2272 115.843C64.605 115.456 65.7273 114.769 64.0155 113.843C63.8082 113.63 63.7764 113.329 63.6928 113.016C63.7344 112.072 63.8413 110.855 63.6697 109.95C63.0733 109.997 59.7532 112.509 59.389 113.013C58.4955 114.251 57.9751 115.82 56.2433 116.496Z" fill="#020202"/>
<path d="M19.4609 133.233C30.0319 132.642 39.9875 132.219 50.612 132.425C54.9176 132.508 59.3955 132.248 63.7103 132.45C68.036 132.824 72.6453 132.45 77.002 132.859C78.3134 132.982 80.436 132.747 81.6485 133.009C80.4286 133.122 76.2239 132.861 75.782 133.323C72.7217 133.465 69.254 133.363 66.1549 133.359C60.7745 133.366 55.3944 133.406 50.0146 133.479C47.0477 133.502 43.9368 133.406 40.9963 133.535C36.7506 133.568 31.8618 133.668 27.6274 133.8L26.9882 133.649L26.7864 133.31C25.9214 133.044 21.3135 133.484 19.4609 133.233Z" fill="#020202"/>
<path d="M139.517 196.743C139.252 187.511 139.877 177.957 139.436 168.681C139.375 167.398 139.378 162.735 139.738 161.63L140.171 161.473C140.67 161.778 141.813 162.27 141.807 162.841L141.397 162.975C141.331 163.181 141.281 163.266 141.28 163.479L140.843 163.415C140.308 164.559 140.328 165.07 140.414 166.336C140.228 167.032 140.031 171.457 140.204 171.98L140.494 172.008L140.418 172.221C140.693 171.219 140.651 167.535 140.546 166.371L140.856 166.435C141.16 168.028 140.441 171.732 141.025 173.017L141.284 173.086C142.147 172.015 142.281 172.81 142.934 171.994C142.963 170.786 142.978 168.809 142.692 167.662C142.431 168.969 142.974 170.757 142.093 171.576C141.46 171.393 141.69 171.533 141.237 171.019C140.943 169.995 141.456 168.886 141.825 167.907C141.389 167.179 141.322 166.895 141.083 166.07L141.483 166.439C142.05 165.901 142.008 165.489 142.227 164.65L142.225 164.858C142.331 164.438 142.454 163.78 142.674 163.436L143.097 163.771C143.014 167.145 143.329 170.923 143.065 174.218L142.874 173.102L142.631 172.991C142.283 173.418 142.142 175.071 141.467 176.19C141.451 177.154 141.307 180.122 141.565 180.855L142.312 181.56C141.898 181.977 141.56 182.172 141.612 182.806C141.787 184.971 141.465 186.954 141.449 189.122L141.326 189.191C141.302 188.418 141.362 186.727 140.605 186.32L141.263 185.971C141.531 182.051 140.607 179.901 140.652 175.707C139.72 176.713 140.012 176.2 139.866 177.282C139.566 179.513 140.175 196.096 139.683 196.82L139.517 196.743Z" fill="#020202"/>
<path d="M142.654 188.809C142.698 189.477 142.6 189.748 142.939 190.223C143.446 190.211 143.611 190.062 144.048 189.806C143.867 191.616 144.138 195.748 144.166 197.82C144.191 202.563 144.188 207.305 144.158 212.046C144.163 214.037 144.415 217.59 143.673 219.281C143.278 218.418 143.513 218.689 142.754 218.156C142.496 210.963 142.441 204.031 142.81 196.839C142.947 194.182 142.327 191.616 142.654 188.809Z" fill="#020202"/>
<path d="M85.8926 164.754C86.2814 173.31 86.4823 181.873 86.4953 190.437L86.4459 190.312C86.1213 189.467 86.2989 188.634 86.0169 188.314C85.5634 189.336 85.4028 193.754 85.1511 195.12C85.1222 186.28 84.3472 177.64 84.4099 168.557L84.5139 168.603C84.7229 168.52 84.9318 168.456 85.1453 168.387C85.9005 167.676 85.8438 165.785 85.8926 164.754Z" fill="#020202"/>
<path d="M18.1814 129.973C18.265 130.656 18.1696 131.023 18.5764 131.389C18.6277 132.231 18.6165 132.803 19.4628 133.233C21.3154 133.484 25.9233 133.044 26.7883 133.31L26.9901 133.65L26.8743 133.882C26.6204 134.777 26.4363 136.441 26.8556 137.251C27.0381 140.529 27.2996 143.802 27.6399 147.067C28.0254 150.463 28.7258 154.763 28.5232 158.205C28.4848 159.222 28.6253 159.9 27.8067 160.621C27.52 159.416 27.4193 154.959 27.2945 153.436C26.7498 146.79 26.1505 140.803 25.2085 134.209C23.733 134.095 19.3835 134.517 18.3919 134.005C18.0993 132.347 17.9199 131.661 18.1814 129.973Z" fill="#020202"/>
<path d="M52.9584 144.098C53.459 147.369 53.2028 151.91 53.3439 155.357C53.5398 160.144 53.8697 164.78 54.3233 169.55C54.6525 173.346 54.1623 177.743 54.4949 181.419L53.6973 181.744L53.3409 181.275C53.5654 179.709 53.4565 177.648 53.4343 176.033C53.319 167.681 52.721 159.342 52.4453 150.983C52.6627 151.31 52.7114 151.623 52.8108 152.004C53.1719 150.04 52.6554 146.437 52.9584 144.098Z" fill="#020202"/>
<path d="M81.3448 131.152C82.8409 131.158 90.3441 131.4 91.245 131.288L92.703 131.313C91.5045 131.542 90.3121 131.544 89.8108 132.798C88.2594 132.82 86.1812 133.279 84.7894 133.233C82.6162 133.161 77.7516 133.721 75.7826 133.323C76.2245 132.861 80.4292 133.122 81.6491 133.01C80.4366 132.747 78.314 132.982 77.0026 132.859C72.6459 132.451 68.0366 132.825 63.7109 132.45C67.5837 132.431 72.1422 132.54 75.9629 132.394C77.1693 132.406 82.0735 132.559 82.9464 132.176C82.3602 131.851 79.8301 131.759 79.0069 131.699L78.9854 131.43C79.3928 131.039 80.701 131.152 81.3448 131.152Z" fill="#020202"/>
<path d="M75.8985 94.0703C75.957 94.4065 76.0018 94.8806 76.1778 95.1543C74.0344 95.4349 67.5093 96.8861 68.4468 99.9851C67.9503 100.078 67.8627 100.122 67.41 100.35C67.5012 98.1436 69.6316 96.4401 71.1638 95.0175C67.348 94.8799 63.5293 94.8468 59.7117 94.9183C57.7959 94.9409 55.3481 95.2528 53.5469 94.8437C53.693 94.1908 56.5396 94.9353 57.397 94.3529C59.6298 94.043 64.3631 94.5399 65.6571 94.2109C68.8909 94.4763 72.6709 94.3196 75.8985 94.0703Z" fill="#020202"/>
<path d="M43.0277 94.3619C46.1046 94.1808 48.1645 94.8074 51.6808 94.3825L52.2638 94.5946L52.3373 94.8242C51.7847 94.9591 49.9661 95.4184 49.5612 95.3953C43.3328 95.0406 43.0075 93.7523 39.6289 99.617C37.8096 102.775 34.6055 106.688 32.5753 109.99C32.4856 110.137 32.4002 110.286 32.3193 110.438L31.7344 110.169C32.0101 109.481 32.2816 108.917 32.6082 108.251C33.7929 107.329 39.5367 98.9777 40.2162 97.4879C40.8352 95.9524 41.726 95.4598 43.0277 94.3619Z" fill="#020202"/>
<path d="M24.0703 128.075C24.474 127.772 24.8688 127.699 25.274 127.254C26.495 125.913 34.5933 111.608 35.2977 111.25L35.4108 111.462C34.138 114.85 31.2857 119.068 29.234 122.058C27.9393 123.944 26.9326 125.857 25.8424 127.86C25.1268 128.153 24.7623 128.465 24.0703 128.075Z" fill="#020202"/>
<path d="M92.6167 46.8086C93.6992 49.0114 93.238 50.5165 93.604 52.8227C92.13 53.9296 91.4476 55.9963 89.884 56.6935L89.4813 56.6409C89.1288 56.1312 88.9622 54.6344 89.6211 54.3401C91.0473 53.7029 92.2017 53.2858 92.4984 51.5518C92.6722 50.7415 92.5481 48.2169 92.2792 47.3864L92.6167 46.8086Z" fill="#020202"/>
<path d="M49.5625 162.414C49.6637 162.065 49.9059 161.608 50.0696 161.27C50.1049 163.165 50.0902 166.442 50.3952 168.241C50.2588 171.363 51.4766 175.866 51.298 179.169C51.2459 180.129 52.3803 181.253 53.3442 181.275L53.7006 181.745C51.2703 181.842 50.8989 181.026 50.7271 178.787C50.3011 173.234 49.6835 168.008 49.5625 162.414Z" fill="#020202"/>
<path d="M87.3568 46.3528C87.783 46.0948 88.2155 45.8473 88.6538 45.6108C90.6399 44.5644 91.6402 44.843 92.619 46.8088L92.2816 47.3866C92.023 46.9087 91.8527 46.4558 91.3457 46.2629C90.9161 46.452 91.055 46.3826 90.7927 46.9239L90.6796 46.3783C89.7851 45.9051 88.5442 48.2104 88.3288 48.8787C88.3684 48.4442 88.368 48.3831 88.2571 47.9618L87.9411 47.9215C87.234 48.3013 86.5937 49.4196 85.8026 50.1179C85.2996 50.1824 85.4747 50.2346 85.1094 49.9836C85.2702 49.0187 86.7838 49.2619 87.3568 46.3528Z" fill="#020202"/>
<path d="M39.5156 127.7C39.9185 127.162 39.9814 126.129 40.2359 125.627C41.7082 122.721 43.3994 116.887 45.1999 114.594C45.5354 115.772 40.9785 125.371 40.3248 127.158L40.2694 127.312C40.1194 127.816 40.185 127.879 39.832 128.211C39.5223 127.929 39.6208 128.096 39.5156 127.7Z" fill="#020202"/>
<path d="M55.6376 124.383C55.6341 125.153 55.5535 125.763 55.9971 126.389L56.1147 126.396C56.2056 125.69 56.2881 124.778 56.5073 124.12C56.5463 125 56.4654 125.352 56.3028 126.228C56.016 126.489 55.6533 126.784 55.4464 127.1C56.1105 127.172 57.1667 127.374 57.7407 127.131L57.9325 126.911C57.2092 126.106 58.2026 123.066 58.8277 122.289C60.2996 122.278 58.0651 127.048 58.2245 128.222C57.9584 128.395 57.9426 128.458 57.5477 128.352C55.8598 127.899 55.508 128.211 54.4844 126.808C54.766 126.255 54.8303 124.654 54.9051 123.929L54.9382 125.259C54.9684 126.037 54.8518 126.041 55.2097 126.621C55.4842 126.176 55.3734 126.053 55.3485 125.445L55.6376 124.383Z" fill="#020202"/>
<path d="M106.709 80.5586C109.013 80.5523 113.977 81.4148 115.838 82.8453L115.53 83.0995L115.51 83.3226C113.919 82.1904 112.711 82.3649 110.748 82.2556C109.034 82.0675 107.208 81.9823 105.484 81.8972C106.563 81.886 107.296 81.9971 108.258 81.5694L108.328 81.2768C107.964 80.789 107.325 80.7185 106.709 80.5586Z" fill="#020202"/>
<path d="M95.0418 109.574C95.2555 110.441 95.533 118.77 95.406 119.893L95.1361 119.682C94.6199 120.665 95.1847 123.756 94.7469 124.616C94.6703 122.218 94.4217 111.549 95.0418 109.574Z" fill="#020202"/>
<path d="M139.488 220.943C139.357 220.328 139.358 218.681 139.571 218.117C139.746 220.786 141.693 219.485 142.751 218.157C143.51 218.69 143.275 218.419 143.67 219.282C142.269 220.587 140.078 220.202 139.488 220.943Z" fill="#020202"/>
<path d="M88.3281 48.8803C88.5435 48.212 89.7845 45.9067 90.6789 46.3799L90.792 46.9255C90.8534 47.7934 91.0972 49.2149 89.6432 49.2273C89.2589 49.2308 88.649 49.0951 88.3281 48.8803Z" fill="#020202"/>
<path d="M67.5703 127.936C67.7788 125.051 67.9056 122.437 68.9146 119.688C68.8812 120.717 68.324 128.164 68.0167 128.694L67.6908 128.667L67.5703 127.936Z" fill="#020202"/>
<path d="M26.579 121.367L26.6886 122.3C25.7931 124.051 24.7669 125.008 23.9545 126.695C23.8856 126.838 23.8432 126.894 23.7499 127.018C23.3027 126.184 23.918 125.264 24.3194 124.519C25.1984 123.602 25.8853 122.443 26.579 121.367Z" fill="#020202"/>
<path d="M89.5156 128.993C89.5498 127.604 89.6222 125.526 90.0529 124.222L90.306 124.031C90.8117 125.051 89.9174 128.032 90.6415 129.014C90.3526 129.121 89.8589 129.025 89.5156 128.993Z" fill="#020202"/>
<path d="M23.8781 123.902L24.3177 124.521C23.9163 125.266 23.301 126.186 23.7482 127.02L23.4098 127.354L23.2989 127.414L23.1194 128.072C22.7787 128.364 22.9051 128.345 22.5381 128.361C22.3344 127.168 22.9837 127.488 22.4141 126.217C22.9436 125.431 23.3908 124.71 23.8781 123.902Z" fill="#020202"/>
<path d="M48.066 138.946L48.4312 138.531C48.79 139.663 48.5981 142.02 48.7858 143.445C48.6548 143.916 48.627 144.185 48.2962 144.543C47.8953 142.16 47.7595 141.323 48.066 138.946Z" fill="#020202"/>
<path d="M48.2985 144.543C48.6293 144.185 48.6571 143.916 48.7881 143.445C48.8479 144.623 48.8644 145.693 48.9012 146.863C48.9466 148.301 49.5102 150.713 49.307 152.116L49.1565 152.26C49.0904 152.106 48.2548 144.709 48.2985 144.543Z" fill="#020202"/>
<path d="M55.8422 120.57C56.9622 120.952 55.9472 123.548 55.6308 124.383L55.3418 125.445L55.2085 125.6L54.9315 125.259L54.8984 123.929C55.5161 122.364 55.6195 122.206 55.8422 120.57Z" fill="#020202"/>
<path d="M115.441 90.5348C116.354 90.5167 120.503 90.3424 121.122 90.8112C120.354 91.164 115.321 91.0253 113.992 91.0992C114.514 90.916 114.933 90.7534 115.441 90.5348Z" fill="#020202"/>
<path d="M75.0547 52.0316C76.2407 51.6 76.5056 51.3998 77.7762 51.3008L77.9428 51.4247C77.6225 51.9196 77.5117 51.9548 76.9929 52.198L76.6608 52.2659C76.427 52.7577 76.2572 53.2931 75.824 53.5127C75.3425 53.1707 75.2012 52.8588 75.0915 52.2661C75.0775 52.1882 75.0652 52.1102 75.0547 52.0316Z" fill="#020202"/>
<path d="M79.0128 131.699C79.836 131.759 82.3661 131.851 82.9523 132.176C82.0794 132.559 77.1752 132.407 75.9688 132.394C76.7136 132.207 77.6905 132.317 78.6484 132.11L78.8505 131.771L79.0128 131.699Z" fill="#020202"/>
<path d="M28.7267 118.199L29.2808 118.576C27.9151 119.969 27.5478 120.545 26.6878 122.301L26.5781 121.368C27.4802 119.576 27.7908 119.634 28.7267 118.199Z" fill="#020202"/>
<path d="M140.41 166.336L140.542 166.372C140.647 167.535 140.688 171.22 140.414 172.221L140.49 172.008L140.2 171.981C140.026 171.458 140.224 167.033 140.41 166.336Z" fill="#020202"/>
<path d="M110.984 89.961L111.251 89.8828C112.141 90.5739 114.227 90.4823 115.442 90.5365C114.933 90.7551 114.515 90.9177 113.993 91.1009C113.133 91.4537 111.603 90.6194 110.984 89.961Z" fill="#020202"/>
<path d="M129.4 106.412C128.903 105.931 128.878 106.045 128.703 105.452L129.047 105.195C129.856 106.002 130.224 106.205 131.287 106.644L131.32 107.243L131.015 107.341C130.354 107.282 129.926 106.835 129.4 106.412Z" fill="#020202"/>
<path d="M30.7031 128.029L30.7676 127.971C31.9083 126.92 31.7738 126.316 32.8712 124.961L33.0236 124.97C32.6002 126.714 32.0329 126.538 31.8273 128.21C31.4849 128.241 31.0492 128.109 30.7031 128.029Z" fill="#020202"/>
<path d="M89.4531 51.302C90.0105 51.3022 90.9322 51.2451 91.3799 51.5067L91.1414 51.8382C90.7138 51.9716 90.5801 52.0249 90.1837 52.2402L90.0869 52.2937C90.2347 52.6823 90.2435 52.7683 90.3035 53.1831L90.1288 53.3587C89.6127 52.878 89.499 51.9853 89.4531 51.302Z" fill="#020202"/>
<path d="M51.6797 94.3835C52.5669 94.1456 56.3206 94.2972 57.3964 94.3537C56.539 94.9362 53.6925 94.1917 53.5463 94.8446L52.3362 94.8252L52.2627 94.5956L51.6797 94.3835Z" fill="#020202"/>
<path d="M117.664 95.5249L117.816 94.7188C119.275 95.6071 119.668 95.7453 120.786 97.0184C119.218 96.4481 119.121 96.324 117.664 95.5249Z" fill="#020202"/>
<path d="M64.5363 111.621C64.7233 111.508 64.7526 111.286 64.8564 111.029L65.1815 110.973L65.0221 111.484C65.3309 112.262 65.378 112.076 65.2824 112.826L65.0008 113.174L64.6678 113.088C64.3497 112.452 64.4781 112.442 64.5363 111.621Z" fill="#020202"/>
<path d="M78.8501 131.771C78.2129 131.567 78.0394 131.762 77.2344 131.406C77.3348 131.368 77.3668 131.23 77.4427 131.085C78.3709 130.942 80.4117 130.977 81.3503 131.152C80.7064 131.152 79.3982 131.038 78.9908 131.43L79.0123 131.699L78.8501 131.771Z" fill="#020202"/>
<path d="M28.7266 118.2C29.2341 117.526 29.601 116.949 30.3201 116.496L30.3935 116.682C29.9996 117.451 29.4297 117.962 29.2806 118.577L28.7266 118.2Z" fill="#020202"/>
<path d="M131.289 106.645L132.743 106.562L132.675 106.781L133.145 106.718L133.182 106.622L133.491 106.735C132.847 106.936 131.553 107.082 131.322 107.245L131.289 106.645Z" fill="#020202"/>
<path d="M49.5625 162.417C49.5885 161.505 49.5542 160.963 49.9119 160.109L50.0761 160.123C50.1469 160.472 50.0931 160.909 50.0696 161.273C49.9059 161.611 49.6637 162.068 49.5625 162.417Z" fill="#020202"/>
<path d="M54.9375 125.258L55.2145 125.599L55.3478 125.444C55.3727 126.052 55.4835 126.175 55.209 126.62C54.8511 126.04 54.9677 126.036 54.9375 125.258Z" fill="#020202"/>
</svg>
