<svg width="212" height="249" viewBox="0 0 212 249" fill="none" xmlns="http://www.w3.org/2000/svg">
<g clip-path="url(#clip0_1209_2986)">
<path d="M130.034 177.516L130.401 177.664C130.521 177.972 129.987 179.981 129.974 181.025C129.768 181.32 129.161 182.242 128.954 182.421C128.026 183.225 126.905 183.243 126.464 184.478C126.514 185.068 126.871 185.448 127.226 185.928C127.067 185.898 126.913 185.862 126.762 185.802C126.292 185.618 125.912 185.256 125.703 184.796C125.711 183.242 127.526 182.77 128.559 181.811C129.021 181.382 129.489 180.732 129.869 180.221C129.595 178.934 129.488 178.683 130.034 177.516Z" fill="#000100"/>
<path d="M98.36 182.82C98.9284 183.548 98.5438 190.144 98.4197 191.356L98.0722 191.278C97.5797 190.624 97.9135 183.849 98.36 182.82Z" fill="#000100"/>
<path d="M91.5905 218.688L91.8206 218.937C91.8385 219.402 91.4646 219.979 91.2336 220.418C90.2899 221.025 89.9552 221.145 88.9157 221.525C88.8056 221.434 88.8147 221.383 88.75 221.223C88.9969 220.967 91.3613 218.87 91.5905 218.688Z" fill="#000100"/>
<path d="M128.845 159.816C129.3 160.764 129.28 161.767 129.057 162.763C128.413 161.876 128.683 160.872 128.845 159.816Z" fill="#000100"/>
<path d="M128.781 185.77C129.7 185.761 130.285 186.322 130.607 187.135C130.108 186.957 129.228 186.145 128.781 185.77Z" fill="#000100"/>
<path d="M97.2328 117.859L97.353 117.75C98.7899 116.414 99.0383 113.901 100.092 113.512C100.748 114.205 100.335 115.822 100.141 116.662C97.9981 118.792 96.2345 121.654 94.0771 123.906C92.7605 125.28 91.7352 126.025 90.2822 127.24C90.6943 126.414 91.0999 125.582 91.5434 124.772C89.0847 125.18 87.5435 124.83 85.3958 123.625C84.7298 123.35 83.6673 122.45 83.088 123.323C81.045 126.402 83.6645 129.055 83.9307 131.916C84.1027 133.767 83.0027 134.47 83.337 136.904C83.6937 137.262 83.8811 137.508 84.3717 137.661C84.8562 137.886 85.031 138.045 85.4066 138.411C88.7632 139.259 94.5805 138.151 98.1028 137.887C98.4142 137.864 98.8602 137.866 99.0734 138.078C98.718 138.71 98.1048 138.728 97.4102 138.897L97.3566 139.107C97.9368 139.561 99.6298 140.061 100.402 140.33L100.243 140.834C99.0324 140.696 85.0765 139.325 84.9529 139.187C84.7802 138.993 84.6414 138.69 84.5104 138.463L84.2697 138.438C83.4794 139.507 83.8726 148.426 84.1373 150.16C84.3208 151.362 85.0092 154.159 84.9265 155.199C84.5305 160.179 86.0418 164.343 86.7413 169.191C87.1865 172.277 86.5363 176.147 87.1136 179.133C87.2865 180.653 87.7665 182.209 87.7555 183.615C87.6019 185.464 87.9279 187.375 87.7617 189.075C87.1774 195.048 85.6299 201.383 87.7792 207.218C88.0978 208.102 87.6751 213.763 87.5347 214.898C87.4747 215.436 87.2041 217.062 87.1973 217.471C86.7525 218.994 86.6249 219.873 87.1218 221.423C87.2783 221.91 87.952 223.106 87.4432 223.205C85.8003 223.528 85.6036 226.723 85.0522 228.409C84.438 231.622 83.8981 234.292 86.4913 236.913C89.1576 237.604 91.2695 236.874 92.8587 237.364C93.3893 237.531 94.3905 237.516 94.9846 237.534C95.3206 237.342 96.1062 236.934 96.2347 236.59C97.0568 234.378 95.9977 231.823 95.1167 229.853C95.3023 229.359 96.517 226.198 96.5349 226.051C96.0837 226.268 95.6021 226.477 95.1401 226.666C93.0747 227.516 89.2266 226.566 88.0463 224.58L88.1199 224.386C88.6494 224.463 89.1277 224.848 89.5943 225.138C91.5184 226.338 92.8357 226.224 94.9499 226.08C97.6089 223.864 98.2085 221.013 99.15 217.771C99.5393 216.432 100.671 212.566 100.046 211.365C99.3589 210.044 99.0571 209.214 99.0655 207.639C99.2593 206.748 99.4012 206.83 100.173 206.721C100.447 207.083 100.512 207.242 100.941 207.373C101.201 207.109 102.139 203.315 102.139 202.671C102.14 197.653 102.63 192.703 102.876 187.711C102.92 186.806 101.374 183.246 101.486 182.894C101.93 183.071 102.258 183.257 102.723 183.208C103.32 182.502 102.492 179.666 102.716 178.642C103.749 173.922 105.214 169.423 106.019 164.641C106.557 161.45 106.653 158.589 106.819 155.376C107.047 153.246 107.599 151.428 107.796 149.204C108.463 146.264 109.037 145.416 109.873 142.822C110.76 145.067 112.229 147.463 113.569 149.494C114.533 150.955 115.588 163.863 115.731 163.977C116.292 163.452 115.712 163.056 116.188 162.767C116.34 163.278 116.561 164.251 116.95 164.556C117.376 164.478 117.22 164.55 117.545 164.123L117.824 162.214L118.009 162.092C118.325 162.503 118.314 163.791 118.275 164.335C117.976 168.451 117.058 174.862 117.777 178.95C117.911 179.965 118.001 180.547 118.255 181.547C118.977 184.282 120.678 185.518 121.193 189.115C121.267 189.946 121.371 190.52 121.525 191.33C121.748 192.814 121.939 194.248 122.217 195.725C122.462 197.028 123.215 199.119 123.345 200.306C123.855 204.987 123.1 209.167 125.863 213.422C128.392 217.236 130.556 217.509 134.924 217.484C138.156 218.037 139.613 209.578 138.874 207.278C138.363 205.688 138.197 203.818 137.498 202.244C136.296 199.54 134.316 196.396 134.845 193.297L135.069 193.315C135.213 194.111 135.364 194.903 135.523 195.696C135.657 196.334 136.269 198.845 136.491 198.821C137.945 198.658 136.946 200.737 138.18 201.543L138.38 201.349C138.496 199.168 137.875 193.628 136.59 191.903C135.231 189.386 133.941 186.054 133.361 183.241C133.897 182.457 133.079 177.952 133.012 176.538L133.157 175.227L133.356 175.119C133.866 180.26 134.554 186.16 137.047 190.673C138.642 193.561 138.662 198.247 139.179 201.461C139.759 205.373 140.152 209.589 140.221 213.549C141.671 215.198 143.04 217.364 144.465 218.857C144.474 219.917 144.708 224.472 143.953 224.828C143.096 225.232 140.29 227.667 139.715 227.773L139.619 227.791C137.172 228.251 135.009 226.221 133.082 225.012C132.179 222.917 129.06 218.412 127.393 216.92C123.765 213.67 122.874 210.012 122.893 205.3C122.898 204.17 122.862 202.272 122.633 201.229C122.622 200.652 122.471 199.918 122.283 199.369C120.609 193.46 121.04 188.091 117.578 182.74C116.249 178.448 116.835 173.707 116.3 168.841C116.188 166.825 115.981 166.363 115.305 164.444C113.695 159.871 114.892 154.46 112.643 150.135C111.807 148.527 110.722 146.902 109.717 145.366C109.427 147.01 108.885 148.751 108.643 150.3C108.331 152.295 107.768 155.017 107.676 156.978C107.435 162.073 107.111 166.137 105.525 171.016C104.709 173.524 104.601 177.032 104.017 179.65C103.739 182.173 103.761 185.247 103.758 187.829C103.754 190.464 103.049 192.265 102.835 194.717C102.563 197.847 103.06 201.288 102.593 204.439C102.475 206.122 101.677 208.079 101.53 209.708C101.003 215.513 99.1301 220.691 97.7119 226.306C96.9285 229.117 99.1773 235.756 96.6398 237.588C94.8388 238.888 89.6026 238.164 87.3739 237.834C82.574 237.126 83.3132 231.629 84.1009 228.217C84.4437 226.731 84.7825 226.066 85.1943 224.795C86.3977 223.119 86.1623 220.532 85.4022 218.725C86.9246 216.569 86.3347 209.288 85.846 206.725C85.3859 201.852 85.5945 198.757 86.004 193.833C86.1274 192.349 86.5665 190.016 86.5467 188.634C87.0696 184.176 86.2747 180.586 85.9926 176.197C85.8327 173.712 86.2847 171.207 85.9081 168.676C85.5022 165.947 84.5165 163.424 84.2554 160.696C84.1533 159.285 84.1812 157.863 84.172 156.447C84.149 152.953 83.1498 149.532 83.0944 146.015C83.0543 143.475 83.3907 140.936 83.1922 138.403C83.173 137.704 82.3275 137.523 82.338 136.834C82.3823 133.884 82.2977 131.407 81.6315 128.517C81.5674 126.888 81.3644 123.993 82.1963 122.699C81.6106 122.082 80.1882 122.164 79.2844 122.119C77.9769 122.059 74.55 121.347 73.8399 120.23L73.5703 119.549C74.4738 118.156 75.2256 118.128 76.2653 116.875L76.5057 117.404L76.0818 118.119C75.4742 118.679 75.4771 118.509 75.2979 119.2C75.8674 120.663 77.1408 120.22 78.1382 121.519C81.0734 121.595 82.558 121.749 85.3397 122.789C86.5536 124.05 93.3107 126.109 93.0984 122.634C93.224 122.705 86.4536 121.368 86.3695 121.368C86.7643 118.546 94.521 124.974 95.8112 119.583C94.1098 119.663 88.9914 118.776 87.1286 118.393L87.0164 118.159C87.9835 116.834 95.0923 118.741 96.6679 118.529C96.9407 118.492 97.0847 118.121 97.2328 117.859ZM137.468 218.236C135.579 218.567 131.775 217.98 129.666 217.792C131.107 220.214 133.054 224.027 135.43 225.4C139.849 228.37 140.354 226.111 143.622 223.561C143.676 222.034 143.703 220.976 143.592 219.461C142.734 218.438 140.23 214.514 139.485 214.219C138.847 215.663 138.158 216.53 137.468 218.236Z" fill="#000100"/>
<path d="M95.1283 22.4414L95.5676 23.114C95.8245 23.6344 95.8338 23.8642 95.8666 24.4315C96.1791 24.7631 96.021 24.6904 96.4524 24.7192L96.668 24.5123L96.5098 23.9411L96.6316 23.7693L98.013 24.6109L97.994 24.7907L97.4511 24.9707C97.5266 25.5188 98.4169 27.2955 98.7614 27.7393C97.269 28.1453 96.3116 26.1063 95.3648 25.9763C95.0107 26.271 94.8703 26.6158 94.8524 27.1021C94.7654 29.4409 95.697 31.6895 97.049 33.5586C97.2215 33.7971 98.2953 34.2449 98.6125 34.3844L99.0415 33.6593L99.2917 33.6376C99.5363 34.1474 99.6613 35.5682 99.6512 36.1519C101.31 38.3573 102.194 39.8482 103.083 42.4131C102.412 41.4805 99.5133 37.1961 99.1193 36.7878L98.6942 36.7519L98.5025 36.965C98.6583 37.3387 98.7315 37.39 99.007 37.6978C99.2632 41.1072 97.8189 42.9284 95.1519 44.7415C94.5306 48.9602 96.9575 51.0279 99.7519 53.5514C103.505 56.9404 106.859 60.1687 108.096 65.2435C108.381 66.3176 109.287 67.2529 109.358 68.1665L109.15 68.3343C108.257 67.9406 106.191 61.7549 105.036 60.0935C100.994 54.2805 94.116 52.7643 93.9821 44.8626C93.5395 44.6126 93.1137 44.3088 92.6241 44.2679C90.1698 45.804 94.3054 49.331 94.8734 51.0204L94.7638 51.207C94.2254 51.2954 93.8174 51.0726 93.3066 50.8691C93.1595 50.674 93.0638 50.5868 93.0284 50.3441C92.6411 49.7992 92.2205 49.2312 91.8538 48.6762C91.3659 47.9374 90.3522 45.2718 89.8448 44.8173L89.6294 44.8453C89.388 45.5903 90.6813 51.2564 90.9357 52.142C91.3232 52.4451 91.7306 52.7765 92.128 53.0603C94.4815 56.1064 98.619 57.6758 101.605 59.9425C104.544 62.1735 106.517 65.813 108.188 69.0276L107.957 69.6885C107.677 69.599 107.555 69.3937 107.36 69.1623C106.574 67.4419 105.508 65.3785 104.233 63.984C103.298 62.9611 102.492 62.3947 101.732 61.1916C100.764 60.8069 100.103 60.3672 99.1032 60.853L98.8856 60.9225L98.6749 60.8077C98.6397 60.4192 98.6095 60.0301 98.5846 59.6408C98.3735 59.293 98.0125 58.7929 97.6067 58.7014C97.2675 59.277 97.7576 60.2619 97.5058 60.8111C96.616 59.8088 96.6435 57.4935 95.2343 56.7152C94.4763 56.2964 93.1913 55.2388 92.433 54.9994C92.2035 55.481 92.0393 55.9345 91.6291 56.2706L91.3424 56.2219C91.1131 55.8717 90.8804 53.9299 90.5899 53.0528C90.5532 54.2241 90.5407 56.9073 90.0462 57.8464C89.3506 57.1358 88.9147 49.6629 88.074 48.4132C88.074 48.4132 87.5587 47.998 87.5172 47.9644C86.7933 47.592 86.8637 46.9094 86.3763 46.8037C85.3374 47.4332 83.9269 48.5339 83.245 48.9297C83.8796 48.0064 85.5142 46.3133 85.6629 46.0417L85.5661 45.7986C83.2034 44.8608 75.4717 51.4715 73.4028 53.1275C72.6694 53.7146 71.3929 55.2514 70.6147 55.9676C64.7894 61.3301 60.1839 67.436 54.1042 72.5801C50.6746 75.4818 47.373 80.5683 45.5895 84.5827C44.7559 86.5999 45.0089 88.6424 45.8829 90.5862C46.035 90.9235 46.1908 91.2593 46.3499 91.5933C46.8015 92.689 47.0696 93.5183 47.8009 94.451C48.1553 95.741 48.6176 97.0956 49.0306 98.3758C50.6464 99.8733 53.7857 101.16 56.1656 102.923L56.093 103.097C54.5153 103.268 54.075 102.992 52.6053 102.417C53.0555 103.245 53.8486 104.762 54.6013 105.335L54.3922 105.866C53.2556 104.924 52.7135 103.644 51.6599 102.457C51.0147 101.731 49.3359 100.077 48.922 99.401C48.3898 98.3307 48.0995 96.8795 47.5998 95.8174C45.7207 91.8229 43.1427 88.0135 45.4102 83.5215C46.6039 81.1567 48.1282 78.5462 49.7804 76.4502C52.668 72.7869 56.5242 69.897 59.7289 66.5648L70.9947 54.987C71.7321 54.2435 72.438 52.9779 73.203 52.3181C73.8317 51.7429 74.784 51.2727 75.3968 50.7156C77.8152 48.5166 80.5409 47.0631 83.2424 45.287C83.969 44.8093 84.7146 42.3723 85.7269 42.0575C86.8324 41.6937 88.0916 42.7207 89.0406 43.2234C90.5306 44.0128 90.8804 43.7572 92.4486 43.5398C93.1282 43.4457 94.5549 44.1243 95.3372 43.7704C96.0589 43.4439 96.8316 42.3425 97.1799 41.6192C97.656 40.3313 95.6857 37.6878 95.4683 36.7889C94.5164 32.8551 96.3723 33.8635 94.0739 29.8313C94.0575 26.2915 94.9009 25.4091 95.1283 22.4414ZM98.0369 37.11C98.3269 36.4935 98.313 36.2735 98.3487 35.5876C97.8456 34.5331 96.9681 34.8663 95.8925 34.5497C95.5097 35.7789 96.3363 37.8494 98.0369 37.11ZM88.8643 44.362C88.0753 43.9092 86.9027 42.9832 86.0565 43.3387C85.8715 43.8114 85.9614 44.737 86.2734 45.1405C86.5452 45.2191 86.7005 45.2725 86.9213 45.4527C87.1966 46.0659 87.7377 47.1142 88.3777 47.3785C88.7299 47.1055 88.7322 46.7223 88.6905 46.2725C88.6932 45.6986 88.7988 44.9479 88.8643 44.362Z" fill="#000100"/>
<path d="M149.776 94.7969L150.071 95.3721C149.328 96.5063 148.571 97.525 147.769 98.5849C146.9 99.7328 145.786 101.164 145.417 102.554C145.14 103.599 145.322 104.822 144.564 105.753C143.802 106.67 142.65 107.203 141.761 107.994C141.393 108.321 140.884 109.92 140.648 110.067C138.16 111.627 136.224 113.788 134.238 115.935C133.699 116.517 133.294 117.318 132.753 117.933C132.934 118.719 133.358 120.775 133.606 121.439C133.83 122.367 134.426 124.711 134.48 125.516C134.768 129.747 134.155 135.697 134.598 139.79C134.426 140.278 134.392 140.33 134.01 140.681C133.736 139.597 133.675 135.119 133.646 133.851C133.656 133.104 133.779 133.101 133.434 132.587C131.743 131.79 125.212 135.663 123.599 136.735C120.396 138.864 119.188 139.002 115.305 139.637C113.19 141.73 111.807 143.556 108.586 142.755C108.982 142.305 109.132 142.309 109.718 142.198C110.858 142.14 111.141 141.933 112.136 141.422C115.928 139.485 114.447 135.304 114.909 131.989C115.086 130.724 115.977 128.657 116.393 127.33L116.678 128.074C116.521 128.707 116.076 130.763 115.881 131.211C115.237 132.444 115.553 136.998 115.622 138.531C122.207 138.585 122.932 135.995 128.103 133.024C128.629 132.722 132.052 131.907 133.689 131.13C134.064 128.646 133.625 123.369 132.848 120.905C132.494 119.784 131.997 118.532 131.704 117.398C131.606 117.015 131.75 116.977 132.03 116.621L131.857 116.521C131.508 116.569 131.527 116.565 131.198 116.433C130.647 114.037 130.025 112.607 129.275 110.303C128.705 108.552 128.508 106.847 128.289 105.031C128.376 104.126 127.994 98.8042 127.736 97.913C127.706 97.2342 127.691 97.0902 127.856 96.4325C128.339 96.8932 128.307 97.5181 128.375 98.2598C129.105 98.5671 129.476 98.8734 130.167 98.7491C130.449 98.6886 130.631 98.6108 130.89 98.723C130.787 100.005 130.711 100.574 130.414 101.823C131.23 103.187 131.898 103.443 133.439 103.88C134.55 104.289 134.356 104.6 135.225 105.427C137.009 107.665 137.489 108.094 138.36 110.841L139.907 110.161C140.29 109.544 140.614 108.867 140.942 108.216C140.573 106.672 140.086 105.908 139.773 104.739L139.882 104.749L142.293 106.916C143.379 105.835 144.205 105.718 144.609 104.32C144.712 103.541 144.518 101.254 144.675 100.903C145.533 98.981 148.42 96.7068 149.776 94.7969ZM131.095 106.852C130.565 108.154 130.071 108.977 130.222 110.41L130.418 110.69C131.668 110.748 132.11 109.554 132.892 109.509C133.161 110.862 130.902 110.41 130.925 111.726C130.933 112.136 130.905 112.571 130.883 112.981C131.197 113.63 132.12 114.157 132.845 113.782C133.397 112.89 133.491 111.202 134.668 111.49C134.624 112.085 132.894 114.645 132.415 115.229C132.349 115.309 131.987 115.234 131.856 115.22L131.73 115.433L131.838 115.74L132.583 115.766C132.903 116.089 132.814 115.931 132.818 116.51C133.278 116.278 133.987 115.089 134.502 114.577C135.156 113.813 136.663 113.042 137.181 112.265C139.455 108.861 132.901 105.466 131.165 104.161C130.646 103.525 130.066 103.199 129.385 102.753C129.38 103.622 129.242 107.308 129.557 107.764C130.23 107.322 130.124 106.898 130.76 106.728L131.095 106.852Z" fill="#000100"/>
<path d="M121.515 40.3396L121.728 40.2852C121.883 40.968 121.763 41.4545 121.861 41.8777C123.798 43.2642 124.736 43.336 126.514 44.1904C127.749 44.7842 132.912 48.8449 133.547 49.7415L132.714 49.6597C132.384 49.3726 131.919 49.0732 131.553 48.8194C129.809 47.5311 129.249 46.7954 127.59 48.6373C127.529 49.7163 127.432 51.7185 126.967 52.6766L126.747 52.7511L126.584 52.2968C126.557 51.6416 126.672 51.6505 126.324 51.2788C125.624 51.4347 125.133 52.3232 124.737 52.8827C123.283 54.9358 122.307 59.7698 122.989 62.1005L122.831 62.3911C122.188 62.3311 122.432 62.2841 121.874 62.5232L121.67 62.4368L121.499 61.9276C121.301 61.1487 121.14 59.0572 120.548 58.6521C119.93 58.7387 119.121 59.6956 118.722 60.19C117.231 61.4193 116.964 62.4402 115.974 63.3651L115.549 62.9559C118.642 59.0087 122.136 55.2522 125.151 51.2282C125.664 50.5428 127.952 45.8369 126.87 45.5178C125.488 45.1102 122.767 43.133 121.509 43.2574L121.235 43.5154C121.311 43.8654 121.353 43.8884 121.587 44.1752C121.437 44.7064 120.809 46.6378 121.24 46.9454C123.173 48.3233 121.702 52.847 120.567 54.6982C117.768 59.2602 113.144 63.2512 111.57 68.6628C111.197 69.8601 111.053 72.0479 110.954 73.3714L110.87 74.1376L110.705 74.2162C110.513 73.8102 110.473 73.668 110.363 73.2315C110.403 71.2708 110.259 71.2291 109.496 69.3847C109.554 68.8929 110.213 67.9998 110.505 67.3175C113.164 61.1062 115.204 59.7168 114.579 52.718C113.569 52.6816 112.203 52.3615 111.817 53.4663L111.775 53.5891C110.692 53.4909 107.507 49.6841 106.609 48.7157L106.886 48.0399C108.33 49.8528 109.58 50.5772 111.071 52.0273C112.883 52.1586 113.646 52.2392 115.415 51.6506C116.495 50.9826 118.172 47.4733 117.64 46.2345L117.47 45.9496L117.596 45.6538C118.112 45.4695 118.5 45.3899 119.033 45.2733C121.02 43.5312 121.233 42.8083 121.515 40.3396ZM114.346 61.7879C117.72 57.3598 122.323 52.7051 120.305 46.5837L119.891 46.3231C119.222 46.8236 119.34 46.9932 119.017 47.7162C118.908 47.9623 118.322 47.7439 118.288 47.7904C116.38 50.3719 116.678 53.9041 115.967 56.8653C115.69 58.0208 113.691 61.1659 114.002 61.9516L114.346 61.7879Z" fill="#000100"/>
<path d="M81.451 70.25C81.1331 71.5421 79.4215 76.1912 79.3553 76.65L78.9726 77.0463C78.6542 77.856 78.6004 78.2375 78.9522 79.0558L79.0066 79.1799C80.4434 78.9769 80.4258 76.117 81.5082 75.2796C81.0459 79.0633 78.4864 81.9361 81.7837 86.3299L82.0877 86.4267C82.6237 85.9395 82.6803 83.8197 83.0672 82.6057C83.0696 84.496 82.9595 86.9945 83.1458 88.8186C83.5651 92.926 84.8247 98.8225 85.0299 102.766C85.4453 101.73 86.0996 99.8749 86.5549 98.937C86.4856 99.7456 85.9667 103.739 85.5899 104.183L85.2225 103.492C84.8795 104.565 84.6496 109.376 85.6503 110.162C84.9007 110.671 84.1101 110.102 83.6631 110.404C80.7233 111.256 81.6433 111.294 79.6177 112.534C79.0187 113.013 79.6618 113.29 79.2464 113.882L79.0815 113.803C78.9881 113.129 78.5909 112.013 78.6914 111.675C78.9951 111.287 80.4521 110.854 81.1007 110.58C82.0505 110.102 82.5662 109.807 83.4525 109.217C84.864 105.732 84.1277 99.1734 83.3134 95.5502C82.8429 93.4558 82.7245 90.8747 82.1769 88.8581C80.325 87.5281 78.747 76.1553 76.1973 77.2837C72.4323 78.9498 61.1574 85.9813 62.4764 90.9516C63.5347 94.9393 67.7297 101.642 70.588 104.765L70.6622 104.847C71.2075 105.439 72.4729 105.77 72.8833 106.165C73.5333 106.791 72.6072 107.313 74.0245 107.88C75.0572 109.678 75.7544 110.057 77.8228 110.619C77.9198 110.646 78.0175 110.671 78.1155 110.694C77.792 111.432 77.7758 111.617 77.6857 112.427L77.2517 112.305C77.0375 111.998 76.9144 111.2 76.8294 110.796C76.3479 110.582 75.823 110.362 75.345 110.157C74.3727 109.741 74.4264 109.946 73.5506 110.088C72.9831 109.557 72.4858 106.698 71.9845 106.367C71.7417 106.207 69.7765 105.344 69.3782 104.91C68.6906 104.16 68.6088 103.207 68.104 102.295C67.6593 101.491 65.9859 100.481 65.7161 100.022C64.7048 98.3001 63.9117 96.1237 63.0102 94.2814C62.6152 93.266 62.1837 92.7378 61.5362 91.8951C60.3817 91.4637 59.7871 90.7838 58.3906 90.6036L58.535 90.2401L59.1793 89.9695C60.1352 89.8009 60.6014 90.5289 61.3727 90.0165L61.41 89.6383C60.782 88.7041 59.5989 89.0784 59.0617 88.4791L59.3533 88.1042C60.089 88.0546 60.3504 88.1518 60.7741 87.7106L61.127 87.0434C63.1332 86.5067 64.0109 84.702 65.8026 83.4022C68.0812 81.7492 70.5058 79.5425 72.8069 77.9759C75.9282 75.8509 77.2011 75.5147 79.8474 72.6779C80.4279 72.0412 80.8737 71.0211 81.451 70.25Z" fill="#000100"/>
<path d="M110.517 3.73438L111.899 4.05681L112.285 4.19839C112.319 4.93609 112.122 4.92368 112.342 5.72823L112.59 5.83094C113.091 5.56394 113.14 5.46803 113.441 5.01732C114.501 5.40762 113.691 6.87296 114.495 7.9469L114.771 7.99878C114.85 7.64795 114.907 7.26564 115.079 6.95726C115.481 7.38267 115.974 8.57674 116.039 9.14593C115.317 8.84829 115.385 8.64127 114.795 8.71146C114.508 9.28739 114.751 9.94169 115.369 10.1394C116.06 9.81958 115.825 9.81911 116.53 9.8956C116.683 11.926 115.913 13.2928 115.566 15.2691C116.97 14.0129 117.055 13.7873 118.845 13.2408C118.455 13.9897 117.542 16.4296 117.891 17.155C117.462 17.8278 117.268 17.477 116.909 18.0615C117.074 18.2146 118.765 18.4085 119.035 18.4051L119.202 18.8322C118.994 18.9027 118.846 18.939 118.634 18.9914C118.518 19.891 119.036 19.4074 118.68 20.2439C118.252 20.5379 117.892 20.7583 117.606 21.2072C117.013 21.2604 115.443 21.2095 114.78 21.2053L114.25 21.171C113.88 20.458 113.706 20.2217 114.026 19.448C114.598 19.2686 114.461 19.3342 115.121 19.5175C114.93 19.7235 114.919 19.8055 114.797 20.0607L114.95 20.3378L115.307 20.3194L115.498 20.0307L115.226 19.5429L115.404 19.0602C115.115 17.9124 112.95 18.6869 112.065 18.1071L112.118 17.7829C112.688 17.4126 113.872 17.6443 114.875 17.3739C115.748 16.5449 113.571 14.0212 114.135 12.2357C115.929 11.3115 113.597 9.94162 113.48 9.08361C113.74 8.48919 113.58 8.22004 113.353 7.70651L113.181 7.34733C112.345 7.23294 110.923 5.63873 110.439 4.93643L110.503 4.39112L110.328 3.95333L110.517 3.73438Z" fill="#000100"/>
<path d="M98.5812 59.6406C98.6062 60.0299 98.6363 60.419 98.6716 60.8075L98.8823 60.9223L99.0998 60.8528C99.1421 60.9443 99.1665 60.9949 99.2309 61.074C100.722 62.8696 99.8084 65.8545 100.137 67.9562C100.735 71.775 102.222 75.2119 102.006 79.1527C101.935 80.4476 102.218 81.0995 101.659 82.4289L101.428 82.47C101.029 81.9922 101.353 78.1523 101.376 77.2599C101.428 74.2112 99.9084 71.2931 99.3536 68.3016C99.1367 67.1323 99.8388 62.5886 98.9519 62.1247C98.4418 62.7924 98.3986 67.7553 98.6533 68.8178C99.2861 71.4559 101.596 85.1833 100.769 86.7209C100.06 87.2842 99.3794 87.2061 98.7715 86.4955C98.297 85.3198 99.6295 82.5338 99.5676 80.5385C99.5009 78.3919 99.509 75.8385 98.954 73.7658C97.8896 69.7904 97.7361 66.2505 98.0518 62.1445C98.1247 61.1966 98.4323 60.5686 98.5812 59.6406ZM100.048 86.5989C100.441 85.8153 100.298 84.46 100.092 83.633C99.921 83.4288 99.9505 83.4148 99.7293 83.3078C99.5023 84.461 98.8841 85.9448 100.048 86.5989Z" fill="#000100"/>
<path d="M99.7274 83.3086C99.9485 83.4156 99.919 83.4296 100.09 83.6338C100.296 84.4608 100.439 85.816 100.046 86.5997C98.8821 85.9455 99.5004 84.4618 99.7274 83.3086Z" fill="#000100"/>
<path d="M124.22 18.1016C124.839 21.7152 123.997 23.1548 123.531 26.6926C123.339 28.1431 123.819 31.0547 123.533 32.125L123.413 32.2581C122.722 32.2582 122.532 32.2439 121.879 32.4577L120.278 32.9747C119.896 33.4161 119.594 33.7043 119.405 34.2577C120.068 34.2335 120.039 33.7402 120.667 33.9034C120.626 34.9116 120.176 34.8754 120.333 35.7714C120.748 35.892 120.588 35.9117 120.931 35.7359C121.526 33.8979 121.8 35.3422 122.494 34.4661C122.355 34.1505 122.318 34.135 122.06 33.8948C122.194 33.5443 122.186 33.5629 122.474 33.3183L123.016 32.9437L123.346 33.1386C122.764 34.3439 123.163 35.0902 122.711 36.0678C122.557 36.0568 121.788 35.8657 121.838 35.8406C119.71 36.9098 119.781 37.1707 117.33 37.049L117.174 37.006L116.992 36.4745C117.08 35.4989 117.231 34.6165 117.389 33.6526C119.087 33.0751 121.081 32.1058 122.784 31.4017L122.841 23.3345L123.22 23.1897C124.409 22.4041 124.122 19.5017 124.22 18.1016Z" fill="#000100"/>
<path d="M110.876 23.6797L111.546 23.9566C110.705 24.7409 109.966 25.2308 109.125 25.927C106.839 27.8177 105.621 29.0351 102.513 29.3831C101.036 31.8413 101.62 32.5556 100.923 35.1598C100.553 34.2752 100.419 33.0446 100.008 32.6455C99.0108 32.3174 99.021 32.4364 98.9314 31.33C98.259 30.7897 98.1374 30.9514 98.0625 30.382C98.4353 29.4534 98.6661 28.783 99.1963 27.9222C99.7997 27.8439 99.8951 28.0683 100.429 28.1977C102.503 28.7005 104.382 28.3364 106.204 27.3121C107.706 25.8841 109.214 24.9111 110.876 23.6797ZM101.1 30.5777C101.334 29.2463 100.627 29.1542 99.4937 28.5429C99.3077 29.2435 99.1509 29.3548 99.3357 29.9371C100.103 30.3802 100.454 30.1943 101.1 30.5777Z" fill="#000100"/>
<path d="M134.6 139.789L134.962 140.352C135.466 141.889 135.194 149.655 135.247 152.004C135.249 154.113 134.777 154.39 134.615 156.085C134.111 161.339 133.316 165.512 133.439 170.853C133.371 172.088 133.456 174.086 133.358 175.12L133.159 175.227L133.014 176.539C132.862 175.5 132.893 173.446 132.885 172.354C132.855 167.932 133.082 163.759 133.637 159.379C133.927 157.091 133.831 155.271 134.305 152.836C134.891 150.515 134.835 143.082 134.011 140.68C134.393 140.33 134.427 140.278 134.6 139.789Z" fill="#000100"/>
<path d="M141.359 57.9531C145.183 61.9807 148.701 65.8414 151.012 70.9269C151.272 71.4977 153.378 74.0145 153.85 74.4452C154.065 74.9172 154.372 75.5436 154.539 76.0167C154.321 76.7351 154.462 76.6195 153.969 77.0844C153.617 76.1576 153.332 74.7676 152.577 74.1061C151.915 73.5249 151.817 73.7237 151.327 72.8515L151.009 72.7951C150.699 73.1955 150.962 73.9856 150.717 74.5173C150.377 75.2526 149.661 75.925 149.096 76.5058C149.721 75.1204 150.006 74.4393 150.031 72.8696C150.056 71.6191 149.808 70.3782 149.304 69.2335C148.272 66.9196 143.456 61.2435 141.666 59.4167C141.531 58.9791 141.445 58.4117 141.359 57.9531Z" fill="#000100"/>
<path d="M95.8275 113.589C96.0286 113.351 96.1049 113.334 96.3786 113.203C96.7036 113.553 96.7665 113.605 96.8897 114.062C96.3668 115.296 93.7517 114.874 92.54 115.551L92.4782 115.811C93.694 116.417 94.7068 115.365 95.2727 116.767C95.3924 117.063 96.6204 117.009 97.0459 117.785C96.9541 117.79 96.8623 117.795 96.7704 117.801C93.3817 116.665 89.966 115.531 86.4665 114.761C86.4049 114.689 86.3431 114.618 86.2812 114.547C86.807 113.933 88.0855 113.862 88.9136 113.747C89.6997 113.752 90.6492 113.658 91.2885 114.241C91.3284 114.278 91.4729 114.655 91.6725 114.847C92.0052 114.687 93.5144 113.933 93.8139 113.9C94.302 113.845 94.9346 114.124 95.6432 113.958L95.8275 113.589Z" fill="#000100"/>
<path d="M95.125 22.4429C95.8202 17.8522 94.2489 15.2466 97.5635 10.9247C99.4094 8.51774 107.591 1.51513 110.517 3.73274L110.328 3.9517L110.503 4.38948C108.433 3.4283 106.961 4.28478 105.115 5.27072C101.941 7.36628 98.7408 9.51501 97.1871 13.1056C95.4445 15.9087 95.9223 19.9461 95.5644 23.1155L95.125 22.4429Z" fill="#000100"/>
<path d="M106.648 32.2695C108.168 32.2854 112.86 32.7218 113.371 34.3805C112.922 34.7988 112.477 34.7807 111.808 34.9267C111.602 35.3271 111.482 35.5932 111.312 36.0068L111.446 36.2922C112.213 36.3576 112.067 35.7889 112.796 35.6674C113.167 36.5251 112.457 37.3942 111.851 37.9296C111.26 38.0959 111.464 37.9691 111.014 37.4876C110.587 37.0307 110.164 37.2016 109.53 37.0693C109.034 36.9188 108.399 36.8095 108.13 36.4204C108.251 35.9799 108.189 35.5149 108.166 35.0508C109.099 34.1168 110.784 35.3722 111.918 34.549C112.164 34.0592 112.154 34.2483 112.044 33.8092C111.318 33.453 110.198 33.8926 109.507 34.1825L109.27 33.962L109.135 34.2223L109.353 34.2228L109.223 34.0131C109.503 33.7261 109.78 33.4369 110.055 33.1461L109.937 32.9643C108.78 32.5882 106.239 32.7381 104.977 32.8266L104.945 32.6619C105.462 32.2147 105.949 32.2847 106.648 32.2695Z" fill="#000100"/>
<path d="M133.098 64.613L133.295 64.4883C133.521 66.3685 133.35 71.2502 134.191 72.4474L134.401 72.4227C134.67 71.7458 134.721 70.4041 134.785 69.6294C135.284 70.0939 135.068 72.4643 135.897 73.5736L135.96 73.6594C136.272 74.0792 136.434 74.2535 136.932 74.43C138.204 74.0944 137.373 72.2358 137.073 71.3909C136.688 70.3051 136.431 66.7495 136.869 65.7475L137.065 65.7573C137.318 68.1531 137.335 70.5032 137.899 72.8709C138.055 73.5303 138.065 74.7229 138.293 75.2655L138.365 75.8526C138.055 76.0936 138.185 76.0263 137.696 76C137.353 75.1789 136.81 75.0399 135.983 74.6091C134.731 73.8954 134.371 73.1915 133.069 72.504C133.075 69.9983 132.787 66.9988 133.098 64.613Z" fill="#000100"/>
<path d="M62.7408 114.157C64.3457 114.392 67.7097 113.05 68.8221 113.683L68.8542 113.865C68.0352 114.325 66.1282 113.858 67.4021 115.976C67.8357 116.271 67.6335 116.222 68.1617 116.154C68.3442 115.804 68.3356 115.723 68.3905 115.324C68.6516 115.172 70.9339 114.997 71.3411 114.986L71.506 115.256L71.3639 115.805C71.0935 115.963 70.9363 116.045 70.6503 116.173C70.6778 116.585 70.9339 116.8 71.2101 117.133L70.7674 117.317C69.5121 116.849 68.5712 116.905 67.369 116.576C66.8517 116.435 66.4629 115.399 65.8803 115.248C64.8159 114.971 63.1004 115.279 62.2344 114.695C62.3603 114.539 62.5937 114.31 62.7408 114.157Z" fill="#000100"/>
<path d="M121.017 70.4688C121.134 71.2795 121.086 72.0809 121.571 72.6362L122.262 72.4233C120.843 75.2835 120.988 79.68 120.476 80.6297C119.816 79.6149 120.903 79.8111 119.219 78.9039C119.663 78.0568 120.42 72.067 121.017 70.4688Z" fill="#000100"/>
<path d="M135.996 98.2461C136.52 98.5047 136.375 98.3373 136.555 98.8593C136.598 99.7915 137.037 99.8985 137.481 100.717C138.005 101.686 138.125 102.656 138.694 103.578L137.977 103.44C137.403 102.403 136.592 100.993 135.218 101.944C134.206 102.646 134.754 103.065 133.791 103.741L133.602 103.208C133.685 101.97 134.837 100.071 135.467 98.9221L135.996 98.2461Z" fill="#000100"/>
<path d="M133.552 49.742C135.556 51.958 139.919 55.6488 141.358 57.9557C141.443 58.4143 141.529 58.9817 141.664 59.4192C141.334 59.143 139.41 56.9623 139.065 56.5357C137.669 54.8106 133.702 51.3611 132.719 49.6602L133.552 49.742Z" fill="#000100"/>
<path d="M110.958 73.3704C111.099 74.4376 111.304 74.6679 111.481 75.58C111.774 77.0933 111.887 79.3496 112.333 80.7937C113.431 84.3493 114.144 86.2653 114.529 90.0523L114.17 90.1565C113.31 85.4012 111.452 81.2497 110.947 76.4043C110.831 75.2956 110.406 74.48 110.367 73.2305C110.477 73.667 110.517 73.8093 110.709 74.2152L110.875 74.1366L110.958 73.3704Z" fill="#000100"/>
<path d="M139.757 76.7773C139.907 77.3731 140.232 79.1271 140.432 79.5164C142.45 83.4458 142.556 82.8004 140.204 86.7363L139.951 87.1579C140.241 85.8748 140.395 85.0099 140.973 83.8158C140.652 82.4087 140.428 81.5279 139.786 80.2309C139.517 79.6883 138.985 78.729 138.812 78.2166C138.951 77.401 139.146 77.2573 139.757 76.7773Z" fill="#000100"/>
<path d="M98.2633 202.141C100.712 203.135 100.215 204.342 100.177 206.72C99.4049 206.829 99.263 206.748 99.0692 207.638C99.005 207.317 98.9738 207.363 98.77 207.107C97.5468 205.575 98.0881 203.98 98.2633 202.141ZM99.2499 206.709C99.3131 205.927 99.5778 203.714 99.3197 203.085C99.1423 202.976 99.0534 202.902 98.8556 202.835C98.6493 203.714 98.2051 206.342 99.2499 206.709Z" fill="#000100"/>
<path d="M153.361 82.8867L153.534 83.5583C153.785 83.6147 153.821 83.6439 154.075 83.5881L154.11 83.76C153.937 87.7229 153.716 92.0378 150.593 94.8828C150.423 95.0378 150.217 95.2053 150.068 95.3731L149.773 94.7979C153.555 91.1018 153.252 87.8974 153.361 82.8867Z" fill="#000100"/>
<path d="M115.887 104.93L116.088 105.103C117.754 110.194 117.603 112.682 117.392 117.901L117.182 117.791C117.123 116.957 117.041 116.125 116.936 115.296C116.908 111.293 116.858 109.58 115.234 105.748C115.401 105.606 115.737 105.129 115.887 104.93Z" fill="#000100"/>
<path d="M111.898 4.05427L113.95 3.71094C117.295 5.11569 119.803 6.78382 121.294 10.1911C121.498 10.6573 121.763 11.2512 122.152 11.5712C122.017 11.8318 121.876 12.1373 121.689 12.3568C120.17 8.03753 117.777 6.04855 113.802 4.20799C113.199 4.46472 112.606 4.58461 112.496 5.28283C112.962 5.35838 112.956 5.25843 113.44 5.01478C113.14 5.46548 113.09 5.56139 112.589 5.8284L112.342 5.72568C112.122 4.92113 112.318 4.93354 112.284 4.19584L111.898 4.05427Z" fill="#000100"/>
<path d="M54.5997 105.336C56.8858 107.925 59.4 110.139 61.4322 112.91C61.7438 113.335 62.4148 113.764 62.7432 114.159C62.5961 114.312 62.3628 114.54 62.2369 114.697C60.6769 113.072 59.5606 111.306 57.8748 109.785C56.6058 108.64 55.3581 107.274 54.3906 105.868L54.5997 105.336Z" fill="#000100"/>
<path d="M140.177 86.9727C139.891 88.9758 137.584 97.2782 136.551 98.8595C136.37 98.3375 136.516 98.505 135.992 98.2463C136.803 97.6262 137.786 93.4421 138.028 92.3869C138.495 90.3461 139.249 88.8552 140.177 86.9727Z" fill="#000100"/>
<path d="M85.6435 110.162C86.0624 110.121 89.5963 110.766 91.0082 110.818C92.9311 112.328 94.6977 112.047 96.3745 113.202C96.1009 113.334 96.0245 113.35 95.8234 113.588C94.9382 112.405 85.4034 110.485 83.6562 110.405C84.1033 110.102 84.8939 110.671 85.6435 110.162Z" fill="#000100"/>
<path d="M121.499 61.9258L121.67 62.4349L121.874 62.5214C122.172 63.9604 121.927 65.8544 122.073 67.3934C122.238 69.1149 122.885 70.7939 122.256 72.4225L121.566 72.6353C122.124 71.5247 122.201 70.5587 121.242 69.7135C121.578 68.6581 121.352 63.6535 121.499 61.9258Z" fill="#000100"/>
<path d="M109.823 5.23828C110.488 6.6799 111.438 7.9359 113.105 7.92794L113.35 7.70416C113.577 8.21768 113.736 8.48684 113.476 9.08125C112.772 8.39638 108.296 7.16033 107.812 6.42569C108.323 5.87629 108.923 5.93812 109.719 5.32044L109.823 5.23828Z" fill="#000100"/>
<path d="M100.401 140.332C102.834 140.816 105.356 141.026 107.78 141.682C108.378 141.844 109.146 142.162 109.717 142.199C109.131 142.31 108.98 142.306 108.584 142.756C105.527 142.126 103.73 141.387 100.242 140.836L100.401 140.332Z" fill="#000100"/>
<path d="M115.228 105.749C114.567 103.829 114.757 99.9161 115.049 97.9193L115.316 97.8521C115.288 97.6662 115.306 97.7531 115.146 97.5768L115.219 97.5156C115.902 98.6822 115.38 103.149 115.881 104.931C115.731 105.13 115.395 105.607 115.228 105.749Z" fill="#000100"/>
<path d="M130.4 78.8125L131.334 78.97C131.479 80.3948 131.665 82.7407 131.677 84.1862L131.58 84.6679L131.255 84.5587C130.856 82.7843 130.113 80.5277 130.4 78.8125Z" fill="#000100"/>
<path d="M154.538 76.0156C154.759 76.8571 154.257 82.4278 154.081 83.5854C153.827 83.6412 153.79 83.612 153.54 83.5556L153.367 82.884C153.558 80.8175 153.892 79.2115 153.968 77.0833C154.461 76.6184 154.32 76.734 154.538 76.0156Z" fill="#000100"/>
<path d="M131.093 88.1565L131.359 87.3047L131.584 88.1886C131.494 90.4748 131.025 93.2503 130.801 95.6182L130.289 96.1658C130.466 93.3465 130.783 90.9516 131.093 88.1565Z" fill="#000100"/>
<path d="M117.609 21.2034C118.893 20.9937 119.39 21.1408 120.654 21.4543C121.095 21.654 121.548 21.8481 121.973 22.0787L123.225 23.1869L122.847 23.3317C121.018 22.2294 119.941 22.5179 118.117 21.8592C117.92 21.6043 117.75 21.3858 117.609 21.2034Z" fill="#000100"/>
<path d="M95.8109 27.3477C97.0519 27.5031 98.5458 29.0265 97.2339 30.276C96.5717 29.4065 94.194 29.0893 95.8109 27.3477Z" fill="#000100"/>
<path d="M122.995 62.0977C123.837 62.9981 123.654 68.1261 123.08 69.4287L122.944 69.3503C122.827 66.9922 123.024 64.9182 122.836 62.3883L122.995 62.0977Z" fill="#000100"/>
<path d="M114.155 41.6328C114.863 42.3752 114.388 42.8587 114.954 43.4225C116.782 43.4884 116.892 42.7927 118.401 43.2466C117.357 44.4733 115.455 44.2352 114.06 44.0121C114.011 43.2399 113.876 42.3334 114.155 41.6328Z" fill="#000100"/>
<path d="M119.216 78.9023C120.9 79.8096 119.813 79.6134 120.473 80.6281C120.24 81.2268 120.222 81.6034 119.77 81.8896C119.477 81.8292 119.424 81.8266 119.147 81.6805C118.851 80.2282 118.283 80.27 119.216 78.9023Z" fill="#000100"/>
<path d="M116.995 36.4727L117.178 37.0042L117.333 37.0472C117.73 38.2762 119.013 41.7444 118.787 42.8335C118.296 42.1999 117.728 40.4802 117.506 39.6874C117.054 38.3684 116.727 37.8263 116.995 36.4727Z" fill="#000100"/>
<path d="M60.7667 87.7126C60.1749 86.756 56.8221 85.8078 56.4766 83.7617C58.0221 84.7852 59.4175 86.2106 61.1196 87.0454L60.7667 87.7126Z" fill="#000100"/>
<path d="M116.937 115.297C117.043 116.126 117.125 116.958 117.184 117.792L117.393 117.902C117.459 119.787 117.205 122.149 117.29 123.681L116.928 123.766C116.886 120.943 116.889 118.12 116.937 115.297Z" fill="#000100"/>
<path d="M138.292 75.2656C138.842 75.5165 139.375 75.6756 139.66 76.1913L139.762 76.7796C139.151 77.2595 138.956 77.4032 138.817 78.2188C138.421 77.5097 137.968 76.7595 137.695 76.0002C138.185 76.0264 138.054 76.0938 138.364 75.8527L138.292 75.2656Z" fill="#000100"/>
<path d="M111.459 45.2852C111.763 45.3992 111.754 45.4246 111.955 45.6673C111.922 46.0932 111.901 46.1996 112.016 46.6078C112.613 46.9985 112.783 46.5556 113.711 46.7472L113.834 47.0334C113.565 47.2441 113.645 47.1758 113.197 47.1483C112.589 47.2412 111.071 47.5155 110.543 47.3254L110.539 46.9809C110.973 46.3335 111.131 45.9988 111.459 45.2852Z" fill="#000100"/>
<path d="M130.406 78.8102C130.574 77.4367 130.567 75.3469 132.045 74.9141C131.39 76.3283 131.176 77.4143 131.34 78.9677L130.406 78.8102Z" fill="#000100"/>
<path d="M114.247 21.168L114.777 21.2022C114.008 23.3398 113.028 22.6232 111.545 23.9567L110.875 23.6798L111.512 23.1597C112.701 22.5092 113.72 22.3843 114.247 21.168Z" fill="#000100"/>
<path d="M108.188 69.0273C109.169 71.0671 109.425 71.3926 109.586 73.6262C109.112 72.6612 107.615 69.939 107.359 69.1621C107.555 69.3935 107.677 69.5988 107.957 69.6883L108.188 69.0273Z" fill="#000100"/>
<path d="M58.3359 83.0977C59.2755 83.1065 61.5169 85.7755 61.7549 86.7041C60.9407 86.4845 58.7185 83.8465 58.3359 83.0977Z" fill="#000100"/>
<path d="M71.2084 117.133C71.6311 117.438 72.0925 117.877 72.2355 118.397C72.7181 118.813 72.9353 118.826 73.557 118.956L73.5681 119.548L73.8377 120.229C72.0326 119.443 72.0284 118.635 70.7656 117.317L71.2084 117.133Z" fill="#000100"/>
<path d="M77.2474 112.309L77.6814 112.431C77.5119 114.621 77.4447 115.396 76.506 117.406L76.2656 116.878C76.2819 116.717 76.668 115.672 76.7562 115.429C77.1784 114.266 77.2169 113.539 77.2474 112.309Z" fill="#000100"/>
<path d="M58.3908 90.6067C57.7243 89.7893 56.8855 89.9868 55.6172 89.0119L55.6715 88.9141C57.7203 89.3714 57.5352 89.4508 59.1795 89.9726L58.5351 90.2432L58.3908 90.6067Z" fill="#000100"/>
<path d="M54.9297 86.1562C55.1042 86.1797 55.2776 86.2119 55.449 86.2526C56.4449 86.493 58.0096 86.9968 58.9789 87.5027C59.127 87.7447 59.2503 87.9461 59.3488 88.1068L59.0572 88.4817L58.8079 88.1239C58.083 87.8788 55.7626 86.5834 54.9297 86.1562Z" fill="#000100"/>
<path d="M104.125 45.3125C105.4 46.2224 105.935 46.855 106.892 48.0383L106.615 48.7141C105.501 47.1567 105.188 47.2519 104.125 45.3125Z" fill="#000100"/>
<path d="M117.888 17.1522C118.406 16.9525 118.189 16.9582 118.704 17.1173C119.035 17.5783 119.001 17.8345 119.032 18.4022C118.762 18.4056 117.071 18.2117 116.906 18.0586C117.265 17.4741 117.459 17.8249 117.888 17.1522Z" fill="#000100"/>
<path d="M121.246 69.7148C122.205 70.5601 122.128 71.5261 121.57 72.6367C121.084 72.0814 121.133 71.28 121.016 70.4693L121.246 69.7148Z" fill="#000100"/>
<path d="M116.922 123.765L117.284 123.68C117.226 125.2 117.204 126.627 116.676 128.074L116.391 127.33C116.404 126.424 117.009 125.831 116.922 123.765Z" fill="#000100"/>
<path d="M130.8 95.6211C130.808 96.0528 130.828 98.4567 130.887 98.7248C130.628 98.6126 130.446 98.6904 130.164 98.7509C130.281 98.326 130.277 96.6993 130.288 96.1687L130.8 95.6211Z" fill="#000100"/>
<path d="M111.844 11.2422C112.415 11.3379 113.614 11.4116 113.971 11.7162L114.136 12.2345C112.831 12.2952 112.356 12.5289 111.844 11.2422Z" fill="#000100"/>
<path d="M115.979 63.3623C115.159 64.0548 114.942 64.9542 114.059 65.7954C113.979 65.1117 115.083 63.4815 115.554 62.9531L115.979 63.3623Z" fill="#000100"/>
<path d="M131.258 84.5586L131.583 84.6679L131.585 88.1912L131.36 87.3072L131.094 88.159C131.098 87.0196 131.188 85.7015 131.258 84.5586Z" fill="#000100"/>
<path d="M121.516 40.3378C121.539 39.8071 121.576 39.365 121.633 38.8367L121.93 38.693L121.673 38.65L121.868 38.5273C122.11 39.4317 122.053 40.9917 121.862 41.8758C121.764 41.4526 121.883 40.9661 121.729 40.2833L121.516 40.3378Z" fill="#000100"/>
<path d="M121.883 32.4576C122.536 32.2438 122.726 32.2581 123.417 32.258L123.385 33.0538L123.35 33.1385L123.02 32.9436L122.478 33.3182L122.039 33.0998L121.883 32.4576Z" fill="#000100"/>
<path d="M114.531 90.0508C114.674 90.6361 114.73 90.7801 114.66 91.3865L114.464 91.538C114.154 91.1503 114.201 90.6796 114.172 90.155L114.531 90.0508Z" fill="#000100"/>
</g>
<defs>
<clipPath id="clip0_1209_2986">
<rect width="212" height="249" fill="white"/>
</clipPath>
</defs>
</svg>
