<svg width="212" height="249" viewBox="0 0 212 249" fill="none" xmlns="http://www.w3.org/2000/svg">
<g clip-path="url(#clip0_1209_2980)">
<path d="M75.7095 148.961C75.8631 147.886 75.9757 147.083 76.0212 145.992C76.1484 146.787 76.2804 147.581 76.417 148.375C76.4215 149.541 76.5766 158.963 76.0817 159.524C75.2432 157.576 75.6602 151.425 75.7095 148.961Z" fill="black"/>
<path d="M75.7267 145.892C75.7018 145.318 75.6785 143.42 75.758 142.965C76.2338 140.235 75.4163 130.078 76.1757 128.355L76.3319 128.491C76.5392 132.347 76.1585 135.97 76.27 139.797C76.326 141.716 76.4438 143.594 76.4038 145.52C76.3097 144.748 76.2199 143.976 76.1343 143.203L76.066 143.339L76.0347 142.845C75.9554 143.682 75.8707 145.12 75.7267 145.892Z" fill="black"/>
<path d="M75.7312 145.891C75.8752 145.119 75.9599 143.68 76.0392 142.844L76.0705 143.338L76.1388 143.202C76.2244 143.975 76.3142 144.747 76.4083 145.518C76.4206 146.337 76.4786 147.59 76.4237 148.374C76.2871 147.58 76.155 146.786 76.0278 145.991C75.9823 147.081 75.8698 147.884 75.7162 148.96C75.6365 148.1 75.7088 146.787 75.7312 145.891Z" fill="black"/>
<path d="M85.5073 98.4258C86.0224 98.9235 85.826 101.061 85.7628 101.82C85.3122 101.037 85.0085 99.2259 85.5073 98.4258Z" fill="black"/>
<path d="M92.8381 23.8814C92.9118 23.2407 92.8358 23.4617 93.3685 22.9531C93.777 24.2105 93.9794 25.727 95.6583 25.4277C96.4906 24.8102 96.6696 24.12 97.1646 24.1553C97.5334 25.7713 96.9806 25.7525 97.0107 26.7749C97.7094 26.8802 97.8098 26.7796 98.2728 27.1668C97.4685 28.2648 97.1188 27.4329 96.5164 29.2737L95.95 29.2805C95.0933 29.8597 95.3972 29.5671 95.1416 30.5883C94.5689 32.8777 92.3747 35.9494 93.4117 38.3508C93.7288 39.085 95.141 38.7421 95.8062 38.6405C96.6812 37.6238 96.4904 37.5275 97.6333 36.5418C97.5993 36.3504 97.629 36.3118 97.5323 36.2043C97.3292 34.1301 97.1636 33.148 98.9212 31.6599C100.468 30.3501 98.7487 28.8393 99.1371 27.9423C99.9377 28.3515 101.275 31.9361 101.111 32.8616C100.431 33.4701 99.467 32.6875 99.0396 33.875C98.4743 35.446 98.8969 37.2993 99.5581 38.7784C99.964 39.6864 99.8502 39.7869 100.803 40.0201C101.228 40.1146 101.691 40.1874 102.073 40.3823L101.941 40.4414C100.809 40.9343 100.212 40.5522 99.4473 41.1362L99.3691 41.4515C100.117 42.2652 103.357 42.624 104.53 42.7732C104.952 42.5243 104.815 42.6997 104.952 42.2302L105.085 41.7872C105.293 42.0439 105.487 42.2173 105.727 42.4442C106.479 42.5501 106.673 42.3378 107.457 42.0412C108.782 39.9874 108.66 39.7081 108.342 37.2796C110.244 36.2019 110.027 35.0851 109.967 33.1223L110.355 32.3683C111.177 35.0365 109.608 38.5703 109.327 41.9187C108.554 42.5026 107.902 42.8553 107.664 43.7786C108.101 45.917 112.693 45.9475 114.487 45.9298C116.801 47.2268 117.442 49.6334 119.058 50.2482C122.559 51.5801 122.841 53.735 125.389 56.2596C127.755 58.603 130.597 60.8539 132.699 63.5043C133.841 64.9324 134.613 67.1761 135.857 68.4691C137.843 70.5321 140.623 72.1886 142.668 74.089C145.002 76.2581 146.654 79.0885 149.06 81.2093C150.79 82.7349 153.008 83.6532 154.56 84.649C155.032 84.9516 158.5 88.9533 158.907 89.4287C160.391 91.1598 163.788 96.7705 164.243 98.8651C165.423 104.294 164.878 111.056 164.76 116.553C164.673 120.537 164.598 125.725 164.836 129.566C165.393 138.538 166.77 147.683 167.659 156.594C167.562 157.59 167.72 157.529 167.197 158.216C165.954 154.864 166.176 151.719 165.63 148.419C163.181 133.6 164.322 118.815 163.636 103.947C163.462 100.174 160.009 91.5531 156.93 89.156C155.215 92.8141 150.01 99.0143 147.002 101.715C144.104 104.318 139.707 107.265 137.242 110.395C135.75 112.29 140.7 119.179 141.588 121.075C142.52 123.067 143.726 132.318 144.634 133.185C146.101 133.203 146.009 129.952 146.679 129.45C147.114 131.55 145.813 134.291 145.662 136.485C145.244 142.589 146.825 153.661 149.184 159.146C149.357 159.622 149.509 160.139 149.794 160.548C150.349 162.473 150.717 163.393 151.041 165.495C151.222 166.67 151.358 168.418 151.572 169.503C151.524 173.225 152.721 177.249 152.663 181.534C152.665 182.536 152.549 187.506 152.935 188.034L153.477 188.007C153.552 188.863 152.839 190.041 152.939 190.791C153.399 194.234 153.389 197.873 153.727 201.293C155.721 203.45 157.391 205.166 160.288 205.996C163.135 206.812 167.74 205.719 169.846 203.638C173.546 199.983 172.226 194.775 171.863 190.363C171.814 188.439 170.982 185.53 172.051 184.121V184.267C172.074 188.177 173.318 192.384 173.784 196.204C174.028 198.209 171.742 202.626 171.631 204.603C171.349 209.616 172.9 213.143 166.8 215.107C164.632 215.804 162.045 217.385 160.041 218.55C154.393 221.565 147.328 221.235 141.37 219.395C139.328 218.767 138.169 218.478 138.2 216.221C138.252 212.404 141.581 210.635 144.415 208.827C146.524 207.481 148.382 205.39 150.199 203.67C151.123 202.796 151.568 201.754 152.632 200.989C152.589 199.286 152.142 195.002 152.227 193.79C151.627 193.797 149.21 193.79 148.762 193.871C145.797 193.631 143.186 193.929 140.219 193.884C139.535 193.859 138.604 193.898 138.1 193.429C138.5 192.944 138.665 193.037 139.403 192.832C140.514 192.71 141.606 192.643 142.72 192.567C143.79 192.612 152.225 193.069 151.757 191.116C151.185 190.451 148.306 190.901 147.467 190.621C144.427 189.606 141.667 188.677 138.543 187.947C137.799 187.207 137.357 186.473 136.473 185.779C135.994 185.927 133.788 186.88 133.413 187.147C132.182 188.023 126.428 189.714 125.699 190.484L124.671 191.622L125.827 193.57C127.75 194.023 129.513 194.364 131.477 193.743L132.129 193.996L132.103 194.233C131.722 194.422 131.315 194.635 130.929 194.807C130.143 195.129 126.926 195.355 126.054 194.928C125.258 194.538 125.336 194.54 124.912 193.747C121.29 190.227 126.448 188.874 128.822 187.808C129.315 187.662 131.899 186.45 132.324 186.18C133.716 185.624 134.583 184.984 135.82 184.13C135.106 180.53 136.4 172.919 136.591 169.171C136.819 164.705 136.634 160.136 136.859 155.661C136.895 154.935 137.748 153.407 137.683 152.953C137.399 151.206 135.514 149.614 135.175 147.87C134.112 142.403 135.099 137.179 132.891 131.883C132.62 131.234 132.335 128.945 132.183 128.097C132.006 126.455 131.773 125.278 131.431 123.654C131.002 121.724 129.617 116.258 129.445 114.603C125.499 114.728 126.049 114.231 122.772 113.751C121.442 112.101 121.53 110.37 120.484 108.731C118.388 105.448 115.852 102.392 113.567 99.2044C112.444 97.638 112.02 95.9046 110.619 94.5454C109.306 93.2725 106.255 92.7653 104.959 91.5928C102.538 89.4023 98.4795 86.9783 96.7043 84.3601C96.4147 83.933 96.1025 81.9183 96.0118 81.3835C94.2878 83.4913 87.5009 89.5331 85.3033 91.3767C85.7199 91.8701 88.3045 95.936 88.7052 96.6068C88.0572 96.921 86.7503 97.6389 86.1006 97.6828L85.9557 97.4525C86.435 96.6839 87.2411 97.3876 87.6254 96.0301C85.7702 95.336 86.2291 92.6737 84.5686 91.8295C81.8236 92.3251 84.9339 96.5927 85.0475 96.175C84.4094 98.5195 84.6844 99.972 84.8799 102.267C84.4605 102.885 84.0399 102.502 83.4969 102.959C83.3625 103.073 83.6882 103.463 83.1935 103.876L82.8553 103.805C82.5637 102.734 82.6835 102.672 81.5988 102.614L81.4373 102.574C81.9596 101.265 81.7025 100.696 82.1535 99.8293L82.4152 99.9478C82.6656 100.933 82.1459 100.857 82.4897 101.735C83.1598 101.955 82.8996 101.963 83.5023 101.778C84.8262 100.256 82.7675 95.0188 82.571 93.1382C81.8051 93.6307 80.4502 94.3568 80.1848 95.2068C80.6442 96.9701 80.8753 98.1739 80.9177 99.9993C80.9956 103.346 80.4187 102.076 78.2838 102.709L77.9196 102.816L77.8047 102.583L77.878 102.135C78.228 101.927 78.3086 101.917 78.4587 101.562C78.7304 100.837 79.2103 100.685 79.4023 99.8743C79.8709 97.8967 79.1918 96.6726 78.2177 95.065C78.9566 93.5353 79.2065 93.9451 80.4422 93.0343C82.1453 91.6494 84.8876 90.3157 86.456 88.8787C92.7013 83.1558 98.2141 76.9368 105.096 71.8607C107.821 69.8506 110.665 67.8913 113.595 66.1934C115.799 64.9169 114.72 66.3602 116.428 63.9893L116.653 64.2535C117 67.246 114.279 67.4906 112.035 68.774C107.918 71.129 104.484 73.7212 101.021 76.9314C99.6882 78.1673 98.29 79.8843 96.7414 80.7188L96.6525 80.766C97.2718 81.8735 97.6056 83.2657 98.3225 84.2882C99.2175 85.5651 104.738 89.9782 106.255 90.8053C107.304 91.3773 108.522 91.6542 109.613 92.1466C110.325 92.4676 110.994 92.8481 111.497 93.4591C113.454 95.8348 114.884 98.87 116.67 101.41C118.309 103.743 120.694 105.86 121.966 108.394C122.553 109.562 122.359 111.091 122.874 112.302C123.161 112.977 123.751 113.175 124.402 113.406C126.746 114.238 129.351 114.213 131.611 113.114C134.725 111.6 146.352 100.826 149.171 97.8787C150.63 96.354 154.62 91.898 155.249 90.0335C155.924 88.0375 154.493 86.2307 153.647 84.537C147.018 82.8366 145.765 78.051 140.961 73.9159C139.301 72.4869 136.389 71.2947 134.891 69.5206C132.879 67.4722 131.386 63.0118 129.186 61.2572C125.854 59.1783 123.717 55.1999 121.022 52.8718C118.236 50.4657 117.03 49.7442 114.433 46.8364C112.322 46.778 109.637 46.6754 107.639 45.9556C104.504 44.8268 104.233 43.8392 100.819 43.678C99.9622 42.8764 99.4428 42.4706 98.5023 41.7794C94.6464 46.4344 93.323 54.6178 93.7291 60.5085C92.3749 61.9509 92.3781 62.0729 90.5326 61.3489L90.6295 61.0073L91.5975 61.1123C93.0406 60.9659 92.7454 59.7842 92.7532 58.4558C92.7911 51.943 94.0681 46.2938 97.6548 40.7951C98.4403 40.3545 98.8972 41.2699 99.4914 40.3805C99.3915 39.5688 98.537 39.1836 97.9307 38.7471C97.4262 38.384 97.9455 38.4308 97.4183 37.8256L96.9591 37.8306C96.4713 38.3551 96.5806 38.3988 96.5983 39.2987C96.2879 39.6803 96.0662 39.7907 95.6603 40.0564C95.5072 41.084 96.4378 40.8508 96.4095 41.8047C95.7276 41.8005 93.7998 40.26 93.3909 40.2681C91.9364 40.2967 90.3502 42.639 89.0031 40.5028C88.2151 39.8456 86.738 39.7189 85.7496 39.7477C86.1501 39.1768 86.3037 39.0264 86.3749 38.3291C86.4549 38.007 86.4066 37.6411 86.385 37.3035C87.3183 37.7426 89.4783 39.5842 89.7854 39.5231L89.8158 38.8218C91.3057 37.029 90.2252 37.2406 89.6102 35.589C89.3126 34.9935 88.7688 34.0753 88.7481 33.4584C89.3722 33.1438 90.2403 33.6549 91.4833 33.4329L91.8163 32.8828C92.0154 31.9457 92.5572 26.4961 92.0504 25.4781C92.0052 25.3874 91.7039 24.6461 91.639 24.4801C91.8542 23.8922 91.8408 24.5511 92.8381 23.8814ZM130.746 115.06C131.376 117.733 132.087 120.365 132.596 123.078C133.4 127.368 134.144 131.567 135.445 135.74C135.77 136.783 135.478 139.109 135.679 140.265C135.905 142.554 136.217 144.96 136.474 147.25C136.585 148.565 138.673 150.719 138.658 151.921C138.634 153.814 137.554 155.07 137.539 157.175C137.488 164.313 138.208 171.507 137.066 178.573C136.885 179.69 138.352 181.801 137.995 183.203C137.887 184.186 137.827 184.274 137.287 185.156C137.708 186.825 143.623 188.056 145.308 188.453C152.104 190.751 151.84 190.032 151.61 183.022C151.32 177.368 151.006 171.731 149.81 166.185C149.093 162.861 147.853 160.021 146.912 156.832C143.756 146.148 143.543 134.848 141.095 124.046C140.814 122.808 135.803 112.333 135.248 111.987C133.532 113.565 132.925 114.215 130.746 115.06ZM139.849 215.65C140.104 216.436 139.808 216.808 140.195 217.377C140.998 217.775 141.799 217.204 142.341 217.385C144.356 218.059 145.633 218.835 147.816 218.94C152.234 219.155 154.785 219.435 158.855 217.294C159.986 216.7 160.748 216.581 161.862 215.625C163.141 214.859 164.888 214.584 166.262 213.853C169.093 212.341 170.366 210.279 170.103 207.094C170.063 206.623 170.318 205.885 170.106 205.394C169.11 205.307 168.266 206.086 167.301 206.456C160.954 208.895 157.702 206.659 153.296 202.782C150.625 204.44 148.839 206.832 146.57 208.834C145.571 209.716 138.468 213.508 139.849 215.65Z" fill="black"/>
<path d="M84.3457 134.979C84.0542 134.683 71.1472 106.149 71.0312 105.204L71.1751 105.031C71.5124 105.38 72.258 106.6 72.4041 107.053C73.7092 111.094 75.7056 114.915 77.7225 118.643C78.2248 119.649 78.3902 120.841 78.8652 121.846C80.8092 125.961 83.1973 130.333 84.7003 134.609L84.3457 134.979Z" fill="black"/>
<path d="M84.6984 134.609C85.825 135.924 86.4317 137.5 86.8216 139.173L86.466 139.796C86.1038 138.425 85.4283 135.914 84.3438 134.979L84.6984 134.609Z" fill="black"/>
<path d="M86.8243 139.172C87.0931 139.971 87.3551 141.012 88.1103 141.44L87.7806 142.056C86.8864 141.302 86.849 140.85 86.4688 139.796L86.8243 139.172Z" fill="black"/>
<path d="M88.1031 141.441C88.3584 142.005 88.9279 143.479 88.8296 144.085C88.1413 143.551 88.0885 142.677 87.7734 142.058L88.1031 141.441Z" fill="black"/>
<path d="M69.8166 75.8555C70.3638 76.346 70.5241 76.8152 70.5972 77.5421C70.9922 81.4653 71.1351 84.7228 73.6335 87.9695C75.0595 90.2927 75.3758 90.9272 76.1257 93.5233C76.6992 93.7289 77.4339 93.906 77.7781 94.367L77.6769 94.6117C76.9102 94.7085 76.7841 94.6883 76.0202 94.5473C74.2606 93.0986 74.7301 92.2446 73.7197 90.7295C70.8684 86.4549 69.3575 83.6797 69.5461 78.3179C68.7946 78.8451 66.1759 80.4691 65.7836 80.8228C64.566 83.4546 64.9584 85.7452 67.5881 87.2958C68.4231 87.7883 68.6618 87.1959 69.2609 88.3067C70.1181 89.8965 69.7429 90.9902 71.803 90.5951C72.2057 90.9247 72.0892 90.748 72.2232 91.2788L71.4783 91.4484C71.2923 91.577 70.8941 91.7738 70.9064 91.996C70.9813 93.3463 71.9923 96.6618 73.4687 96.9944C73.9059 97.0929 74.141 96.8201 74.6 97.2031C74.6763 97.7789 74.3838 98.6777 74.1137 99.1572C73.3121 99.0186 72.4846 98.8473 71.6829 98.6934C71.4984 96.5045 69.2804 92.5595 68.4656 89.8063C67.8797 89.0402 67.1119 89.1271 66.3126 89.3784C65.4557 90.7823 65.466 91.6179 64.0832 92.2766C63.4719 93.8171 67.7773 102.163 68.5693 103.956C71.4574 110.498 74.3516 117.13 77.5403 123.53C78.1329 124.719 78.4296 127.159 79.0926 128.111C79.3575 128.211 79.715 128.284 79.8315 128.494C80.6682 129.999 80.0151 131.794 81.6405 132.446C81.673 132.459 82.9828 136.405 83.1951 136.718C84.2952 139.556 85.8393 142.096 87.0698 144.835C87.9193 146.726 89.204 150.662 90.581 152.276C90.8005 153.445 91.2244 154.521 91.6152 155.583C92.0488 156.762 94.6471 161.23 94.6243 162.021L94.3921 162.189C94.0379 161.856 93.7134 161.316 93.4765 161.193C92.7644 160.649 92.9723 160.21 92.388 159.38L91.8722 159.314L91.5911 159.168L91.525 158.436C91.3209 157.423 90.8439 154.684 90.0997 154.085C89.4712 152.86 88.6174 150.253 88.102 149.515L87.8084 149.504C87.4785 150.341 87.6299 165.401 87.6808 167.051C87.653 167.632 87.6835 168.483 87.3665 168.935L86.8832 169.194C86.4912 161.691 87.5219 152.408 86.0298 144.975C85.9029 144.344 84.2394 141.552 83.8105 140.894C83.2784 139.701 82.8235 139.999 82.1923 138.944C82.0344 137.21 81.4194 133.244 79.8259 132.301C79.6774 131.736 79.552 130.563 79.3043 130.285C78.143 130.891 78.6523 135.828 78.6467 137.178C78.635 139.959 78.921 142.921 78.74 145.691C78.3172 147.014 78.8268 148.396 78.2287 149.208C77.8773 148.526 78.1497 144.364 77.9535 142.983L77.9271 142.808C77.8018 138.977 77.8384 134.752 77.8979 130.915C77.9725 126.114 76.9487 125.245 75.1182 121.027L74.8802 120.915C74.1451 122.311 74.9355 151.63 74.5856 155.819C74.3959 157.354 74.3973 158.667 74.3814 160.204C74.4906 161.929 74.5796 163.492 73.9845 165.143C73.7383 158.27 73.9142 150.656 73.9422 143.717C73.7842 138.493 74.0078 133.203 73.9113 127.973C73.8167 122.849 74.4851 118.738 71.8182 114.139C71.6838 118.981 71.9128 125.219 71.8968 130.226C71.7441 131.426 71.8292 132.677 71.7116 133.597C71.4379 136.449 71.4205 139.12 71.1815 141.686C71.1083 140.863 71.0043 138.321 70.8377 137.743C70.743 137.199 70.7864 133.31 70.781 132.396C70.7342 128.355 70.7116 124.313 70.7134 120.272C70.7309 114.939 71.2637 112.91 69.1756 107.85L68.9234 107.837C68.7216 108.951 68.8146 114.82 68.7986 116.422C68.4544 117.478 68.581 126.677 68.5527 128.516C68.3265 127.61 68.4114 122.255 68.3875 121.031L68.2838 124.904C68.0905 122.692 68.3252 108.421 67.9805 107.719C67.6647 103.003 66.5784 103.588 64.9558 99.3391C64.7865 98.7826 64.3533 98.0497 64.0639 97.5151C63.6825 96.7299 63.1589 94.9607 62.744 93.9949C62.6816 91.0992 64.2736 90.3084 66.4015 88.6461C63.9582 85.7707 63.6417 83.7077 64.9027 80.2673C65.971 79.7078 67.0956 79.2006 68.1305 78.5961C69.5022 77.7945 69.4347 77.1293 69.8166 75.8555Z" fill="black"/>
<path d="M73.9386 143.719C74.0627 145.853 73.9417 159.382 74.3778 160.205C74.4869 161.93 74.576 163.493 73.9809 165.145C73.7346 158.271 73.9106 150.658 73.9386 143.719Z" fill="black"/>
<path d="M81.0292 203.309C81.0622 203.921 81.199 204.638 81.2993 205.254C81.318 206.817 81.511 213.278 81.1079 214.286L80.8752 214.318C80.7771 213.997 80.7345 213.919 80.7578 213.574C80.9031 210.898 80.5098 205.69 81.0292 203.309Z" fill="black"/>
<path d="M80.7605 213.575C80.3786 212.015 80.5645 201.62 81.0201 200.258C81.3732 201.112 81.3285 204.214 81.302 205.255C81.2017 204.639 81.0649 203.922 81.0319 203.309C80.5125 205.69 80.9058 210.899 80.7605 213.575Z" fill="black"/>
<path d="M67.9784 107.719C68.3231 108.421 68.0884 122.691 68.2817 124.904L68.3854 121.031C68.4093 122.255 68.3244 127.61 68.5506 128.516C68.5789 126.676 68.4523 117.477 68.7964 116.422L68.8248 138.677C68.8268 141.539 69.0154 147.091 68.8008 149.677C68.8819 163.363 68.6459 177.464 69.0486 191.113C68.8512 193.615 69.5932 209.207 68.8644 210.24L68.9789 210.047L68.5363 209.882C67.8975 207.794 68.2418 199.16 68.2304 196.703L67.9769 175.956L67.9108 172.704C68.0958 169.519 67.9433 164.569 67.9338 161.244C68.094 156.435 67.9229 150.867 67.9453 145.995C68.0037 133.259 67.8064 120.452 67.9784 107.719Z" fill="black"/>
<path d="M67.9766 175.955C68.6571 176.82 68.0409 180.379 68.3995 181.246C68.9475 179.922 68.5453 172.966 68.5722 171.089C68.6539 165.358 68.7088 159.573 68.7081 153.837C68.7079 152.446 68.6766 151.064 68.8004 149.676C68.8815 163.362 68.6456 177.463 69.0483 191.112C68.8508 193.615 69.5928 209.206 68.864 210.239L68.9785 210.046L68.5359 209.882C67.8971 207.793 68.2414 199.159 68.23 196.702L67.9766 175.955Z" fill="black"/>
<path d="M77.9248 142.809L77.9512 142.983C78.1474 144.365 77.875 148.526 78.2264 149.208C78.8245 148.397 78.3149 147.015 78.7377 145.691C78.7245 149.305 78.6856 153.077 78.8186 156.686C78.8865 158.529 79.461 160.734 79.4968 162.642C79.6122 168.778 79.7447 175.078 79.6213 181.208C79.7349 190.632 79.3978 200.863 79.6847 210.167L79.6702 213.02C79.745 214.976 79.8583 216.553 79.659 218.508C79.4659 219.415 79.2816 220.324 79.1062 221.235L78.9832 221.238C78.8589 220.487 78.8448 219.999 78.8217 219.236C78.7169 201.757 79.1557 184.28 78.1888 166.829C77.7489 158.89 77.8701 150.755 77.9248 142.809Z" fill="black"/>
<path d="M79.6736 213.017C79.5513 213.697 79.4533 214.251 79.2676 214.916C78.6597 213.547 78.8465 181.184 79.029 177.485L79.0382 177.576L79.2519 176.996L79.2716 177.024L79.1561 176.715L79.2832 176.768C79.6282 178.158 79.5975 179.761 79.6246 181.206C79.7382 190.63 79.4011 200.861 79.688 210.165L79.6736 213.017Z" fill="black"/>
<path d="M82.1949 138.941C82.8262 139.997 83.2811 139.698 83.8131 140.892L83.2101 140.4L82.9382 140.459C82.7566 141.017 83.1629 142.56 83.186 143.297C83.6317 157.479 83.3853 171.67 83.4157 185.858C83.433 190.405 83.4081 194.951 83.3412 199.496C83.3307 200.398 83.366 204.391 83.2809 205.046C83.0663 208.495 82.9385 211.948 82.8975 215.404C82.6392 214.19 82.77 204.313 82.7642 202.495L82.6274 179.411C82.6048 174.806 82.6822 170.044 82.5445 165.465C82.6616 163.838 82.5532 161.019 82.5169 159.377L82.1712 145.917C82.1349 143.751 82.0224 141.065 82.1949 138.941Z" fill="black"/>
<path d="M97.1825 60.2131C97.9953 60.1368 98.224 59.9665 98.8486 60.4161L98.7649 60.4618C96.8425 61.5301 93.5416 65.666 91.7832 67.3693C89.4591 69.6204 87.1781 71.5974 85.0318 74.0579C83.8103 75.4579 82.3899 77.3192 81.0758 78.6294C80.7706 78.9337 79.5799 78.9629 79.1166 78.9671C78.8106 78.5732 79.08 77.2575 78.8673 76.6083C78.5429 75.617 77.7521 74.0877 77.4329 73.2028C76.7532 71.319 75.88 72.7663 75.6793 71.3824C75.7581 70.9404 75.6918 70.5676 75.6484 70.1198C75.7904 69.9079 77.6634 68.4268 77.9008 68.2878L78.6471 68.1588C78.1365 68.6674 76.6199 70.5543 76.927 71.2072C77.545 72.5201 79.5838 76.5906 81.1688 76.6298C81.944 75.9359 88.632 68.4459 88.7144 68.0286C88.438 67.3497 85.5297 63.77 84.8347 63.0513C86.2545 62.7109 87.5284 64.9302 88.5 65.7374C89.0537 66.2041 89.7063 66.8438 90.3789 67.0454C91.5467 66.487 94.1396 62.4844 95.195 61.4557C95.5426 61.1169 96.7193 60.4721 97.1825 60.2131Z" fill="black"/>
<path d="M87.6296 187.605C87.7577 186.734 87.9689 185.011 88.2195 184.25C88.4657 184.77 88.4551 185.572 88.4894 186.174C88.5243 189.825 88.5234 193.478 88.4867 197.13C88.4834 198.291 88.5844 201.465 88.4865 202.416C88.5149 204.885 88.4038 208.067 88.6791 210.493C89.9714 221.884 89.6514 233.219 89.8072 244.682L89.7806 244.982H88.9183C89.0917 237.528 88.9617 229.813 88.813 222.345C88.7748 220.433 88.274 217.933 88.0923 215.946C87.8715 213.532 87.7788 211.277 87.7387 208.856C87.553 202.36 87.4742 194.093 87.6296 187.605Z" fill="black"/>
<path d="M87.6296 187.605C87.7577 186.734 87.9689 185.011 88.2195 184.25C88.4657 184.77 88.4551 185.572 88.4894 186.174C88.5243 189.825 88.5234 193.478 88.4867 197.13C88.4834 198.291 88.5844 201.465 88.4865 202.416C88.0072 203.96 88.3514 210.779 87.9407 211.178C87.9743 210.027 88.0502 207.886 87.8838 206.822C87.7183 207.572 87.7418 208.089 87.7387 208.856C87.553 202.36 87.4742 194.093 87.6296 187.605Z" fill="black"/>
<path d="M70.8399 137.744C71.0065 138.322 71.1106 140.864 71.1837 141.687C71.4228 139.121 71.4401 136.45 71.7138 133.598C71.7364 137.181 71.654 140.816 71.5713 144.404C71.5178 146.727 71.6885 150.004 71.5317 152.216C71.3855 153.496 71.1451 161.327 71.5994 162.087C71.7863 161.953 71.7868 161.976 71.9295 161.8C72.0399 160.355 72.1619 159.133 72.0665 157.686L72.101 155.312C72.5282 155.595 72.6225 155.552 72.7028 156.135C72.8883 157.483 72.6428 159.095 72.7421 160.403C72.8469 167.498 72.6702 174.945 72.6507 182.073L72.213 182.103C71.6513 183.182 72.2126 184.781 71.7387 186.016C71.6697 183.643 71.6284 181.269 71.6146 178.895L71.5284 175.04C71.8981 170.469 70.8921 164.76 70.8184 160.337C70.6943 152.891 70.7364 145.195 70.8399 137.744Z" fill="black"/>
<path d="M70.8399 137.744C71.0065 138.322 71.1106 140.864 71.1837 141.687C71.4228 139.121 71.4401 136.45 71.7138 133.598C71.7364 137.181 71.654 140.816 71.5713 144.404C71.5178 146.727 71.6885 150.004 71.5317 152.216C71.3855 153.496 71.1451 161.327 71.5994 162.087C71.7863 161.953 71.7868 161.976 71.9295 161.8C71.9264 164.703 71.8161 167.666 71.7536 170.579C71.6988 173.132 71.8246 176.413 71.6146 178.895L71.5284 175.04C71.8981 170.469 70.8921 164.76 70.8184 160.337C70.6943 152.891 70.7364 145.195 70.8399 137.744Z" fill="black"/>
<path d="M81.8482 104.594C83.5344 105.341 86.9571 112.831 87.9603 114.762L96.0835 130.526C97.635 133.486 99.195 136.26 100.662 139.315C101.839 141.77 105.524 146.96 105.787 149.64L105.771 149.545L105.314 149.568C104.306 148.392 104.279 147.165 103.573 146.101C101.519 143.007 100.094 139.826 98.3999 136.577C92.9616 125.93 87.3326 115.383 81.5156 104.938L81.8482 104.594Z" fill="black"/>
<path d="M75.501 177.02C75.5462 182.152 75.7395 190.053 75.4794 195.084L75.5925 213.129C75.5025 216.287 75.6201 220.227 75.4284 223.257L75.2736 222.829C75.135 223.062 75.0662 223.183 74.8888 223.396C74.8441 222.73 74.7701 221.057 74.6541 220.495C74.483 219.142 74.6033 211.778 74.6073 210.199C74.5825 203.754 74.5999 197.31 74.6591 190.866C74.6234 187.451 74.6145 184.035 74.6326 180.618L74.8839 180.558C74.9032 180.884 74.8891 180.92 75.008 181.236C75.3106 180.069 74.7253 178.648 75.501 177.02Z" fill="black"/>
<path d="M75.5025 177.02C75.5477 182.152 75.741 190.053 75.4809 195.084C75.3179 194.739 75.2767 185.827 75.2328 184.698C74.8841 185.059 74.7221 189.988 74.6607 190.866C74.6249 187.451 74.616 184.035 74.6341 180.618L74.8854 180.558C74.9047 180.884 74.8906 180.92 75.0095 181.236C75.3121 180.069 74.7268 178.648 75.5025 177.02Z" fill="black"/>
<path d="M64.7377 144.713C64.7657 143.657 64.7883 137.378 65.1178 136.887C65.5104 142.566 65.1068 148.54 65.2389 154.249C65.2721 155.685 65.181 159.059 65.3904 160.295C65.5082 162.792 65.3774 165.294 65.4546 167.768C65.3662 173.555 65.5904 179.443 65.5619 185.257C65.5323 188.253 65.5248 191.25 65.54 194.245C65.5444 195.242 65.4985 197.571 65.6033 198.475C65.6569 199.403 65.7884 200.082 65.3727 200.914C64.625 200.14 64.9727 193.607 64.9689 192.327C64.9131 187.469 64.8833 182.61 64.8799 177.752C64.7225 166.74 64.675 155.726 64.7377 144.713Z" fill="black"/>
<path d="M91.9621 195.64C92.0484 196.116 92.1185 197.088 92.3505 197.359C92.4752 196.504 92.5575 195.724 92.6406 194.867C92.6499 197.05 92.617 199.494 92.755 201.655C92.8997 203.918 93.3862 206.28 93.409 208.572C93.5066 218.377 93.6298 228.312 93.5561 238.107C93.4768 238.72 93.5548 239.065 93.1937 239.415L93.3055 239.159C92.9926 239.567 92.9938 239.724 92.8863 240.219C92.7429 237.672 92.8381 234.055 92.8289 231.432C92.8202 225.884 92.7693 220.335 92.6766 214.787C92.6188 211.705 92.168 208.704 92.0101 205.675C91.8423 202.453 91.8755 198.865 91.9621 195.64Z" fill="black"/>
<path d="M64.8144 102.219C65.2373 116.091 65.429 129.969 65.3896 143.848C65.3894 148.968 65.5663 155.268 65.3876 160.297C65.1782 159.06 65.2693 155.686 65.2361 154.251C65.104 148.542 65.5076 142.567 65.115 136.889C64.7855 137.38 64.7629 143.659 64.7349 144.715L64.6737 142.522C64.962 139.248 64.502 130.363 64.3795 126.92C64.1546 120.596 64.1815 114.228 63.9922 107.948C64.078 106.445 64.6276 104.061 64.8144 102.219Z" fill="black"/>
<path d="M58.0312 34.3596C58.0686 34.0006 58.1176 33.6431 58.1778 33.2872C58.3429 32.3441 59.2823 30.7803 59.5696 29.7941C61.0254 24.7978 62.3063 21.8933 66.8381 18.9754C69.3387 17.3654 72.9144 14.4995 75.702 13.2821C76.4407 12.9594 77.6111 13.1613 78.4183 13.3057L78.0414 13.7674C77.5979 13.7253 76.6418 13.6323 76.2082 13.8099C72.4759 15.3387 68.678 18.4908 65.4157 20.8447C64.3019 21.6485 62.6691 23.5404 62.2077 24.6883C61.0084 26.218 59.9394 29.8958 60.0263 31.6721C60.2328 32.2813 60.6415 32.4876 61.171 32.8634C61.371 33.5826 61.2303 33.5195 61.7242 33.8823C62.2805 33.8787 62.7997 33.881 63.3547 33.8323L63.5097 34.0442L63.0951 34.3735C62.1381 34.5434 62.3137 34.3724 61.6834 34.9558C61.1092 36.0924 61.8407 36.7803 61.8539 37.238L61.5383 37.6033C60.8626 37.1435 60.1609 36.7785 59.4814 36.3513C58.2123 35.5533 59.5356 35.6429 58.0312 34.3596Z" fill="black"/>
<path d="M77.9219 102.818L78.2861 102.711C79.9079 104.47 82.5928 110.933 83.7515 113.189L92.4222 130.24C93.8937 133.106 95.5193 135.917 96.7055 138.905C96.9886 139.618 97.4898 140.425 97.7322 141.149L97.5913 141.266C96.2213 140.374 95.6765 138.129 94.9795 136.622C94.199 134.649 92.6655 132.676 91.8487 130.781C88.6284 123.308 84.5544 116.383 80.9232 109.125C79.7945 106.868 78.6281 105.295 77.9219 102.818Z" fill="black"/>
<path d="M78.8251 219.236C78.8482 219.998 78.8623 220.486 78.9866 221.238L79.1096 221.234C79.2851 220.324 79.4694 219.415 79.6625 218.508L79.7037 220.497C79.6782 222.202 79.4088 229.382 79.934 230.508C80.267 230.621 80.087 230.596 80.4962 230.479C80.3412 234.354 80.528 240.935 80.601 244.981H79.6471C78.5848 236.912 78.7611 227.36 78.8251 219.236Z" fill="black"/>
<path d="M72.6469 182.07L72.5869 202.4C72.5742 203.764 72.6151 209.466 72.4496 210.579C71.866 212.574 72.5303 214.286 71.8243 216.335L71.7143 195.696C71.7015 192.796 71.5607 188.836 71.7349 186.014C72.2088 184.778 71.6474 183.18 72.2091 182.101L72.6469 182.07Z" fill="black"/>
<path d="M83.2769 205.047L84.5904 244.979H83.8224C83.9159 238.73 83.7114 232.24 83.1535 226.009C83.0184 224.499 82.9154 223.077 82.8672 221.561L82.8936 215.404C82.9346 211.948 83.0623 208.496 83.2769 205.047Z" fill="black"/>
<path d="M75.5885 213.129C75.849 220.778 75.649 228.415 76.3435 236.073C76.3986 236.682 76.2302 237.927 75.9467 238.478L75.6479 238.547C74.4736 237.249 74.7742 233.018 74.7549 231.195C74.7175 227.69 74.5274 223.992 74.6501 220.495C74.7661 221.056 74.8402 222.729 74.8848 223.396C75.0622 223.183 75.131 223.062 75.2696 222.829L75.4244 223.257C75.6161 220.227 75.4985 216.287 75.5885 213.129Z" fill="black"/>
<path d="M87.68 167.051C87.796 169.021 87.9342 170.991 88.0945 172.958C88.5433 175.252 88.5393 183.518 88.4914 186.172C88.4571 185.571 88.4677 184.769 88.2215 184.248C87.9709 185.009 87.7597 186.733 87.6316 187.603C87.2394 182.008 86.9767 176.404 86.8438 170.796L86.8824 169.193L87.3657 168.935C87.6828 168.483 87.6522 167.632 87.68 167.051Z" fill="black"/>
<path d="M74.3813 160.205C74.3972 158.668 74.3958 157.355 74.5854 155.82C74.6201 160.517 75.2559 164.815 75.4143 169.481C75.5001 172.006 75.5406 174.494 75.5003 177.019C74.7246 178.648 75.3099 180.069 75.0073 181.236C74.8884 180.92 74.9025 180.884 74.8832 180.557L74.6319 180.618C74.5652 175.64 74.1229 170.254 73.9844 165.144C74.5795 163.493 74.4904 161.929 74.3813 160.205Z" fill="black"/>
<path d="M66.1188 49.9713C67.717 51.5673 68.0458 49.0842 69.7339 50.4117C70.7082 51.1781 70.8193 52.7833 72.2712 52.9678C73.1463 52.5111 73.2578 51.7617 74.0561 51.6583L74.482 51.9047C74.1746 52.8565 72.3281 53.3732 72.7884 54.3668C73.6198 54.933 74.485 55.1766 75.4331 55.5038C76.1011 56.8463 76.4366 57.2031 77.6448 58.0983C79.604 56.5552 81.1429 54.5782 83.152 53.1215C83.4071 52.9365 84.0402 53.033 84.3442 53.0738L84.3298 53.4021C82.1455 53.7768 80.0533 57.5209 77.9216 58.4C76.7477 58.884 75.4546 56.3417 74.605 55.838C74.0464 55.507 73.4119 55.2987 72.8404 55.079C72.7528 54.9516 72.6625 54.8261 72.5696 54.7025C71.9564 53.8874 70.7464 52.7781 70.2251 51.8851C68.7574 49.3706 67.8055 51.2943 66.2383 51.0724C65.6021 50.6464 65.7808 50.7452 65.4141 49.9688L66.1188 49.9713Z" fill="black"/>
<path d="M91.5276 158.434L91.5937 159.166L91.8748 159.313C91.6506 160.877 92.1283 164.134 92.2438 165.916C92.4506 169.194 92.5671 172.477 92.5932 175.762L92.1045 175.466C91.7858 176.878 91.9733 183.934 91.8945 185.903C91.8297 184.373 91.8197 182.796 91.7914 181.262C92.0719 179.102 91.5063 167.594 91.2337 165.017C91.1598 162.502 90.9209 160.893 91.5276 158.434Z" fill="black"/>
<path d="M71.8987 130.227C71.9179 130.955 71.8393 131.673 72.3403 132.184L72.3576 131.792C72.7417 132.211 72.6467 131.989 72.6163 132.715C71.7184 134.054 72.4998 137.304 72.2674 139.043C72.0454 140.727 72.098 143.134 72.0846 144.878C72.055 148.356 72.0604 151.834 72.1007 155.312L72.0662 157.686C72.0017 158.392 71.9782 158.769 71.7858 159.45L71.6387 159.175L71.8048 159.289C71.4312 158.833 71.541 153.177 71.5314 152.216C71.6882 150.004 71.5175 146.727 71.571 144.404C71.6537 140.816 71.7361 137.181 71.7135 133.598C71.8311 132.678 71.746 131.426 71.8987 130.227Z" fill="black"/>
<path d="M91.8927 185.906C91.9715 183.937 91.7839 176.88 92.1026 175.469L92.5913 175.764C92.6072 177.626 92.5406 180.775 92.6817 182.54C92.406 186.442 92.8721 191.073 92.6434 194.869C92.5603 195.725 92.4779 196.505 92.3532 197.36C92.1212 197.089 92.0511 196.117 91.9648 195.642C91.7968 194.44 91.8978 187.463 91.8927 185.906Z" fill="black"/>
<path d="M78.4159 13.3086C80.2629 13.7601 86.5028 15.8065 88.1732 16.6261C89.2113 18.0331 93.296 21.7816 93.3657 22.9559C92.8329 23.4645 92.909 23.2435 92.8353 23.8842C92.8008 23.686 91.6772 21.778 91.4881 21.5032C90.8135 20.2731 87.7631 16.8475 86.3245 16.4035C85.4355 16.1053 84.905 15.9654 83.9862 15.776C83.3231 15.6637 79.2089 14.1322 78.0391 13.7703L78.4159 13.3086Z" fill="black"/>
<path d="M64.4379 34.8117C64.6916 34.6038 65.017 34.0365 65.2151 33.8876C65.9015 33.372 69.0765 31.403 69.6559 31.3984C69.722 32.7558 68.2483 32.5682 67.9902 33.3744C68.7023 33.6172 69.2114 33.7155 69.6844 34.2874L69.739 34.5622C67.3931 34.4 66.7727 34.7924 64.8399 36.0984C64.5142 36.128 63.3261 36.6991 62.8949 36.8735L62.8125 36.6639C63.1487 36.1333 63.4914 35.6066 63.8403 35.0842L64.4379 34.8117Z" fill="black"/>
<path d="M68.4272 74.4652C67.5378 75.4057 66.6758 76.0268 65.9497 77.1307C65.3709 78.0107 65.1895 79.1693 64.5595 79.8862L64.3474 79.8009L64.2891 79.2869C65.3022 77.0328 65.8944 76.2377 67.5058 74.4444C70.2253 71.4181 71.4159 70.344 75.648 70.1211C75.6913 70.569 75.7576 70.9417 75.6788 71.3838L75.4091 71.0896C74.7029 71.4421 72.31 71.4941 71.2217 71.813L70.1476 72.8896C69.5202 73.3752 68.877 73.8122 68.4272 74.4652Z" fill="black"/>
<path d="M64.9688 41.7055C65.5675 39.1358 67.7562 38.6512 69.8888 37.332C68.3829 38.9058 64.3554 41.8705 69.152 42.2835C69.4732 41.9205 70.0839 41.1251 70.4893 41.0098C70.7126 41.9034 69.8344 42.9178 69.4942 43.8652C68.4868 43.3165 66.785 42.897 65.69 42.4253C65.0502 42.1496 65.2497 42.3684 64.9688 41.7055Z" fill="black"/>
<path d="M109.052 31.8058C107.835 30.9983 106.574 29.3652 105.223 29.6071C104.623 30.0061 104.796 29.9128 104.503 30.7155C104.748 30.5609 101.199 31.6049 101.649 31.5961C101.664 31.0427 102.108 30.0631 102.554 29.7287C105.672 27.3918 107.798 28.4204 109.817 31.5558L109.052 31.8058Z" fill="black"/>
<path d="M72.6545 138.754C72.8898 144.796 72.9539 154.368 72.7386 160.4C72.6392 159.092 72.8847 157.48 72.6992 156.132C72.619 155.549 72.5246 155.592 72.0974 155.309C72.0571 151.831 72.0517 148.353 72.0813 144.875C72.0947 143.132 72.0421 140.724 72.2641 139.04L72.6545 138.754Z" fill="black"/>
<path d="M81.0322 34.6972C81.7373 33.7507 81.5129 32.7267 82.7512 32.2483C84.9338 32.1433 85.8935 35.8117 86.3824 37.3035C86.4041 37.6411 86.4523 38.007 86.3723 38.3291C85.9558 37.4484 85.937 36.102 85.0303 34.9162L84.7736 34.8862C84.6625 35.5102 84.5761 36.2141 84.2964 36.7727C83.306 36.3454 84.2307 34.3209 83.7066 33.4233C82.6282 33.6336 81.1727 36.0495 80.8345 37.0737L80.2656 36.6124L81.0322 34.6972Z" fill="black"/>
<path d="M79.701 220.496C79.8961 222.037 79.893 223.356 79.9087 224.899C79.9396 224.854 79.9703 224.807 80.0012 224.762C80.0113 223.936 79.9772 218.769 80.1972 218.477C80.2962 219.649 80.112 222.24 80.4881 223.076C80.5074 222.074 80.5338 221.882 81.0073 221.002C80.9994 223.152 80.9349 226.106 80.5571 228.147C80.513 228.953 80.4682 229.669 80.4935 230.478C80.0843 230.595 80.2643 230.621 79.9313 230.507C79.4061 229.381 79.6755 222.202 79.701 220.496Z" fill="black"/>
<path d="M101.981 58.5981C104.818 57.9687 113.057 61.2697 115.114 63.2197L115.057 63.3929C114.731 63.291 113.83 63.0496 113.588 62.9197C110.035 61.0148 106.218 58.7869 101.891 59.3283L101.981 58.5981Z" fill="black"/>
<path d="M131.477 193.742C134.671 192.98 136.151 192.751 139.404 192.832C138.666 193.036 138.5 192.944 138.101 193.428C138.604 193.898 139.536 193.858 140.22 193.883C138.737 194.059 137.112 194.142 135.598 194.266C134.209 194.382 132.208 194.765 130.93 194.807C131.315 194.635 131.722 194.422 132.103 194.232L132.13 193.995L131.477 193.742Z" fill="black"/>
<path d="M74.4425 99.1993C75.1804 99.468 76.327 99.9914 77.0277 99.8291C77.6304 99.1039 77.1193 98.8897 77.5969 98.5938C78.4453 99.4123 77.527 100.183 77.9677 101.338C78.1812 101.475 78.222 101.543 78.4562 101.565C78.306 101.919 78.2255 101.93 77.8755 102.138L77.8022 102.586C76.8412 101.706 75.5189 101.862 74.3047 100.862C74.4362 100.373 74.4248 99.7195 74.4425 99.1993Z" fill="black"/>
<path d="M84.1398 57.793L84.6612 58.0316C84.1512 59.3991 83.3807 61.5996 83.5352 63.0255C82.9791 63.7274 82.174 63.5347 81.9892 63.787C81.0593 65.0573 79.5942 66.9797 78.6448 68.1586L77.8984 68.2876C78.3571 67.5635 78.6133 66.988 78.9685 66.2182L79.044 66.1646C81.1677 64.6392 80.737 63.956 82.5471 62.6554C82.8703 61.3157 83.6763 59.157 84.1398 57.793Z" fill="black"/>
<path d="M71.8288 216.338C72.5348 214.289 71.8705 212.577 72.4541 210.582C72.5075 214.647 72.5048 218.705 72.7988 222.757C72.8176 223.017 72.6282 223.772 72.4508 223.991C71.7231 223.18 71.8405 217.68 71.8288 216.338Z" fill="black"/>
<path d="M77.6708 37.0023C78.6153 37.1421 79.3946 36.9827 80.2664 36.6133L80.8353 37.0745C80.5196 37.545 80.3211 37.6454 79.8647 37.9531C79.4613 38.8335 79.9565 39.2002 79.4342 39.8761C78.3992 39.938 78.1137 38.3422 77.4709 37.7276C77.1389 37.4102 76.2748 37.6019 75.8984 37.2243C76.4032 36.9419 77.0641 37.0071 77.6708 37.0023Z" fill="black"/>
<path d="M86.2202 53.0977C86.5793 53.4595 88.1334 54.9305 88.2264 55.1724C89.3135 57.9982 87.9721 59.7555 91.5958 61.1137L90.6278 61.0088L90.531 61.3504C88.057 60.75 88.0346 57.4665 87.8801 55.4528C86.851 54.724 86.5016 54.6001 85.8281 53.5166L86.2202 53.0977Z" fill="black"/>
<path d="M84.1644 46.9342C83.7425 45.8905 84.1201 44.3462 83.8565 43.1755C83.5472 41.8013 82.6242 42.535 82.4219 41.1882C82.8074 40.6357 84.9385 39.6832 85.6867 39.8467L85.5712 39.9598C84.566 40.9273 84.069 40.5481 83.8587 41.2978C84.104 41.7755 84.5947 42.3945 84.6039 42.8842C84.6276 44.1252 84.7158 45.8222 84.1644 46.9342Z" fill="black"/>
<path d="M93.5612 238.109C93.754 240.147 93.8859 243.065 94.1701 244.982H92.9051C92.8646 243.43 92.8917 241.782 92.8915 240.221C92.999 239.726 92.9978 239.569 93.3107 239.161L93.1988 239.417C93.56 239.067 93.4819 238.722 93.5612 238.109Z" fill="black"/>
<path d="M64.0656 97.5156C64.355 98.0502 64.7882 98.7832 64.9575 99.3396C64.488 99.9121 64.7031 101.051 64.7765 101.805L64.8184 102.219C64.6316 104.061 64.082 106.445 63.9962 107.948C63.9474 105.916 64.3671 98.8907 64.0656 97.5156Z" fill="black"/>
<path d="M167.657 156.594C169.263 161.443 168.157 161.456 168.799 165.214C166.626 163.767 169.206 160.594 167.263 158.343L167.195 158.216C167.718 157.529 167.56 157.589 167.657 156.594Z" fill="black"/>
<path d="M69.6875 34.2891C70.918 34.4703 71.3355 34.6535 72.4797 35.108C73.4437 35.9714 74.3223 36.4601 75.1855 37.2686L75.1506 37.437C72.9064 36.9555 72.2419 35.5125 69.7421 34.5639L69.6875 34.2891Z" fill="black"/>
<path d="M97.1797 60.2123C97.6648 60.0475 98.1739 59.6818 98.6588 59.4265C99.7437 58.8556 100.78 58.7541 101.977 58.5977L101.887 59.3279C100.596 59.7024 99.8685 59.6144 98.8458 60.4153C98.2212 59.9656 97.9925 60.136 97.1797 60.2123Z" fill="black"/>
<path d="M100.805 40.02C103.155 39.881 102.885 38.6442 104.076 38.6887C104.384 38.9983 105.052 41.4942 105.087 41.7871L104.954 42.23C104.39 41.3786 104.308 40.4977 103.662 39.9522C102.919 39.8176 102.909 39.9956 102.075 40.3822C101.693 40.1873 101.23 40.1145 100.805 40.02Z" fill="black"/>
<path d="M65.1953 44.3383L65.5109 44.0859C65.8967 44.3414 65.9991 44.8037 66.1765 45.2631C65.5377 47.6 66.2379 47.9606 66.1207 49.9698L65.4159 49.9673C65.4161 47.0916 65.9718 47.3189 65.1953 44.3383Z" fill="black"/>
<path d="M89.0508 154.629L89.341 154.948C89.229 156.161 88.9419 161.247 89.3475 162.205L89.0915 162.609L88.6951 163.877C88.6057 163.149 88.9296 154.897 89.0508 154.629Z" fill="black"/>
<path d="M71.9295 161.799C71.7868 161.974 71.7862 161.951 71.5994 162.086C71.145 161.325 71.3855 153.495 71.5317 152.215C71.5412 153.176 71.4314 158.831 71.805 159.288L71.639 159.174L71.786 159.449C71.9784 158.768 72.0019 158.391 72.0664 157.684C72.1618 159.132 72.0399 160.353 71.9295 161.799Z" fill="black"/>
<path d="M72.2671 139.042C72.4994 137.304 71.718 134.053 72.6159 132.715C72.8909 135.428 72.6304 136.325 72.6575 138.757L72.2671 139.042Z" fill="black"/>
<path d="M71.4766 91.447L72.2214 91.2773L72.239 91.4289C72.4886 93.5183 73.8803 94.3709 73.2216 95.4303C72.7201 94.9873 72.0251 93.409 71.7546 92.7337C71.6122 92.3785 71.8083 92.0844 71.4766 91.447Z" fill="black"/>
<path d="M61.5391 37.6036L61.8547 37.2383C61.8823 38.3691 63.5748 40.5076 64.1162 41.6662C63.9925 41.6669 63.7258 41.6071 63.5909 41.582C62.9426 41.0138 62.3822 40.0052 61.91 39.2543C61.8256 38.5147 61.8102 38.2937 61.5391 37.6036Z" fill="black"/>
<path d="M88.6953 163.877L89.0917 162.609C89.2127 163.861 89.4705 166.731 89.0422 167.875C88.6153 167.357 88.7101 164.736 88.6953 163.877Z" fill="black"/>
<path d="M90.9302 244.762C90.9131 243.887 90.7658 240.637 91.1766 240.113C91.4982 240.939 91.4171 242.104 91.4171 243.018C91.3651 243.846 91.4151 244.11 90.9302 244.762Z" fill="black"/>
<path d="M95.9531 29.2803L96.5195 29.2734C96.6667 30.3833 96.9838 31.7126 96.4286 32.6703C96.1479 32.7211 96.2185 32.7671 96.0519 32.6685C96.2476 31.4335 96.2017 30.5039 95.9531 29.2803Z" fill="black"/>
<path d="M84.1406 57.7922C84.6936 57.179 84.832 56.7403 85.483 56.0938C85.5849 56.4988 85.4494 56.8115 85.339 57.2263C85.1599 57.4684 84.8933 57.8933 84.662 58.0308L84.1406 57.7922Z" fill="black"/>
<path d="M81.4363 102.574L81.5978 102.614C81.3983 103.391 81.8274 103.786 81.8449 104.591L81.5123 104.935C81.0375 104.053 80.8123 103.414 81.4363 102.574Z" fill="black"/>
<path d="M109.821 31.5586C109.976 31.772 110.267 32.1403 110.359 32.3703L109.97 33.1244C109.743 32.3891 109.643 32.3172 109.055 31.8086L109.821 31.5586Z" fill="black"/>
<path d="M84.3426 53.0742L86.2229 53.0988L85.8309 53.5177C85.5162 53.5313 84.6855 53.4355 84.3281 53.4025L84.3426 53.0742Z" fill="black"/>
</g>
<defs>
<clipPath id="clip0_1209_2980">
<rect width="185" height="244.98" fill="white" transform="translate(15)"/>
</clipPath>
</defs>
</svg>
