<svg width="212" height="249" viewBox="0 0 212 249" fill="none" xmlns="http://www.w3.org/2000/svg">
<g clip-path="url(#clip0_1209_2983)">
<path d="M127.974 14.7502C127.63 13.8974 127.84 13.8505 128.471 13.1953L130.09 14.6518C130.972 17.4553 129.516 17.6905 132.668 17.8444C132.046 17.8141 138.984 22.0243 139.054 22.0801C139.62 21.9017 139.557 21.1564 140.313 20.982C141.211 21.4238 141.161 22.3326 141.296 23.2544C140.585 23.8593 140.41 23.5604 140.402 24.6715C140.393 26.0436 140.343 27.0262 140.171 28.3925C139.44 28.728 138.707 29.0588 137.972 29.385L137.536 29.1881C137.348 28.5072 137.832 28.0779 138.252 27.5446C137.068 26.8926 137.017 27.7733 136.237 28.123C136.109 28.1804 134.498 28.2639 134.232 28.2855C133.527 27.9614 133.71 27.1172 132.926 27.3897C132.186 27.6464 131.368 28.7503 130.869 29.3825C129.84 29.3877 128.853 29.2479 128.107 29.9792C127.731 30.3465 127.525 30.8539 127.538 31.3793C127.562 32.8173 128.82 34.4844 129.549 35.7214C132.514 36.0506 132.447 35.547 134.095 38.2106C137.25 39.396 137.337 42.8385 140.201 43.6423C141.009 44.4894 141.727 45.8906 142.242 46.3146C142.957 46.9311 143.617 48.5373 144.518 49.3988C145.153 49.3934 144.992 49.297 145.351 49.6323L145.48 50.1399C145.624 50.9809 146.152 51.3971 146.928 51.7262L147.205 51.6125L147.342 51.1625L147.976 51.5566C147.535 53.0311 147.324 53.5736 148.437 54.7527C149.029 53.8094 148.835 48.4643 149.043 46.7536C149.288 45.7175 148.98 45.0104 149.696 44.2009C150.355 45.1463 150.58 45.1454 151.064 45.7391C150.954 47.5216 151.046 49.3094 151.013 51.095C150.939 54.9964 150.717 58.9035 150.932 62.8043C150.964 63.3925 151.031 63.9847 150.986 64.5732C151.122 66.0833 151.019 67.9692 150.977 69.5132C150.936 71.6785 150.455 73.9122 150.478 76.0433C150.506 78.6228 150.211 81.7484 150.451 84.2913C150.068 88.5728 150.395 93.9207 150.404 98.3083C150.42 107.493 150.253 116.672 150.434 125.854C150.442 126.262 150.254 126.473 150.017 126.764C149.233 127 149.356 126.845 148.857 127.385C148.735 128.155 148.379 130.905 148.383 131.669C146.964 132.673 147.016 133.912 146.221 134.897C145.442 135.863 144.879 134.866 144.163 137.059C143.793 137.264 142.14 138.155 141.94 138.391C138.319 142.674 133.967 146.113 130.095 150.135C128.441 151.853 129.118 151.64 129.458 153.678L129.005 153.687C128.85 153.168 128.769 152.657 128.321 152.365C127.204 152.423 115.071 162.94 114.11 164.705C113.06 165.716 105.715 172.971 105.442 173.685C104.095 174.776 103.475 175.991 102.687 177.493C103.841 179.894 103.615 185.544 102.703 188.08C101.764 190.69 100.268 193.703 99.5875 196.415C98.3417 201.379 97.7579 206.795 96.8595 211.884C96.3488 214.779 95.6857 217.982 95.5265 220.874C95.4563 222.149 95.7721 223.516 96.3211 224.671C96.4238 224.887 96.5291 225.1 96.6371 225.312C96.2117 229.167 97.5354 233.436 92.9965 235.094L92.885 235.108C88.7345 236.439 84.1212 236.959 80.0013 238.693C79.2275 239.018 76.7351 238.655 76.1965 239.104L76.383 239.571L76.2078 239.733C73.7462 239.732 61.1838 237.853 59.6878 236.622C59.1352 235.834 59.3632 232.743 59.3867 231.62C60.3018 231.44 62.4211 230.481 63.326 230.038C66.795 228.285 70.5425 226.683 74.1358 225.181C75.3601 224.669 78.3812 224.704 79.1155 223.52C80.1972 221.774 77.1242 220.557 76.1455 219.658C72.7588 216.473 68.8733 214.388 65.0414 211.88C65.171 210.464 67.5671 201.45 67.532 201.303C65.4935 200.831 61.043 201.269 62.2752 197.502C62.9545 195.426 67.0219 193.67 68.8776 192.637C69.3523 192.372 70.0211 192.699 70.6241 192.358C70.9301 191.72 70.8727 192.002 70.8241 191.281C70.2691 190.688 69.642 190.17 69.0266 189.641L73.8898 171.172C75.1522 166.213 75.9277 162.1 77.6946 157.24C79.2264 153.027 80.1882 149.137 82.4391 145.114C84.297 141.793 86.7215 139.923 89.4713 137.363C92.8705 134.08 95.298 131.795 96.4786 127.078C96.6006 126.59 97.9008 124.915 98.2451 124.26C99.8658 121.181 101.321 118.722 101.679 115.185C101.949 114.927 102.058 114.785 102.393 114.633C102.819 115.215 102.404 116.253 102.593 117.422C102.64 119.69 103.702 122.985 104.953 124.962C104.961 124.023 104.9 121.868 105.65 121.312C106.056 121.562 106.227 121.773 106.553 122.111L106.865 122.063L107.121 121.534C107.099 121.094 107.147 121.003 106.714 120.64C105.292 119.448 105.746 116.798 104.594 115.687L104.481 115.255C104.849 115.262 105.355 115.836 105.696 116.141C105.939 117.402 106.416 120.312 107.977 120.287C109.052 119.633 109.502 117.93 109.064 116.785L108.967 116.713C108.569 116.416 108.157 116.16 108.091 115.69C108.704 116.02 109.639 116.671 110.236 116.622C110.692 115.863 111.355 114.914 110.869 114.035L110.51 114.069C110.374 114.002 110.158 113.842 110.025 113.751L110.047 113.491C110.609 113.223 110.189 113.725 111.034 113.678C111.038 113.675 113.746 108.134 114.086 107.457C114.703 106.229 115.338 105.009 116.134 103.886C117.182 102.408 118.676 101.13 119.279 99.3809C119.987 97.3281 118.682 95.4279 118.794 93.3532C118.886 91.6388 119.674 89.8974 119.903 88.1673C120.261 85.4622 120.102 82.6763 120.372 79.9548C120.586 77.7965 121.21 75.7021 121.448 73.5475C121.815 70.2239 121.344 66.7003 121.981 63.4348C122.71 59.7036 125.285 53.932 127.837 51.1262C128.272 50.6485 128.897 50.2699 129.431 49.9082C129.236 50.8912 128.409 51.13 128.063 51.814C127.529 52.5096 127.324 52.4887 127.737 53.374C125.043 58.9806 123.934 58.4925 122.678 65.388C122.061 67.0797 122.19 71.2441 122.43 73.0452C122.585 74.7922 122.589 76.2461 122.495 77.9872C122.478 78.299 122.329 79.5258 122.332 79.6642C121.833 80.0811 121.58 79.9259 121.549 80.5317C121.521 81.0679 121.359 81.2676 121.566 81.806C122.516 81.6852 123.245 79.6813 123.982 79.3826C123.9 81.2626 122.248 82.3766 121.851 83.4951C121.046 85.766 120.43 89.3259 120.084 91.7469C120.848 91.4198 122.738 90.5246 123.521 90.725L123.543 90.9462C122.217 92.4746 119.675 92.0063 119.663 94.6997C119.661 95.1476 119.71 95.1057 120.013 95.3719C121.297 95.4869 123.938 93.1107 124.956 92.31C126.939 90.7507 125.418 90.0636 128.64 91.0752C129.293 91.2805 129.165 90.9976 129.824 91.586C129.918 92.1178 129.991 92.0164 129.766 92.3382C127.807 91.6432 128.776 91.1237 126.407 92.2632C124.763 93.0538 123.997 93.8584 122.85 95.2108C121.718 95.4616 121.508 95.7323 120.6 96.4859C119.831 102.157 118.488 101.34 116.022 105.553C113.969 109.061 112.42 114.496 110.43 118.218C109.214 120.491 106.691 122.439 106.119 124.847L106.068 125.067L104.585 126.154C104.262 127.189 104.033 128.126 103.443 129.052C102.008 131.309 99.4893 132.784 98.0147 134.952C97.1045 136.29 97.0711 138.965 96.6953 140.587C96.3491 142.082 94.897 145.581 95.6669 146.877C97.1155 146.573 96.9368 144.181 97.8975 143.022C99.5932 140.976 101.562 140.042 103.621 138.49C105.068 137.399 106.3 135.932 107.86 134.911C108.929 127.742 128.878 116.298 130.003 107.241C130.094 106.513 130.375 102.844 130.538 102.667C130.845 103.001 130.875 103.959 130.933 104.47C131.482 104.024 133.144 100.284 133.412 99.487L132.949 99.356C131.506 96.7364 130.864 95.2132 129.838 92.4405C130.205 91.5346 130.562 90.6251 130.91 89.7119C131.138 94.9555 130.721 95.1225 134.728 99.3527C135.278 95.9446 135.088 92.6613 133.745 89.4146L132.985 88.9329C133.377 88.7953 133.558 88.9171 134.017 89.0195C134.724 89.6879 135.682 91.2575 136.371 92.146L136.645 92.1045C136.736 91.844 136.798 91.7291 136.781 91.4496C136.999 90.6662 137.41 89.8179 137.745 89.0658C135.907 85.1275 137.268 82.7237 139.299 79.2926C140.364 76.5086 140.823 72.435 141.824 70.0637C142.215 70.2533 142.086 70.128 142.276 70.5442C141.335 73.2127 139.442 81.1049 139.271 83.7974C139.103 84.6607 138.968 85.4006 138.858 86.2801C138.412 89.6768 137.545 91.2672 136.533 94.537C136.019 96.1987 135.58 98.5458 135.071 99.9656C132.256 101.486 131.259 108.294 129.013 111.748C127.028 114.803 124.687 116.894 123.011 119.447C122.653 119.973 122.637 119.814 122.709 120.288C124.102 121.01 129.51 120.642 130.603 121.431C129.668 122.268 122.54 122.171 121.041 122.384C119.974 122.406 117.906 123.782 118.879 125.09C119.411 125.228 119.615 125.211 120.147 125.206C122.207 125.206 131.38 125.581 132.998 126.394C136.033 127.128 141.486 126.962 144.658 126.923L146.838 126.821C147.619 126.09 148.326 125.554 149.172 124.903C147.415 125.518 145.086 126.348 143.168 125.943C143.666 125.262 146.489 125.113 147.465 124.682C149.835 122.847 148.705 108.002 148.742 104.502C148.899 94.9351 148.969 85.3673 148.951 75.7994C148.982 69.4086 149.73 62.9939 147.884 56.7498C146.793 53.0584 143.214 49.5517 140.669 46.7597C139.908 45.9243 139.566 43.5512 138.038 43.2757C137.567 43.6661 137.581 44.2685 137.409 44.9869L137.084 45.0547C136.717 44.4087 136.676 42.3988 136.351 41.4059C135.643 39.2429 134.614 39.8007 132.984 38.7075C132.58 38.4365 131.991 36.9942 131.324 36.6276C131.045 37.0981 131.443 38.4116 131.417 39.0425C131.388 39.7825 131.027 40.7099 130.785 41.4141C127.692 43.9904 126.112 46.7674 124.503 50.468C124.017 51.5864 123.492 53.5679 122.97 54.5855C121.608 57.2374 119.934 59.9144 118.515 62.5566C118.217 63.113 117.158 63.5735 116.861 64.0789C116.075 65.4299 115.328 66.769 114.485 68.0916C112.379 71.3946 110.115 74.6655 108.32 78.1499C107.969 78.83 107.942 80.0989 107.291 80.5705C106.007 79.0438 110.239 74.1243 110.491 72.9678C111.386 68.8599 112.427 65.693 114.854 62.2001C114.961 62.0461 115.276 62.061 115.484 62.0321C115.826 61.3817 115.64 60.7907 115.573 59.9685C115.982 59.8717 116.317 59.7185 116.671 59.8191C116.125 62.3936 116.609 61.5902 114.836 63.4258C114.338 63.9406 113.78 67.0346 112.794 67.6752C112.347 67.9654 111.783 69.0387 112.131 69.6022C113.412 69.3453 115.67 64.6325 116.549 63.5434C117.094 62.8679 117.68 62.3967 118.342 61.8415C119.089 59.3215 119.201 59.9119 120.506 57.9482C120.63 57.516 121.093 56.6265 121.309 56.1806C121.682 55.3245 122.451 54.3145 122.672 53.5157C124.036 48.589 126.057 44.9691 129.582 41.2187C129.83 40.9551 130.841 39.3419 130.642 39.0171C129.13 36.5441 126.858 34.3088 126.458 31.2578C126.281 29.866 126.645 29.022 127.489 27.971L128.372 27.9192C130.396 29.5416 132.648 27.0814 131.221 25.7755C130.944 25.2213 131.043 22.6209 131.045 21.8499C131.794 21.0466 132.733 20.2575 132.523 19.1096C130.785 17.8642 123.019 21.267 121.623 18.2929C122.499 17.9202 125.954 19.6182 127.066 18.2803L126.871 17.9413C125.597 17.2022 125.222 17.8694 124.358 17.7356L124.128 17.3799L124.214 17.0572C125.032 16.6403 126.887 17.0223 127.948 16.8045L128.461 16.7118L128.629 16.8033L128.835 16.7059C128.879 15.9615 128.442 15.2889 127.974 14.7502ZM89.2591 223.641C89.9856 223.159 92.6805 221.349 93.2561 221.157C94.9331 218.678 95.0553 215.135 95.651 212.231C96.5778 207.713 97.1928 203.034 98.1461 198.529C98.7576 196.913 99.1372 193.49 99.8466 192.089C102.666 186.521 102.508 184.753 102.378 178.61C100.643 180.113 100.07 178.895 99.6131 179.31C99.3578 179.541 99.3655 179.875 99.0019 180.081C98.7436 179.894 98.7274 179.868 98.5288 179.609L98.4776 179.541C98.0503 179.543 97.8249 179.586 97.4517 179.377C97.3695 178.89 97.3243 179.056 97.5433 178.691C99.4544 178.178 98.9047 176.779 99.9375 176.083C103.95 173.381 107.439 170.206 110.577 166.52C111.704 165.196 111.831 163.309 113.146 162.073C114.157 161.123 115.423 160.856 116.659 160.322C120.503 158.079 125.022 152.797 128.477 150.332C129.987 149.548 141.318 137.846 143.191 136.09C143.57 135.734 144.684 134.014 145.022 133.482C146.823 132.138 146.94 130.639 147.054 128.547C147.179 127.995 147.209 128.189 147.03 127.741C146.531 127.52 145.015 127.632 144.345 127.637C142.853 128.071 133.44 127.476 131.437 127.416C129.984 127.372 128.325 127.494 126.829 127.566C125.816 127.73 124.337 127.789 123.449 128.026C123.062 128.129 122.355 129.072 121.457 129.261C119.054 129.765 116.592 129.973 114.193 130.467C113.385 130.504 112.543 130.468 111.985 131.076C111.831 131.522 111.849 131.582 111.991 132.035L111.428 132.708C110.715 133.102 110.093 133.468 109.325 133.754C108.875 135.406 108.077 136.359 107.473 137.852C106.921 138.169 106.398 138.39 106.104 138.944L106.144 139.25C107.942 140.306 111.751 137.897 115.035 138.888C112.709 139.5 106.939 140.197 104.408 140.605C103.218 142.417 103.347 141.472 102.143 142.47L102.034 143.094C103.523 143.556 108.06 142.163 109.092 142.667L108.966 142.863C106.68 143.068 102.202 143.944 100.004 144.955C99.2392 145.306 97.7458 146.647 97.1173 147.239C90.25 153.704 81.982 161.133 79.1822 170.408C78.7578 171.814 78.6204 173.429 78.1551 174.893C76.5163 180.209 74.6611 185.456 72.5938 190.619C72.1096 191.39 71.72 192.856 71.496 193.758C71.1669 195.113 71.099 196.46 70.705 197.715C70.6635 197.846 70.2366 197.95 70.0513 198.016C69.364 201.243 67.3877 204.065 66.7839 207.414C65.6769 212.779 66.1786 211.422 69.7118 213.417C77.4172 217.766 79.3528 224.014 89.2591 223.641ZM73.1241 177.785C72.3471 179.963 70.0166 188.471 71.0438 190.201L71.297 190.134C71.4991 189.708 71.9767 188.369 72.0514 188.25C73.0928 186.566 74.6002 183.482 74.8927 181.572C75.6026 179.529 76.4268 176.802 77.0449 174.734C78.0068 171.68 78.6531 167.552 80.2905 164.791C83.0923 160.066 87.329 155.441 91.1855 151.514C92.5101 150.166 93.6568 149.534 94.7775 147.946C94.6161 142.914 96.0235 141.052 96.7296 136.286C96.1659 135.152 95.7996 134.069 95.3723 132.879L95.1732 132.826C93.2013 134.12 86.1239 141.992 84.1961 144.166C83.6926 144.734 80.5346 151.633 80.0421 152.811C79.5654 153.731 79.0104 155.282 78.762 156.292C78.2464 158.248 77.3308 160.938 76.7545 162.938C75.8774 165.982 74.262 175.476 73.1241 177.785ZM68.7993 233.407C69.1813 233.806 71.1126 235.815 71.393 235.989C74.2284 236.89 80.0798 235.258 82.8378 233.659C85.8686 231.903 91.3917 226.908 94.1771 224.4C94.8567 223.788 94.696 222.848 93.953 222.308C92.526 222.071 91.973 223.637 90.6237 224.013C88.3207 224.654 86.4563 224.77 84.0894 224.395C82.8019 224.192 81.1003 222.602 80.2696 222.808C80.0916 223.364 80.4597 223.613 80.5368 224.427C80.0791 224.804 79.0294 224.858 78.3957 224.946C76.1125 225.267 75.5331 225.335 73.4342 226.234C68.4991 228.296 68.5936 228.144 68.7993 233.407ZM79.145 235.989C76.806 236.762 72.5018 237.818 70.3294 236.302C69.343 235.602 67.7373 232.895 67.2578 231.717C66.9949 231.07 67.0594 230.097 66.5832 229.321C65.9566 229.426 66.0589 229.851 65.8685 229.922C64.1315 230.562 61.8025 231.421 60.2261 232.258C60.1974 233.493 60.1243 234.83 60.3051 236.045C61.258 236.188 61.3935 236.515 62.3245 236.79C63.9631 237.275 65.5082 237.486 67.2003 237.718L68.5449 238.001C70.5266 238.148 72.6218 238.748 74.5575 238.651C77.9501 238.485 81.1083 237.72 84.2837 236.56C85.0949 236.231 86.1507 236.344 87.1311 235.664C87.6877 235.454 88.7564 235.338 89.3663 235.222C94.4106 234.257 95.7571 233.338 95.6062 228.113C95.7122 227.093 96.0461 225.66 95.4473 224.913C94.6085 225.202 91.2099 228.279 90.9487 228.752C89.821 229.276 89.4038 229.632 88.4991 230.474C86.3768 232.143 85.266 233.381 82.6029 234.588C81.5843 235.049 79.9585 235.559 79.145 235.989ZM131.856 25.7428C134.323 26.7194 134.02 27.5583 136.453 27.3578C137.504 25.2891 137.155 26.7466 138.572 25.688C138.869 25.1193 138.681 24.0622 138.622 23.3765C138.014 23.2703 137.778 23.3545 137.488 22.9708C137.633 22.2242 137.782 22.1949 137.476 21.7192C136.821 21.5121 136.444 21.4383 135.764 21.3202C136.036 22.6317 136.555 23.898 136.74 24.887L136.611 25.0445C135.904 24.6613 136.058 23.8833 135.566 23.6734C135.12 23.4835 134.375 23.8064 133.893 23.4999C133.629 22.409 134.441 21.3647 133.301 20.6968C131.171 22.6021 131.734 22.9309 131.856 25.7428ZM64.6723 199.983C68.9203 200.221 69.1331 199.931 68.817 195.753C68.775 195.198 69.1284 194.249 68.897 193.796C68.6699 193.76 68.5992 193.724 68.3762 193.762C66.3535 194.699 66.5642 195.508 64.2542 196.116C62.8138 197.644 61.854 199.412 64.6723 199.983ZM122.219 127.511C124.148 126.878 125.865 126.983 127.193 126.442L127.162 126.214C126.482 125.911 125.712 125.889 124.967 125.818C123.564 125.821 122.186 125.812 120.783 125.764C118.888 125.7 116.716 124.872 115.105 126.203C114.776 126.877 114.84 126.604 114.921 127.355C115.541 128.033 121.207 127.897 122.219 127.511ZM103.935 125.247C103.643 124.436 103.437 123.754 102.953 123.032C102.633 122.067 102.456 121.026 102.258 120.026C102.032 120.205 101.044 121.018 100.973 121.178C100.456 122.347 97.9727 126.402 97.6441 127.234C96.5904 129.169 95.9787 131.803 96.6347 133.97C96.9292 134.306 96.7496 134.219 97.1824 134.255C98.5856 133.407 99.1913 132.624 100.242 131.402C102.636 128.872 102.892 128.543 103.935 125.247Z" fill="black"/>
<path d="M104.258 164.405C104.854 163.52 106.722 162.298 107.692 161.789C106.613 163.062 106.057 163.56 104.761 164.631L104.258 164.405Z" fill="black"/>
<path d="M104.257 164.406L104.761 164.633C104.467 165.059 104.103 165.762 103.578 165.766C103.573 165.19 103.902 164.87 104.257 164.406Z" fill="black"/>
<path d="M111.997 132.037C111.855 131.584 111.837 131.523 111.991 131.078C112.549 130.47 113.391 130.505 114.199 130.469C113.567 130.662 112.757 130.828 112.332 131.3L112.375 131.56C113.16 131.903 115.231 131.988 116.241 132.13C114.794 132.284 113.314 132.61 111.997 132.037Z" fill="black"/>
<path d="M149.696 44.2031C150.355 45.1485 150.581 45.1476 151.064 45.7413C150.954 47.5238 151.047 49.3116 151.013 51.0971C150.94 54.9986 150.718 58.9057 150.932 62.8064C150.965 63.3947 151.032 63.9869 150.987 64.5754C150.425 62.9252 150.87 59.3902 150.464 58.7417L149.526 58.6993C148.224 57.6772 149.544 56.2459 148.438 54.7549C149.03 53.8116 148.835 48.4665 149.043 46.7558C149.289 45.7197 148.98 45.0126 149.696 44.2031Z" fill="black"/>
<path d="M132.998 126.395C136.032 127.128 141.485 126.962 144.657 126.923L143.761 127.111L143.694 127.267C143.836 127.35 144.216 127.584 144.345 127.637C142.852 128.071 133.439 127.476 131.436 127.416C129.984 127.372 128.324 127.494 126.828 127.566C127.549 127.36 128.21 127.202 128.944 127.043C130.171 126.778 132.095 127.253 132.998 126.395Z" fill="black"/>
<path d="M127.58 87.8693C128.706 87.814 130.784 87.7753 131.842 87.8949C131.98 88.4681 131.73 89.3263 131.364 89.7871L131.162 89.6262L131.136 88.9054L131.178 88.6504C130.395 88.1116 126.978 88.6675 126.219 88.2733C126.602 87.9324 127.048 87.9419 127.58 87.8693Z" fill="black"/>
<path d="M128.825 102.469L128.979 102.612C128.806 103.059 124.745 106.075 123.949 106.797C123.03 105.542 127.998 102.962 128.825 102.469Z" fill="black"/>
<path d="M106.838 130.242L107.109 130.373L107.132 130.699C106.349 131.99 105.676 132.672 104.445 133.488C104.294 133.441 104.311 133.413 104.18 133.275C104.284 132.778 106.181 131.051 106.838 130.242Z" fill="black"/>
<path d="M104.673 119.039L104.927 119.3C105.174 120.161 104.88 120.916 104.568 121.725C104.082 121.243 104.514 119.655 104.673 119.039Z" fill="black"/>
<path d="M115.544 14.3555C116.191 14.3746 116.395 14.3416 116.946 14.6869C116.508 14.8697 116.483 14.7249 116.215 14.7912C115.302 15.0175 114.618 15.6711 113.627 15.7789C111.723 15.9861 109.234 15.4454 107.447 16.5005L107.504 16.6941C108.23 16.9112 112.567 16.9769 113.815 17.0903L111.821 17.4324C110.405 17.5216 105.033 17.6533 104.133 16.5781C105.152 15.5164 112.096 15.2025 113.897 15.1175C114.104 15.1077 115.294 14.4867 115.544 14.3555Z" fill="black"/>
<path d="M99.8856 11.4339C101.094 11.3063 101.621 11.2643 102.791 11.598L102.883 11.765C101.527 12.5347 99.9979 12.0378 97.9131 13.4918L97.1974 13.6496C96.6249 13.4659 95.8711 12.7812 95.4531 12.3423L95.5027 12.1692C96.5357 11.9813 96.5969 12.4399 97.1668 12.4509C97.4603 12.4565 99.4479 11.6055 99.8856 11.4339Z" fill="black"/>
<path d="M87.7981 23.2646C87.493 22.3658 86.8832 21.2823 87.3689 20.4245C88.029 19.2587 89.2141 18.7003 90.0006 17.412C90.8211 16.0684 91.3144 14.561 92.0921 13.2591C92.8385 12.2377 94.6817 9.76216 95.7534 9.17761C97.9505 7.97923 100.938 6.35861 103.193 5.43917C106.546 4.07209 109.162 3.89105 112.682 4.4306C114.396 4.69337 115.962 4.74184 117.568 5.53429C119.036 6.18285 119.716 6.76277 120.984 7.61935C124.309 9.86585 126.008 11.644 127.482 15.4107L127.489 15.5647C127.416 15.6459 127.177 15.9256 127.105 15.9679C124.343 15.6319 124.985 15.5044 123.07 16.8218C122.562 16.8462 122.755 16.9106 122.353 16.5673L122.378 16.2869C123.137 16.016 125.431 15.0498 126.049 14.6346C126.135 14.3472 126.215 14.161 125.959 13.8242C125.275 13.0956 123.543 10.3996 122.836 9.9819C120.931 8.85692 117.425 6.18748 115.374 5.68428C110.943 4.6123 106.129 4.72023 102.057 6.94286C100.498 7.79402 92.4514 12.6771 93.9304 14.9411L94.2614 15.112C93.5632 16.1009 92.2027 16.0543 92.0528 16.8538C93.2227 16.8304 94.4448 16.2577 95.4031 16.2076C95.9278 16.2407 96.9006 16.238 97.3046 16.4808C97.0294 16.8196 96.8942 16.8056 96.4428 16.9177C93.8749 17.0523 90.9805 19.0883 89.2449 20.8647C86.6868 23.4829 94.074 25.0223 95.9099 24.3751L95.9413 24.1885C94.788 23.644 90.8335 23.5394 89.2993 22.153L89.285 21.8045C90.1895 20.8377 91.285 20.8483 91.7505 19.833C91.7389 19.8355 93.1527 19.6022 93.0054 19.6803C93.6585 19.3341 93.6695 19.0199 94.4415 18.9936C94.3544 19.4553 93.7354 20.0575 93.394 20.4466C92.8521 20.5097 92.3597 20.5268 91.8765 20.7778L91.8803 21.0797C92.3398 21.4 92.6957 21.4434 93.24 21.5672C94.0476 21.1622 95.4112 20.6989 96.3043 20.9511L96.4393 21.2405C95.7306 21.8437 94.5129 20.8564 93.5286 22.387C97.7212 22.8186 102.15 19.27 103.642 19.8485L103.766 20.2341C103.521 20.4931 103.59 20.5067 103.323 20.5524C102.177 20.748 100.814 21.37 99.7134 21.8166L99.5978 22.0021C100.371 22.4046 103.267 21.5433 103.947 20.9764L103.924 21.1197C103.584 23.1315 101.139 23.2103 100.529 24.2154C101.029 24.7546 102.064 24.2809 102.787 24.199C103.089 24.9808 102.296 25.4185 103.348 25.893C104.33 25.7977 105.343 25.6015 106.274 25.2702C105.516 26.3726 104.376 26.2235 104.403 27.1498C105.133 28.4028 107.13 29.1118 108.429 28.1713C110.546 28.7502 109.77 27.5176 110.926 27.4652C110.888 28.7671 110.11 29.0539 109.152 29.5273C107.765 30.2122 107.538 30.0296 106.22 29.3941C102.527 27.614 99.9069 24.9144 95.4772 25.2392C94.6947 25.2966 93.7615 25.1851 93.0037 25.5315C92.0247 26.6872 94.4031 29.0245 95.2008 30.0348C95.9925 30.0262 98.9135 29.724 98.8381 31.0014C98.829 31.157 98.8214 31.3345 98.8075 31.4904C99.1467 31.8529 99.5565 31.8531 100.047 31.9212L100.212 31.7991C99.9414 31.3966 99.664 30.9986 99.3798 30.6054L99.4766 30.3983C100.204 30.2684 101.061 30.6082 101.789 30.8263C101.53 31.5447 101.233 32.317 100.998 33.0376C100.418 33.44 100.188 33.6638 99.4848 33.6742C98.2216 33.0813 98.7268 31.9683 98.0216 31.8363C97.5965 32.214 97.5317 32.3818 97.275 32.8673L97.0693 32.4974L96.93 32.1224C97.148 31.8031 97.1955 31.7457 97.3291 31.3872L97.1309 31.1252L96.775 31.1476C96.3504 31.6439 96.5919 31.4161 96.5534 32.2992L96.1992 32.5201C95.5387 32.3585 95.7356 32.1528 95.261 31.3411C94.456 29.8687 92.9669 28.6275 92.1284 27.2028C91.6446 26.3811 91.8921 25.9011 91.1207 24.8673C89.3774 24.4906 89.1937 24.3083 87.7981 23.2646Z" fill="black"/>
<path d="M102.752 42.5031L103.158 42.2568C103.223 41.8029 103.237 41.5982 103.424 41.1649L103.874 40.9219C104.475 41.4237 103.852 41.6268 104.611 41.9597L105.158 41.8803L105.421 42.1305L105.342 42.3927C104.548 42.6105 104.144 42.5849 103.658 43.1454C104.104 43.6948 105.039 43.3392 105.604 43.9466C105.52 44.4937 105.5 44.3613 104.985 44.82C105.347 45.2732 106.033 46.055 106.211 46.5627C109.407 46.4574 113.804 46.6493 117.149 46.646C117.735 48.0513 118.868 48.8243 119.706 50.1456C119.711 51.5108 119.937 53.7862 119.281 54.8565L118.797 55.1771L118.649 55.0744C118.642 54.0536 118.95 51.8288 118.388 51.0653C117.282 51.127 117.59 52.6015 117.63 53.4066L117.111 53.38C116.509 53.8195 116.659 54.7319 116.258 55.3462C113.818 59.0817 112.745 64.6133 110.633 68.3197C107.96 73.0075 107.529 73.6047 106.137 78.8007C105.968 79.7094 106.033 80.2122 105.607 80.9922L105.453 80.9763C105.147 80.2437 105.141 80.0759 105.094 79.275C105.831 74.0153 108.97 70.5734 110.715 66.492L115.716 54.8141C116.286 53.5117 116.613 52.2478 117.209 50.9882C117.495 50.3826 117.899 50.3955 118.523 50.2135L118.63 49.9513C118.304 49.4908 117.727 49.5833 117.678 49.478C117.584 49.2772 116.709 47.6029 116.532 47.5302C114.57 46.7249 106.804 47.8615 105.25 47.0718L105.551 46.5338C105.091 45.8462 104.673 45.9453 104.138 45.1082C103.581 43.6225 102.437 43.6581 102.203 42.7142L102.752 42.5031Z" fill="black"/>
<path d="M111.121 23.2453C112.551 22.1421 114.759 22.478 116.579 22.4462C118.136 24.4144 120.015 27.2993 122.097 28.6612C122.926 29.2031 125.126 29.7732 125.383 30.6886C123.777 30.8267 120.119 27.5999 119.026 28.5302C118.728 28.784 118.613 30.1305 117.914 30.6466L117.332 30.9278C116.908 31.3916 116.736 31.5193 116.609 32.1366C116.764 32.8759 117.43 33.0301 117.519 33.4898C117.615 33.9818 117.454 35.016 117.486 35.5857C117.486 36.2887 117.495 36.4745 117.322 37.154L117.132 37.2184C116.94 36.7225 116.795 34.5081 116.71 33.7782C116.027 33.2762 115.434 32.823 115.105 32.036C115.259 30.4575 117.521 30.3759 118.185 28.7088C118.859 27.0176 117.133 25.1651 116.366 23.3607L114.219 23.2423L114.085 23.293C113.404 23.5542 113.146 23.6451 112.842 24.3244C113.302 24.7455 114.319 24.0537 114.967 25.0782L114.802 25.3217L113.877 25.2733L113.641 25.5195C113.963 26.1872 115.412 27.8027 116.006 28.2531L116.363 28.157L116.751 27.4407C117.099 27.2445 117.355 27.0337 117.729 27.0833C117.841 27.6106 117.851 27.3896 117.646 27.9316C117.202 28.2108 116.998 28.2931 116.528 28.4853C116.127 29.3587 115.995 29.5787 114.983 29.772C113.138 29.0799 113.977 26.0584 111.409 25.8927C110.726 26.2441 110.622 26.2787 109.862 26.3896C109.47 25.4813 109.289 25.081 109.125 24.1033C109.402 23.5848 109.334 23.7322 109.935 23.4193C110.457 23.4693 110.642 23.4136 111.121 23.2453Z" fill="black"/>
<path d="M104.43 95.3594C105.207 96.1118 105.157 96.2703 105.217 97.3876L105.185 97.4884C104.336 100.156 102.947 103.101 103.098 106.115C102.733 105.845 102.376 105.927 101.898 105.947C100.111 104.993 93.4831 106.392 92.2579 105.578C91.6415 104.271 91.8847 101.399 91.9233 99.8506C91.9247 98.9623 91.8581 97.4559 92.0982 96.6551L92.2813 96.6711C92.6866 97.3363 92.6316 97.6771 92.6309 98.4678C92.6406 99.4957 92.6266 103.942 92.7913 104.681L93.0124 104.772L93.072 104.725C93.8825 104.524 97.6014 104.728 98.5565 104.82C98.7395 102.961 98.609 99.4992 98.6074 97.472L98.8975 97.2635C99.2142 97.8728 98.9537 98.9652 99.2062 99.8357C99.6463 100.622 101.408 100.217 102.254 100.105C102.474 100.122 102.757 100.093 102.984 100.079C103.943 99.3469 104.246 96.5619 104.43 95.3594ZM101.61 104.168L101.645 104.098C102.154 103.124 102.445 102.43 102.924 101.434L102.852 101.13C102.246 100.836 100.005 100.915 99.1996 100.91C99.2342 101.705 99.2987 104.095 99.4669 104.747L99.6408 104.851C100.01 104.462 100.112 104.31 100.4 103.874C100.568 104.323 100.622 104.48 100.884 104.88C101.277 104.784 101.317 104.569 101.61 104.168Z" fill="black"/>
<path d="M125.391 155.488L125.752 155.795C126.122 158.091 127.144 161.481 127.778 163.732L130.72 174.355C131.223 176.18 131.449 178.199 131.98 180.045C133.14 184.081 134.305 188.119 135.515 192.138C136.015 193.801 136.533 196.615 136.997 198.395C137.82 201.553 140.575 210.13 140.375 212.795C140.132 212.702 139.931 212.481 139.876 212.223C139.404 210.023 138.807 207.853 138.221 205.681C137.808 204.151 137.23 202.663 136.823 201.13C136.221 198.367 135.723 195.83 134.985 193.078C134.098 189.773 133.199 186.683 132.17 183.416C131.542 181.144 131.136 178.773 130.51 176.505C129.818 174.097 129.063 171.681 128.552 169.225C127.659 164.929 125.536 159.868 125.391 155.488Z" fill="black"/>
<path d="M138.137 183.93L144.447 206.361C145.453 209.968 146.429 213.003 147.261 216.701C147.184 217.204 147.189 217.413 146.85 217.81C146.801 217.669 146.774 217.598 146.758 217.446C146.468 214.74 145.211 212.144 144.515 209.553C143.976 207.742 143.733 205.605 143.114 203.834C141.674 199.709 140.743 195.538 139.57 191.347C138.959 189.165 138.457 186.846 137.758 184.711L138.137 183.93Z" fill="black"/>
<path d="M129.46 153.68C129.731 155.596 130.445 156.861 131.051 158.666C131.4 159.704 131.388 160.164 131.574 161.178C131.899 162.352 134.808 172.592 135.126 172.871C136.022 174.532 136.109 178.019 137.001 180.166L136.459 180.662C135.248 175.81 133.729 171.254 132.366 166.452C131.704 164.121 131.243 161.88 130.645 159.576C129.997 157.085 129.359 156.434 129.008 153.689L129.46 153.68Z" fill="black"/>
<path d="M106.424 24.414C108.386 24.0516 108.002 23.7209 109.629 22.7593C110.016 22.5306 110.414 22.8031 110.835 22.9771L111.124 23.2435C110.645 23.4118 110.46 23.4675 109.938 23.4175C109.338 23.7304 109.405 23.583 109.128 24.1015C109.292 25.0792 109.473 25.4795 109.865 26.3878C109.456 27.1188 109.321 27.4937 108.551 27.8486L108.432 28.1684C107.133 29.1089 105.137 28.3998 104.407 27.1468C104.379 26.2205 105.519 26.3697 106.277 25.2672L106.424 24.414Z" fill="black"/>
<path d="M104.43 84.2602C104.782 84.5486 104.875 84.6505 105.285 84.8309C105.697 84.5867 105.66 84.1957 105.816 83.5898C105.917 87.1843 106.204 91.2287 105.886 94.7927C105.803 95.7264 105.366 96.5337 105.216 97.3865C105.156 96.2692 105.206 96.1107 104.43 95.3583C104.506 93.8299 104.838 92.0501 104.776 90.5618C104.688 88.4411 104.473 86.3992 104.43 84.2602Z" fill="black"/>
<path d="M91.3031 81.0814C91.5437 79.407 91.2053 75.843 91.3996 73.7982L91.6276 73.6953C91.7804 81.7524 92.6417 90.4789 92.6287 98.4665C92.6294 97.6759 92.6844 97.335 92.279 96.6699L92.096 96.6538C91.8559 97.4546 91.9225 98.961 91.9211 99.8493C91.9135 93.2281 91.2245 87.729 91.3031 81.0814Z" fill="black"/>
<path d="M97.067 32.4961L97.2727 32.866C97.1982 33.8939 97.1086 37.8524 97.5071 38.6633C98.9583 39.8559 100.133 37.9814 101.495 38.1254L101.666 38.2806C101.536 38.9412 101.185 40.1659 101.429 40.7069C102.19 41.1722 102.474 40.8886 102.8 41.4057L102.54 42.0776L102.746 42.5037L102.197 42.7147C101.995 41.9926 101.475 41.7032 101.253 41.2379C100.263 39.1604 97.641 40.3648 96.9901 40.0838C96.4319 39.1552 96.5821 33.4352 97.067 32.4961Z" fill="black"/>
<path d="M101.898 105.945C102.376 105.925 102.733 105.844 103.098 106.113C103.128 109.366 103.382 112.563 102.816 115.781C102.719 116.333 102.64 116.863 102.596 117.422C102.408 116.252 102.822 115.214 102.397 114.633C102.062 114.785 101.952 114.927 101.682 115.185C101.616 114.017 102.743 110.628 102.168 109.767L101.655 110.174C101.334 109.614 101.559 106.622 101.898 105.945Z" fill="black"/>
<path d="M148.446 220.371C149.066 222.238 149.261 224.437 150.12 226.3C150.285 226.659 150.666 227.577 150.766 227.945C151.037 229.8 153.171 235.388 152.623 236.445C152.05 235.603 148.468 223.766 148.392 222.642C148.387 221.685 148.148 221.422 148.446 220.371Z" fill="black"/>
<path d="M141.823 70.0637C141.851 69.6947 143.238 66.2288 143.444 65.3115C143.973 62.9576 143.978 59.9619 142.946 57.7475C142.609 57.0241 141.799 55.9557 141.352 55.1874L141.449 54.9688C142.043 55.003 142.873 55.9231 143.275 56.3495C144.42 59.5842 144.785 63.8386 143.655 67.1005C143.394 67.7949 143.149 68.6942 142.907 69.2966C142.517 69.8202 142.484 69.9268 142.275 70.5442C142.086 70.128 142.214 70.2533 141.823 70.0637Z" fill="black"/>
<path d="M152.773 236.516L153.408 237.188C153.963 239.655 156.096 247.184 157.067 249.32C156.782 249.07 156.027 248.415 155.891 248.114C154.325 244.648 153.328 240.18 152.773 236.516Z" fill="black"/>
<path d="M127.054 22.3481C126.638 22.7394 126.248 23.1793 125.719 23.3719C124.913 23.3043 121.623 21.6349 120.805 21.1558L120.86 21C122.803 20.7162 124.873 23.0939 126.175 22.4606L126.283 21.9669C125.619 21.0463 124.499 21.8708 124.376 20.4929L124.599 20.3648C126.677 21.7618 126.593 18.8949 128.1 19.7596C127.881 20.372 127.398 20.7347 126.783 20.9058L126.728 21.0467C127.239 21.4022 127.382 21.5561 127.809 21.997L127.054 22.3481Z" fill="black"/>
<path d="M151.123 91.9961L151.524 92.0777C151.773 92.9686 151.692 103.895 151.615 105.094C151.541 105.199 151.421 105.388 151.334 105.467C151.093 105.048 151.039 93.3264 151.123 91.9961Z" fill="black"/>
<path d="M93.9297 14.9406C94.5272 14.2202 94.4835 14.0033 95.3559 13.9243C96.2214 13.8459 96.5076 14.5191 97.0806 14.5221C98.6287 14.5302 102.832 13.5988 104.137 14.3046L104.254 14.5661L104.106 14.7414L103.94 14.7267C102.281 14.5883 95.8302 14.7806 94.2607 15.1114L93.9297 14.9406Z" fill="black"/>
<path d="M105.094 79.2751C105.142 80.0759 105.148 80.2437 105.454 80.9763L105.607 80.9922C106.034 80.2123 105.969 79.7095 106.137 78.8008C106.256 80.0859 106.12 82.3396 105.82 83.5907C105.664 84.1965 105.7 84.5875 105.288 84.8317C104.878 84.6513 104.785 84.5495 104.434 84.261C104.234 83.2 104.938 80.7077 105.094 79.2751Z" fill="black"/>
<path d="M91.1289 68.6741C91.253 67.3405 90.9237 63.152 91.2844 62.375L91.4991 62.5257C91.5245 65.6443 91.7648 70.8174 91.6253 73.6982L91.3973 73.801C91.203 75.8458 91.5415 79.4099 91.3009 81.0843C91.0495 79.8577 91.132 70.5466 91.1289 68.6741Z" fill="black"/>
<path d="M148.383 131.672C148.953 132.437 148.95 132.574 148.927 133.598C148.721 135.129 148.8 140.415 148.464 141.11C147.715 139.72 148.296 133.547 148.383 131.672Z" fill="black"/>
<path d="M117.11 53.3789L117.629 53.4055C117.773 54.2172 117.714 54.6186 118.269 55.0934L118.648 55.0734L118.796 55.176C118.312 56.1864 118.676 57.3408 118.284 58.0876C117.747 58.2507 116.954 59.3532 116.676 59.8188C116.321 59.7182 115.987 59.8714 115.578 59.9682C116.528 59.4581 116.321 59.3217 116.65 58.384C116.901 57.6675 117.192 58.1097 117.794 57.7562C117.981 56.7552 117.379 54.3937 117.11 53.3789Z" fill="black"/>
<path d="M90.1222 49.7953C90.1172 48.8923 89.9744 41.7828 90.292 41.375C90.893 42.0718 90.6793 46.6905 90.706 48.0782L90.6583 50.1059L90.1222 49.7953Z" fill="black"/>
<path d="M127.055 22.3484L127.809 21.9973C127.784 21.8931 128.259 28.4044 128.376 27.922L127.493 27.9738C126.832 26.0566 127.679 23.2408 127.055 22.3484Z" fill="black"/>
<path d="M98.379 90.9176C98.6194 89.083 97.9598 86.6848 98.7337 85.5234C98.9814 86.4764 98.9221 87.5463 98.9202 88.5397C99.0514 90.5467 99.1423 92.064 99.0918 94.0803C98.8272 93.6746 98.7259 93.1849 98.59 92.7118C98.6078 92.0214 98.5065 91.5971 98.379 90.9176Z" fill="black"/>
<path d="M106.422 24.4164C106.396 23.1772 110.648 20.9338 111.112 22.4839L110.833 22.9795C110.411 22.8054 110.014 22.533 109.627 22.7617C107.999 23.7233 108.384 24.0539 106.422 24.4164Z" fill="black"/>
<path d="M147.837 44.1641C148.034 45.761 148.094 49.8415 147.978 51.5576L147.344 51.1635C147.247 48.8451 147.301 46.4301 147.837 44.1641Z" fill="black"/>
<path d="M90.6299 56.1133C90.7211 56.6666 90.7885 57.6131 91.1531 57.9576L91.356 57.8764C91.6044 59.2644 91.751 60.2804 91.6086 61.6865L91.5036 62.5247L91.2889 62.374C90.9282 63.1509 91.2575 67.3395 91.1334 68.673C90.69 66.208 91.1121 61.9946 91.1 59.4369C91.094 58.149 90.4921 57.9592 90.6299 56.1133Z" fill="black"/>
<path d="M144.523 49.4009C145.381 49.0073 145.582 47.9438 145.348 47.0849C145.04 47.1697 144.936 47.2081 144.641 47.3331C144.608 46.3924 145.977 45.3463 146.665 44.5469C145.84 46.5744 146.27 48.2717 145.485 50.1421L145.357 49.6344C144.997 49.2991 145.158 49.3955 144.523 49.4009Z" fill="black"/>
<path d="M90.706 48.0781C90.8322 51.1602 91.3646 55.0928 91.3556 57.8764L91.1527 57.9576C90.7881 57.6131 90.7207 56.6666 90.6295 56.1133C90.5845 55.1941 90.4941 54.2334 90.4219 53.3124C90.6917 52.1426 90.6528 51.2971 90.6583 50.1058L90.706 48.0781Z" fill="black"/>
<path d="M103.77 20.2344L103.951 20.9766C103.271 21.5436 100.375 22.4049 99.6016 22.0023L99.7172 21.8168C100.818 21.3702 102.181 20.7483 103.327 20.5526C103.594 20.507 103.525 20.4933 103.77 20.2344Z" fill="black"/>
<path d="M95.4062 16.2045C96.4783 16.0908 99.7023 15.8576 100.55 16.4193C100 16.9198 97.2552 16.8901 96.4459 16.9146C96.8974 16.8025 97.0326 16.8165 97.3078 16.4777C96.9038 16.2349 95.931 16.2376 95.4062 16.2045Z" fill="black"/>
<path d="M137.003 180.164C137.497 181.974 137.36 182.174 138.135 183.93L137.756 184.712C137.002 183.089 136.892 182.396 136.461 180.66L137.003 180.164Z" fill="black"/>
<path d="M98.5938 92.7109C98.7296 93.184 98.8309 93.6737 99.0955 94.0794C99.2411 95.5768 99.3213 98.3291 99.207 99.835C98.9545 98.9645 99.215 97.8721 98.8983 97.2628L98.6083 97.4713L98.5938 92.7109Z" fill="black"/>
<path d="M117.336 30.9258L117.918 30.6445C118.978 31.7753 118.303 32.213 119.645 33.4885L119.536 33.924L119.282 33.9797C118.386 33.266 117.682 32.0012 117.336 30.9258Z" fill="black"/>
<path d="M147.254 216.703C147.485 217.681 148.007 219.467 148.444 220.371C148.146 221.422 148.385 221.685 148.389 222.642C148.163 221.564 147.288 218.776 146.844 217.813C147.183 217.415 147.178 217.206 147.254 216.703Z" fill="black"/>
<path d="M98.2151 86.8057C97.9169 85.7582 97.9157 81.6011 98.1152 80.4961L98.2533 80.5334C98.5651 81.6993 98.5321 82.9534 98.5616 84.1676C98.0032 84.8651 98.186 85.8611 98.2151 86.8057Z" fill="black"/>
<path d="M149.037 38.3672C149.025 39.0316 148.928 39.5967 149.342 40.0976C149.419 40.8704 149.621 42.5253 149.584 43.2248C149.505 42.7969 149.501 42.4401 149.204 42.1513C148.971 42.7331 149.042 44.0803 149.035 44.7916C148.805 43.8391 148.736 39.2942 149.037 38.3672Z" fill="black"/>
<path d="M147.208 133.547C147.462 134.141 147.02 137.203 146.873 138.045C146.154 137.035 146.652 134.563 147.208 133.547Z" fill="black"/>
<path d="M149.037 44.7887C149.044 44.0775 148.973 42.7303 149.206 42.1484C149.503 42.4373 149.507 42.794 149.586 43.222L149.698 44.2004C148.982 45.0098 149.29 45.717 149.045 46.753C148.991 46.1572 149.026 45.4006 149.037 44.7887Z" fill="black"/>
<path d="M98.5623 84.168C98.6079 84.4971 98.727 85.2251 98.7357 85.5231C97.9618 86.6845 98.6214 89.0827 98.381 90.9173C98.1751 90.117 98.222 87.7541 98.2157 86.806C98.1867 85.8614 98.0038 84.8654 98.5623 84.168Z" fill="black"/>
<path d="M127.978 14.75C128.446 15.2887 128.882 15.9613 128.839 16.7057L128.633 16.803L128.464 16.7116C128.131 15.8522 128.317 16.1366 127.491 15.5618L127.484 15.4078L127.978 14.75Z" fill="black"/>
<path d="M90.125 49.793L90.661 50.1036C90.6555 51.2949 90.6944 52.1403 90.4246 53.3102C90.2593 52.0931 90.1971 51.0197 90.125 49.793Z" fill="black"/>
<path d="M127.494 15.5625C128.32 16.1373 128.134 15.8529 128.467 16.7123L127.954 16.8049C127.548 16.1502 127.748 16.2773 127.109 15.9656C127.182 15.9234 127.421 15.6437 127.494 15.5625Z" fill="black"/>
<path d="M149.042 38.3671L149.403 38.3242C149.669 38.7985 149.454 39.4962 149.347 40.0975C148.933 39.5966 149.03 39.0315 149.042 38.3671Z" fill="black"/>
</g>
<defs>
<clipPath id="clip0_1209_2983">
<rect width="212" height="249" fill="white"/>
</clipPath>
</defs>
</svg>
