<svg width="245" height="329" viewBox="0 0 245 329" fill="none" xmlns="http://www.w3.org/2000/svg">
<path d="M108.783 0.00902513C119.586 -0.267225 129.625 5.81852 134.287 15.4863C134.807 16.5633 136.119 20.6838 136.889 20.9668C141.631 17.5788 148.644 16.179 154.392 16.8465C161.548 17.6863 168.077 21.3325 172.546 26.9843C175.614 30.9628 177.577 35.6805 178.238 40.6608C178.992 46.4143 178.593 58.86 178.623 65.162L178.907 114.23C178.987 123.968 179.14 133.784 179.197 143.53C179.238 150.556 180.273 161.804 179.443 168.591C180.942 166.547 181.678 164.765 182.861 162.523C187.317 154.086 189.422 147.301 198.152 142.416C204.786 138.704 215.403 138.388 222.445 140.519C230.37 142.918 237.028 148.351 240.965 155.636C244.898 162.869 245.726 171.388 243.263 179.243C242.028 183.206 238.098 190.284 236.081 194.186L223.535 218.425L208.543 247.543C204.462 255.485 200.614 263.41 195.902 271.005C184.624 289.183 167.649 305.938 148.629 315.953C93.4465 344.475 17.5595 322.738 2.0035 257.55C-0.911747 245.333 0.210754 227.558 0.220254 214.53L0.222752 156.762L0.196004 118.21C0.193254 116.019 0.155251 113.818 0.187501 111.628C0.331001 101.877 -0.931746 92.8703 4.4815 84.2508C8.21075 78.1885 14.222 73.8813 21.1613 72.2988C28.055 70.7548 35.713 71.923 41.6875 75.7245C41.268 73.4548 41.3153 67.0503 41.3553 64.4495C41.5163 53.9768 40.1735 45.3513 46.4115 36.3148C50.5015 30.3315 56.8243 26.2433 63.9588 24.9688C70.0955 23.8688 77.5265 25.164 82.6848 28.733C82.6373 28.4023 82.6005 28.07 82.5748 27.7368C82.188 22.511 85.75 13.8565 89.3593 9.81202C94.8065 3.70777 100.62 0.604025 108.783 0.00902513ZM114.97 315.02C144.166 309.275 167.113 292.023 183.679 267.648C189.552 259.003 193.885 249.72 198.665 240.445C204.786 228.735 210.84 216.99 216.826 205.21C219.898 199.175 223.008 193.16 226.155 187.164C229.385 180.934 233.983 173.896 232.345 166.686C229.753 155.254 219.268 149.1 208.038 151.428C204.024 152.26 200.81 154.636 198.706 158.174C196.355 162.212 194.2 166.684 192.067 170.874L181.837 190.691C179.917 194.448 178.085 198.396 175.794 201.912C173.74 205.066 168.785 204.348 168.419 200.216C168.059 196.147 168.064 192.169 167.962 188.095L167.503 160.837L166.456 70.909L166.37 52.4455C166.372 44.082 167.539 36.8855 159.84 31.296C150.154 24.263 137.233 31.5285 136.337 42.9133C136.101 45.9115 136.131 48.7453 136.119 51.726L136.142 68.7385L136.148 129.645C136.19 136.825 136.545 146.589 135.563 153.786C135.054 157.51 128.345 158.721 126.343 155.209C124.323 152.405 124.979 146.259 124.997 142.672L125.04 125.383L125.054 49.3295C125.068 41.8755 125.651 31.129 124.593 23.8003C123.572 16.7243 115.647 11.8228 108.28 12.2693C103.844 13.0018 102.105 14.0318 98.9925 17.2785C93.5925 22.912 94.6067 31.2283 94.6227 38.4295L94.6643 58.4708L94.7338 127.638C94.7398 135.336 95.1713 143.392 94.319 150.975C94.1168 152.775 91.6818 154.357 89.9858 154.599C82.1915 155.709 83.6883 144.583 83.6718 139.461L83.6628 123.603L83.6895 71.8898C83.6945 66.82 83.7335 61.6898 83.672 56.6328C83.5888 49.7828 83.8693 44.632 77.9778 39.8265C68.3595 31.9815 55.6325 38.4553 53.6995 49.9375C53.0635 54.0768 53.2805 59.1978 53.311 63.4803L53.493 82.7955L53.4365 143.934C53.4285 149.873 53.8912 158.779 52.9585 164.682C52.7267 166.15 50.2825 167.658 48.5775 167.88C47.1253 168.082 45.6528 167.695 44.4863 166.807C43.2638 165.865 42.5365 164.391 42.4618 162.883C42.1725 157.054 42.31 150.922 42.3213 145.083L42.3385 111.417C42.3423 106.896 42.435 102.433 42.223 97.8575C41.584 84.0628 24.091 78.178 15.6248 89.467C11.1983 95.3698 11.9873 102.462 11.9923 109.563L12.014 126.655L11.955 179.903L11.9698 222.42C11.958 228.488 11.9703 234.605 12.0413 240.59C12.6563 292.34 66.0723 323.89 113.668 315.295C114.142 315.21 114.504 315.158 114.97 315.02Z" fill="white"/>
</svg>
