<svg width="36" height="36" viewBox="0 0 36 36" fill="none" xmlns="http://www.w3.org/2000/svg">
<path d="M16.0869 0.0874248C25.8194 -0.8726 34.5102 6.18263 35.5709 15.9045C36.6317 25.6265 29.6667 34.3898 19.9562 35.551C13.5847 36.313 7.29492 33.594 3.48492 28.4308C-0.32533 23.2675 -1.06832 16.4555 1.53868 10.592C4.14568 4.72868 9.70118 0.717325 16.0869 0.0874248Z" fill="#E2F0D3"/>
<g clip-path="url(#clip0_1200_2924)">
<path d="M24.1624 11.2864C24.9295 11.2362 25.6958 11.396 26.3789 11.7487C27.3312 12.2427 28.0498 13.0931 28.378 14.1146C28.72 15.1796 28.622 16.3371 28.1059 17.3295C27.6205 18.2602 26.7354 19.0228 25.7308 19.3442C25.3232 19.4746 25.0451 19.5108 24.6232 19.5222C23.7492 19.5458 22.8683 19.5361 21.9935 19.536L17.383 19.536L11.7921 19.5358C10.8669 19.5358 9.93858 19.5395 9.01315 19.5358C8.81517 19.5233 8.54325 19.519 8.36124 19.4451C7.78033 19.2091 7.60009 18.3604 8.04748 17.9111C8.17238 17.7875 8.32758 17.699 8.49751 17.6543C8.81321 17.5702 10.0178 17.6012 10.4237 17.6027L20.1533 17.6028L23.0266 17.6034C24.2554 17.6033 25.371 17.7826 26.1937 16.6863C27.6827 14.702 25.2476 12.2957 23.2243 13.6369C22.4008 14.1826 22.796 15.1819 22.3166 15.873C21.8634 16.5264 20.6602 16.1666 20.6428 15.3425C20.5475 13.0588 21.937 11.5531 24.1624 11.2864Z" fill="#319A50"/>
<path d="M23.7646 29.4745L23.7481 29.4648C23.5528 29.3516 23.0866 29.2363 22.8395 29.1258C21.8541 28.6998 21.0593 27.8411 20.7895 26.7939C20.6638 26.3059 20.5093 25.4422 20.7696 24.9931C21.1962 24.2888 22.333 24.4534 22.5093 25.2693C22.6696 26.0203 22.5736 26.7213 23.3206 27.1751C24.4193 27.8427 25.6764 27.4786 26.3399 26.4058C27.1833 25.0425 26.192 23.3312 24.6501 23.1892C24.0267 23.1318 23.4367 23.1435 22.8146 23.1438L20.2273 23.1447L11.6687 23.1444L9.97261 23.1457C9.81474 23.1459 9.65634 23.1466 9.49849 23.1469C8.85032 23.1482 8.02894 23.2294 7.82719 22.4241C7.76116 22.1631 7.804 21.8864 7.94589 21.6575C8.28142 21.1105 9.00827 21.2103 9.57126 21.2103L10.7982 21.2105L15.4083 21.2118L21.6217 21.2122L23.4921 21.211C23.9686 21.2107 24.4654 21.2002 24.938 21.2488C25.5461 21.3149 26.1316 21.5169 26.6511 21.8399C27.58 22.4238 28.2384 23.3533 28.4811 24.4233C28.7171 25.4996 28.523 26.6255 27.9404 27.5606C27.4952 28.2637 26.7283 28.9066 25.9505 29.1999C25.7858 29.262 25.3743 29.3862 25.2619 29.4745H23.7646Z" fill="#319A50"/>
<path d="M15.4555 7.47656H17.049C17.1478 7.5655 17.5687 7.69747 17.7209 7.75393C18.5074 8.05052 19.1817 8.585 19.6501 9.28293C20.2769 10.2227 20.5004 11.3746 20.2705 12.4806C20.0535 13.5473 19.3661 14.4963 18.4601 15.0904C17.97 15.4098 17.4158 15.6179 16.8366 15.6998C16.4091 15.7609 15.5904 15.7402 15.1348 15.7394L12.4449 15.7392L9.99364 15.7409C9.52206 15.7414 8.98557 15.7783 8.52238 15.6956C7.62229 15.516 7.55384 14.153 8.40201 13.8796C8.82796 13.7422 9.67511 13.7995 10.1393 13.7998L14.3693 13.8006C15.0805 13.8005 15.8884 13.8361 16.59 13.7537C17.3799 13.629 18.2238 12.8704 18.3767 12.074C18.7318 10.1362 16.7139 8.78422 15.0486 9.80762C14.8137 9.95199 14.5822 10.2479 14.5114 10.4959C14.2823 11.2985 14.4271 12.5972 13.1546 12.3774C12.2358 12.2187 12.3683 11.1151 12.4987 10.4558C12.7311 9.28016 13.3941 8.41513 14.4639 7.89034C14.7687 7.73888 15.1866 7.64632 15.4555 7.47656Z" fill="#319A50"/>
</g>
<defs>
<clipPath id="clip0_1200_2924">
<rect width="22" height="22" fill="white" transform="translate(7.19531 7.47656)"/>
</clipPath>
</defs>
</svg>
