<svg width="36" height="36" viewBox="0 0 36 36" fill="none" xmlns="http://www.w3.org/2000/svg">
<path d="M17.1829 0.0126596C27.0001 -0.35384 35.2679 7.28216 35.6814 17.0974C36.0949 26.9127 28.4989 35.2169 18.6856 35.6777C8.80563 36.1414 0.432383 28.4824 0.0161327 18.6002C-0.400367 8.71816 7.29888 0.38166 17.1829 0.0126596Z" fill="#E2F0D3"/>
<g clip-path="url(#clip0_1200_2508)">
<path d="M14.1719 24.5885C14.1756 23.4857 14.3035 22.3764 14.3028 21.2661C14.302 19.6069 14.3283 17.946 14.2208 16.2888C14.2078 16.0636 14.1273 14.7727 14.2648 14.6568C14.5147 14.4461 15.3221 14.3219 15.6428 14.1875C15.7327 15.2717 15.4899 16.1257 16.4587 16.9617C16.6804 17.153 16.8769 17.2512 17.1468 17.3642L17.1862 17.4347C17.2558 17.4839 17.395 17.4986 17.4873 17.519L17.4915 17.5422L17.3314 17.5553L17.3189 17.5764C17.4528 17.6565 18.1745 17.6393 18.3727 17.6047C18.6636 17.5539 19.0279 17.4025 19.2738 17.2273C19.311 17.2008 19.3391 17.1117 19.37 17.0868C19.4661 17.0094 19.5408 16.9978 19.6124 16.8865C19.6787 16.7836 19.6666 16.8227 19.6408 16.6947C20.3617 15.7245 20.0905 15.241 20.1965 14.1987C20.5754 14.3232 21.3403 14.4439 21.6062 14.7041C21.7076 14.9228 21.5856 16.4651 21.5763 16.7657C21.4979 19.2722 21.4558 21.7845 21.6761 24.2846C21.6791 24.3636 21.692 24.562 21.5902 24.5863C20.8739 24.7576 20.0054 24.7634 19.2932 24.9228C18.0395 25.2032 17.1489 25.0029 15.9103 24.8191C15.5483 24.7659 15.1861 24.715 14.8235 24.6664C14.6455 24.6411 14.3356 24.5821 14.1719 24.5885Z" fill="#319A50"/>
<path d="M12.7663 15.9297C12.883 16.0097 12.8716 17.729 12.8758 17.9863C12.8973 18.9989 12.9034 20.0117 12.8943 21.0244C12.8918 21.2304 12.9137 22.4027 12.794 22.5135C11.7842 23.4486 10.5858 24.2254 9.44545 24.9961C8.98968 25.3041 8.34149 25.191 7.9234 24.8705C7.72842 24.6904 7.61501 24.5467 7.5341 24.2957C7.17294 23.1752 8.09754 22.7369 8.77567 22.1965C9.12991 21.9161 9.46586 21.6134 9.78149 21.2901C10.4168 20.6276 11.1429 19.7246 11.4896 18.8822C11.7696 18.2019 12.0138 17.4818 12.2991 16.8001C12.4372 16.4701 12.6125 16.2403 12.7663 15.9297Z" fill="#319A50"/>
<path d="M23.0474 15.9258C23.1057 15.9552 23.1263 16.0461 23.1707 16.1159C23.7544 17.0348 24.0022 18.1671 24.4653 19.137C25.0404 20.2834 25.9541 21.2663 26.9276 22.0883C27.5284 22.5956 28.4092 22.9502 28.3788 23.8823C28.3661 24.2749 28.2145 24.5781 27.9308 24.8479C27.9033 24.8725 27.8753 24.8965 27.8469 24.92C27.4355 25.2578 26.7889 25.2442 26.3521 24.961C25.5911 24.4675 24.8347 23.9347 24.1087 23.3909C23.7547 23.1257 23.268 22.7872 22.9982 22.451C22.9365 21.9659 22.9397 21.4109 22.9346 20.9182C22.9233 19.8536 22.9285 18.7807 22.9822 17.7175C23.0085 17.1983 22.954 16.4162 23.0474 15.9258Z" fill="#319A50"/>
<path d="M17.2181 14.0248C17.7637 14.0023 18.2196 14.012 18.7632 14.0299C18.7293 14.4829 18.7994 14.9379 18.7388 15.3887C18.7032 15.6536 18.6028 15.7864 18.4192 15.9627C18.1019 16.2374 17.4988 16.1272 17.2655 15.8076C17.008 15.4547 17.0145 14.5176 17.0708 14.0852C17.1142 14.0293 17.132 14.0425 17.2181 14.0248Z" fill="#319A50"/>
<path d="M17.1484 17.3649C18.069 17.7126 18.9961 17.4027 19.6424 16.6953C19.6682 16.8233 19.6803 16.7842 19.614 16.8871C19.5424 16.9984 19.4677 17.0101 19.3716 17.0874C19.3407 17.1123 19.3127 17.2014 19.2754 17.228C19.0295 17.4031 18.6653 17.5545 18.3743 17.6053C18.1761 17.6399 17.4544 17.6571 17.3205 17.577L17.3331 17.5559L17.4932 17.5428L17.4889 17.5196C17.3966 17.4992 17.2574 17.4845 17.1879 17.4354L17.1484 17.3649Z" fill="#319A50"/>
<path d="M11.8833 29.93C11.7492 29.8002 11.4451 29.6699 11.2758 29.5649C10.7062 29.2111 10.3846 28.5891 10.3544 27.9281C10.3255 27.3765 10.5188 26.8363 10.8911 26.4282C11.7545 25.4905 12.7652 25.7667 13.873 25.9293L16.1843 26.2691L18.1414 26.5543C18.5431 26.6119 18.9736 26.6577 19.3676 26.7566C20.0586 26.9301 20.5393 27.5323 20.5614 28.242C20.5753 28.6893 20.4386 29.083 20.1428 29.4132C19.9416 29.6483 19.5677 29.8091 19.4507 29.93H11.8833Z" fill="#319A50"/>
<path d="M17.2404 5.92969H18.5563C18.6518 6.00566 18.8737 6.1058 18.9911 6.15642C19.3688 6.31917 19.6942 6.57804 19.9529 6.89669C20.5651 7.63426 20.5467 8.45456 20.5545 9.34498C20.5648 10.5201 20.4988 11.4561 19.4964 12.2441C18.967 12.6555 18.2953 12.8385 17.6304 12.7525C16.9296 12.6726 16.2909 12.3128 15.8594 11.7549C15.2247 10.9434 15.3323 10.3079 15.3027 9.35876C15.2643 8.13288 15.3895 7.0513 16.5181 6.33204C16.7304 6.19679 17.0363 6.08918 17.2319 5.93646L17.2404 5.92969Z" fill="#319A50"/>
<path d="M21.0469 26.0446C21.4788 26.006 21.9094 25.9535 22.338 25.8871C23.2373 25.7569 23.9797 25.5987 24.749 26.2412C25.1628 26.5836 25.4211 27.0783 25.4656 27.6135C25.5529 28.6086 25.0694 29.3499 24.2155 29.7834C24.1398 29.8218 24.0202 29.8772 23.9627 29.9315H21.5756L21.5801 29.9121C21.6363 29.6765 21.8018 29.3685 21.8698 29.1206C22.0862 28.3319 21.95 27.4215 21.5194 26.7272C21.423 26.5719 21.1627 26.1767 21.0469 26.0446Z" fill="#319A50"/>
</g>
<defs>
<clipPath id="clip0_1200_2508">
<rect width="24" height="24" fill="white" transform="translate(5.92969 5.92969)"/>
</clipPath>
</defs>
</svg>
