<svg width="36" height="36" viewBox="0 0 36 36" fill="none" xmlns="http://www.w3.org/2000/svg">
<path d="M16.8127 0.0279134C26.5952 -0.515837 34.9777 6.94965 35.5677 16.7302C36.1552 26.5109 28.7277 34.9281 18.9502 35.5616C9.11023 36.1996 0.625222 28.7137 0.0327225 18.8694C-0.559778 9.02491 6.96522 0.575413 16.8127 0.0279134Z" fill="#E2F0D3"/>
<g clip-path="url(#clip0_1200_2919)">
<path d="M17.3711 6.72708C17.9947 6.67171 19.1469 6.90201 19.7121 7.13182C20.4205 7.41989 21.0656 7.80762 21.6086 8.34753C21.7627 8.50082 21.9326 8.59588 22.027 8.80714L22.0331 8.82109C22.0643 8.89005 22.0731 8.93461 22.0547 9.01089C21.9688 9.36604 21.8632 9.72661 21.7625 10.0775L21.221 11.9595L20.5329 14.3622C20.4014 14.8229 20.2676 15.3368 20.1138 15.7871C19.7803 15.6586 19.4547 15.4122 19.0681 15.2672C17.9308 14.8405 16.7448 14.8884 15.6578 15.4352C15.5154 15.5068 15.0999 15.7644 14.988 15.7352C14.7966 15.6851 14.7991 14.9857 14.6134 14.7508C14.2919 14.6126 13.73 15.6682 13.4231 15.394C13.2759 15.2625 12.6928 14.816 12.6815 14.6358C12.7197 14.2866 13.3552 13.9103 13.5871 13.708C13.9058 13.4299 14.2571 13.4818 14.138 13.0117C14.089 12.8231 13.9621 12.1648 13.8334 12.0833C13.6664 12.1095 13.3225 12.3486 13.1685 12.448C12.0822 13.1491 11.1886 14.1109 10.5691 15.2458C10.4019 15.5535 10.0768 16.3559 9.9608 16.6868C9.59431 16.5918 9.08923 16.4965 8.76489 16.3129C8.62651 16.2345 8.90377 15.6405 8.95096 15.5203C9.56097 13.9662 10.6343 12.6338 11.9493 11.615C12.3935 11.2709 12.9558 11.0608 13.38 10.6932C13.4934 10.2818 13.0298 9.38329 13.0166 8.9884C13.0047 8.63368 13.4118 8.40078 13.6213 8.20571C14.6921 7.20838 15.9375 6.83189 17.3711 6.72708Z" fill="#319A50"/>
<path d="M17.3577 16.3066C18.8811 16.2086 20.1949 17.3654 20.2907 18.8889C20.3865 20.4125 19.2279 21.7247 17.7043 21.8183C16.1836 21.9118 14.8746 20.756 14.779 19.2355C14.6834 17.715 15.8373 16.4043 17.3577 16.3066Z" fill="#319A50"/>
<path d="M11.4753 16.2773C11.8588 16.3913 12.3898 16.5965 12.7146 16.8269C12.6026 17.1558 12.4706 17.5116 12.3895 17.8465C12.3213 18.1282 12.3332 18.395 12.2259 18.6757C12.6727 18.6405 13.0132 18.5269 13.4374 18.4778C13.4027 19.7242 13.5764 20.8347 14.4929 21.7574C14.7595 22.0257 14.9799 22.2769 15.3022 22.4923C15.4648 22.601 15.9252 22.7721 15.9303 22.9642C15.8192 23.2416 15.2726 23.5274 15.2858 23.7834C15.3635 23.8779 15.5414 23.9362 15.6522 23.9843C16.2836 24.2581 16.8507 24.2822 17.5224 24.3658C17.5518 24.7501 17.5541 25.3487 17.5302 25.7394C16.5616 25.6926 15.6854 25.5315 14.8006 25.1251C14.5895 25.0281 14.4011 24.9611 14.195 24.8431C13.9858 24.9936 13.4607 25.5212 13.3195 25.7304C13.8435 26.1903 14.8349 26.5384 15.5143 26.7379C15.6386 26.7745 16.0586 26.8435 16.1384 26.8801C16.4169 27.133 17.8944 27.0356 18.3281 27.0408C18.5341 27.0432 18.8389 26.9745 19.0388 27.0557C19.2039 27.2302 19.1416 27.3398 19.2229 27.44L19.2226 27.4226C19.2522 27.4638 19.2721 27.5006 19.3154 27.5252C19.371 27.625 19.4635 28.2125 19.2624 28.24C18.9828 28.2781 18.5508 28.3192 18.269 28.342C16.6779 28.4599 15.083 28.1698 13.6353 27.4994C13.1046 27.2561 12.8418 27.0262 12.2529 26.8177C11.8512 27.1741 11.3982 27.686 11.0202 28.0834C10.6657 28.0631 10.2736 27.9412 9.94313 27.8216C8.26662 27.2147 7.01817 25.8793 6.39224 24.2238C6.30405 23.9906 6.16539 23.2401 6.03906 23.1313V21.3732C6.23981 21.14 6.25943 20.5057 6.42575 20.181C6.78365 20.0741 7.21819 19.9785 7.58479 19.888L9.55665 19.3999C9.81591 19.3359 10.7607 19.1567 10.8766 18.9842C10.9661 18.6475 10.9448 18.1122 11.0169 17.7755C11.1191 17.2977 11.3299 16.7545 11.4753 16.2773Z" fill="#319A50"/>
<path d="M23.7236 12.1445C23.9004 12.2795 24.0742 12.4426 24.2258 12.5987C25.8315 14.252 26.736 16.4506 26.8321 18.7484C26.8454 19.067 26.8435 19.3885 26.841 19.7118C27.4275 19.9266 28.1889 20.032 28.6615 20.2345C28.798 20.6215 28.8508 21.1194 29.0375 21.4138V23.1178C28.8865 23.3058 28.8012 23.8412 28.7167 24.0961C28.1239 25.8861 26.6836 27.3971 24.8586 27.9329C24.5585 28.021 24.3819 28.1087 24.0589 28.1104L20.8384 24.7699C20.3653 24.2795 19.8917 23.7893 19.4191 23.2984C19.3423 23.2186 19.1431 23.0339 19.1406 22.933C19.2532 22.7464 19.9509 22.3931 20.209 22.1499C21.4088 21.019 21.6596 20.0929 21.6427 18.4696C22.0198 18.5319 22.423 18.6704 22.8042 18.7123C22.7443 17.8714 22.5316 17.0804 22.089 16.3525C22.011 16.2219 21.6672 15.8093 21.7311 15.6672C21.847 15.4093 22.432 15.0117 22.6623 14.8543C23.729 16.1466 24.1032 17.4566 24.2003 19.0978C24.3925 19.1198 25.2164 19.3406 25.4592 19.3975C25.5771 18.5142 25.3441 17.4946 25.0768 16.6572C24.8655 15.9952 24.7428 15.7152 24.4032 15.1233C23.9379 14.3124 23.5179 13.75 22.8264 13.1134C23.055 12.8104 23.4134 12.3381 23.7236 12.1445Z" fill="#319A50"/>
<path d="M16.1406 26.8823C16.6549 26.9443 17.1824 27.0296 17.7044 27.0022C18.1794 26.9773 18.6851 26.8535 19.1583 26.8684C19.1892 26.9911 19.3069 27.4239 19.3176 27.5274C19.2743 27.5027 19.2545 27.466 19.2249 27.4247L19.2251 27.4421C19.1439 27.342 19.2061 27.2323 19.0411 27.0578C18.8411 26.9766 18.5363 27.0454 18.3304 27.0429C17.8967 27.0377 16.4192 27.1351 16.1406 26.8823Z" fill="#319A50"/>
</g>
<defs>
<clipPath id="clip0_1200_2919">
<rect width="23" height="23" fill="white" transform="translate(6.03906 6)"/>
</clipPath>
</defs>
</svg>
