<svg width="37" height="36" viewBox="0 0 37 36" fill="none" xmlns="http://www.w3.org/2000/svg">
<path d="M15.0807 0.208324C21.4082 -0.767691 27.7719 1.7312 31.7444 6.75175C35.7172 11.7723 36.6859 18.5402 34.2812 24.4736C31.8764 30.4068 26.4692 34.5908 20.1222 35.4288C10.4559 36.7053 1.56319 29.9638 0.181693 20.3121C-1.19981 10.6603 5.4447 1.69475 15.0807 0.208324Z" fill="#E2F0D3"/>
<line x1="12.7969" y1="8.40625" x2="12.7969" y2="30.5791" stroke="#319A50" stroke-width="2"/>
<g clip-path="url(#clip0_1200_2929)">
<path d="M21.8953 22.8332C21.636 22.8635 20.9595 23.053 20.6907 23.1224L18.3715 23.7219C17.594 23.9222 16.8627 24.1587 16.0794 23.8156C15.5333 23.5811 15.1045 23.1368 14.8896 22.5827C14.5663 21.7549 14.8237 21.0867 15.0484 20.282L15.582 18.3732L16.1875 16.193C16.312 15.7456 16.4212 15.2799 16.6 14.8515C17.2267 13.35 19.3749 13.0793 20.3549 14.3789C20.5243 14.6036 20.7104 14.9735 20.8108 15.2349C22.7516 14.8137 24.712 14.201 26.6257 13.7611C27.7991 13.4914 27.7666 14.8706 27.3496 15.0249C25.3429 15.7674 22.7053 16.2029 20.6779 16.8691C20.5583 16.9084 19.3011 21.6014 19.2498 21.9117L19.215 21.947L19.2366 21.9776C19.3243 21.9904 19.3881 21.9507 19.4724 21.9411C19.6157 21.9248 19.7381 21.9494 19.8877 21.9186C20.3835 21.8162 22.6498 21.1266 22.9647 21.2174C23.1474 21.27 23.3038 21.518 23.471 21.6121C23.521 21.9435 23.3818 23.0696 23.3419 23.464L22.989 27.019C22.9323 27.5908 22.8106 28.5473 22.8154 29.1003C23.1909 28.958 23.6682 28.8513 24.0419 28.7957C24.6987 28.6981 25.1207 29.2209 24.869 29.82C24.8295 29.9139 24.741 30.0334 24.7225 30.1317L21.8216 30.8784C21.7806 30.8356 21.4435 30.6004 21.3623 30.5386C21.2937 30.3748 21.2413 30.2065 21.2438 30.0282C21.2512 29.4943 21.328 28.9108 21.3811 28.3768L21.7265 24.8782C21.7837 24.3086 21.9078 23.3827 21.8953 22.8332Z" fill="#319A50"/>
<path d="M18.0673 6.10866L19.5698 5.72192C19.7385 5.7871 20.0654 5.82929 20.2516 5.86332C20.7379 5.95456 21.2357 6.1876 21.6184 6.50275C23.7829 8.28525 22.8257 11.8617 19.9767 12.1602C19.1343 12.246 18.2919 11.9975 17.6309 11.4682C16.9699 10.9364 16.5513 10.1606 16.4698 9.31614C16.3721 8.35749 16.6711 7.41683 17.3662 6.73886C17.5698 6.54026 17.9028 6.31034 18.0673 6.10866Z" fill="#319A50"/>
<path d="M23.4733 21.6156C23.3061 21.5214 23.1497 21.2735 22.967 21.2208C22.6521 21.13 20.3858 21.8197 19.89 21.922C19.7404 21.9529 19.618 21.9282 19.4747 21.9445C19.3904 21.9541 19.3267 21.9938 19.2389 21.9811L19.2173 21.9504L19.2521 21.9152C19.4356 21.9434 19.73 21.8213 19.9127 21.7714C20.5063 21.6093 22.4167 21.042 22.92 21.1129C23.1066 21.1392 23.2199 21.2141 23.3318 21.3654C23.3898 21.4437 23.434 21.5266 23.4733 21.6156Z" fill="#319A50"/>
</g>
<defs>
<clipPath id="clip0_1200_2929">
<rect width="24.9253" height="24.9253" fill="white" transform="translate(6 9.21484) rotate(-14.4346)"/>
</clipPath>
</defs>
</svg>
