<svg width="36" height="36" viewBox="0 0 36 36" fill="none" xmlns="http://www.w3.org/2000/svg">
<path d="M17.3777 0.00495118C27.2237 -0.225049 35.384 7.58695 35.583 17.4337C35.7822 27.2804 27.9447 35.4159 18.0972 35.5842C8.29346 35.7517 0.201961 27.9564 0.00371097 18.1532C-0.194539 8.34995 7.57521 0.233951 17.3777 0.00495118Z" fill="#E2F0D3"/>
<path d="M22.7602 8H13.2693L13.2559 8.01215C13.0926 8.15783 12.8332 8.26503 12.6462 8.44963C12.2412 8.84949 11.8387 9.2565 11.437 9.65913L9.10178 11.9947C8.76324 12.3329 8.40566 12.6416 8.15293 13.0491C8.10488 13.1269 8.06797 13.1684 8 13.2286V22.7257C8.0498 22.7741 8.07871 22.8162 8.11543 22.875C8.24082 23.0752 8.37012 23.2597 8.53686 23.4272L11.1684 26.055C11.682 26.5687 12.1934 27.0859 12.7144 27.5928C12.9165 27.7893 13.1323 27.8729 13.2723 28H22.7183C22.8896 27.8424 23.1687 27.7266 23.3869 27.5099C23.8201 27.0799 24.251 26.6456 24.6821 26.214L27.2213 23.6796C27.4603 23.4416 27.6804 23.2124 27.8692 22.9319C27.9191 22.8577 27.9286 22.7888 28 22.738V13.2439C27.966 13.2126 27.9441 13.1722 27.9178 13.1346C27.7698 12.9226 27.6183 12.7094 27.4367 12.5246L25.0752 10.1645L23.9297 9.01756C23.6624 8.75 23.3927 8.44964 23.0827 8.23229C22.9748 8.15662 22.8645 8.08028 22.7602 8ZM18.7951 17.3596L19.0553 17.3435C19.2188 17.1961 19.2414 17.144 19.2469 16.8972C19.2552 16.5252 19.25 16.1432 19.2496 15.7705L19.248 13.6501C19.2477 13.1635 19.2087 12.6245 19.3196 12.1536C19.3898 11.8555 19.6666 11.7817 19.9403 11.7976C20.1 11.8057 20.2493 11.8793 20.3529 12.0012C20.5714 12.2558 20.5 13.3154 20.4995 13.7008L20.499 16.9505L20.4996 17.9372C20.4997 18.0635 20.467 18.6099 20.5826 18.6462C20.7586 18.3709 20.9417 18.1131 21.1345 17.8489C21.3648 17.5332 21.5665 17.1213 21.9902 17.0379C22.2109 16.9946 22.4884 17.0202 22.679 17.1489C22.8362 17.2562 22.9433 17.4225 22.9759 17.61C22.9942 17.7102 22.9887 17.847 22.9557 17.9419C22.7911 18.4151 22.5635 18.8997 22.3667 19.3614L21.6882 20.9531C21.4178 21.5859 21.103 22.3345 20.7059 22.8961C20.2266 23.5801 19.4912 24.0413 18.6668 24.175C18.0523 24.2788 16.508 24.2811 15.89 24.1972C14.6533 23.9458 13.6526 22.9796 13.6306 21.6804C13.623 21.2333 13.6237 20.7885 13.6238 20.3413L13.6244 17.5779L13.6237 15.4508C13.6233 15.015 13.6004 14.5616 13.6657 14.129C13.7226 13.7526 14.0468 13.6136 14.3972 13.685C15.0194 13.8118 14.8758 14.6718 14.8747 15.1746L14.8718 16.882C14.8715 17.2813 14.8074 17.6476 15.0451 17.9846L15.3072 17.9676C15.4667 17.8213 15.4963 17.7532 15.4993 17.5126C15.5042 17.111 15.4986 16.7021 15.4985 16.3001L15.4984 13.8233C15.4985 13.5283 15.4927 13.2222 15.499 12.9323C15.5096 12.4406 15.4503 11.7551 16.1468 11.7953C16.8763 11.8374 16.7392 12.5672 16.749 13.0791C16.7507 13.2209 16.7485 13.3623 16.7485 13.5016L16.7491 16.047C16.7481 16.3665 16.7328 16.7476 16.7669 17.0651C16.7765 17.1539 16.8669 17.2839 16.9201 17.3596L17.1803 17.3435C17.3409 17.199 17.3688 17.1369 17.373 16.8993C17.3809 16.4501 17.3727 15.9926 17.3729 15.5428L17.3733 12.6923C17.3733 12.1939 17.3572 11.6784 17.3912 11.1829C17.423 10.7203 17.6136 10.5201 18.0891 10.5471L18.0973 10.5476C18.4265 10.6199 18.6099 10.8162 18.6197 11.1641C18.6337 11.6578 18.6218 12.1551 18.6227 12.6497L18.6243 15.8161C18.6233 16.2137 18.6064 16.6707 18.6421 17.0656C18.6498 17.1511 18.7432 17.2858 18.7951 17.3596Z" fill="#319A50"/>
</svg>
