<svg width="23" height="23" viewBox="0 0 23 23" fill="none" xmlns="http://www.w3.org/2000/svg">
<g clip-path="url(#clip0_1200_2535)">
<path d="M11.3321 0.727082C11.9556 0.671705 13.1078 0.90201 13.673 1.13182C14.3815 1.41989 15.0266 1.80762 15.5695 2.34753C15.7237 2.50082 15.8936 2.59588 15.9879 2.80714L15.9941 2.82109C16.0252 2.89005 16.0341 2.93461 16.0157 3.01089C15.9298 3.36604 15.8242 3.72661 15.7234 4.07749L15.1819 5.95954L14.4938 8.36223C14.3623 8.8229 14.2285 9.33681 14.0748 9.78706C13.7412 9.65858 13.4156 9.41221 13.029 9.26716C11.8918 8.84047 10.7058 8.88838 9.61871 9.43523C9.47635 9.50684 9.06082 9.7644 8.94895 9.73515C8.75753 9.68511 8.76003 8.98572 8.57437 8.75078C8.25288 8.61265 7.69091 9.6682 7.38407 9.39404C7.23682 9.26246 6.65377 8.81599 6.64245 8.6358C6.68059 8.28656 7.31613 7.91034 7.54799 7.70801C7.86678 7.42985 8.21804 7.48183 8.09896 7.01174C8.04997 6.82312 7.92307 6.16481 7.7943 6.08325C7.6273 6.10946 7.28342 6.34861 7.12945 6.44804C6.04311 7.14911 5.1495 8.11089 4.53005 9.24575C4.36285 9.55353 4.03773 10.3559 3.92174 10.6868C3.55524 10.5918 3.05016 10.4965 2.72583 10.3129C2.58745 10.2345 2.8647 9.64053 2.9119 9.52027C3.52191 7.96622 4.59521 6.63377 5.91027 5.61501C6.35446 5.27093 6.91677 5.06081 7.3409 4.69317C7.45437 4.28182 6.99071 3.38329 6.9775 2.9884C6.96562 2.63368 7.37275 2.40078 7.58222 2.20571C8.65305 1.20838 9.89844 0.831894 11.3321 0.727082Z" fill="#319A50"/>
<path d="M11.3187 10.3066C12.842 10.2086 14.1559 11.3654 14.2517 12.8889C14.3475 14.4125 13.1889 15.7247 11.6652 15.8183C10.1446 15.9118 8.83553 14.756 8.73991 13.2355C8.64432 11.715 9.79827 10.4043 11.3187 10.3066Z" fill="#319A50"/>
<path d="M5.43624 10.2773C5.81974 10.3913 6.35072 10.5965 6.67557 10.8269C6.56351 11.1558 6.43153 11.5116 6.35043 11.8465C6.28219 12.1282 6.29409 12.395 6.1868 12.6757C6.63361 12.6405 6.9741 12.5269 7.39836 12.4778C7.36364 13.7242 7.53731 14.8347 8.45387 15.7574C8.72044 16.0257 8.9408 16.2769 9.26312 16.4923C9.42569 16.601 9.88618 16.7721 9.89126 16.9642C9.7801 17.2416 9.23353 17.5274 9.24679 17.7834C9.32448 17.8779 9.50235 17.9362 9.61315 17.9843C10.2445 18.2581 10.8116 18.2822 11.4834 18.3658C11.5127 18.7501 11.5151 19.3487 11.4911 19.7394C10.5225 19.6926 9.6463 19.5315 8.76154 19.1251C8.55043 19.0281 8.362 18.9611 8.1559 18.8431C7.94677 18.9936 7.42161 19.5212 7.2804 19.7304C7.80448 20.1903 8.79582 20.5384 9.47526 20.7379C9.59956 20.7745 10.0195 20.8435 10.0993 20.8801C10.3779 21.133 11.8554 21.0356 12.2891 21.0408C12.495 21.0432 12.7998 20.9745 12.9998 21.0557C13.1648 21.2302 13.1025 21.3398 13.1838 21.44L13.1836 21.4226C13.2131 21.4638 13.233 21.5006 13.2763 21.5252C13.3319 21.625 13.4244 22.2125 13.2233 22.24C12.9438 22.2781 12.5118 22.3192 12.2299 22.342C10.6388 22.4599 9.04399 22.1698 7.59624 21.4994C7.06549 21.2561 6.80272 21.0262 6.21386 20.8177C5.81217 21.1741 5.35909 21.686 4.98116 22.0834C4.62659 22.0631 4.23452 21.9412 3.90407 21.8216C2.22756 21.2147 0.97911 19.8793 0.353176 18.2238C0.264992 17.9906 0.126328 17.2401 0 17.1313V15.3732C0.200746 15.14 0.220364 14.5057 0.386687 14.181C0.744591 14.0741 1.17913 13.9785 1.54573 13.888L3.51758 13.3999C3.77685 13.3359 4.72163 13.1567 4.83752 12.9842C4.92703 12.6475 4.90576 12.1122 4.97779 11.7755C5.08004 11.2977 5.29081 10.7545 5.43624 10.2773Z" fill="#319A50"/>
<path d="M17.6845 6.14453C17.8613 6.27952 18.0351 6.44259 18.1867 6.59869C19.7925 8.25202 20.6969 10.4506 20.7931 12.7484C20.8064 13.067 20.8044 13.3885 20.8019 13.7118C21.3884 13.9266 22.1498 14.032 22.6224 14.2345C22.759 14.6215 22.8118 15.1194 22.9984 15.4138V17.1178C22.8475 17.3058 22.7621 17.8412 22.6777 18.0961C22.0849 19.8861 20.6445 21.3971 18.8195 21.9329C18.5195 22.021 18.3428 22.1087 18.0199 22.1104L14.7994 18.7699C14.3262 18.2795 13.8527 17.7893 13.38 17.2984C13.3032 17.2186 13.104 17.0339 13.1016 16.933C13.2141 16.7464 13.9118 16.3931 14.1699 16.1499C15.3698 15.019 15.6206 14.0929 15.6036 12.4696C15.9807 12.5319 16.3839 12.6704 16.7651 12.7123C16.7053 11.8714 16.4925 11.0804 16.0499 10.3525C15.972 10.2219 15.6281 9.80935 15.692 9.66717C15.8079 9.40927 16.3929 9.01167 16.6232 8.85433C17.69 10.1466 18.0641 11.4566 18.1612 13.0978C18.3534 13.1198 19.1774 13.3406 19.4201 13.3975C19.538 12.5142 19.3051 11.4946 19.0377 10.6572C18.8264 9.99523 18.7037 9.71517 18.3641 9.12326C17.8988 8.31244 17.4789 7.74999 16.7874 7.11341C17.0159 6.81036 17.3743 6.33808 17.6845 6.14453Z" fill="#319A50"/>
<path d="M10.1016 20.8823C10.6159 20.9443 11.1433 21.0296 11.6653 21.0022C12.1403 20.9773 12.646 20.8535 13.1192 20.8684C13.1502 20.9911 13.2678 21.4239 13.2786 21.5274C13.2353 21.5027 13.2154 21.466 13.1858 21.4247L13.1861 21.4421C13.1048 21.342 13.1671 21.2323 13.002 21.0578C12.8021 20.9766 12.4973 21.0454 12.2913 21.0429C11.8576 21.0377 10.3801 21.1351 10.1016 20.8823Z" fill="#319A50"/>
</g>
<defs>
<clipPath id="clip0_1200_2535">
<rect width="23" height="23" fill="white"/>
</clipPath>
</defs>
</svg>
