<svg width="20" height="20" viewBox="0 0 20 20" fill="none" xmlns="http://www.w3.org/2000/svg">
<path d="M14.7602 0H5.26928L5.2559 0.0121468C5.09256 0.157834 4.83318 0.265027 4.64621 0.449627C4.24119 0.849486 3.83865 1.2565 3.43703 1.65913L1.10178 3.99475C0.763242 4.33285 0.405664 4.6416 0.15293 5.04908C0.104883 5.12686 0.0679688 5.16838 0 5.22863V14.7257C0.0498047 14.7741 0.0787104 14.8162 0.115429 14.875C0.24082 15.0752 0.370117 15.2597 0.536855 15.4272L3.1684 18.055C3.68203 18.5687 4.19338 19.0859 4.71441 19.5928C4.91652 19.7893 5.13234 19.8729 5.27227 20H14.7183C14.8896 19.8424 15.1687 19.7266 15.3869 19.5099C15.8201 19.0799 16.251 18.6456 16.6821 18.214L19.2213 15.6796C19.4603 15.4416 19.6804 15.2124 19.8692 14.9319C19.9191 14.8577 19.9286 14.7888 20 14.738V5.24391C19.966 5.21256 19.9441 5.17225 19.9178 5.13459C19.7698 4.92264 19.6183 4.70941 19.4367 4.52463L17.0752 2.16447L15.9297 1.01756C15.6624 0.750004 15.3927 0.449637 15.0827 0.232289C14.9748 0.156619 14.8645 0.0802814 14.7602 0ZM10.7951 9.35959L11.0553 9.3435C11.2188 9.19609 11.2414 9.14398 11.2469 8.89725C11.2552 8.52516 11.25 8.14324 11.2496 7.77053L11.248 5.65014C11.2477 5.16346 11.2087 4.62447 11.3196 4.15357C11.3898 3.85549 11.6666 3.78166 11.9403 3.79758C12.1 3.80566 12.2493 3.87932 12.3529 4.00115C12.5714 4.25576 12.5 5.31545 12.4995 5.70084L12.499 8.95049L12.4996 9.93719C12.4997 10.0635 12.467 10.6099 12.5826 10.6462C12.7586 10.3709 12.9417 10.1131 13.1345 9.84891C13.3648 9.53322 13.5665 9.12125 13.9902 9.03795C14.2109 8.99459 14.4884 9.02021 14.679 9.14895C14.8362 9.25621 14.9433 9.42252 14.9759 9.61002C14.9942 9.71016 14.9887 9.84695 14.9557 9.94187C14.7911 10.4151 14.5635 10.8997 14.3667 11.3614L13.6882 12.9531C13.4178 13.5859 13.103 14.3345 12.7059 14.8961C12.2266 15.5801 11.4912 16.0413 10.6668 16.175C10.0523 16.2788 8.50797 16.2811 7.88998 16.1972C6.65326 15.9458 5.65264 14.9796 5.63059 13.6804C5.62301 13.2333 5.62375 12.7885 5.62379 12.3413L5.62441 9.57793L5.62367 7.45076C5.62326 7.01496 5.60039 6.56162 5.66572 6.12902C5.72258 5.75262 6.04684 5.61363 6.39725 5.68502C7.01943 5.81176 6.87584 6.67176 6.87473 7.17465L6.87184 8.88199C6.87147 9.28131 6.80738 9.64758 7.04506 9.98461L7.30723 9.96756C7.46674 9.82133 7.49633 9.75322 7.4993 9.51262C7.50424 9.11096 7.49859 8.70215 7.49846 8.30006L7.49836 5.82334C7.49848 5.52834 7.49268 5.22221 7.49897 4.93227C7.50961 4.44059 7.45025 3.75506 8.14682 3.79529C8.87633 3.83742 8.73918 4.56717 8.74902 5.07908C8.75074 5.22094 8.7485 5.36229 8.74853 5.5016L8.74914 8.04697C8.74814 8.36652 8.73275 8.74764 8.76691 9.06514C8.77647 9.15389 8.86689 9.28391 8.92012 9.35961L9.18029 9.3435C9.34092 9.19904 9.36879 9.13688 9.37297 8.89928C9.38086 8.45006 9.37272 7.99262 9.37295 7.54279L9.3733 4.69234C9.37334 4.19391 9.35719 3.67842 9.39121 3.18285C9.42297 2.72025 9.61363 2.52014 10.0891 2.54705L10.0973 2.54758C10.4265 2.61988 10.6099 2.81623 10.6197 3.16406C10.6337 3.65781 10.6218 4.1551 10.6227 4.64973L10.6243 7.81609C10.6233 8.21365 10.6064 8.67066 10.6421 9.06561C10.6498 9.15109 10.7432 9.28578 10.7951 9.35959Z" fill="#319A50"/>
</svg>
