<svg width="24" height="24" viewBox="0 0 24 24" fill="none" xmlns="http://www.w3.org/2000/svg">
<g clip-path="url(#clip0_1200_2503)">
<path d="M8.24219 18.6589C8.24596 17.5561 8.37377 16.4468 8.37316 15.3364C8.37227 13.6772 8.39861 12.0163 8.29115 10.3591C8.27814 10.1339 8.19763 8.84298 8.33509 8.7271C8.58498 8.51645 9.39243 8.39223 9.7131 8.25781C9.80298 9.34201 9.56017 10.196 10.529 11.032C10.7507 11.2233 10.9472 11.3215 11.2171 11.4346L11.2566 11.5051C11.3261 11.5542 11.4653 11.5689 11.5576 11.5893L11.5619 11.6125L11.4018 11.6256L11.3892 11.6467C11.5231 11.7268 12.2448 11.7096 12.443 11.675C12.734 11.6242 13.0982 11.4728 13.3441 11.2977C13.3814 11.2711 13.4094 11.182 13.4403 11.1571C13.5364 11.0798 13.6111 11.0681 13.6827 10.9569C13.749 10.8539 13.7369 10.893 13.7111 10.765C14.4321 9.79482 14.1608 9.31135 14.2668 8.26904C14.6457 8.39354 15.4106 8.51424 15.6765 8.77445C15.7779 8.99312 15.6559 10.5354 15.6466 10.836C15.5682 13.3425 15.5261 15.8548 15.7464 18.3549C15.7494 18.4339 15.7623 18.6324 15.6606 18.6567C14.9443 18.8279 14.0758 18.8338 13.3635 18.9931C12.1098 19.2735 11.2192 19.0732 9.98057 18.8894C9.61865 18.8362 9.25638 18.7853 8.8938 18.7367C8.71581 18.7115 8.40592 18.6525 8.24219 18.6589Z" fill="#319A50"/>
<path d="M6.83662 10C6.95331 10.08 6.94188 11.7993 6.94612 12.0566C6.96759 13.0692 6.97375 14.082 6.96459 15.0947C6.9621 15.3007 6.98397 16.473 6.86432 16.5838C5.85449 17.5189 4.65609 18.2957 3.51576 19.0664C3.05999 19.3744 2.41181 19.2613 1.99371 18.9408C1.79873 18.7607 1.68533 18.6171 1.60441 18.366C1.24326 17.2455 2.16785 16.8072 2.84599 16.2668C3.20022 15.9864 3.53617 15.6837 3.85181 15.3604C4.48713 14.6979 5.21324 13.7949 5.55991 12.9525C5.83991 12.2722 6.08406 11.5521 6.36939 10.8704C6.50751 10.5404 6.6828 10.3106 6.83662 10Z" fill="#319A50"/>
<path d="M17.1177 9.99609C17.176 10.0255 17.1967 10.1164 17.241 10.1862C17.8247 11.1052 18.0725 12.2374 18.5356 13.2074C19.1107 14.3537 20.0244 15.3366 20.998 16.1586C21.5988 16.6659 22.4795 17.0205 22.4492 17.9526C22.4364 18.3452 22.2848 18.6484 22.0011 18.9182C21.9736 18.9428 21.9457 18.9668 21.9172 18.9903C21.5058 19.3281 20.8592 19.3145 20.4224 19.0313C19.6614 18.5378 18.905 18.005 18.179 17.4612C17.825 17.196 17.3383 16.8575 17.0685 16.5213C17.0069 16.0362 17.01 15.4812 17.0049 14.9885C16.9937 13.9239 16.9988 12.851 17.0525 11.7878C17.0788 11.2686 17.0243 10.4865 17.1177 9.99609Z" fill="#319A50"/>
<path d="M11.2884 8.0951C11.834 8.07263 12.2899 8.08233 12.8335 8.10021C12.7996 8.55326 12.8697 9.00823 12.8092 9.45905C12.7736 9.72387 12.6731 9.85669 12.4895 10.033C12.1722 10.3077 11.5691 10.1975 11.3358 9.87788C11.0783 9.525 11.0848 8.5879 11.1412 8.15553C11.1845 8.09965 11.2023 8.1128 11.2884 8.0951Z" fill="#319A50"/>
<path d="M11.2188 11.4352C12.1393 11.7829 13.0664 11.473 13.7127 10.7656C13.7386 10.8936 13.7506 10.8545 13.6844 10.9575C13.6127 11.0687 13.538 11.0804 13.442 11.1577C13.411 11.1826 13.383 11.2718 13.3458 11.2983C13.0998 11.4734 12.7356 11.6248 12.4446 11.6756C12.2465 11.7102 11.5247 11.7275 11.3908 11.6473L11.4034 11.6262L11.5635 11.6131L11.5592 11.5899C11.467 11.5696 11.3277 11.5548 11.2582 11.5057L11.2188 11.4352Z" fill="#319A50"/>
<path d="M5.9536 24.0003C5.81951 23.8705 5.51539 23.7402 5.34608 23.6352C4.7765 23.2814 4.45489 22.6594 4.4247 21.9984C4.39583 21.4468 4.58914 20.9066 4.96144 20.4985C5.82483 19.5608 6.83548 19.837 7.94335 19.9996L10.2546 20.3394L12.2117 20.6246C12.6134 20.6822 13.0439 20.728 13.4379 20.8269C14.1289 21.0004 14.6096 21.6026 14.6317 22.3123C14.6456 22.7596 14.5089 23.1533 14.2131 23.4835C14.0119 23.7186 13.638 23.8794 13.521 24.0003H5.9536Z" fill="#319A50"/>
<path d="M11.3107 0H12.6266C12.7222 0.0759773 12.944 0.17611 13.0614 0.226732C13.4391 0.389484 13.7645 0.648352 14.0232 0.966998C14.6354 1.70458 14.6171 2.52487 14.6248 3.41529C14.6351 4.59045 14.5691 5.52637 13.5668 6.31446C13.0373 6.72577 12.3656 6.90877 11.7007 6.82282C11 6.7429 10.3613 6.38311 9.92975 5.82518C9.29506 5.01373 9.40266 4.37817 9.37297 3.42907C9.33462 2.20319 9.45985 1.12161 10.5885 0.402354C10.8007 0.267101 11.1066 0.159488 11.3022 0.00677416L11.3107 0Z" fill="#319A50"/>
<path d="M15.1172 20.1149C15.5491 20.0763 15.9797 20.0238 16.4083 19.9574C17.3076 19.8272 18.05 19.669 18.8193 20.3116C19.2331 20.6539 19.4914 21.1486 19.5359 21.6838C19.6232 22.6789 19.1397 23.4202 18.2858 23.8537C18.2101 23.8922 18.0905 23.9475 18.033 24.0018H15.646L15.6504 23.9824C15.7066 23.7468 15.8721 23.4388 15.9401 23.1909C16.1565 22.4022 16.0203 21.4918 15.5897 20.7975C15.4933 20.6422 15.233 20.2471 15.1172 20.1149Z" fill="#319A50"/>
</g>
<defs>
<clipPath id="clip0_1200_2503">
<rect width="24" height="24" fill="white"/>
</clipPath>
</defs>
</svg>
